G04 #@! TF.GenerationSoftware,KiCad,Pcbnew,5.1.5+dfsg1-2build2*
G04 #@! TF.CreationDate,2022-03-04T19:21:09-05:00*
G04 #@! TF.ProjectId,,58585858-5858-4585-9858-585858585858,rev?*
G04 #@! TF.SameCoordinates,Original*
G04 #@! TF.FileFunction,Soldermask,Top*
G04 #@! TF.FilePolarity,Negative*
%FSLAX46Y46*%
G04 Gerber Fmt 4.6, Leading zero omitted, Abs format (unit mm)*
G04 Created by KiCad (PCBNEW 5.1.5+dfsg1-2build2) date 2022-03-04 19:21:09*
%MOMM*%
%LPD*%
G04 APERTURE LIST*
%ADD10C,0.100000*%
G04 APERTURE END LIST*
D10*
G36*
X90013416Y-139958959D02*
G01*
X90204592Y-140038147D01*
X90204594Y-140038148D01*
X90376648Y-140153111D01*
X90522969Y-140299432D01*
X90637933Y-140471488D01*
X90717121Y-140662664D01*
X90757490Y-140865614D01*
X90757490Y-141072546D01*
X90717121Y-141275496D01*
X90637933Y-141466672D01*
X90637932Y-141466674D01*
X90522969Y-141638728D01*
X90376648Y-141785049D01*
X90204594Y-141900012D01*
X90204593Y-141900013D01*
X90204592Y-141900013D01*
X90013416Y-141979201D01*
X89810466Y-142019570D01*
X89603534Y-142019570D01*
X89400584Y-141979201D01*
X89209408Y-141900013D01*
X89209407Y-141900013D01*
X89209406Y-141900012D01*
X89037352Y-141785049D01*
X88891031Y-141638728D01*
X88776068Y-141466674D01*
X88776067Y-141466672D01*
X88696879Y-141275496D01*
X88656510Y-141072546D01*
X88656510Y-140865614D01*
X88696879Y-140662664D01*
X88776067Y-140471488D01*
X88891031Y-140299432D01*
X89037352Y-140153111D01*
X89209406Y-140038148D01*
X89209408Y-140038147D01*
X89400584Y-139958959D01*
X89603534Y-139918590D01*
X89810466Y-139918590D01*
X90013416Y-139958959D01*
G37*
G36*
X135513416Y-139958959D02*
G01*
X135704592Y-140038147D01*
X135704594Y-140038148D01*
X135876648Y-140153111D01*
X136022969Y-140299432D01*
X136137933Y-140471488D01*
X136217121Y-140662664D01*
X136257490Y-140865614D01*
X136257490Y-141072546D01*
X136217121Y-141275496D01*
X136137933Y-141466672D01*
X136137932Y-141466674D01*
X136022969Y-141638728D01*
X135876648Y-141785049D01*
X135704594Y-141900012D01*
X135704593Y-141900013D01*
X135704592Y-141900013D01*
X135513416Y-141979201D01*
X135310466Y-142019570D01*
X135103534Y-142019570D01*
X134900584Y-141979201D01*
X134709408Y-141900013D01*
X134709407Y-141900013D01*
X134709406Y-141900012D01*
X134537352Y-141785049D01*
X134391031Y-141638728D01*
X134276068Y-141466674D01*
X134276067Y-141466672D01*
X134196879Y-141275496D01*
X134156510Y-141072546D01*
X134156510Y-140865614D01*
X134196879Y-140662664D01*
X134276067Y-140471488D01*
X134391031Y-140299432D01*
X134537352Y-140153111D01*
X134709406Y-140038148D01*
X134709408Y-140038147D01*
X134900584Y-139958959D01*
X135103534Y-139918590D01*
X135310466Y-139918590D01*
X135513416Y-139958959D01*
G37*
G36*
X90013416Y-113458959D02*
G01*
X90204592Y-113538147D01*
X90204594Y-113538148D01*
X90376648Y-113653111D01*
X90522969Y-113799432D01*
X90637933Y-113971488D01*
X90717121Y-114162664D01*
X90757490Y-114365614D01*
X90757490Y-114572546D01*
X90717121Y-114775496D01*
X90637933Y-114966672D01*
X90637932Y-114966674D01*
X90522969Y-115138728D01*
X90376648Y-115285049D01*
X90204594Y-115400012D01*
X90204593Y-115400013D01*
X90204592Y-115400013D01*
X90013416Y-115479201D01*
X89810466Y-115519570D01*
X89603534Y-115519570D01*
X89400584Y-115479201D01*
X89209408Y-115400013D01*
X89209407Y-115400013D01*
X89209406Y-115400012D01*
X89037352Y-115285049D01*
X88891031Y-115138728D01*
X88776068Y-114966674D01*
X88776067Y-114966672D01*
X88696879Y-114775496D01*
X88656510Y-114572546D01*
X88656510Y-114365614D01*
X88696879Y-114162664D01*
X88776067Y-113971488D01*
X88891031Y-113799432D01*
X89037352Y-113653111D01*
X89209406Y-113538148D01*
X89209408Y-113538147D01*
X89400584Y-113458959D01*
X89603534Y-113418590D01*
X89810466Y-113418590D01*
X90013416Y-113458959D01*
G37*
G36*
X135513416Y-113458959D02*
G01*
X135704592Y-113538147D01*
X135704594Y-113538148D01*
X135876648Y-113653111D01*
X136022969Y-113799432D01*
X136137933Y-113971488D01*
X136217121Y-114162664D01*
X136257490Y-114365614D01*
X136257490Y-114572546D01*
X136217121Y-114775496D01*
X136137933Y-114966672D01*
X136137932Y-114966674D01*
X136022969Y-115138728D01*
X135876648Y-115285049D01*
X135704594Y-115400012D01*
X135704593Y-115400013D01*
X135704592Y-115400013D01*
X135513416Y-115479201D01*
X135310466Y-115519570D01*
X135103534Y-115519570D01*
X134900584Y-115479201D01*
X134709408Y-115400013D01*
X134709407Y-115400013D01*
X134709406Y-115400012D01*
X134537352Y-115285049D01*
X134391031Y-115138728D01*
X134276068Y-114966674D01*
X134276067Y-114966672D01*
X134196879Y-114775496D01*
X134156510Y-114572546D01*
X134156510Y-114365614D01*
X134196879Y-114162664D01*
X134276067Y-113971488D01*
X134391031Y-113799432D01*
X134537352Y-113653111D01*
X134709406Y-113538148D01*
X134709408Y-113538147D01*
X134900584Y-113458959D01*
X135103534Y-113418590D01*
X135310466Y-113418590D01*
X135513416Y-113458959D01*
G37*
G36*
X135513416Y-107958959D02*
G01*
X135704592Y-108038147D01*
X135704594Y-108038148D01*
X135876648Y-108153111D01*
X136022969Y-108299432D01*
X136137933Y-108471488D01*
X136217121Y-108662664D01*
X136257490Y-108865614D01*
X136257490Y-109072546D01*
X136217121Y-109275496D01*
X136137933Y-109466672D01*
X136137932Y-109466674D01*
X136022969Y-109638728D01*
X135876648Y-109785049D01*
X135704594Y-109900012D01*
X135704593Y-109900013D01*
X135704592Y-109900013D01*
X135513416Y-109979201D01*
X135310466Y-110019570D01*
X135103534Y-110019570D01*
X134900584Y-109979201D01*
X134709408Y-109900013D01*
X134709407Y-109900013D01*
X134709406Y-109900012D01*
X134537352Y-109785049D01*
X134391031Y-109638728D01*
X134276068Y-109466674D01*
X134276067Y-109466672D01*
X134196879Y-109275496D01*
X134156510Y-109072546D01*
X134156510Y-108865614D01*
X134196879Y-108662664D01*
X134276067Y-108471488D01*
X134391031Y-108299432D01*
X134537352Y-108153111D01*
X134709406Y-108038148D01*
X134709408Y-108038147D01*
X134900584Y-107958959D01*
X135103534Y-107918590D01*
X135310466Y-107918590D01*
X135513416Y-107958959D01*
G37*
G36*
X90013416Y-107958959D02*
G01*
X90204592Y-108038147D01*
X90204594Y-108038148D01*
X90376648Y-108153111D01*
X90522969Y-108299432D01*
X90637933Y-108471488D01*
X90717121Y-108662664D01*
X90757490Y-108865614D01*
X90757490Y-109072546D01*
X90717121Y-109275496D01*
X90637933Y-109466672D01*
X90637932Y-109466674D01*
X90522969Y-109638728D01*
X90376648Y-109785049D01*
X90204594Y-109900012D01*
X90204593Y-109900013D01*
X90204592Y-109900013D01*
X90013416Y-109979201D01*
X89810466Y-110019570D01*
X89603534Y-110019570D01*
X89400584Y-109979201D01*
X89209408Y-109900013D01*
X89209407Y-109900013D01*
X89209406Y-109900012D01*
X89037352Y-109785049D01*
X88891031Y-109638728D01*
X88776068Y-109466674D01*
X88776067Y-109466672D01*
X88696879Y-109275496D01*
X88656510Y-109072546D01*
X88656510Y-108865614D01*
X88696879Y-108662664D01*
X88776067Y-108471488D01*
X88891031Y-108299432D01*
X89037352Y-108153111D01*
X89209406Y-108038148D01*
X89209408Y-108038147D01*
X89400584Y-107958959D01*
X89603534Y-107918590D01*
X89810466Y-107918590D01*
X90013416Y-107958959D01*
G37*
G36*
X90013416Y-81458959D02*
G01*
X90204592Y-81538147D01*
X90204594Y-81538148D01*
X90376648Y-81653111D01*
X90522969Y-81799432D01*
X90637933Y-81971488D01*
X90717121Y-82162664D01*
X90757490Y-82365614D01*
X90757490Y-82572546D01*
X90717121Y-82775496D01*
X90637933Y-82966672D01*
X90637932Y-82966674D01*
X90522969Y-83138728D01*
X90376648Y-83285049D01*
X90204594Y-83400012D01*
X90204593Y-83400013D01*
X90204592Y-83400013D01*
X90013416Y-83479201D01*
X89810466Y-83519570D01*
X89603534Y-83519570D01*
X89400584Y-83479201D01*
X89209408Y-83400013D01*
X89209407Y-83400013D01*
X89209406Y-83400012D01*
X89037352Y-83285049D01*
X88891031Y-83138728D01*
X88776068Y-82966674D01*
X88776067Y-82966672D01*
X88696879Y-82775496D01*
X88656510Y-82572546D01*
X88656510Y-82365614D01*
X88696879Y-82162664D01*
X88776067Y-81971488D01*
X88891031Y-81799432D01*
X89037352Y-81653111D01*
X89209406Y-81538148D01*
X89209408Y-81538147D01*
X89400584Y-81458959D01*
X89603534Y-81418590D01*
X89810466Y-81418590D01*
X90013416Y-81458959D01*
G37*
G36*
X135513416Y-81458959D02*
G01*
X135704592Y-81538147D01*
X135704594Y-81538148D01*
X135876648Y-81653111D01*
X136022969Y-81799432D01*
X136137933Y-81971488D01*
X136217121Y-82162664D01*
X136257490Y-82365614D01*
X136257490Y-82572546D01*
X136217121Y-82775496D01*
X136137933Y-82966672D01*
X136137932Y-82966674D01*
X136022969Y-83138728D01*
X135876648Y-83285049D01*
X135704594Y-83400012D01*
X135704593Y-83400013D01*
X135704592Y-83400013D01*
X135513416Y-83479201D01*
X135310466Y-83519570D01*
X135103534Y-83519570D01*
X134900584Y-83479201D01*
X134709408Y-83400013D01*
X134709407Y-83400013D01*
X134709406Y-83400012D01*
X134537352Y-83285049D01*
X134391031Y-83138728D01*
X134276068Y-82966674D01*
X134276067Y-82966672D01*
X134196879Y-82775496D01*
X134156510Y-82572546D01*
X134156510Y-82365614D01*
X134196879Y-82162664D01*
X134276067Y-81971488D01*
X134391031Y-81799432D01*
X134537352Y-81653111D01*
X134709406Y-81538148D01*
X134709408Y-81538147D01*
X134900584Y-81458959D01*
X135103534Y-81418590D01*
X135310466Y-81418590D01*
X135513416Y-81458959D01*
G37*
G36*
X90013416Y-75958959D02*
G01*
X90204592Y-76038147D01*
X90204594Y-76038148D01*
X90376648Y-76153111D01*
X90522969Y-76299432D01*
X90637933Y-76471488D01*
X90717121Y-76662664D01*
X90757490Y-76865614D01*
X90757490Y-77072546D01*
X90717121Y-77275496D01*
X90637933Y-77466672D01*
X90637932Y-77466674D01*
X90522969Y-77638728D01*
X90376648Y-77785049D01*
X90204594Y-77900012D01*
X90204593Y-77900013D01*
X90204592Y-77900013D01*
X90013416Y-77979201D01*
X89810466Y-78019570D01*
X89603534Y-78019570D01*
X89400584Y-77979201D01*
X89209408Y-77900013D01*
X89209407Y-77900013D01*
X89209406Y-77900012D01*
X89037352Y-77785049D01*
X88891031Y-77638728D01*
X88776068Y-77466674D01*
X88776067Y-77466672D01*
X88696879Y-77275496D01*
X88656510Y-77072546D01*
X88656510Y-76865614D01*
X88696879Y-76662664D01*
X88776067Y-76471488D01*
X88891031Y-76299432D01*
X89037352Y-76153111D01*
X89209406Y-76038148D01*
X89209408Y-76038147D01*
X89400584Y-75958959D01*
X89603534Y-75918590D01*
X89810466Y-75918590D01*
X90013416Y-75958959D01*
G37*
G36*
X135513416Y-75958959D02*
G01*
X135704592Y-76038147D01*
X135704594Y-76038148D01*
X135876648Y-76153111D01*
X136022969Y-76299432D01*
X136137933Y-76471488D01*
X136217121Y-76662664D01*
X136257490Y-76865614D01*
X136257490Y-77072546D01*
X136217121Y-77275496D01*
X136137933Y-77466672D01*
X136137932Y-77466674D01*
X136022969Y-77638728D01*
X135876648Y-77785049D01*
X135704594Y-77900012D01*
X135704593Y-77900013D01*
X135704592Y-77900013D01*
X135513416Y-77979201D01*
X135310466Y-78019570D01*
X135103534Y-78019570D01*
X134900584Y-77979201D01*
X134709408Y-77900013D01*
X134709407Y-77900013D01*
X134709406Y-77900012D01*
X134537352Y-77785049D01*
X134391031Y-77638728D01*
X134276068Y-77466674D01*
X134276067Y-77466672D01*
X134196879Y-77275496D01*
X134156510Y-77072546D01*
X134156510Y-76865614D01*
X134196879Y-76662664D01*
X134276067Y-76471488D01*
X134391031Y-76299432D01*
X134537352Y-76153111D01*
X134709406Y-76038148D01*
X134709408Y-76038147D01*
X134900584Y-75958959D01*
X135103534Y-75918590D01*
X135310466Y-75918590D01*
X135513416Y-75958959D01*
G37*
G36*
X90013416Y-49458959D02*
G01*
X90204592Y-49538147D01*
X90204594Y-49538148D01*
X90376648Y-49653111D01*
X90522969Y-49799432D01*
X90637933Y-49971488D01*
X90717121Y-50162664D01*
X90757490Y-50365614D01*
X90757490Y-50572546D01*
X90717121Y-50775496D01*
X90637933Y-50966672D01*
X90637932Y-50966674D01*
X90522969Y-51138728D01*
X90376648Y-51285049D01*
X90204594Y-51400012D01*
X90204593Y-51400013D01*
X90204592Y-51400013D01*
X90013416Y-51479201D01*
X89810466Y-51519570D01*
X89603534Y-51519570D01*
X89400584Y-51479201D01*
X89209408Y-51400013D01*
X89209407Y-51400013D01*
X89209406Y-51400012D01*
X89037352Y-51285049D01*
X88891031Y-51138728D01*
X88776068Y-50966674D01*
X88776067Y-50966672D01*
X88696879Y-50775496D01*
X88656510Y-50572546D01*
X88656510Y-50365614D01*
X88696879Y-50162664D01*
X88776067Y-49971488D01*
X88891031Y-49799432D01*
X89037352Y-49653111D01*
X89209406Y-49538148D01*
X89209408Y-49538147D01*
X89400584Y-49458959D01*
X89603534Y-49418590D01*
X89810466Y-49418590D01*
X90013416Y-49458959D01*
G37*
G36*
X135513416Y-49458959D02*
G01*
X135704592Y-49538147D01*
X135704594Y-49538148D01*
X135876648Y-49653111D01*
X136022969Y-49799432D01*
X136137933Y-49971488D01*
X136217121Y-50162664D01*
X136257490Y-50365614D01*
X136257490Y-50572546D01*
X136217121Y-50775496D01*
X136137933Y-50966672D01*
X136137932Y-50966674D01*
X136022969Y-51138728D01*
X135876648Y-51285049D01*
X135704594Y-51400012D01*
X135704593Y-51400013D01*
X135704592Y-51400013D01*
X135513416Y-51479201D01*
X135310466Y-51519570D01*
X135103534Y-51519570D01*
X134900584Y-51479201D01*
X134709408Y-51400013D01*
X134709407Y-51400013D01*
X134709406Y-51400012D01*
X134537352Y-51285049D01*
X134391031Y-51138728D01*
X134276068Y-50966674D01*
X134276067Y-50966672D01*
X134196879Y-50775496D01*
X134156510Y-50572546D01*
X134156510Y-50365614D01*
X134196879Y-50162664D01*
X134276067Y-49971488D01*
X134391031Y-49799432D01*
X134537352Y-49653111D01*
X134709406Y-49538148D01*
X134709408Y-49538147D01*
X134900584Y-49458959D01*
X135103534Y-49418590D01*
X135310466Y-49418590D01*
X135513416Y-49458959D01*
G37*
M02*
