G04 #@! TF.GenerationSoftware,KiCad,Pcbnew,5.1.5+dfsg1-2build2*
G04 #@! TF.CreationDate,2022-03-05T21:40:51-05:00*
G04 #@! TF.ProjectId,N_FLANGE_4_HOLES,4e5f464c-414e-4474-955f-345f484f4c45,rev?*
G04 #@! TF.SameCoordinates,Original*
G04 #@! TF.FileFunction,Copper,L2,Bot*
G04 #@! TF.FilePolarity,Positive*
%FSLAX46Y46*%
G04 Gerber Fmt 4.6, Leading zero omitted, Abs format (unit mm)*
G04 Created by KiCad (PCBNEW 5.1.5+dfsg1-2build2) date 2022-03-05 21:40:51*
%MOMM*%
%LPD*%
G04 APERTURE LIST*
%ADD10C,0.050000*%
%ADD11C,1.998980*%
%ADD12C,0.254000*%
G04 APERTURE END LIST*
D10*
X50000000Y-77900000D02*
X77900000Y-77900000D01*
X77900000Y-50000000D02*
X77900000Y-77900000D01*
X50000000Y-50000000D02*
X77900000Y-50000000D01*
X50000000Y-50000000D02*
X50000000Y-77900000D01*
D11*
X63950000Y-63950000D03*
X54850000Y-73050000D03*
X73050000Y-73050000D03*
X73050000Y-54850000D03*
X54850000Y-54850000D03*
D12*
G36*
X77240001Y-77240000D02*
G01*
X50660000Y-77240000D01*
X50660000Y-72889017D01*
X53215510Y-72889017D01*
X53215510Y-73210983D01*
X53278322Y-73526763D01*
X53401533Y-73824222D01*
X53580408Y-74091927D01*
X53808073Y-74319592D01*
X54075778Y-74498467D01*
X54373237Y-74621678D01*
X54689017Y-74684490D01*
X55010983Y-74684490D01*
X55326763Y-74621678D01*
X55624222Y-74498467D01*
X55891927Y-74319592D01*
X56119592Y-74091927D01*
X56298467Y-73824222D01*
X56421678Y-73526763D01*
X56484490Y-73210983D01*
X56484490Y-72889017D01*
X71415510Y-72889017D01*
X71415510Y-73210983D01*
X71478322Y-73526763D01*
X71601533Y-73824222D01*
X71780408Y-74091927D01*
X72008073Y-74319592D01*
X72275778Y-74498467D01*
X72573237Y-74621678D01*
X72889017Y-74684490D01*
X73210983Y-74684490D01*
X73526763Y-74621678D01*
X73824222Y-74498467D01*
X74091927Y-74319592D01*
X74319592Y-74091927D01*
X74498467Y-73824222D01*
X74621678Y-73526763D01*
X74684490Y-73210983D01*
X74684490Y-72889017D01*
X74621678Y-72573237D01*
X74498467Y-72275778D01*
X74319592Y-72008073D01*
X74091927Y-71780408D01*
X73824222Y-71601533D01*
X73526763Y-71478322D01*
X73210983Y-71415510D01*
X72889017Y-71415510D01*
X72573237Y-71478322D01*
X72275778Y-71601533D01*
X72008073Y-71780408D01*
X71780408Y-72008073D01*
X71601533Y-72275778D01*
X71478322Y-72573237D01*
X71415510Y-72889017D01*
X56484490Y-72889017D01*
X56421678Y-72573237D01*
X56298467Y-72275778D01*
X56119592Y-72008073D01*
X55891927Y-71780408D01*
X55624222Y-71601533D01*
X55326763Y-71478322D01*
X55010983Y-71415510D01*
X54689017Y-71415510D01*
X54373237Y-71478322D01*
X54075778Y-71601533D01*
X53808073Y-71780408D01*
X53580408Y-72008073D01*
X53401533Y-72275778D01*
X53278322Y-72573237D01*
X53215510Y-72889017D01*
X50660000Y-72889017D01*
X50660000Y-63789017D01*
X62315510Y-63789017D01*
X62315510Y-64110983D01*
X62378322Y-64426763D01*
X62501533Y-64724222D01*
X62680408Y-64991927D01*
X62908073Y-65219592D01*
X63175778Y-65398467D01*
X63473237Y-65521678D01*
X63789017Y-65584490D01*
X64110983Y-65584490D01*
X64426763Y-65521678D01*
X64724222Y-65398467D01*
X64991927Y-65219592D01*
X65219592Y-64991927D01*
X65398467Y-64724222D01*
X65521678Y-64426763D01*
X65584490Y-64110983D01*
X65584490Y-63789017D01*
X65521678Y-63473237D01*
X65398467Y-63175778D01*
X65219592Y-62908073D01*
X64991927Y-62680408D01*
X64724222Y-62501533D01*
X64426763Y-62378322D01*
X64110983Y-62315510D01*
X63789017Y-62315510D01*
X63473237Y-62378322D01*
X63175778Y-62501533D01*
X62908073Y-62680408D01*
X62680408Y-62908073D01*
X62501533Y-63175778D01*
X62378322Y-63473237D01*
X62315510Y-63789017D01*
X50660000Y-63789017D01*
X50660000Y-54689017D01*
X53215510Y-54689017D01*
X53215510Y-55010983D01*
X53278322Y-55326763D01*
X53401533Y-55624222D01*
X53580408Y-55891927D01*
X53808073Y-56119592D01*
X54075778Y-56298467D01*
X54373237Y-56421678D01*
X54689017Y-56484490D01*
X55010983Y-56484490D01*
X55326763Y-56421678D01*
X55624222Y-56298467D01*
X55891927Y-56119592D01*
X56119592Y-55891927D01*
X56298467Y-55624222D01*
X56421678Y-55326763D01*
X56484490Y-55010983D01*
X56484490Y-54689017D01*
X71415510Y-54689017D01*
X71415510Y-55010983D01*
X71478322Y-55326763D01*
X71601533Y-55624222D01*
X71780408Y-55891927D01*
X72008073Y-56119592D01*
X72275778Y-56298467D01*
X72573237Y-56421678D01*
X72889017Y-56484490D01*
X73210983Y-56484490D01*
X73526763Y-56421678D01*
X73824222Y-56298467D01*
X74091927Y-56119592D01*
X74319592Y-55891927D01*
X74498467Y-55624222D01*
X74621678Y-55326763D01*
X74684490Y-55010983D01*
X74684490Y-54689017D01*
X74621678Y-54373237D01*
X74498467Y-54075778D01*
X74319592Y-53808073D01*
X74091927Y-53580408D01*
X73824222Y-53401533D01*
X73526763Y-53278322D01*
X73210983Y-53215510D01*
X72889017Y-53215510D01*
X72573237Y-53278322D01*
X72275778Y-53401533D01*
X72008073Y-53580408D01*
X71780408Y-53808073D01*
X71601533Y-54075778D01*
X71478322Y-54373237D01*
X71415510Y-54689017D01*
X56484490Y-54689017D01*
X56421678Y-54373237D01*
X56298467Y-54075778D01*
X56119592Y-53808073D01*
X55891927Y-53580408D01*
X55624222Y-53401533D01*
X55326763Y-53278322D01*
X55010983Y-53215510D01*
X54689017Y-53215510D01*
X54373237Y-53278322D01*
X54075778Y-53401533D01*
X53808073Y-53580408D01*
X53580408Y-53808073D01*
X53401533Y-54075778D01*
X53278322Y-54373237D01*
X53215510Y-54689017D01*
X50660000Y-54689017D01*
X50660000Y-50660000D01*
X77240000Y-50660000D01*
X77240001Y-77240000D01*
G37*
X77240001Y-77240000D02*
X50660000Y-77240000D01*
X50660000Y-72889017D01*
X53215510Y-72889017D01*
X53215510Y-73210983D01*
X53278322Y-73526763D01*
X53401533Y-73824222D01*
X53580408Y-74091927D01*
X53808073Y-74319592D01*
X54075778Y-74498467D01*
X54373237Y-74621678D01*
X54689017Y-74684490D01*
X55010983Y-74684490D01*
X55326763Y-74621678D01*
X55624222Y-74498467D01*
X55891927Y-74319592D01*
X56119592Y-74091927D01*
X56298467Y-73824222D01*
X56421678Y-73526763D01*
X56484490Y-73210983D01*
X56484490Y-72889017D01*
X71415510Y-72889017D01*
X71415510Y-73210983D01*
X71478322Y-73526763D01*
X71601533Y-73824222D01*
X71780408Y-74091927D01*
X72008073Y-74319592D01*
X72275778Y-74498467D01*
X72573237Y-74621678D01*
X72889017Y-74684490D01*
X73210983Y-74684490D01*
X73526763Y-74621678D01*
X73824222Y-74498467D01*
X74091927Y-74319592D01*
X74319592Y-74091927D01*
X74498467Y-73824222D01*
X74621678Y-73526763D01*
X74684490Y-73210983D01*
X74684490Y-72889017D01*
X74621678Y-72573237D01*
X74498467Y-72275778D01*
X74319592Y-72008073D01*
X74091927Y-71780408D01*
X73824222Y-71601533D01*
X73526763Y-71478322D01*
X73210983Y-71415510D01*
X72889017Y-71415510D01*
X72573237Y-71478322D01*
X72275778Y-71601533D01*
X72008073Y-71780408D01*
X71780408Y-72008073D01*
X71601533Y-72275778D01*
X71478322Y-72573237D01*
X71415510Y-72889017D01*
X56484490Y-72889017D01*
X56421678Y-72573237D01*
X56298467Y-72275778D01*
X56119592Y-72008073D01*
X55891927Y-71780408D01*
X55624222Y-71601533D01*
X55326763Y-71478322D01*
X55010983Y-71415510D01*
X54689017Y-71415510D01*
X54373237Y-71478322D01*
X54075778Y-71601533D01*
X53808073Y-71780408D01*
X53580408Y-72008073D01*
X53401533Y-72275778D01*
X53278322Y-72573237D01*
X53215510Y-72889017D01*
X50660000Y-72889017D01*
X50660000Y-63789017D01*
X62315510Y-63789017D01*
X62315510Y-64110983D01*
X62378322Y-64426763D01*
X62501533Y-64724222D01*
X62680408Y-64991927D01*
X62908073Y-65219592D01*
X63175778Y-65398467D01*
X63473237Y-65521678D01*
X63789017Y-65584490D01*
X64110983Y-65584490D01*
X64426763Y-65521678D01*
X64724222Y-65398467D01*
X64991927Y-65219592D01*
X65219592Y-64991927D01*
X65398467Y-64724222D01*
X65521678Y-64426763D01*
X65584490Y-64110983D01*
X65584490Y-63789017D01*
X65521678Y-63473237D01*
X65398467Y-63175778D01*
X65219592Y-62908073D01*
X64991927Y-62680408D01*
X64724222Y-62501533D01*
X64426763Y-62378322D01*
X64110983Y-62315510D01*
X63789017Y-62315510D01*
X63473237Y-62378322D01*
X63175778Y-62501533D01*
X62908073Y-62680408D01*
X62680408Y-62908073D01*
X62501533Y-63175778D01*
X62378322Y-63473237D01*
X62315510Y-63789017D01*
X50660000Y-63789017D01*
X50660000Y-54689017D01*
X53215510Y-54689017D01*
X53215510Y-55010983D01*
X53278322Y-55326763D01*
X53401533Y-55624222D01*
X53580408Y-55891927D01*
X53808073Y-56119592D01*
X54075778Y-56298467D01*
X54373237Y-56421678D01*
X54689017Y-56484490D01*
X55010983Y-56484490D01*
X55326763Y-56421678D01*
X55624222Y-56298467D01*
X55891927Y-56119592D01*
X56119592Y-55891927D01*
X56298467Y-55624222D01*
X56421678Y-55326763D01*
X56484490Y-55010983D01*
X56484490Y-54689017D01*
X71415510Y-54689017D01*
X71415510Y-55010983D01*
X71478322Y-55326763D01*
X71601533Y-55624222D01*
X71780408Y-55891927D01*
X72008073Y-56119592D01*
X72275778Y-56298467D01*
X72573237Y-56421678D01*
X72889017Y-56484490D01*
X73210983Y-56484490D01*
X73526763Y-56421678D01*
X73824222Y-56298467D01*
X74091927Y-56119592D01*
X74319592Y-55891927D01*
X74498467Y-55624222D01*
X74621678Y-55326763D01*
X74684490Y-55010983D01*
X74684490Y-54689017D01*
X74621678Y-54373237D01*
X74498467Y-54075778D01*
X74319592Y-53808073D01*
X74091927Y-53580408D01*
X73824222Y-53401533D01*
X73526763Y-53278322D01*
X73210983Y-53215510D01*
X72889017Y-53215510D01*
X72573237Y-53278322D01*
X72275778Y-53401533D01*
X72008073Y-53580408D01*
X71780408Y-53808073D01*
X71601533Y-54075778D01*
X71478322Y-54373237D01*
X71415510Y-54689017D01*
X56484490Y-54689017D01*
X56421678Y-54373237D01*
X56298467Y-54075778D01*
X56119592Y-53808073D01*
X55891927Y-53580408D01*
X55624222Y-53401533D01*
X55326763Y-53278322D01*
X55010983Y-53215510D01*
X54689017Y-53215510D01*
X54373237Y-53278322D01*
X54075778Y-53401533D01*
X53808073Y-53580408D01*
X53580408Y-53808073D01*
X53401533Y-54075778D01*
X53278322Y-54373237D01*
X53215510Y-54689017D01*
X50660000Y-54689017D01*
X50660000Y-50660000D01*
X77240000Y-50660000D01*
X77240001Y-77240000D01*
M02*
