G04 #@! TF.GenerationSoftware,KiCad,Pcbnew,5.1.5+dfsg1-2build2*
G04 #@! TF.CreationDate,2022-03-05T21:40:51-05:00*
G04 #@! TF.ProjectId,N_FLANGE_4_HOLES,4e5f464c-414e-4474-955f-345f484f4c45,rev?*
G04 #@! TF.SameCoordinates,Original*
G04 #@! TF.FileFunction,Soldermask,Bot*
G04 #@! TF.FilePolarity,Negative*
%FSLAX46Y46*%
G04 Gerber Fmt 4.6, Leading zero omitted, Abs format (unit mm)*
G04 Created by KiCad (PCBNEW 5.1.5+dfsg1-2build2) date 2022-03-05 21:40:51*
%MOMM*%
%LPD*%
G04 APERTURE LIST*
%ADD10C,0.050000*%
%ADD11C,0.100000*%
G04 APERTURE END LIST*
D10*
X50000000Y-77900000D02*
X77900000Y-77900000D01*
X77900000Y-50000000D02*
X77900000Y-77900000D01*
X50000000Y-50000000D02*
X77900000Y-50000000D01*
X50000000Y-50000000D02*
X50000000Y-77900000D01*
D11*
G36*
X73356416Y-72039879D02*
G01*
X73547592Y-72119067D01*
X73547594Y-72119068D01*
X73719648Y-72234031D01*
X73865969Y-72380352D01*
X73980933Y-72552408D01*
X74060121Y-72743584D01*
X74100490Y-72946534D01*
X74100490Y-73153466D01*
X74060121Y-73356416D01*
X73980933Y-73547592D01*
X73980932Y-73547594D01*
X73865969Y-73719648D01*
X73719648Y-73865969D01*
X73547594Y-73980932D01*
X73547593Y-73980933D01*
X73547592Y-73980933D01*
X73356416Y-74060121D01*
X73153466Y-74100490D01*
X72946534Y-74100490D01*
X72743584Y-74060121D01*
X72552408Y-73980933D01*
X72552407Y-73980933D01*
X72552406Y-73980932D01*
X72380352Y-73865969D01*
X72234031Y-73719648D01*
X72119068Y-73547594D01*
X72119067Y-73547592D01*
X72039879Y-73356416D01*
X71999510Y-73153466D01*
X71999510Y-72946534D01*
X72039879Y-72743584D01*
X72119067Y-72552408D01*
X72234031Y-72380352D01*
X72380352Y-72234031D01*
X72552406Y-72119068D01*
X72552408Y-72119067D01*
X72743584Y-72039879D01*
X72946534Y-71999510D01*
X73153466Y-71999510D01*
X73356416Y-72039879D01*
G37*
G36*
X55156416Y-72039879D02*
G01*
X55347592Y-72119067D01*
X55347594Y-72119068D01*
X55519648Y-72234031D01*
X55665969Y-72380352D01*
X55780933Y-72552408D01*
X55860121Y-72743584D01*
X55900490Y-72946534D01*
X55900490Y-73153466D01*
X55860121Y-73356416D01*
X55780933Y-73547592D01*
X55780932Y-73547594D01*
X55665969Y-73719648D01*
X55519648Y-73865969D01*
X55347594Y-73980932D01*
X55347593Y-73980933D01*
X55347592Y-73980933D01*
X55156416Y-74060121D01*
X54953466Y-74100490D01*
X54746534Y-74100490D01*
X54543584Y-74060121D01*
X54352408Y-73980933D01*
X54352407Y-73980933D01*
X54352406Y-73980932D01*
X54180352Y-73865969D01*
X54034031Y-73719648D01*
X53919068Y-73547594D01*
X53919067Y-73547592D01*
X53839879Y-73356416D01*
X53799510Y-73153466D01*
X53799510Y-72946534D01*
X53839879Y-72743584D01*
X53919067Y-72552408D01*
X54034031Y-72380352D01*
X54180352Y-72234031D01*
X54352406Y-72119068D01*
X54352408Y-72119067D01*
X54543584Y-72039879D01*
X54746534Y-71999510D01*
X54953466Y-71999510D01*
X55156416Y-72039879D01*
G37*
G36*
X64256416Y-62939879D02*
G01*
X64447592Y-63019067D01*
X64447594Y-63019068D01*
X64619648Y-63134031D01*
X64765969Y-63280352D01*
X64880933Y-63452408D01*
X64960121Y-63643584D01*
X65000490Y-63846534D01*
X65000490Y-64053466D01*
X64960121Y-64256416D01*
X64880933Y-64447592D01*
X64880932Y-64447594D01*
X64765969Y-64619648D01*
X64619648Y-64765969D01*
X64447594Y-64880932D01*
X64447593Y-64880933D01*
X64447592Y-64880933D01*
X64256416Y-64960121D01*
X64053466Y-65000490D01*
X63846534Y-65000490D01*
X63643584Y-64960121D01*
X63452408Y-64880933D01*
X63452407Y-64880933D01*
X63452406Y-64880932D01*
X63280352Y-64765969D01*
X63134031Y-64619648D01*
X63019068Y-64447594D01*
X63019067Y-64447592D01*
X62939879Y-64256416D01*
X62899510Y-64053466D01*
X62899510Y-63846534D01*
X62939879Y-63643584D01*
X63019067Y-63452408D01*
X63134031Y-63280352D01*
X63280352Y-63134031D01*
X63452406Y-63019068D01*
X63452408Y-63019067D01*
X63643584Y-62939879D01*
X63846534Y-62899510D01*
X64053466Y-62899510D01*
X64256416Y-62939879D01*
G37*
G36*
X73356416Y-53839879D02*
G01*
X73547592Y-53919067D01*
X73547594Y-53919068D01*
X73719648Y-54034031D01*
X73865969Y-54180352D01*
X73980933Y-54352408D01*
X74060121Y-54543584D01*
X74100490Y-54746534D01*
X74100490Y-54953466D01*
X74060121Y-55156416D01*
X73980933Y-55347592D01*
X73980932Y-55347594D01*
X73865969Y-55519648D01*
X73719648Y-55665969D01*
X73547594Y-55780932D01*
X73547593Y-55780933D01*
X73547592Y-55780933D01*
X73356416Y-55860121D01*
X73153466Y-55900490D01*
X72946534Y-55900490D01*
X72743584Y-55860121D01*
X72552408Y-55780933D01*
X72552407Y-55780933D01*
X72552406Y-55780932D01*
X72380352Y-55665969D01*
X72234031Y-55519648D01*
X72119068Y-55347594D01*
X72119067Y-55347592D01*
X72039879Y-55156416D01*
X71999510Y-54953466D01*
X71999510Y-54746534D01*
X72039879Y-54543584D01*
X72119067Y-54352408D01*
X72234031Y-54180352D01*
X72380352Y-54034031D01*
X72552406Y-53919068D01*
X72552408Y-53919067D01*
X72743584Y-53839879D01*
X72946534Y-53799510D01*
X73153466Y-53799510D01*
X73356416Y-53839879D01*
G37*
G36*
X55156416Y-53839879D02*
G01*
X55347592Y-53919067D01*
X55347594Y-53919068D01*
X55519648Y-54034031D01*
X55665969Y-54180352D01*
X55780933Y-54352408D01*
X55860121Y-54543584D01*
X55900490Y-54746534D01*
X55900490Y-54953466D01*
X55860121Y-55156416D01*
X55780933Y-55347592D01*
X55780932Y-55347594D01*
X55665969Y-55519648D01*
X55519648Y-55665969D01*
X55347594Y-55780932D01*
X55347593Y-55780933D01*
X55347592Y-55780933D01*
X55156416Y-55860121D01*
X54953466Y-55900490D01*
X54746534Y-55900490D01*
X54543584Y-55860121D01*
X54352408Y-55780933D01*
X54352407Y-55780933D01*
X54352406Y-55780932D01*
X54180352Y-55665969D01*
X54034031Y-55519648D01*
X53919068Y-55347594D01*
X53919067Y-55347592D01*
X53839879Y-55156416D01*
X53799510Y-54953466D01*
X53799510Y-54746534D01*
X53839879Y-54543584D01*
X53919067Y-54352408D01*
X54034031Y-54180352D01*
X54180352Y-54034031D01*
X54352406Y-53919068D01*
X54352408Y-53919067D01*
X54543584Y-53839879D01*
X54746534Y-53799510D01*
X54953466Y-53799510D01*
X55156416Y-53839879D01*
G37*
M02*
