G04 #@! TF.GenerationSoftware,KiCad,Pcbnew,5.1.5+dfsg1-2build2*
G04 #@! TF.CreationDate,2022-03-05T21:40:51-05:00*
G04 #@! TF.ProjectId,N_FLANGE_4_HOLES,4e5f464c-414e-4474-955f-345f484f4c45,rev?*
G04 #@! TF.SameCoordinates,Original*
G04 #@! TF.FileFunction,Legend,Top*
G04 #@! TF.FilePolarity,Positive*
%FSLAX46Y46*%
G04 Gerber Fmt 4.6, Leading zero omitted, Abs format (unit mm)*
G04 Created by KiCad (PCBNEW 5.1.5+dfsg1-2build2) date 2022-03-05 21:40:51*
%MOMM*%
%LPD*%
G04 APERTURE LIST*
%ADD10C,0.150000*%
%ADD11C,0.050000*%
%ADD12C,0.120000*%
G04 APERTURE END LIST*
D10*
X61138115Y-55576460D02*
X61138115Y-54576460D01*
X61709543Y-55576460D01*
X61709543Y-54576460D01*
X61471448Y-56702651D02*
X61138115Y-56702651D01*
X61138115Y-57226460D02*
X61138115Y-56226460D01*
X61614305Y-56226460D01*
X62471448Y-57226460D02*
X61995258Y-57226460D01*
X61995258Y-56226460D01*
X62757162Y-56940746D02*
X63233353Y-56940746D01*
X62661924Y-57226460D02*
X62995258Y-56226460D01*
X63328591Y-57226460D01*
X63661924Y-57226460D02*
X63661924Y-56226460D01*
X64233353Y-57226460D01*
X64233353Y-56226460D01*
X65233353Y-56274080D02*
X65138115Y-56226460D01*
X64995258Y-56226460D01*
X64852400Y-56274080D01*
X64757162Y-56369318D01*
X64709543Y-56464556D01*
X64661924Y-56655032D01*
X64661924Y-56797889D01*
X64709543Y-56988365D01*
X64757162Y-57083603D01*
X64852400Y-57178841D01*
X64995258Y-57226460D01*
X65090496Y-57226460D01*
X65233353Y-57178841D01*
X65280972Y-57131222D01*
X65280972Y-56797889D01*
X65090496Y-56797889D01*
X65709543Y-56702651D02*
X66042877Y-56702651D01*
X66185734Y-57226460D02*
X65709543Y-57226460D01*
X65709543Y-56226460D01*
X66185734Y-56226460D01*
X61566686Y-58209794D02*
X61566686Y-58876460D01*
X61328591Y-57828841D02*
X61090496Y-58543127D01*
X61709543Y-58543127D01*
X62852400Y-58876460D02*
X62852400Y-57876460D01*
X62852400Y-58352651D02*
X63423829Y-58352651D01*
X63423829Y-58876460D02*
X63423829Y-57876460D01*
X64090496Y-57876460D02*
X64280972Y-57876460D01*
X64376210Y-57924080D01*
X64471448Y-58019318D01*
X64519067Y-58209794D01*
X64519067Y-58543127D01*
X64471448Y-58733603D01*
X64376210Y-58828841D01*
X64280972Y-58876460D01*
X64090496Y-58876460D01*
X63995258Y-58828841D01*
X63900020Y-58733603D01*
X63852400Y-58543127D01*
X63852400Y-58209794D01*
X63900020Y-58019318D01*
X63995258Y-57924080D01*
X64090496Y-57876460D01*
X65423829Y-58876460D02*
X64947639Y-58876460D01*
X64947639Y-57876460D01*
X65757162Y-58352651D02*
X66090496Y-58352651D01*
X66233353Y-58876460D02*
X65757162Y-58876460D01*
X65757162Y-57876460D01*
X66233353Y-57876460D01*
X66614305Y-58828841D02*
X66757162Y-58876460D01*
X66995258Y-58876460D01*
X67090496Y-58828841D01*
X67138115Y-58781222D01*
X67185734Y-58685984D01*
X67185734Y-58590746D01*
X67138115Y-58495508D01*
X67090496Y-58447889D01*
X66995258Y-58400270D01*
X66804781Y-58352651D01*
X66709543Y-58305032D01*
X66661924Y-58257413D01*
X66614305Y-58162175D01*
X66614305Y-58066937D01*
X66661924Y-57971699D01*
X66709543Y-57924080D01*
X66804781Y-57876460D01*
X67042877Y-57876460D01*
X67185734Y-57924080D01*
X50888548Y-61555234D02*
X50917120Y-61583805D01*
X50945691Y-61640948D01*
X50945691Y-61783805D01*
X50917120Y-61840948D01*
X50888548Y-61869520D01*
X50831405Y-61898091D01*
X50774262Y-61898091D01*
X50688548Y-61869520D01*
X50345691Y-61526662D01*
X50345691Y-61898091D01*
X50945691Y-62440948D02*
X50945691Y-62155234D01*
X50659977Y-62126662D01*
X50688548Y-62155234D01*
X50717120Y-62212377D01*
X50717120Y-62355234D01*
X50688548Y-62412377D01*
X50659977Y-62440948D01*
X50602834Y-62469520D01*
X50459977Y-62469520D01*
X50402834Y-62440948D01*
X50374262Y-62412377D01*
X50345691Y-62355234D01*
X50345691Y-62212377D01*
X50374262Y-62155234D01*
X50402834Y-62126662D01*
X50402834Y-62726662D02*
X50374262Y-62755234D01*
X50345691Y-62726662D01*
X50374262Y-62698091D01*
X50402834Y-62726662D01*
X50345691Y-62726662D01*
X50745691Y-63269520D02*
X50345691Y-63269520D01*
X50974262Y-63126662D02*
X50545691Y-62983805D01*
X50545691Y-63355234D01*
X50345691Y-64040948D02*
X50745691Y-64040948D01*
X50688548Y-64040948D02*
X50717120Y-64069520D01*
X50745691Y-64126662D01*
X50745691Y-64212377D01*
X50717120Y-64269520D01*
X50659977Y-64298091D01*
X50345691Y-64298091D01*
X50659977Y-64298091D02*
X50717120Y-64326662D01*
X50745691Y-64383805D01*
X50745691Y-64469520D01*
X50717120Y-64526662D01*
X50659977Y-64555234D01*
X50345691Y-64555234D01*
X50345691Y-64840948D02*
X50745691Y-64840948D01*
X50688548Y-64840948D02*
X50717120Y-64869520D01*
X50745691Y-64926662D01*
X50745691Y-65012377D01*
X50717120Y-65069520D01*
X50659977Y-65098091D01*
X50345691Y-65098091D01*
X50659977Y-65098091D02*
X50717120Y-65126662D01*
X50745691Y-65183805D01*
X50745691Y-65269520D01*
X50717120Y-65326662D01*
X50659977Y-65355234D01*
X50345691Y-65355234D01*
X61550154Y-77046171D02*
X61578725Y-77017600D01*
X61635868Y-76989028D01*
X61778725Y-76989028D01*
X61835868Y-77017600D01*
X61864440Y-77046171D01*
X61893011Y-77103314D01*
X61893011Y-77160457D01*
X61864440Y-77246171D01*
X61521582Y-77589028D01*
X61893011Y-77589028D01*
X62435868Y-76989028D02*
X62150154Y-76989028D01*
X62121582Y-77274742D01*
X62150154Y-77246171D01*
X62207297Y-77217600D01*
X62350154Y-77217600D01*
X62407297Y-77246171D01*
X62435868Y-77274742D01*
X62464440Y-77331885D01*
X62464440Y-77474742D01*
X62435868Y-77531885D01*
X62407297Y-77560457D01*
X62350154Y-77589028D01*
X62207297Y-77589028D01*
X62150154Y-77560457D01*
X62121582Y-77531885D01*
X62721582Y-77531885D02*
X62750154Y-77560457D01*
X62721582Y-77589028D01*
X62693011Y-77560457D01*
X62721582Y-77531885D01*
X62721582Y-77589028D01*
X63264440Y-77189028D02*
X63264440Y-77589028D01*
X63121582Y-76960457D02*
X62978725Y-77389028D01*
X63350154Y-77389028D01*
X64035868Y-77589028D02*
X64035868Y-77189028D01*
X64035868Y-77246171D02*
X64064440Y-77217600D01*
X64121582Y-77189028D01*
X64207297Y-77189028D01*
X64264440Y-77217600D01*
X64293011Y-77274742D01*
X64293011Y-77589028D01*
X64293011Y-77274742D02*
X64321582Y-77217600D01*
X64378725Y-77189028D01*
X64464440Y-77189028D01*
X64521582Y-77217600D01*
X64550154Y-77274742D01*
X64550154Y-77589028D01*
X64835868Y-77589028D02*
X64835868Y-77189028D01*
X64835868Y-77246171D02*
X64864440Y-77217600D01*
X64921582Y-77189028D01*
X65007297Y-77189028D01*
X65064440Y-77217600D01*
X65093011Y-77274742D01*
X65093011Y-77589028D01*
X65093011Y-77274742D02*
X65121582Y-77217600D01*
X65178725Y-77189028D01*
X65264440Y-77189028D01*
X65321582Y-77217600D01*
X65350154Y-77274742D01*
X65350154Y-77589028D01*
X54213499Y-61002872D02*
X54213499Y-60431443D01*
X54213499Y-60717158D02*
X55213499Y-60717158D01*
X55070641Y-60621920D01*
X54975403Y-60526681D01*
X54927784Y-60431443D01*
X54784927Y-61574300D02*
X54832546Y-61479062D01*
X54880165Y-61431443D01*
X54975403Y-61383824D01*
X55023022Y-61383824D01*
X55118260Y-61431443D01*
X55165880Y-61479062D01*
X55213499Y-61574300D01*
X55213499Y-61764777D01*
X55165880Y-61860015D01*
X55118260Y-61907634D01*
X55023022Y-61955253D01*
X54975403Y-61955253D01*
X54880165Y-61907634D01*
X54832546Y-61860015D01*
X54784927Y-61764777D01*
X54784927Y-61574300D01*
X54737308Y-61479062D01*
X54689689Y-61431443D01*
X54594451Y-61383824D01*
X54403975Y-61383824D01*
X54308737Y-61431443D01*
X54261118Y-61479062D01*
X54213499Y-61574300D01*
X54213499Y-61764777D01*
X54261118Y-61860015D01*
X54308737Y-61907634D01*
X54403975Y-61955253D01*
X54594451Y-61955253D01*
X54689689Y-61907634D01*
X54737308Y-61860015D01*
X54784927Y-61764777D01*
X54308737Y-62383824D02*
X54261118Y-62431443D01*
X54213499Y-62383824D01*
X54261118Y-62336205D01*
X54308737Y-62383824D01*
X54213499Y-62383824D01*
X55118260Y-62812396D02*
X55165880Y-62860015D01*
X55213499Y-62955253D01*
X55213499Y-63193348D01*
X55165880Y-63288586D01*
X55118260Y-63336205D01*
X55023022Y-63383824D01*
X54927784Y-63383824D01*
X54784927Y-63336205D01*
X54213499Y-62764777D01*
X54213499Y-63383824D01*
X54213499Y-64574300D02*
X54880165Y-64574300D01*
X54784927Y-64574300D02*
X54832546Y-64621920D01*
X54880165Y-64717158D01*
X54880165Y-64860015D01*
X54832546Y-64955253D01*
X54737308Y-65002872D01*
X54213499Y-65002872D01*
X54737308Y-65002872D02*
X54832546Y-65050491D01*
X54880165Y-65145729D01*
X54880165Y-65288586D01*
X54832546Y-65383824D01*
X54737308Y-65431443D01*
X54213499Y-65431443D01*
X54213499Y-65907634D02*
X54880165Y-65907634D01*
X54784927Y-65907634D02*
X54832546Y-65955253D01*
X54880165Y-66050491D01*
X54880165Y-66193348D01*
X54832546Y-66288586D01*
X54737308Y-66336205D01*
X54213499Y-66336205D01*
X54737308Y-66336205D02*
X54832546Y-66383824D01*
X54880165Y-66479062D01*
X54880165Y-66621920D01*
X54832546Y-66717158D01*
X54737308Y-66764777D01*
X54213499Y-66764777D01*
X60759032Y-73594220D02*
X60187603Y-73594220D01*
X60473318Y-73594220D02*
X60473318Y-72594220D01*
X60378080Y-72737078D01*
X60282841Y-72832316D01*
X60187603Y-72879935D01*
X61330460Y-73022792D02*
X61235222Y-72975173D01*
X61187603Y-72927554D01*
X61139984Y-72832316D01*
X61139984Y-72784697D01*
X61187603Y-72689459D01*
X61235222Y-72641840D01*
X61330460Y-72594220D01*
X61520937Y-72594220D01*
X61616175Y-72641840D01*
X61663794Y-72689459D01*
X61711413Y-72784697D01*
X61711413Y-72832316D01*
X61663794Y-72927554D01*
X61616175Y-72975173D01*
X61520937Y-73022792D01*
X61330460Y-73022792D01*
X61235222Y-73070411D01*
X61187603Y-73118030D01*
X61139984Y-73213268D01*
X61139984Y-73403744D01*
X61187603Y-73498982D01*
X61235222Y-73546601D01*
X61330460Y-73594220D01*
X61520937Y-73594220D01*
X61616175Y-73546601D01*
X61663794Y-73498982D01*
X61711413Y-73403744D01*
X61711413Y-73213268D01*
X61663794Y-73118030D01*
X61616175Y-73070411D01*
X61520937Y-73022792D01*
X62139984Y-73498982D02*
X62187603Y-73546601D01*
X62139984Y-73594220D01*
X62092365Y-73546601D01*
X62139984Y-73498982D01*
X62139984Y-73594220D01*
X62568556Y-72689459D02*
X62616175Y-72641840D01*
X62711413Y-72594220D01*
X62949508Y-72594220D01*
X63044746Y-72641840D01*
X63092365Y-72689459D01*
X63139984Y-72784697D01*
X63139984Y-72879935D01*
X63092365Y-73022792D01*
X62520937Y-73594220D01*
X63139984Y-73594220D01*
X64330460Y-73594220D02*
X64330460Y-72927554D01*
X64330460Y-73022792D02*
X64378080Y-72975173D01*
X64473318Y-72927554D01*
X64616175Y-72927554D01*
X64711413Y-72975173D01*
X64759032Y-73070411D01*
X64759032Y-73594220D01*
X64759032Y-73070411D02*
X64806651Y-72975173D01*
X64901889Y-72927554D01*
X65044746Y-72927554D01*
X65139984Y-72975173D01*
X65187603Y-73070411D01*
X65187603Y-73594220D01*
X65663794Y-73594220D02*
X65663794Y-72927554D01*
X65663794Y-73022792D02*
X65711413Y-72975173D01*
X65806651Y-72927554D01*
X65949508Y-72927554D01*
X66044746Y-72975173D01*
X66092365Y-73070411D01*
X66092365Y-73594220D01*
X66092365Y-73070411D02*
X66139984Y-72975173D01*
X66235222Y-72927554D01*
X66378080Y-72927554D01*
X66473318Y-72975173D01*
X66520937Y-73070411D01*
X66520937Y-73594220D01*
D11*
X50000000Y-77900000D02*
X77900000Y-77900000D01*
X77900000Y-50000000D02*
X77900000Y-77900000D01*
D12*
X51250000Y-76650000D02*
X76650000Y-76650000D01*
X76650000Y-51250000D02*
X76650000Y-76650000D01*
X51250000Y-51250000D02*
X76650000Y-51250000D01*
X51250000Y-51250000D02*
X51250000Y-76650000D01*
D11*
X50000000Y-50000000D02*
X77900000Y-50000000D01*
X50000000Y-50000000D02*
X50000000Y-77900000D01*
M02*
