G04 #@! TF.GenerationSoftware,KiCad,Pcbnew,5.1.5+dfsg1-2build2*
G04 #@! TF.CreationDate,2022-03-05T22:13:21-05:00*
G04 #@! TF.ProjectId,,58585858-5858-4585-9858-585858585858,rev?*
G04 #@! TF.SameCoordinates,Original*
G04 #@! TF.FileFunction,Legend,Top*
G04 #@! TF.FilePolarity,Positive*
%FSLAX46Y46*%
G04 Gerber Fmt 4.6, Leading zero omitted, Abs format (unit mm)*
G04 Created by KiCad (PCBNEW 5.1.5+dfsg1-2build2) date 2022-03-05 22:13:21*
%MOMM*%
%LPD*%
G04 APERTURE LIST*
%ADD10C,0.050000*%
%ADD11C,0.150000*%
%ADD12C,0.120000*%
G04 APERTURE END LIST*
D10*
X150427800Y-108121560D02*
X150427800Y-136021560D01*
X122527800Y-108121560D02*
X122527800Y-136021560D01*
X94627800Y-108121560D02*
X94627800Y-136021560D01*
X150427800Y-80221560D02*
X150427800Y-108121560D01*
X122527800Y-80221560D02*
X122527800Y-108121560D01*
X94627800Y-80221560D02*
X94627800Y-108121560D01*
X150427800Y-52321560D02*
X150427800Y-80221560D01*
X122527800Y-52321560D02*
X122527800Y-80221560D01*
X150427800Y-136021560D02*
X178327800Y-136021560D01*
X122527800Y-136021560D02*
X150427800Y-136021560D01*
X94627800Y-136021560D02*
X122527800Y-136021560D01*
X150427800Y-108121560D02*
X178327800Y-108121560D01*
X122527800Y-108121560D02*
X150427800Y-108121560D01*
X94627800Y-108121560D02*
X122527800Y-108121560D01*
X150427800Y-80221560D02*
X178327800Y-80221560D01*
X122527800Y-80221560D02*
X150427800Y-80221560D01*
D11*
X161565915Y-113698020D02*
X161565915Y-112698020D01*
X162137343Y-113698020D01*
X162137343Y-112698020D01*
X161899248Y-114824211D02*
X161565915Y-114824211D01*
X161565915Y-115348020D02*
X161565915Y-114348020D01*
X162042105Y-114348020D01*
X162899248Y-115348020D02*
X162423058Y-115348020D01*
X162423058Y-114348020D01*
X163184962Y-115062306D02*
X163661153Y-115062306D01*
X163089724Y-115348020D02*
X163423058Y-114348020D01*
X163756391Y-115348020D01*
X164089724Y-115348020D02*
X164089724Y-114348020D01*
X164661153Y-115348020D01*
X164661153Y-114348020D01*
X165661153Y-114395640D02*
X165565915Y-114348020D01*
X165423058Y-114348020D01*
X165280200Y-114395640D01*
X165184962Y-114490878D01*
X165137343Y-114586116D01*
X165089724Y-114776592D01*
X165089724Y-114919449D01*
X165137343Y-115109925D01*
X165184962Y-115205163D01*
X165280200Y-115300401D01*
X165423058Y-115348020D01*
X165518296Y-115348020D01*
X165661153Y-115300401D01*
X165708772Y-115252782D01*
X165708772Y-114919449D01*
X165518296Y-114919449D01*
X166137343Y-114824211D02*
X166470677Y-114824211D01*
X166613534Y-115348020D02*
X166137343Y-115348020D01*
X166137343Y-114348020D01*
X166613534Y-114348020D01*
X161994486Y-116331354D02*
X161994486Y-116998020D01*
X161756391Y-115950401D02*
X161518296Y-116664687D01*
X162137343Y-116664687D01*
X163280200Y-116998020D02*
X163280200Y-115998020D01*
X163280200Y-116474211D02*
X163851629Y-116474211D01*
X163851629Y-116998020D02*
X163851629Y-115998020D01*
X164518296Y-115998020D02*
X164708772Y-115998020D01*
X164804010Y-116045640D01*
X164899248Y-116140878D01*
X164946867Y-116331354D01*
X164946867Y-116664687D01*
X164899248Y-116855163D01*
X164804010Y-116950401D01*
X164708772Y-116998020D01*
X164518296Y-116998020D01*
X164423058Y-116950401D01*
X164327820Y-116855163D01*
X164280200Y-116664687D01*
X164280200Y-116331354D01*
X164327820Y-116140878D01*
X164423058Y-116045640D01*
X164518296Y-115998020D01*
X165851629Y-116998020D02*
X165375439Y-116998020D01*
X165375439Y-115998020D01*
X166184962Y-116474211D02*
X166518296Y-116474211D01*
X166661153Y-116998020D02*
X166184962Y-116998020D01*
X166184962Y-115998020D01*
X166661153Y-115998020D01*
X167042105Y-116950401D02*
X167184962Y-116998020D01*
X167423058Y-116998020D01*
X167518296Y-116950401D01*
X167565915Y-116902782D01*
X167613534Y-116807544D01*
X167613534Y-116712306D01*
X167565915Y-116617068D01*
X167518296Y-116569449D01*
X167423058Y-116521830D01*
X167232581Y-116474211D01*
X167137343Y-116426592D01*
X167089724Y-116378973D01*
X167042105Y-116283735D01*
X167042105Y-116188497D01*
X167089724Y-116093259D01*
X167137343Y-116045640D01*
X167232581Y-115998020D01*
X167470677Y-115998020D01*
X167613534Y-116045640D01*
X133665915Y-113698020D02*
X133665915Y-112698020D01*
X134237343Y-113698020D01*
X134237343Y-112698020D01*
X133999248Y-114824211D02*
X133665915Y-114824211D01*
X133665915Y-115348020D02*
X133665915Y-114348020D01*
X134142105Y-114348020D01*
X134999248Y-115348020D02*
X134523058Y-115348020D01*
X134523058Y-114348020D01*
X135284962Y-115062306D02*
X135761153Y-115062306D01*
X135189724Y-115348020D02*
X135523058Y-114348020D01*
X135856391Y-115348020D01*
X136189724Y-115348020D02*
X136189724Y-114348020D01*
X136761153Y-115348020D01*
X136761153Y-114348020D01*
X137761153Y-114395640D02*
X137665915Y-114348020D01*
X137523058Y-114348020D01*
X137380200Y-114395640D01*
X137284962Y-114490878D01*
X137237343Y-114586116D01*
X137189724Y-114776592D01*
X137189724Y-114919449D01*
X137237343Y-115109925D01*
X137284962Y-115205163D01*
X137380200Y-115300401D01*
X137523058Y-115348020D01*
X137618296Y-115348020D01*
X137761153Y-115300401D01*
X137808772Y-115252782D01*
X137808772Y-114919449D01*
X137618296Y-114919449D01*
X138237343Y-114824211D02*
X138570677Y-114824211D01*
X138713534Y-115348020D02*
X138237343Y-115348020D01*
X138237343Y-114348020D01*
X138713534Y-114348020D01*
X134094486Y-116331354D02*
X134094486Y-116998020D01*
X133856391Y-115950401D02*
X133618296Y-116664687D01*
X134237343Y-116664687D01*
X135380200Y-116998020D02*
X135380200Y-115998020D01*
X135380200Y-116474211D02*
X135951629Y-116474211D01*
X135951629Y-116998020D02*
X135951629Y-115998020D01*
X136618296Y-115998020D02*
X136808772Y-115998020D01*
X136904010Y-116045640D01*
X136999248Y-116140878D01*
X137046867Y-116331354D01*
X137046867Y-116664687D01*
X136999248Y-116855163D01*
X136904010Y-116950401D01*
X136808772Y-116998020D01*
X136618296Y-116998020D01*
X136523058Y-116950401D01*
X136427820Y-116855163D01*
X136380200Y-116664687D01*
X136380200Y-116331354D01*
X136427820Y-116140878D01*
X136523058Y-116045640D01*
X136618296Y-115998020D01*
X137951629Y-116998020D02*
X137475439Y-116998020D01*
X137475439Y-115998020D01*
X138284962Y-116474211D02*
X138618296Y-116474211D01*
X138761153Y-116998020D02*
X138284962Y-116998020D01*
X138284962Y-115998020D01*
X138761153Y-115998020D01*
X139142105Y-116950401D02*
X139284962Y-116998020D01*
X139523058Y-116998020D01*
X139618296Y-116950401D01*
X139665915Y-116902782D01*
X139713534Y-116807544D01*
X139713534Y-116712306D01*
X139665915Y-116617068D01*
X139618296Y-116569449D01*
X139523058Y-116521830D01*
X139332581Y-116474211D01*
X139237343Y-116426592D01*
X139189724Y-116378973D01*
X139142105Y-116283735D01*
X139142105Y-116188497D01*
X139189724Y-116093259D01*
X139237343Y-116045640D01*
X139332581Y-115998020D01*
X139570677Y-115998020D01*
X139713534Y-116045640D01*
X105765915Y-113698020D02*
X105765915Y-112698020D01*
X106337343Y-113698020D01*
X106337343Y-112698020D01*
X106099248Y-114824211D02*
X105765915Y-114824211D01*
X105765915Y-115348020D02*
X105765915Y-114348020D01*
X106242105Y-114348020D01*
X107099248Y-115348020D02*
X106623058Y-115348020D01*
X106623058Y-114348020D01*
X107384962Y-115062306D02*
X107861153Y-115062306D01*
X107289724Y-115348020D02*
X107623058Y-114348020D01*
X107956391Y-115348020D01*
X108289724Y-115348020D02*
X108289724Y-114348020D01*
X108861153Y-115348020D01*
X108861153Y-114348020D01*
X109861153Y-114395640D02*
X109765915Y-114348020D01*
X109623058Y-114348020D01*
X109480200Y-114395640D01*
X109384962Y-114490878D01*
X109337343Y-114586116D01*
X109289724Y-114776592D01*
X109289724Y-114919449D01*
X109337343Y-115109925D01*
X109384962Y-115205163D01*
X109480200Y-115300401D01*
X109623058Y-115348020D01*
X109718296Y-115348020D01*
X109861153Y-115300401D01*
X109908772Y-115252782D01*
X109908772Y-114919449D01*
X109718296Y-114919449D01*
X110337343Y-114824211D02*
X110670677Y-114824211D01*
X110813534Y-115348020D02*
X110337343Y-115348020D01*
X110337343Y-114348020D01*
X110813534Y-114348020D01*
X106194486Y-116331354D02*
X106194486Y-116998020D01*
X105956391Y-115950401D02*
X105718296Y-116664687D01*
X106337343Y-116664687D01*
X107480200Y-116998020D02*
X107480200Y-115998020D01*
X107480200Y-116474211D02*
X108051629Y-116474211D01*
X108051629Y-116998020D02*
X108051629Y-115998020D01*
X108718296Y-115998020D02*
X108908772Y-115998020D01*
X109004010Y-116045640D01*
X109099248Y-116140878D01*
X109146867Y-116331354D01*
X109146867Y-116664687D01*
X109099248Y-116855163D01*
X109004010Y-116950401D01*
X108908772Y-116998020D01*
X108718296Y-116998020D01*
X108623058Y-116950401D01*
X108527820Y-116855163D01*
X108480200Y-116664687D01*
X108480200Y-116331354D01*
X108527820Y-116140878D01*
X108623058Y-116045640D01*
X108718296Y-115998020D01*
X110051629Y-116998020D02*
X109575439Y-116998020D01*
X109575439Y-115998020D01*
X110384962Y-116474211D02*
X110718296Y-116474211D01*
X110861153Y-116998020D02*
X110384962Y-116998020D01*
X110384962Y-115998020D01*
X110861153Y-115998020D01*
X111242105Y-116950401D02*
X111384962Y-116998020D01*
X111623058Y-116998020D01*
X111718296Y-116950401D01*
X111765915Y-116902782D01*
X111813534Y-116807544D01*
X111813534Y-116712306D01*
X111765915Y-116617068D01*
X111718296Y-116569449D01*
X111623058Y-116521830D01*
X111432581Y-116474211D01*
X111337343Y-116426592D01*
X111289724Y-116378973D01*
X111242105Y-116283735D01*
X111242105Y-116188497D01*
X111289724Y-116093259D01*
X111337343Y-116045640D01*
X111432581Y-115998020D01*
X111670677Y-115998020D01*
X111813534Y-116045640D01*
X161565915Y-85798020D02*
X161565915Y-84798020D01*
X162137343Y-85798020D01*
X162137343Y-84798020D01*
X161899248Y-86924211D02*
X161565915Y-86924211D01*
X161565915Y-87448020D02*
X161565915Y-86448020D01*
X162042105Y-86448020D01*
X162899248Y-87448020D02*
X162423058Y-87448020D01*
X162423058Y-86448020D01*
X163184962Y-87162306D02*
X163661153Y-87162306D01*
X163089724Y-87448020D02*
X163423058Y-86448020D01*
X163756391Y-87448020D01*
X164089724Y-87448020D02*
X164089724Y-86448020D01*
X164661153Y-87448020D01*
X164661153Y-86448020D01*
X165661153Y-86495640D02*
X165565915Y-86448020D01*
X165423058Y-86448020D01*
X165280200Y-86495640D01*
X165184962Y-86590878D01*
X165137343Y-86686116D01*
X165089724Y-86876592D01*
X165089724Y-87019449D01*
X165137343Y-87209925D01*
X165184962Y-87305163D01*
X165280200Y-87400401D01*
X165423058Y-87448020D01*
X165518296Y-87448020D01*
X165661153Y-87400401D01*
X165708772Y-87352782D01*
X165708772Y-87019449D01*
X165518296Y-87019449D01*
X166137343Y-86924211D02*
X166470677Y-86924211D01*
X166613534Y-87448020D02*
X166137343Y-87448020D01*
X166137343Y-86448020D01*
X166613534Y-86448020D01*
X161994486Y-88431354D02*
X161994486Y-89098020D01*
X161756391Y-88050401D02*
X161518296Y-88764687D01*
X162137343Y-88764687D01*
X163280200Y-89098020D02*
X163280200Y-88098020D01*
X163280200Y-88574211D02*
X163851629Y-88574211D01*
X163851629Y-89098020D02*
X163851629Y-88098020D01*
X164518296Y-88098020D02*
X164708772Y-88098020D01*
X164804010Y-88145640D01*
X164899248Y-88240878D01*
X164946867Y-88431354D01*
X164946867Y-88764687D01*
X164899248Y-88955163D01*
X164804010Y-89050401D01*
X164708772Y-89098020D01*
X164518296Y-89098020D01*
X164423058Y-89050401D01*
X164327820Y-88955163D01*
X164280200Y-88764687D01*
X164280200Y-88431354D01*
X164327820Y-88240878D01*
X164423058Y-88145640D01*
X164518296Y-88098020D01*
X165851629Y-89098020D02*
X165375439Y-89098020D01*
X165375439Y-88098020D01*
X166184962Y-88574211D02*
X166518296Y-88574211D01*
X166661153Y-89098020D02*
X166184962Y-89098020D01*
X166184962Y-88098020D01*
X166661153Y-88098020D01*
X167042105Y-89050401D02*
X167184962Y-89098020D01*
X167423058Y-89098020D01*
X167518296Y-89050401D01*
X167565915Y-89002782D01*
X167613534Y-88907544D01*
X167613534Y-88812306D01*
X167565915Y-88717068D01*
X167518296Y-88669449D01*
X167423058Y-88621830D01*
X167232581Y-88574211D01*
X167137343Y-88526592D01*
X167089724Y-88478973D01*
X167042105Y-88383735D01*
X167042105Y-88288497D01*
X167089724Y-88193259D01*
X167137343Y-88145640D01*
X167232581Y-88098020D01*
X167470677Y-88098020D01*
X167613534Y-88145640D01*
X133665915Y-85798020D02*
X133665915Y-84798020D01*
X134237343Y-85798020D01*
X134237343Y-84798020D01*
X133999248Y-86924211D02*
X133665915Y-86924211D01*
X133665915Y-87448020D02*
X133665915Y-86448020D01*
X134142105Y-86448020D01*
X134999248Y-87448020D02*
X134523058Y-87448020D01*
X134523058Y-86448020D01*
X135284962Y-87162306D02*
X135761153Y-87162306D01*
X135189724Y-87448020D02*
X135523058Y-86448020D01*
X135856391Y-87448020D01*
X136189724Y-87448020D02*
X136189724Y-86448020D01*
X136761153Y-87448020D01*
X136761153Y-86448020D01*
X137761153Y-86495640D02*
X137665915Y-86448020D01*
X137523058Y-86448020D01*
X137380200Y-86495640D01*
X137284962Y-86590878D01*
X137237343Y-86686116D01*
X137189724Y-86876592D01*
X137189724Y-87019449D01*
X137237343Y-87209925D01*
X137284962Y-87305163D01*
X137380200Y-87400401D01*
X137523058Y-87448020D01*
X137618296Y-87448020D01*
X137761153Y-87400401D01*
X137808772Y-87352782D01*
X137808772Y-87019449D01*
X137618296Y-87019449D01*
X138237343Y-86924211D02*
X138570677Y-86924211D01*
X138713534Y-87448020D02*
X138237343Y-87448020D01*
X138237343Y-86448020D01*
X138713534Y-86448020D01*
X134094486Y-88431354D02*
X134094486Y-89098020D01*
X133856391Y-88050401D02*
X133618296Y-88764687D01*
X134237343Y-88764687D01*
X135380200Y-89098020D02*
X135380200Y-88098020D01*
X135380200Y-88574211D02*
X135951629Y-88574211D01*
X135951629Y-89098020D02*
X135951629Y-88098020D01*
X136618296Y-88098020D02*
X136808772Y-88098020D01*
X136904010Y-88145640D01*
X136999248Y-88240878D01*
X137046867Y-88431354D01*
X137046867Y-88764687D01*
X136999248Y-88955163D01*
X136904010Y-89050401D01*
X136808772Y-89098020D01*
X136618296Y-89098020D01*
X136523058Y-89050401D01*
X136427820Y-88955163D01*
X136380200Y-88764687D01*
X136380200Y-88431354D01*
X136427820Y-88240878D01*
X136523058Y-88145640D01*
X136618296Y-88098020D01*
X137951629Y-89098020D02*
X137475439Y-89098020D01*
X137475439Y-88098020D01*
X138284962Y-88574211D02*
X138618296Y-88574211D01*
X138761153Y-89098020D02*
X138284962Y-89098020D01*
X138284962Y-88098020D01*
X138761153Y-88098020D01*
X139142105Y-89050401D02*
X139284962Y-89098020D01*
X139523058Y-89098020D01*
X139618296Y-89050401D01*
X139665915Y-89002782D01*
X139713534Y-88907544D01*
X139713534Y-88812306D01*
X139665915Y-88717068D01*
X139618296Y-88669449D01*
X139523058Y-88621830D01*
X139332581Y-88574211D01*
X139237343Y-88526592D01*
X139189724Y-88478973D01*
X139142105Y-88383735D01*
X139142105Y-88288497D01*
X139189724Y-88193259D01*
X139237343Y-88145640D01*
X139332581Y-88098020D01*
X139570677Y-88098020D01*
X139713534Y-88145640D01*
X105765915Y-85798020D02*
X105765915Y-84798020D01*
X106337343Y-85798020D01*
X106337343Y-84798020D01*
X106099248Y-86924211D02*
X105765915Y-86924211D01*
X105765915Y-87448020D02*
X105765915Y-86448020D01*
X106242105Y-86448020D01*
X107099248Y-87448020D02*
X106623058Y-87448020D01*
X106623058Y-86448020D01*
X107384962Y-87162306D02*
X107861153Y-87162306D01*
X107289724Y-87448020D02*
X107623058Y-86448020D01*
X107956391Y-87448020D01*
X108289724Y-87448020D02*
X108289724Y-86448020D01*
X108861153Y-87448020D01*
X108861153Y-86448020D01*
X109861153Y-86495640D02*
X109765915Y-86448020D01*
X109623058Y-86448020D01*
X109480200Y-86495640D01*
X109384962Y-86590878D01*
X109337343Y-86686116D01*
X109289724Y-86876592D01*
X109289724Y-87019449D01*
X109337343Y-87209925D01*
X109384962Y-87305163D01*
X109480200Y-87400401D01*
X109623058Y-87448020D01*
X109718296Y-87448020D01*
X109861153Y-87400401D01*
X109908772Y-87352782D01*
X109908772Y-87019449D01*
X109718296Y-87019449D01*
X110337343Y-86924211D02*
X110670677Y-86924211D01*
X110813534Y-87448020D02*
X110337343Y-87448020D01*
X110337343Y-86448020D01*
X110813534Y-86448020D01*
X106194486Y-88431354D02*
X106194486Y-89098020D01*
X105956391Y-88050401D02*
X105718296Y-88764687D01*
X106337343Y-88764687D01*
X107480200Y-89098020D02*
X107480200Y-88098020D01*
X107480200Y-88574211D02*
X108051629Y-88574211D01*
X108051629Y-89098020D02*
X108051629Y-88098020D01*
X108718296Y-88098020D02*
X108908772Y-88098020D01*
X109004010Y-88145640D01*
X109099248Y-88240878D01*
X109146867Y-88431354D01*
X109146867Y-88764687D01*
X109099248Y-88955163D01*
X109004010Y-89050401D01*
X108908772Y-89098020D01*
X108718296Y-89098020D01*
X108623058Y-89050401D01*
X108527820Y-88955163D01*
X108480200Y-88764687D01*
X108480200Y-88431354D01*
X108527820Y-88240878D01*
X108623058Y-88145640D01*
X108718296Y-88098020D01*
X110051629Y-89098020D02*
X109575439Y-89098020D01*
X109575439Y-88098020D01*
X110384962Y-88574211D02*
X110718296Y-88574211D01*
X110861153Y-89098020D02*
X110384962Y-89098020D01*
X110384962Y-88098020D01*
X110861153Y-88098020D01*
X111242105Y-89050401D02*
X111384962Y-89098020D01*
X111623058Y-89098020D01*
X111718296Y-89050401D01*
X111765915Y-89002782D01*
X111813534Y-88907544D01*
X111813534Y-88812306D01*
X111765915Y-88717068D01*
X111718296Y-88669449D01*
X111623058Y-88621830D01*
X111432581Y-88574211D01*
X111337343Y-88526592D01*
X111289724Y-88478973D01*
X111242105Y-88383735D01*
X111242105Y-88288497D01*
X111289724Y-88193259D01*
X111337343Y-88145640D01*
X111432581Y-88098020D01*
X111670677Y-88098020D01*
X111813534Y-88145640D01*
X161565915Y-57898020D02*
X161565915Y-56898020D01*
X162137343Y-57898020D01*
X162137343Y-56898020D01*
X161899248Y-59024211D02*
X161565915Y-59024211D01*
X161565915Y-59548020D02*
X161565915Y-58548020D01*
X162042105Y-58548020D01*
X162899248Y-59548020D02*
X162423058Y-59548020D01*
X162423058Y-58548020D01*
X163184962Y-59262306D02*
X163661153Y-59262306D01*
X163089724Y-59548020D02*
X163423058Y-58548020D01*
X163756391Y-59548020D01*
X164089724Y-59548020D02*
X164089724Y-58548020D01*
X164661153Y-59548020D01*
X164661153Y-58548020D01*
X165661153Y-58595640D02*
X165565915Y-58548020D01*
X165423058Y-58548020D01*
X165280200Y-58595640D01*
X165184962Y-58690878D01*
X165137343Y-58786116D01*
X165089724Y-58976592D01*
X165089724Y-59119449D01*
X165137343Y-59309925D01*
X165184962Y-59405163D01*
X165280200Y-59500401D01*
X165423058Y-59548020D01*
X165518296Y-59548020D01*
X165661153Y-59500401D01*
X165708772Y-59452782D01*
X165708772Y-59119449D01*
X165518296Y-59119449D01*
X166137343Y-59024211D02*
X166470677Y-59024211D01*
X166613534Y-59548020D02*
X166137343Y-59548020D01*
X166137343Y-58548020D01*
X166613534Y-58548020D01*
X161994486Y-60531354D02*
X161994486Y-61198020D01*
X161756391Y-60150401D02*
X161518296Y-60864687D01*
X162137343Y-60864687D01*
X163280200Y-61198020D02*
X163280200Y-60198020D01*
X163280200Y-60674211D02*
X163851629Y-60674211D01*
X163851629Y-61198020D02*
X163851629Y-60198020D01*
X164518296Y-60198020D02*
X164708772Y-60198020D01*
X164804010Y-60245640D01*
X164899248Y-60340878D01*
X164946867Y-60531354D01*
X164946867Y-60864687D01*
X164899248Y-61055163D01*
X164804010Y-61150401D01*
X164708772Y-61198020D01*
X164518296Y-61198020D01*
X164423058Y-61150401D01*
X164327820Y-61055163D01*
X164280200Y-60864687D01*
X164280200Y-60531354D01*
X164327820Y-60340878D01*
X164423058Y-60245640D01*
X164518296Y-60198020D01*
X165851629Y-61198020D02*
X165375439Y-61198020D01*
X165375439Y-60198020D01*
X166184962Y-60674211D02*
X166518296Y-60674211D01*
X166661153Y-61198020D02*
X166184962Y-61198020D01*
X166184962Y-60198020D01*
X166661153Y-60198020D01*
X167042105Y-61150401D02*
X167184962Y-61198020D01*
X167423058Y-61198020D01*
X167518296Y-61150401D01*
X167565915Y-61102782D01*
X167613534Y-61007544D01*
X167613534Y-60912306D01*
X167565915Y-60817068D01*
X167518296Y-60769449D01*
X167423058Y-60721830D01*
X167232581Y-60674211D01*
X167137343Y-60626592D01*
X167089724Y-60578973D01*
X167042105Y-60483735D01*
X167042105Y-60388497D01*
X167089724Y-60293259D01*
X167137343Y-60245640D01*
X167232581Y-60198020D01*
X167470677Y-60198020D01*
X167613534Y-60245640D01*
X133665915Y-57898020D02*
X133665915Y-56898020D01*
X134237343Y-57898020D01*
X134237343Y-56898020D01*
X133999248Y-59024211D02*
X133665915Y-59024211D01*
X133665915Y-59548020D02*
X133665915Y-58548020D01*
X134142105Y-58548020D01*
X134999248Y-59548020D02*
X134523058Y-59548020D01*
X134523058Y-58548020D01*
X135284962Y-59262306D02*
X135761153Y-59262306D01*
X135189724Y-59548020D02*
X135523058Y-58548020D01*
X135856391Y-59548020D01*
X136189724Y-59548020D02*
X136189724Y-58548020D01*
X136761153Y-59548020D01*
X136761153Y-58548020D01*
X137761153Y-58595640D02*
X137665915Y-58548020D01*
X137523058Y-58548020D01*
X137380200Y-58595640D01*
X137284962Y-58690878D01*
X137237343Y-58786116D01*
X137189724Y-58976592D01*
X137189724Y-59119449D01*
X137237343Y-59309925D01*
X137284962Y-59405163D01*
X137380200Y-59500401D01*
X137523058Y-59548020D01*
X137618296Y-59548020D01*
X137761153Y-59500401D01*
X137808772Y-59452782D01*
X137808772Y-59119449D01*
X137618296Y-59119449D01*
X138237343Y-59024211D02*
X138570677Y-59024211D01*
X138713534Y-59548020D02*
X138237343Y-59548020D01*
X138237343Y-58548020D01*
X138713534Y-58548020D01*
X134094486Y-60531354D02*
X134094486Y-61198020D01*
X133856391Y-60150401D02*
X133618296Y-60864687D01*
X134237343Y-60864687D01*
X135380200Y-61198020D02*
X135380200Y-60198020D01*
X135380200Y-60674211D02*
X135951629Y-60674211D01*
X135951629Y-61198020D02*
X135951629Y-60198020D01*
X136618296Y-60198020D02*
X136808772Y-60198020D01*
X136904010Y-60245640D01*
X136999248Y-60340878D01*
X137046867Y-60531354D01*
X137046867Y-60864687D01*
X136999248Y-61055163D01*
X136904010Y-61150401D01*
X136808772Y-61198020D01*
X136618296Y-61198020D01*
X136523058Y-61150401D01*
X136427820Y-61055163D01*
X136380200Y-60864687D01*
X136380200Y-60531354D01*
X136427820Y-60340878D01*
X136523058Y-60245640D01*
X136618296Y-60198020D01*
X137951629Y-61198020D02*
X137475439Y-61198020D01*
X137475439Y-60198020D01*
X138284962Y-60674211D02*
X138618296Y-60674211D01*
X138761153Y-61198020D02*
X138284962Y-61198020D01*
X138284962Y-60198020D01*
X138761153Y-60198020D01*
X139142105Y-61150401D02*
X139284962Y-61198020D01*
X139523058Y-61198020D01*
X139618296Y-61150401D01*
X139665915Y-61102782D01*
X139713534Y-61007544D01*
X139713534Y-60912306D01*
X139665915Y-60817068D01*
X139618296Y-60769449D01*
X139523058Y-60721830D01*
X139332581Y-60674211D01*
X139237343Y-60626592D01*
X139189724Y-60578973D01*
X139142105Y-60483735D01*
X139142105Y-60388497D01*
X139189724Y-60293259D01*
X139237343Y-60245640D01*
X139332581Y-60198020D01*
X139570677Y-60198020D01*
X139713534Y-60245640D01*
X161186832Y-131715780D02*
X160615403Y-131715780D01*
X160901118Y-131715780D02*
X160901118Y-130715780D01*
X160805880Y-130858638D01*
X160710641Y-130953876D01*
X160615403Y-131001495D01*
X161758260Y-131144352D02*
X161663022Y-131096733D01*
X161615403Y-131049114D01*
X161567784Y-130953876D01*
X161567784Y-130906257D01*
X161615403Y-130811019D01*
X161663022Y-130763400D01*
X161758260Y-130715780D01*
X161948737Y-130715780D01*
X162043975Y-130763400D01*
X162091594Y-130811019D01*
X162139213Y-130906257D01*
X162139213Y-130953876D01*
X162091594Y-131049114D01*
X162043975Y-131096733D01*
X161948737Y-131144352D01*
X161758260Y-131144352D01*
X161663022Y-131191971D01*
X161615403Y-131239590D01*
X161567784Y-131334828D01*
X161567784Y-131525304D01*
X161615403Y-131620542D01*
X161663022Y-131668161D01*
X161758260Y-131715780D01*
X161948737Y-131715780D01*
X162043975Y-131668161D01*
X162091594Y-131620542D01*
X162139213Y-131525304D01*
X162139213Y-131334828D01*
X162091594Y-131239590D01*
X162043975Y-131191971D01*
X161948737Y-131144352D01*
X162567784Y-131620542D02*
X162615403Y-131668161D01*
X162567784Y-131715780D01*
X162520165Y-131668161D01*
X162567784Y-131620542D01*
X162567784Y-131715780D01*
X162996356Y-130811019D02*
X163043975Y-130763400D01*
X163139213Y-130715780D01*
X163377308Y-130715780D01*
X163472546Y-130763400D01*
X163520165Y-130811019D01*
X163567784Y-130906257D01*
X163567784Y-131001495D01*
X163520165Y-131144352D01*
X162948737Y-131715780D01*
X163567784Y-131715780D01*
X164758260Y-131715780D02*
X164758260Y-131049114D01*
X164758260Y-131144352D02*
X164805880Y-131096733D01*
X164901118Y-131049114D01*
X165043975Y-131049114D01*
X165139213Y-131096733D01*
X165186832Y-131191971D01*
X165186832Y-131715780D01*
X165186832Y-131191971D02*
X165234451Y-131096733D01*
X165329689Y-131049114D01*
X165472546Y-131049114D01*
X165567784Y-131096733D01*
X165615403Y-131191971D01*
X165615403Y-131715780D01*
X166091594Y-131715780D02*
X166091594Y-131049114D01*
X166091594Y-131144352D02*
X166139213Y-131096733D01*
X166234451Y-131049114D01*
X166377308Y-131049114D01*
X166472546Y-131096733D01*
X166520165Y-131191971D01*
X166520165Y-131715780D01*
X166520165Y-131191971D02*
X166567784Y-131096733D01*
X166663022Y-131049114D01*
X166805880Y-131049114D01*
X166901118Y-131096733D01*
X166948737Y-131191971D01*
X166948737Y-131715780D01*
X133286832Y-131715780D02*
X132715403Y-131715780D01*
X133001118Y-131715780D02*
X133001118Y-130715780D01*
X132905880Y-130858638D01*
X132810641Y-130953876D01*
X132715403Y-131001495D01*
X133858260Y-131144352D02*
X133763022Y-131096733D01*
X133715403Y-131049114D01*
X133667784Y-130953876D01*
X133667784Y-130906257D01*
X133715403Y-130811019D01*
X133763022Y-130763400D01*
X133858260Y-130715780D01*
X134048737Y-130715780D01*
X134143975Y-130763400D01*
X134191594Y-130811019D01*
X134239213Y-130906257D01*
X134239213Y-130953876D01*
X134191594Y-131049114D01*
X134143975Y-131096733D01*
X134048737Y-131144352D01*
X133858260Y-131144352D01*
X133763022Y-131191971D01*
X133715403Y-131239590D01*
X133667784Y-131334828D01*
X133667784Y-131525304D01*
X133715403Y-131620542D01*
X133763022Y-131668161D01*
X133858260Y-131715780D01*
X134048737Y-131715780D01*
X134143975Y-131668161D01*
X134191594Y-131620542D01*
X134239213Y-131525304D01*
X134239213Y-131334828D01*
X134191594Y-131239590D01*
X134143975Y-131191971D01*
X134048737Y-131144352D01*
X134667784Y-131620542D02*
X134715403Y-131668161D01*
X134667784Y-131715780D01*
X134620165Y-131668161D01*
X134667784Y-131620542D01*
X134667784Y-131715780D01*
X135096356Y-130811019D02*
X135143975Y-130763400D01*
X135239213Y-130715780D01*
X135477308Y-130715780D01*
X135572546Y-130763400D01*
X135620165Y-130811019D01*
X135667784Y-130906257D01*
X135667784Y-131001495D01*
X135620165Y-131144352D01*
X135048737Y-131715780D01*
X135667784Y-131715780D01*
X136858260Y-131715780D02*
X136858260Y-131049114D01*
X136858260Y-131144352D02*
X136905880Y-131096733D01*
X137001118Y-131049114D01*
X137143975Y-131049114D01*
X137239213Y-131096733D01*
X137286832Y-131191971D01*
X137286832Y-131715780D01*
X137286832Y-131191971D02*
X137334451Y-131096733D01*
X137429689Y-131049114D01*
X137572546Y-131049114D01*
X137667784Y-131096733D01*
X137715403Y-131191971D01*
X137715403Y-131715780D01*
X138191594Y-131715780D02*
X138191594Y-131049114D01*
X138191594Y-131144352D02*
X138239213Y-131096733D01*
X138334451Y-131049114D01*
X138477308Y-131049114D01*
X138572546Y-131096733D01*
X138620165Y-131191971D01*
X138620165Y-131715780D01*
X138620165Y-131191971D02*
X138667784Y-131096733D01*
X138763022Y-131049114D01*
X138905880Y-131049114D01*
X139001118Y-131096733D01*
X139048737Y-131191971D01*
X139048737Y-131715780D01*
X105386832Y-131715780D02*
X104815403Y-131715780D01*
X105101118Y-131715780D02*
X105101118Y-130715780D01*
X105005880Y-130858638D01*
X104910641Y-130953876D01*
X104815403Y-131001495D01*
X105958260Y-131144352D02*
X105863022Y-131096733D01*
X105815403Y-131049114D01*
X105767784Y-130953876D01*
X105767784Y-130906257D01*
X105815403Y-130811019D01*
X105863022Y-130763400D01*
X105958260Y-130715780D01*
X106148737Y-130715780D01*
X106243975Y-130763400D01*
X106291594Y-130811019D01*
X106339213Y-130906257D01*
X106339213Y-130953876D01*
X106291594Y-131049114D01*
X106243975Y-131096733D01*
X106148737Y-131144352D01*
X105958260Y-131144352D01*
X105863022Y-131191971D01*
X105815403Y-131239590D01*
X105767784Y-131334828D01*
X105767784Y-131525304D01*
X105815403Y-131620542D01*
X105863022Y-131668161D01*
X105958260Y-131715780D01*
X106148737Y-131715780D01*
X106243975Y-131668161D01*
X106291594Y-131620542D01*
X106339213Y-131525304D01*
X106339213Y-131334828D01*
X106291594Y-131239590D01*
X106243975Y-131191971D01*
X106148737Y-131144352D01*
X106767784Y-131620542D02*
X106815403Y-131668161D01*
X106767784Y-131715780D01*
X106720165Y-131668161D01*
X106767784Y-131620542D01*
X106767784Y-131715780D01*
X107196356Y-130811019D02*
X107243975Y-130763400D01*
X107339213Y-130715780D01*
X107577308Y-130715780D01*
X107672546Y-130763400D01*
X107720165Y-130811019D01*
X107767784Y-130906257D01*
X107767784Y-131001495D01*
X107720165Y-131144352D01*
X107148737Y-131715780D01*
X107767784Y-131715780D01*
X108958260Y-131715780D02*
X108958260Y-131049114D01*
X108958260Y-131144352D02*
X109005880Y-131096733D01*
X109101118Y-131049114D01*
X109243975Y-131049114D01*
X109339213Y-131096733D01*
X109386832Y-131191971D01*
X109386832Y-131715780D01*
X109386832Y-131191971D02*
X109434451Y-131096733D01*
X109529689Y-131049114D01*
X109672546Y-131049114D01*
X109767784Y-131096733D01*
X109815403Y-131191971D01*
X109815403Y-131715780D01*
X110291594Y-131715780D02*
X110291594Y-131049114D01*
X110291594Y-131144352D02*
X110339213Y-131096733D01*
X110434451Y-131049114D01*
X110577308Y-131049114D01*
X110672546Y-131096733D01*
X110720165Y-131191971D01*
X110720165Y-131715780D01*
X110720165Y-131191971D02*
X110767784Y-131096733D01*
X110863022Y-131049114D01*
X111005880Y-131049114D01*
X111101118Y-131096733D01*
X111148737Y-131191971D01*
X111148737Y-131715780D01*
X161186832Y-103815780D02*
X160615403Y-103815780D01*
X160901118Y-103815780D02*
X160901118Y-102815780D01*
X160805880Y-102958638D01*
X160710641Y-103053876D01*
X160615403Y-103101495D01*
X161758260Y-103244352D02*
X161663022Y-103196733D01*
X161615403Y-103149114D01*
X161567784Y-103053876D01*
X161567784Y-103006257D01*
X161615403Y-102911019D01*
X161663022Y-102863400D01*
X161758260Y-102815780D01*
X161948737Y-102815780D01*
X162043975Y-102863400D01*
X162091594Y-102911019D01*
X162139213Y-103006257D01*
X162139213Y-103053876D01*
X162091594Y-103149114D01*
X162043975Y-103196733D01*
X161948737Y-103244352D01*
X161758260Y-103244352D01*
X161663022Y-103291971D01*
X161615403Y-103339590D01*
X161567784Y-103434828D01*
X161567784Y-103625304D01*
X161615403Y-103720542D01*
X161663022Y-103768161D01*
X161758260Y-103815780D01*
X161948737Y-103815780D01*
X162043975Y-103768161D01*
X162091594Y-103720542D01*
X162139213Y-103625304D01*
X162139213Y-103434828D01*
X162091594Y-103339590D01*
X162043975Y-103291971D01*
X161948737Y-103244352D01*
X162567784Y-103720542D02*
X162615403Y-103768161D01*
X162567784Y-103815780D01*
X162520165Y-103768161D01*
X162567784Y-103720542D01*
X162567784Y-103815780D01*
X162996356Y-102911019D02*
X163043975Y-102863400D01*
X163139213Y-102815780D01*
X163377308Y-102815780D01*
X163472546Y-102863400D01*
X163520165Y-102911019D01*
X163567784Y-103006257D01*
X163567784Y-103101495D01*
X163520165Y-103244352D01*
X162948737Y-103815780D01*
X163567784Y-103815780D01*
X164758260Y-103815780D02*
X164758260Y-103149114D01*
X164758260Y-103244352D02*
X164805880Y-103196733D01*
X164901118Y-103149114D01*
X165043975Y-103149114D01*
X165139213Y-103196733D01*
X165186832Y-103291971D01*
X165186832Y-103815780D01*
X165186832Y-103291971D02*
X165234451Y-103196733D01*
X165329689Y-103149114D01*
X165472546Y-103149114D01*
X165567784Y-103196733D01*
X165615403Y-103291971D01*
X165615403Y-103815780D01*
X166091594Y-103815780D02*
X166091594Y-103149114D01*
X166091594Y-103244352D02*
X166139213Y-103196733D01*
X166234451Y-103149114D01*
X166377308Y-103149114D01*
X166472546Y-103196733D01*
X166520165Y-103291971D01*
X166520165Y-103815780D01*
X166520165Y-103291971D02*
X166567784Y-103196733D01*
X166663022Y-103149114D01*
X166805880Y-103149114D01*
X166901118Y-103196733D01*
X166948737Y-103291971D01*
X166948737Y-103815780D01*
X133286832Y-103815780D02*
X132715403Y-103815780D01*
X133001118Y-103815780D02*
X133001118Y-102815780D01*
X132905880Y-102958638D01*
X132810641Y-103053876D01*
X132715403Y-103101495D01*
X133858260Y-103244352D02*
X133763022Y-103196733D01*
X133715403Y-103149114D01*
X133667784Y-103053876D01*
X133667784Y-103006257D01*
X133715403Y-102911019D01*
X133763022Y-102863400D01*
X133858260Y-102815780D01*
X134048737Y-102815780D01*
X134143975Y-102863400D01*
X134191594Y-102911019D01*
X134239213Y-103006257D01*
X134239213Y-103053876D01*
X134191594Y-103149114D01*
X134143975Y-103196733D01*
X134048737Y-103244352D01*
X133858260Y-103244352D01*
X133763022Y-103291971D01*
X133715403Y-103339590D01*
X133667784Y-103434828D01*
X133667784Y-103625304D01*
X133715403Y-103720542D01*
X133763022Y-103768161D01*
X133858260Y-103815780D01*
X134048737Y-103815780D01*
X134143975Y-103768161D01*
X134191594Y-103720542D01*
X134239213Y-103625304D01*
X134239213Y-103434828D01*
X134191594Y-103339590D01*
X134143975Y-103291971D01*
X134048737Y-103244352D01*
X134667784Y-103720542D02*
X134715403Y-103768161D01*
X134667784Y-103815780D01*
X134620165Y-103768161D01*
X134667784Y-103720542D01*
X134667784Y-103815780D01*
X135096356Y-102911019D02*
X135143975Y-102863400D01*
X135239213Y-102815780D01*
X135477308Y-102815780D01*
X135572546Y-102863400D01*
X135620165Y-102911019D01*
X135667784Y-103006257D01*
X135667784Y-103101495D01*
X135620165Y-103244352D01*
X135048737Y-103815780D01*
X135667784Y-103815780D01*
X136858260Y-103815780D02*
X136858260Y-103149114D01*
X136858260Y-103244352D02*
X136905880Y-103196733D01*
X137001118Y-103149114D01*
X137143975Y-103149114D01*
X137239213Y-103196733D01*
X137286832Y-103291971D01*
X137286832Y-103815780D01*
X137286832Y-103291971D02*
X137334451Y-103196733D01*
X137429689Y-103149114D01*
X137572546Y-103149114D01*
X137667784Y-103196733D01*
X137715403Y-103291971D01*
X137715403Y-103815780D01*
X138191594Y-103815780D02*
X138191594Y-103149114D01*
X138191594Y-103244352D02*
X138239213Y-103196733D01*
X138334451Y-103149114D01*
X138477308Y-103149114D01*
X138572546Y-103196733D01*
X138620165Y-103291971D01*
X138620165Y-103815780D01*
X138620165Y-103291971D02*
X138667784Y-103196733D01*
X138763022Y-103149114D01*
X138905880Y-103149114D01*
X139001118Y-103196733D01*
X139048737Y-103291971D01*
X139048737Y-103815780D01*
X105386832Y-103815780D02*
X104815403Y-103815780D01*
X105101118Y-103815780D02*
X105101118Y-102815780D01*
X105005880Y-102958638D01*
X104910641Y-103053876D01*
X104815403Y-103101495D01*
X105958260Y-103244352D02*
X105863022Y-103196733D01*
X105815403Y-103149114D01*
X105767784Y-103053876D01*
X105767784Y-103006257D01*
X105815403Y-102911019D01*
X105863022Y-102863400D01*
X105958260Y-102815780D01*
X106148737Y-102815780D01*
X106243975Y-102863400D01*
X106291594Y-102911019D01*
X106339213Y-103006257D01*
X106339213Y-103053876D01*
X106291594Y-103149114D01*
X106243975Y-103196733D01*
X106148737Y-103244352D01*
X105958260Y-103244352D01*
X105863022Y-103291971D01*
X105815403Y-103339590D01*
X105767784Y-103434828D01*
X105767784Y-103625304D01*
X105815403Y-103720542D01*
X105863022Y-103768161D01*
X105958260Y-103815780D01*
X106148737Y-103815780D01*
X106243975Y-103768161D01*
X106291594Y-103720542D01*
X106339213Y-103625304D01*
X106339213Y-103434828D01*
X106291594Y-103339590D01*
X106243975Y-103291971D01*
X106148737Y-103244352D01*
X106767784Y-103720542D02*
X106815403Y-103768161D01*
X106767784Y-103815780D01*
X106720165Y-103768161D01*
X106767784Y-103720542D01*
X106767784Y-103815780D01*
X107196356Y-102911019D02*
X107243975Y-102863400D01*
X107339213Y-102815780D01*
X107577308Y-102815780D01*
X107672546Y-102863400D01*
X107720165Y-102911019D01*
X107767784Y-103006257D01*
X107767784Y-103101495D01*
X107720165Y-103244352D01*
X107148737Y-103815780D01*
X107767784Y-103815780D01*
X108958260Y-103815780D02*
X108958260Y-103149114D01*
X108958260Y-103244352D02*
X109005880Y-103196733D01*
X109101118Y-103149114D01*
X109243975Y-103149114D01*
X109339213Y-103196733D01*
X109386832Y-103291971D01*
X109386832Y-103815780D01*
X109386832Y-103291971D02*
X109434451Y-103196733D01*
X109529689Y-103149114D01*
X109672546Y-103149114D01*
X109767784Y-103196733D01*
X109815403Y-103291971D01*
X109815403Y-103815780D01*
X110291594Y-103815780D02*
X110291594Y-103149114D01*
X110291594Y-103244352D02*
X110339213Y-103196733D01*
X110434451Y-103149114D01*
X110577308Y-103149114D01*
X110672546Y-103196733D01*
X110720165Y-103291971D01*
X110720165Y-103815780D01*
X110720165Y-103291971D02*
X110767784Y-103196733D01*
X110863022Y-103149114D01*
X111005880Y-103149114D01*
X111101118Y-103196733D01*
X111148737Y-103291971D01*
X111148737Y-103815780D01*
X161186832Y-75915780D02*
X160615403Y-75915780D01*
X160901118Y-75915780D02*
X160901118Y-74915780D01*
X160805880Y-75058638D01*
X160710641Y-75153876D01*
X160615403Y-75201495D01*
X161758260Y-75344352D02*
X161663022Y-75296733D01*
X161615403Y-75249114D01*
X161567784Y-75153876D01*
X161567784Y-75106257D01*
X161615403Y-75011019D01*
X161663022Y-74963400D01*
X161758260Y-74915780D01*
X161948737Y-74915780D01*
X162043975Y-74963400D01*
X162091594Y-75011019D01*
X162139213Y-75106257D01*
X162139213Y-75153876D01*
X162091594Y-75249114D01*
X162043975Y-75296733D01*
X161948737Y-75344352D01*
X161758260Y-75344352D01*
X161663022Y-75391971D01*
X161615403Y-75439590D01*
X161567784Y-75534828D01*
X161567784Y-75725304D01*
X161615403Y-75820542D01*
X161663022Y-75868161D01*
X161758260Y-75915780D01*
X161948737Y-75915780D01*
X162043975Y-75868161D01*
X162091594Y-75820542D01*
X162139213Y-75725304D01*
X162139213Y-75534828D01*
X162091594Y-75439590D01*
X162043975Y-75391971D01*
X161948737Y-75344352D01*
X162567784Y-75820542D02*
X162615403Y-75868161D01*
X162567784Y-75915780D01*
X162520165Y-75868161D01*
X162567784Y-75820542D01*
X162567784Y-75915780D01*
X162996356Y-75011019D02*
X163043975Y-74963400D01*
X163139213Y-74915780D01*
X163377308Y-74915780D01*
X163472546Y-74963400D01*
X163520165Y-75011019D01*
X163567784Y-75106257D01*
X163567784Y-75201495D01*
X163520165Y-75344352D01*
X162948737Y-75915780D01*
X163567784Y-75915780D01*
X164758260Y-75915780D02*
X164758260Y-75249114D01*
X164758260Y-75344352D02*
X164805880Y-75296733D01*
X164901118Y-75249114D01*
X165043975Y-75249114D01*
X165139213Y-75296733D01*
X165186832Y-75391971D01*
X165186832Y-75915780D01*
X165186832Y-75391971D02*
X165234451Y-75296733D01*
X165329689Y-75249114D01*
X165472546Y-75249114D01*
X165567784Y-75296733D01*
X165615403Y-75391971D01*
X165615403Y-75915780D01*
X166091594Y-75915780D02*
X166091594Y-75249114D01*
X166091594Y-75344352D02*
X166139213Y-75296733D01*
X166234451Y-75249114D01*
X166377308Y-75249114D01*
X166472546Y-75296733D01*
X166520165Y-75391971D01*
X166520165Y-75915780D01*
X166520165Y-75391971D02*
X166567784Y-75296733D01*
X166663022Y-75249114D01*
X166805880Y-75249114D01*
X166901118Y-75296733D01*
X166948737Y-75391971D01*
X166948737Y-75915780D01*
X133286832Y-75915780D02*
X132715403Y-75915780D01*
X133001118Y-75915780D02*
X133001118Y-74915780D01*
X132905880Y-75058638D01*
X132810641Y-75153876D01*
X132715403Y-75201495D01*
X133858260Y-75344352D02*
X133763022Y-75296733D01*
X133715403Y-75249114D01*
X133667784Y-75153876D01*
X133667784Y-75106257D01*
X133715403Y-75011019D01*
X133763022Y-74963400D01*
X133858260Y-74915780D01*
X134048737Y-74915780D01*
X134143975Y-74963400D01*
X134191594Y-75011019D01*
X134239213Y-75106257D01*
X134239213Y-75153876D01*
X134191594Y-75249114D01*
X134143975Y-75296733D01*
X134048737Y-75344352D01*
X133858260Y-75344352D01*
X133763022Y-75391971D01*
X133715403Y-75439590D01*
X133667784Y-75534828D01*
X133667784Y-75725304D01*
X133715403Y-75820542D01*
X133763022Y-75868161D01*
X133858260Y-75915780D01*
X134048737Y-75915780D01*
X134143975Y-75868161D01*
X134191594Y-75820542D01*
X134239213Y-75725304D01*
X134239213Y-75534828D01*
X134191594Y-75439590D01*
X134143975Y-75391971D01*
X134048737Y-75344352D01*
X134667784Y-75820542D02*
X134715403Y-75868161D01*
X134667784Y-75915780D01*
X134620165Y-75868161D01*
X134667784Y-75820542D01*
X134667784Y-75915780D01*
X135096356Y-75011019D02*
X135143975Y-74963400D01*
X135239213Y-74915780D01*
X135477308Y-74915780D01*
X135572546Y-74963400D01*
X135620165Y-75011019D01*
X135667784Y-75106257D01*
X135667784Y-75201495D01*
X135620165Y-75344352D01*
X135048737Y-75915780D01*
X135667784Y-75915780D01*
X136858260Y-75915780D02*
X136858260Y-75249114D01*
X136858260Y-75344352D02*
X136905880Y-75296733D01*
X137001118Y-75249114D01*
X137143975Y-75249114D01*
X137239213Y-75296733D01*
X137286832Y-75391971D01*
X137286832Y-75915780D01*
X137286832Y-75391971D02*
X137334451Y-75296733D01*
X137429689Y-75249114D01*
X137572546Y-75249114D01*
X137667784Y-75296733D01*
X137715403Y-75391971D01*
X137715403Y-75915780D01*
X138191594Y-75915780D02*
X138191594Y-75249114D01*
X138191594Y-75344352D02*
X138239213Y-75296733D01*
X138334451Y-75249114D01*
X138477308Y-75249114D01*
X138572546Y-75296733D01*
X138620165Y-75391971D01*
X138620165Y-75915780D01*
X138620165Y-75391971D02*
X138667784Y-75296733D01*
X138763022Y-75249114D01*
X138905880Y-75249114D01*
X139001118Y-75296733D01*
X139048737Y-75391971D01*
X139048737Y-75915780D01*
X161977954Y-135167731D02*
X162006525Y-135139160D01*
X162063668Y-135110588D01*
X162206525Y-135110588D01*
X162263668Y-135139160D01*
X162292240Y-135167731D01*
X162320811Y-135224874D01*
X162320811Y-135282017D01*
X162292240Y-135367731D01*
X161949382Y-135710588D01*
X162320811Y-135710588D01*
X162863668Y-135110588D02*
X162577954Y-135110588D01*
X162549382Y-135396302D01*
X162577954Y-135367731D01*
X162635097Y-135339160D01*
X162777954Y-135339160D01*
X162835097Y-135367731D01*
X162863668Y-135396302D01*
X162892240Y-135453445D01*
X162892240Y-135596302D01*
X162863668Y-135653445D01*
X162835097Y-135682017D01*
X162777954Y-135710588D01*
X162635097Y-135710588D01*
X162577954Y-135682017D01*
X162549382Y-135653445D01*
X163149382Y-135653445D02*
X163177954Y-135682017D01*
X163149382Y-135710588D01*
X163120811Y-135682017D01*
X163149382Y-135653445D01*
X163149382Y-135710588D01*
X163692240Y-135310588D02*
X163692240Y-135710588D01*
X163549382Y-135082017D02*
X163406525Y-135510588D01*
X163777954Y-135510588D01*
X164463668Y-135710588D02*
X164463668Y-135310588D01*
X164463668Y-135367731D02*
X164492240Y-135339160D01*
X164549382Y-135310588D01*
X164635097Y-135310588D01*
X164692240Y-135339160D01*
X164720811Y-135396302D01*
X164720811Y-135710588D01*
X164720811Y-135396302D02*
X164749382Y-135339160D01*
X164806525Y-135310588D01*
X164892240Y-135310588D01*
X164949382Y-135339160D01*
X164977954Y-135396302D01*
X164977954Y-135710588D01*
X165263668Y-135710588D02*
X165263668Y-135310588D01*
X165263668Y-135367731D02*
X165292240Y-135339160D01*
X165349382Y-135310588D01*
X165435097Y-135310588D01*
X165492240Y-135339160D01*
X165520811Y-135396302D01*
X165520811Y-135710588D01*
X165520811Y-135396302D02*
X165549382Y-135339160D01*
X165606525Y-135310588D01*
X165692240Y-135310588D01*
X165749382Y-135339160D01*
X165777954Y-135396302D01*
X165777954Y-135710588D01*
X134077954Y-135167731D02*
X134106525Y-135139160D01*
X134163668Y-135110588D01*
X134306525Y-135110588D01*
X134363668Y-135139160D01*
X134392240Y-135167731D01*
X134420811Y-135224874D01*
X134420811Y-135282017D01*
X134392240Y-135367731D01*
X134049382Y-135710588D01*
X134420811Y-135710588D01*
X134963668Y-135110588D02*
X134677954Y-135110588D01*
X134649382Y-135396302D01*
X134677954Y-135367731D01*
X134735097Y-135339160D01*
X134877954Y-135339160D01*
X134935097Y-135367731D01*
X134963668Y-135396302D01*
X134992240Y-135453445D01*
X134992240Y-135596302D01*
X134963668Y-135653445D01*
X134935097Y-135682017D01*
X134877954Y-135710588D01*
X134735097Y-135710588D01*
X134677954Y-135682017D01*
X134649382Y-135653445D01*
X135249382Y-135653445D02*
X135277954Y-135682017D01*
X135249382Y-135710588D01*
X135220811Y-135682017D01*
X135249382Y-135653445D01*
X135249382Y-135710588D01*
X135792240Y-135310588D02*
X135792240Y-135710588D01*
X135649382Y-135082017D02*
X135506525Y-135510588D01*
X135877954Y-135510588D01*
X136563668Y-135710588D02*
X136563668Y-135310588D01*
X136563668Y-135367731D02*
X136592240Y-135339160D01*
X136649382Y-135310588D01*
X136735097Y-135310588D01*
X136792240Y-135339160D01*
X136820811Y-135396302D01*
X136820811Y-135710588D01*
X136820811Y-135396302D02*
X136849382Y-135339160D01*
X136906525Y-135310588D01*
X136992240Y-135310588D01*
X137049382Y-135339160D01*
X137077954Y-135396302D01*
X137077954Y-135710588D01*
X137363668Y-135710588D02*
X137363668Y-135310588D01*
X137363668Y-135367731D02*
X137392240Y-135339160D01*
X137449382Y-135310588D01*
X137535097Y-135310588D01*
X137592240Y-135339160D01*
X137620811Y-135396302D01*
X137620811Y-135710588D01*
X137620811Y-135396302D02*
X137649382Y-135339160D01*
X137706525Y-135310588D01*
X137792240Y-135310588D01*
X137849382Y-135339160D01*
X137877954Y-135396302D01*
X137877954Y-135710588D01*
X106177954Y-135167731D02*
X106206525Y-135139160D01*
X106263668Y-135110588D01*
X106406525Y-135110588D01*
X106463668Y-135139160D01*
X106492240Y-135167731D01*
X106520811Y-135224874D01*
X106520811Y-135282017D01*
X106492240Y-135367731D01*
X106149382Y-135710588D01*
X106520811Y-135710588D01*
X107063668Y-135110588D02*
X106777954Y-135110588D01*
X106749382Y-135396302D01*
X106777954Y-135367731D01*
X106835097Y-135339160D01*
X106977954Y-135339160D01*
X107035097Y-135367731D01*
X107063668Y-135396302D01*
X107092240Y-135453445D01*
X107092240Y-135596302D01*
X107063668Y-135653445D01*
X107035097Y-135682017D01*
X106977954Y-135710588D01*
X106835097Y-135710588D01*
X106777954Y-135682017D01*
X106749382Y-135653445D01*
X107349382Y-135653445D02*
X107377954Y-135682017D01*
X107349382Y-135710588D01*
X107320811Y-135682017D01*
X107349382Y-135653445D01*
X107349382Y-135710588D01*
X107892240Y-135310588D02*
X107892240Y-135710588D01*
X107749382Y-135082017D02*
X107606525Y-135510588D01*
X107977954Y-135510588D01*
X108663668Y-135710588D02*
X108663668Y-135310588D01*
X108663668Y-135367731D02*
X108692240Y-135339160D01*
X108749382Y-135310588D01*
X108835097Y-135310588D01*
X108892240Y-135339160D01*
X108920811Y-135396302D01*
X108920811Y-135710588D01*
X108920811Y-135396302D02*
X108949382Y-135339160D01*
X109006525Y-135310588D01*
X109092240Y-135310588D01*
X109149382Y-135339160D01*
X109177954Y-135396302D01*
X109177954Y-135710588D01*
X109463668Y-135710588D02*
X109463668Y-135310588D01*
X109463668Y-135367731D02*
X109492240Y-135339160D01*
X109549382Y-135310588D01*
X109635097Y-135310588D01*
X109692240Y-135339160D01*
X109720811Y-135396302D01*
X109720811Y-135710588D01*
X109720811Y-135396302D02*
X109749382Y-135339160D01*
X109806525Y-135310588D01*
X109892240Y-135310588D01*
X109949382Y-135339160D01*
X109977954Y-135396302D01*
X109977954Y-135710588D01*
X161977954Y-107267731D02*
X162006525Y-107239160D01*
X162063668Y-107210588D01*
X162206525Y-107210588D01*
X162263668Y-107239160D01*
X162292240Y-107267731D01*
X162320811Y-107324874D01*
X162320811Y-107382017D01*
X162292240Y-107467731D01*
X161949382Y-107810588D01*
X162320811Y-107810588D01*
X162863668Y-107210588D02*
X162577954Y-107210588D01*
X162549382Y-107496302D01*
X162577954Y-107467731D01*
X162635097Y-107439160D01*
X162777954Y-107439160D01*
X162835097Y-107467731D01*
X162863668Y-107496302D01*
X162892240Y-107553445D01*
X162892240Y-107696302D01*
X162863668Y-107753445D01*
X162835097Y-107782017D01*
X162777954Y-107810588D01*
X162635097Y-107810588D01*
X162577954Y-107782017D01*
X162549382Y-107753445D01*
X163149382Y-107753445D02*
X163177954Y-107782017D01*
X163149382Y-107810588D01*
X163120811Y-107782017D01*
X163149382Y-107753445D01*
X163149382Y-107810588D01*
X163692240Y-107410588D02*
X163692240Y-107810588D01*
X163549382Y-107182017D02*
X163406525Y-107610588D01*
X163777954Y-107610588D01*
X164463668Y-107810588D02*
X164463668Y-107410588D01*
X164463668Y-107467731D02*
X164492240Y-107439160D01*
X164549382Y-107410588D01*
X164635097Y-107410588D01*
X164692240Y-107439160D01*
X164720811Y-107496302D01*
X164720811Y-107810588D01*
X164720811Y-107496302D02*
X164749382Y-107439160D01*
X164806525Y-107410588D01*
X164892240Y-107410588D01*
X164949382Y-107439160D01*
X164977954Y-107496302D01*
X164977954Y-107810588D01*
X165263668Y-107810588D02*
X165263668Y-107410588D01*
X165263668Y-107467731D02*
X165292240Y-107439160D01*
X165349382Y-107410588D01*
X165435097Y-107410588D01*
X165492240Y-107439160D01*
X165520811Y-107496302D01*
X165520811Y-107810588D01*
X165520811Y-107496302D02*
X165549382Y-107439160D01*
X165606525Y-107410588D01*
X165692240Y-107410588D01*
X165749382Y-107439160D01*
X165777954Y-107496302D01*
X165777954Y-107810588D01*
X134077954Y-107267731D02*
X134106525Y-107239160D01*
X134163668Y-107210588D01*
X134306525Y-107210588D01*
X134363668Y-107239160D01*
X134392240Y-107267731D01*
X134420811Y-107324874D01*
X134420811Y-107382017D01*
X134392240Y-107467731D01*
X134049382Y-107810588D01*
X134420811Y-107810588D01*
X134963668Y-107210588D02*
X134677954Y-107210588D01*
X134649382Y-107496302D01*
X134677954Y-107467731D01*
X134735097Y-107439160D01*
X134877954Y-107439160D01*
X134935097Y-107467731D01*
X134963668Y-107496302D01*
X134992240Y-107553445D01*
X134992240Y-107696302D01*
X134963668Y-107753445D01*
X134935097Y-107782017D01*
X134877954Y-107810588D01*
X134735097Y-107810588D01*
X134677954Y-107782017D01*
X134649382Y-107753445D01*
X135249382Y-107753445D02*
X135277954Y-107782017D01*
X135249382Y-107810588D01*
X135220811Y-107782017D01*
X135249382Y-107753445D01*
X135249382Y-107810588D01*
X135792240Y-107410588D02*
X135792240Y-107810588D01*
X135649382Y-107182017D02*
X135506525Y-107610588D01*
X135877954Y-107610588D01*
X136563668Y-107810588D02*
X136563668Y-107410588D01*
X136563668Y-107467731D02*
X136592240Y-107439160D01*
X136649382Y-107410588D01*
X136735097Y-107410588D01*
X136792240Y-107439160D01*
X136820811Y-107496302D01*
X136820811Y-107810588D01*
X136820811Y-107496302D02*
X136849382Y-107439160D01*
X136906525Y-107410588D01*
X136992240Y-107410588D01*
X137049382Y-107439160D01*
X137077954Y-107496302D01*
X137077954Y-107810588D01*
X137363668Y-107810588D02*
X137363668Y-107410588D01*
X137363668Y-107467731D02*
X137392240Y-107439160D01*
X137449382Y-107410588D01*
X137535097Y-107410588D01*
X137592240Y-107439160D01*
X137620811Y-107496302D01*
X137620811Y-107810588D01*
X137620811Y-107496302D02*
X137649382Y-107439160D01*
X137706525Y-107410588D01*
X137792240Y-107410588D01*
X137849382Y-107439160D01*
X137877954Y-107496302D01*
X137877954Y-107810588D01*
X106177954Y-107267731D02*
X106206525Y-107239160D01*
X106263668Y-107210588D01*
X106406525Y-107210588D01*
X106463668Y-107239160D01*
X106492240Y-107267731D01*
X106520811Y-107324874D01*
X106520811Y-107382017D01*
X106492240Y-107467731D01*
X106149382Y-107810588D01*
X106520811Y-107810588D01*
X107063668Y-107210588D02*
X106777954Y-107210588D01*
X106749382Y-107496302D01*
X106777954Y-107467731D01*
X106835097Y-107439160D01*
X106977954Y-107439160D01*
X107035097Y-107467731D01*
X107063668Y-107496302D01*
X107092240Y-107553445D01*
X107092240Y-107696302D01*
X107063668Y-107753445D01*
X107035097Y-107782017D01*
X106977954Y-107810588D01*
X106835097Y-107810588D01*
X106777954Y-107782017D01*
X106749382Y-107753445D01*
X107349382Y-107753445D02*
X107377954Y-107782017D01*
X107349382Y-107810588D01*
X107320811Y-107782017D01*
X107349382Y-107753445D01*
X107349382Y-107810588D01*
X107892240Y-107410588D02*
X107892240Y-107810588D01*
X107749382Y-107182017D02*
X107606525Y-107610588D01*
X107977954Y-107610588D01*
X108663668Y-107810588D02*
X108663668Y-107410588D01*
X108663668Y-107467731D02*
X108692240Y-107439160D01*
X108749382Y-107410588D01*
X108835097Y-107410588D01*
X108892240Y-107439160D01*
X108920811Y-107496302D01*
X108920811Y-107810588D01*
X108920811Y-107496302D02*
X108949382Y-107439160D01*
X109006525Y-107410588D01*
X109092240Y-107410588D01*
X109149382Y-107439160D01*
X109177954Y-107496302D01*
X109177954Y-107810588D01*
X109463668Y-107810588D02*
X109463668Y-107410588D01*
X109463668Y-107467731D02*
X109492240Y-107439160D01*
X109549382Y-107410588D01*
X109635097Y-107410588D01*
X109692240Y-107439160D01*
X109720811Y-107496302D01*
X109720811Y-107810588D01*
X109720811Y-107496302D02*
X109749382Y-107439160D01*
X109806525Y-107410588D01*
X109892240Y-107410588D01*
X109949382Y-107439160D01*
X109977954Y-107496302D01*
X109977954Y-107810588D01*
X161977954Y-79367731D02*
X162006525Y-79339160D01*
X162063668Y-79310588D01*
X162206525Y-79310588D01*
X162263668Y-79339160D01*
X162292240Y-79367731D01*
X162320811Y-79424874D01*
X162320811Y-79482017D01*
X162292240Y-79567731D01*
X161949382Y-79910588D01*
X162320811Y-79910588D01*
X162863668Y-79310588D02*
X162577954Y-79310588D01*
X162549382Y-79596302D01*
X162577954Y-79567731D01*
X162635097Y-79539160D01*
X162777954Y-79539160D01*
X162835097Y-79567731D01*
X162863668Y-79596302D01*
X162892240Y-79653445D01*
X162892240Y-79796302D01*
X162863668Y-79853445D01*
X162835097Y-79882017D01*
X162777954Y-79910588D01*
X162635097Y-79910588D01*
X162577954Y-79882017D01*
X162549382Y-79853445D01*
X163149382Y-79853445D02*
X163177954Y-79882017D01*
X163149382Y-79910588D01*
X163120811Y-79882017D01*
X163149382Y-79853445D01*
X163149382Y-79910588D01*
X163692240Y-79510588D02*
X163692240Y-79910588D01*
X163549382Y-79282017D02*
X163406525Y-79710588D01*
X163777954Y-79710588D01*
X164463668Y-79910588D02*
X164463668Y-79510588D01*
X164463668Y-79567731D02*
X164492240Y-79539160D01*
X164549382Y-79510588D01*
X164635097Y-79510588D01*
X164692240Y-79539160D01*
X164720811Y-79596302D01*
X164720811Y-79910588D01*
X164720811Y-79596302D02*
X164749382Y-79539160D01*
X164806525Y-79510588D01*
X164892240Y-79510588D01*
X164949382Y-79539160D01*
X164977954Y-79596302D01*
X164977954Y-79910588D01*
X165263668Y-79910588D02*
X165263668Y-79510588D01*
X165263668Y-79567731D02*
X165292240Y-79539160D01*
X165349382Y-79510588D01*
X165435097Y-79510588D01*
X165492240Y-79539160D01*
X165520811Y-79596302D01*
X165520811Y-79910588D01*
X165520811Y-79596302D02*
X165549382Y-79539160D01*
X165606525Y-79510588D01*
X165692240Y-79510588D01*
X165749382Y-79539160D01*
X165777954Y-79596302D01*
X165777954Y-79910588D01*
X134077954Y-79367731D02*
X134106525Y-79339160D01*
X134163668Y-79310588D01*
X134306525Y-79310588D01*
X134363668Y-79339160D01*
X134392240Y-79367731D01*
X134420811Y-79424874D01*
X134420811Y-79482017D01*
X134392240Y-79567731D01*
X134049382Y-79910588D01*
X134420811Y-79910588D01*
X134963668Y-79310588D02*
X134677954Y-79310588D01*
X134649382Y-79596302D01*
X134677954Y-79567731D01*
X134735097Y-79539160D01*
X134877954Y-79539160D01*
X134935097Y-79567731D01*
X134963668Y-79596302D01*
X134992240Y-79653445D01*
X134992240Y-79796302D01*
X134963668Y-79853445D01*
X134935097Y-79882017D01*
X134877954Y-79910588D01*
X134735097Y-79910588D01*
X134677954Y-79882017D01*
X134649382Y-79853445D01*
X135249382Y-79853445D02*
X135277954Y-79882017D01*
X135249382Y-79910588D01*
X135220811Y-79882017D01*
X135249382Y-79853445D01*
X135249382Y-79910588D01*
X135792240Y-79510588D02*
X135792240Y-79910588D01*
X135649382Y-79282017D02*
X135506525Y-79710588D01*
X135877954Y-79710588D01*
X136563668Y-79910588D02*
X136563668Y-79510588D01*
X136563668Y-79567731D02*
X136592240Y-79539160D01*
X136649382Y-79510588D01*
X136735097Y-79510588D01*
X136792240Y-79539160D01*
X136820811Y-79596302D01*
X136820811Y-79910588D01*
X136820811Y-79596302D02*
X136849382Y-79539160D01*
X136906525Y-79510588D01*
X136992240Y-79510588D01*
X137049382Y-79539160D01*
X137077954Y-79596302D01*
X137077954Y-79910588D01*
X137363668Y-79910588D02*
X137363668Y-79510588D01*
X137363668Y-79567731D02*
X137392240Y-79539160D01*
X137449382Y-79510588D01*
X137535097Y-79510588D01*
X137592240Y-79539160D01*
X137620811Y-79596302D01*
X137620811Y-79910588D01*
X137620811Y-79596302D02*
X137649382Y-79539160D01*
X137706525Y-79510588D01*
X137792240Y-79510588D01*
X137849382Y-79539160D01*
X137877954Y-79596302D01*
X137877954Y-79910588D01*
D10*
X178327800Y-108121560D02*
X178327800Y-136021560D01*
X150427800Y-108121560D02*
X150427800Y-136021560D01*
X122527800Y-108121560D02*
X122527800Y-136021560D01*
X178327800Y-80221560D02*
X178327800Y-108121560D01*
X150427800Y-80221560D02*
X150427800Y-108121560D01*
X122527800Y-80221560D02*
X122527800Y-108121560D01*
X178327800Y-52321560D02*
X178327800Y-80221560D01*
X150427800Y-52321560D02*
X150427800Y-80221560D01*
D11*
X154641299Y-119124432D02*
X154641299Y-118553003D01*
X154641299Y-118838718D02*
X155641299Y-118838718D01*
X155498441Y-118743480D01*
X155403203Y-118648241D01*
X155355584Y-118553003D01*
X155212727Y-119695860D02*
X155260346Y-119600622D01*
X155307965Y-119553003D01*
X155403203Y-119505384D01*
X155450822Y-119505384D01*
X155546060Y-119553003D01*
X155593680Y-119600622D01*
X155641299Y-119695860D01*
X155641299Y-119886337D01*
X155593680Y-119981575D01*
X155546060Y-120029194D01*
X155450822Y-120076813D01*
X155403203Y-120076813D01*
X155307965Y-120029194D01*
X155260346Y-119981575D01*
X155212727Y-119886337D01*
X155212727Y-119695860D01*
X155165108Y-119600622D01*
X155117489Y-119553003D01*
X155022251Y-119505384D01*
X154831775Y-119505384D01*
X154736537Y-119553003D01*
X154688918Y-119600622D01*
X154641299Y-119695860D01*
X154641299Y-119886337D01*
X154688918Y-119981575D01*
X154736537Y-120029194D01*
X154831775Y-120076813D01*
X155022251Y-120076813D01*
X155117489Y-120029194D01*
X155165108Y-119981575D01*
X155212727Y-119886337D01*
X154736537Y-120505384D02*
X154688918Y-120553003D01*
X154641299Y-120505384D01*
X154688918Y-120457765D01*
X154736537Y-120505384D01*
X154641299Y-120505384D01*
X155546060Y-120933956D02*
X155593680Y-120981575D01*
X155641299Y-121076813D01*
X155641299Y-121314908D01*
X155593680Y-121410146D01*
X155546060Y-121457765D01*
X155450822Y-121505384D01*
X155355584Y-121505384D01*
X155212727Y-121457765D01*
X154641299Y-120886337D01*
X154641299Y-121505384D01*
X154641299Y-122695860D02*
X155307965Y-122695860D01*
X155212727Y-122695860D02*
X155260346Y-122743480D01*
X155307965Y-122838718D01*
X155307965Y-122981575D01*
X155260346Y-123076813D01*
X155165108Y-123124432D01*
X154641299Y-123124432D01*
X155165108Y-123124432D02*
X155260346Y-123172051D01*
X155307965Y-123267289D01*
X155307965Y-123410146D01*
X155260346Y-123505384D01*
X155165108Y-123553003D01*
X154641299Y-123553003D01*
X154641299Y-124029194D02*
X155307965Y-124029194D01*
X155212727Y-124029194D02*
X155260346Y-124076813D01*
X155307965Y-124172051D01*
X155307965Y-124314908D01*
X155260346Y-124410146D01*
X155165108Y-124457765D01*
X154641299Y-124457765D01*
X155165108Y-124457765D02*
X155260346Y-124505384D01*
X155307965Y-124600622D01*
X155307965Y-124743480D01*
X155260346Y-124838718D01*
X155165108Y-124886337D01*
X154641299Y-124886337D01*
X126741299Y-119124432D02*
X126741299Y-118553003D01*
X126741299Y-118838718D02*
X127741299Y-118838718D01*
X127598441Y-118743480D01*
X127503203Y-118648241D01*
X127455584Y-118553003D01*
X127312727Y-119695860D02*
X127360346Y-119600622D01*
X127407965Y-119553003D01*
X127503203Y-119505384D01*
X127550822Y-119505384D01*
X127646060Y-119553003D01*
X127693680Y-119600622D01*
X127741299Y-119695860D01*
X127741299Y-119886337D01*
X127693680Y-119981575D01*
X127646060Y-120029194D01*
X127550822Y-120076813D01*
X127503203Y-120076813D01*
X127407965Y-120029194D01*
X127360346Y-119981575D01*
X127312727Y-119886337D01*
X127312727Y-119695860D01*
X127265108Y-119600622D01*
X127217489Y-119553003D01*
X127122251Y-119505384D01*
X126931775Y-119505384D01*
X126836537Y-119553003D01*
X126788918Y-119600622D01*
X126741299Y-119695860D01*
X126741299Y-119886337D01*
X126788918Y-119981575D01*
X126836537Y-120029194D01*
X126931775Y-120076813D01*
X127122251Y-120076813D01*
X127217489Y-120029194D01*
X127265108Y-119981575D01*
X127312727Y-119886337D01*
X126836537Y-120505384D02*
X126788918Y-120553003D01*
X126741299Y-120505384D01*
X126788918Y-120457765D01*
X126836537Y-120505384D01*
X126741299Y-120505384D01*
X127646060Y-120933956D02*
X127693680Y-120981575D01*
X127741299Y-121076813D01*
X127741299Y-121314908D01*
X127693680Y-121410146D01*
X127646060Y-121457765D01*
X127550822Y-121505384D01*
X127455584Y-121505384D01*
X127312727Y-121457765D01*
X126741299Y-120886337D01*
X126741299Y-121505384D01*
X126741299Y-122695860D02*
X127407965Y-122695860D01*
X127312727Y-122695860D02*
X127360346Y-122743480D01*
X127407965Y-122838718D01*
X127407965Y-122981575D01*
X127360346Y-123076813D01*
X127265108Y-123124432D01*
X126741299Y-123124432D01*
X127265108Y-123124432D02*
X127360346Y-123172051D01*
X127407965Y-123267289D01*
X127407965Y-123410146D01*
X127360346Y-123505384D01*
X127265108Y-123553003D01*
X126741299Y-123553003D01*
X126741299Y-124029194D02*
X127407965Y-124029194D01*
X127312727Y-124029194D02*
X127360346Y-124076813D01*
X127407965Y-124172051D01*
X127407965Y-124314908D01*
X127360346Y-124410146D01*
X127265108Y-124457765D01*
X126741299Y-124457765D01*
X127265108Y-124457765D02*
X127360346Y-124505384D01*
X127407965Y-124600622D01*
X127407965Y-124743480D01*
X127360346Y-124838718D01*
X127265108Y-124886337D01*
X126741299Y-124886337D01*
X98841299Y-119124432D02*
X98841299Y-118553003D01*
X98841299Y-118838718D02*
X99841299Y-118838718D01*
X99698441Y-118743480D01*
X99603203Y-118648241D01*
X99555584Y-118553003D01*
X99412727Y-119695860D02*
X99460346Y-119600622D01*
X99507965Y-119553003D01*
X99603203Y-119505384D01*
X99650822Y-119505384D01*
X99746060Y-119553003D01*
X99793680Y-119600622D01*
X99841299Y-119695860D01*
X99841299Y-119886337D01*
X99793680Y-119981575D01*
X99746060Y-120029194D01*
X99650822Y-120076813D01*
X99603203Y-120076813D01*
X99507965Y-120029194D01*
X99460346Y-119981575D01*
X99412727Y-119886337D01*
X99412727Y-119695860D01*
X99365108Y-119600622D01*
X99317489Y-119553003D01*
X99222251Y-119505384D01*
X99031775Y-119505384D01*
X98936537Y-119553003D01*
X98888918Y-119600622D01*
X98841299Y-119695860D01*
X98841299Y-119886337D01*
X98888918Y-119981575D01*
X98936537Y-120029194D01*
X99031775Y-120076813D01*
X99222251Y-120076813D01*
X99317489Y-120029194D01*
X99365108Y-119981575D01*
X99412727Y-119886337D01*
X98936537Y-120505384D02*
X98888918Y-120553003D01*
X98841299Y-120505384D01*
X98888918Y-120457765D01*
X98936537Y-120505384D01*
X98841299Y-120505384D01*
X99746060Y-120933956D02*
X99793680Y-120981575D01*
X99841299Y-121076813D01*
X99841299Y-121314908D01*
X99793680Y-121410146D01*
X99746060Y-121457765D01*
X99650822Y-121505384D01*
X99555584Y-121505384D01*
X99412727Y-121457765D01*
X98841299Y-120886337D01*
X98841299Y-121505384D01*
X98841299Y-122695860D02*
X99507965Y-122695860D01*
X99412727Y-122695860D02*
X99460346Y-122743480D01*
X99507965Y-122838718D01*
X99507965Y-122981575D01*
X99460346Y-123076813D01*
X99365108Y-123124432D01*
X98841299Y-123124432D01*
X99365108Y-123124432D02*
X99460346Y-123172051D01*
X99507965Y-123267289D01*
X99507965Y-123410146D01*
X99460346Y-123505384D01*
X99365108Y-123553003D01*
X98841299Y-123553003D01*
X98841299Y-124029194D02*
X99507965Y-124029194D01*
X99412727Y-124029194D02*
X99460346Y-124076813D01*
X99507965Y-124172051D01*
X99507965Y-124314908D01*
X99460346Y-124410146D01*
X99365108Y-124457765D01*
X98841299Y-124457765D01*
X99365108Y-124457765D02*
X99460346Y-124505384D01*
X99507965Y-124600622D01*
X99507965Y-124743480D01*
X99460346Y-124838718D01*
X99365108Y-124886337D01*
X98841299Y-124886337D01*
X154641299Y-91224432D02*
X154641299Y-90653003D01*
X154641299Y-90938718D02*
X155641299Y-90938718D01*
X155498441Y-90843480D01*
X155403203Y-90748241D01*
X155355584Y-90653003D01*
X155212727Y-91795860D02*
X155260346Y-91700622D01*
X155307965Y-91653003D01*
X155403203Y-91605384D01*
X155450822Y-91605384D01*
X155546060Y-91653003D01*
X155593680Y-91700622D01*
X155641299Y-91795860D01*
X155641299Y-91986337D01*
X155593680Y-92081575D01*
X155546060Y-92129194D01*
X155450822Y-92176813D01*
X155403203Y-92176813D01*
X155307965Y-92129194D01*
X155260346Y-92081575D01*
X155212727Y-91986337D01*
X155212727Y-91795860D01*
X155165108Y-91700622D01*
X155117489Y-91653003D01*
X155022251Y-91605384D01*
X154831775Y-91605384D01*
X154736537Y-91653003D01*
X154688918Y-91700622D01*
X154641299Y-91795860D01*
X154641299Y-91986337D01*
X154688918Y-92081575D01*
X154736537Y-92129194D01*
X154831775Y-92176813D01*
X155022251Y-92176813D01*
X155117489Y-92129194D01*
X155165108Y-92081575D01*
X155212727Y-91986337D01*
X154736537Y-92605384D02*
X154688918Y-92653003D01*
X154641299Y-92605384D01*
X154688918Y-92557765D01*
X154736537Y-92605384D01*
X154641299Y-92605384D01*
X155546060Y-93033956D02*
X155593680Y-93081575D01*
X155641299Y-93176813D01*
X155641299Y-93414908D01*
X155593680Y-93510146D01*
X155546060Y-93557765D01*
X155450822Y-93605384D01*
X155355584Y-93605384D01*
X155212727Y-93557765D01*
X154641299Y-92986337D01*
X154641299Y-93605384D01*
X154641299Y-94795860D02*
X155307965Y-94795860D01*
X155212727Y-94795860D02*
X155260346Y-94843480D01*
X155307965Y-94938718D01*
X155307965Y-95081575D01*
X155260346Y-95176813D01*
X155165108Y-95224432D01*
X154641299Y-95224432D01*
X155165108Y-95224432D02*
X155260346Y-95272051D01*
X155307965Y-95367289D01*
X155307965Y-95510146D01*
X155260346Y-95605384D01*
X155165108Y-95653003D01*
X154641299Y-95653003D01*
X154641299Y-96129194D02*
X155307965Y-96129194D01*
X155212727Y-96129194D02*
X155260346Y-96176813D01*
X155307965Y-96272051D01*
X155307965Y-96414908D01*
X155260346Y-96510146D01*
X155165108Y-96557765D01*
X154641299Y-96557765D01*
X155165108Y-96557765D02*
X155260346Y-96605384D01*
X155307965Y-96700622D01*
X155307965Y-96843480D01*
X155260346Y-96938718D01*
X155165108Y-96986337D01*
X154641299Y-96986337D01*
X126741299Y-91224432D02*
X126741299Y-90653003D01*
X126741299Y-90938718D02*
X127741299Y-90938718D01*
X127598441Y-90843480D01*
X127503203Y-90748241D01*
X127455584Y-90653003D01*
X127312727Y-91795860D02*
X127360346Y-91700622D01*
X127407965Y-91653003D01*
X127503203Y-91605384D01*
X127550822Y-91605384D01*
X127646060Y-91653003D01*
X127693680Y-91700622D01*
X127741299Y-91795860D01*
X127741299Y-91986337D01*
X127693680Y-92081575D01*
X127646060Y-92129194D01*
X127550822Y-92176813D01*
X127503203Y-92176813D01*
X127407965Y-92129194D01*
X127360346Y-92081575D01*
X127312727Y-91986337D01*
X127312727Y-91795860D01*
X127265108Y-91700622D01*
X127217489Y-91653003D01*
X127122251Y-91605384D01*
X126931775Y-91605384D01*
X126836537Y-91653003D01*
X126788918Y-91700622D01*
X126741299Y-91795860D01*
X126741299Y-91986337D01*
X126788918Y-92081575D01*
X126836537Y-92129194D01*
X126931775Y-92176813D01*
X127122251Y-92176813D01*
X127217489Y-92129194D01*
X127265108Y-92081575D01*
X127312727Y-91986337D01*
X126836537Y-92605384D02*
X126788918Y-92653003D01*
X126741299Y-92605384D01*
X126788918Y-92557765D01*
X126836537Y-92605384D01*
X126741299Y-92605384D01*
X127646060Y-93033956D02*
X127693680Y-93081575D01*
X127741299Y-93176813D01*
X127741299Y-93414908D01*
X127693680Y-93510146D01*
X127646060Y-93557765D01*
X127550822Y-93605384D01*
X127455584Y-93605384D01*
X127312727Y-93557765D01*
X126741299Y-92986337D01*
X126741299Y-93605384D01*
X126741299Y-94795860D02*
X127407965Y-94795860D01*
X127312727Y-94795860D02*
X127360346Y-94843480D01*
X127407965Y-94938718D01*
X127407965Y-95081575D01*
X127360346Y-95176813D01*
X127265108Y-95224432D01*
X126741299Y-95224432D01*
X127265108Y-95224432D02*
X127360346Y-95272051D01*
X127407965Y-95367289D01*
X127407965Y-95510146D01*
X127360346Y-95605384D01*
X127265108Y-95653003D01*
X126741299Y-95653003D01*
X126741299Y-96129194D02*
X127407965Y-96129194D01*
X127312727Y-96129194D02*
X127360346Y-96176813D01*
X127407965Y-96272051D01*
X127407965Y-96414908D01*
X127360346Y-96510146D01*
X127265108Y-96557765D01*
X126741299Y-96557765D01*
X127265108Y-96557765D02*
X127360346Y-96605384D01*
X127407965Y-96700622D01*
X127407965Y-96843480D01*
X127360346Y-96938718D01*
X127265108Y-96986337D01*
X126741299Y-96986337D01*
X98841299Y-91224432D02*
X98841299Y-90653003D01*
X98841299Y-90938718D02*
X99841299Y-90938718D01*
X99698441Y-90843480D01*
X99603203Y-90748241D01*
X99555584Y-90653003D01*
X99412727Y-91795860D02*
X99460346Y-91700622D01*
X99507965Y-91653003D01*
X99603203Y-91605384D01*
X99650822Y-91605384D01*
X99746060Y-91653003D01*
X99793680Y-91700622D01*
X99841299Y-91795860D01*
X99841299Y-91986337D01*
X99793680Y-92081575D01*
X99746060Y-92129194D01*
X99650822Y-92176813D01*
X99603203Y-92176813D01*
X99507965Y-92129194D01*
X99460346Y-92081575D01*
X99412727Y-91986337D01*
X99412727Y-91795860D01*
X99365108Y-91700622D01*
X99317489Y-91653003D01*
X99222251Y-91605384D01*
X99031775Y-91605384D01*
X98936537Y-91653003D01*
X98888918Y-91700622D01*
X98841299Y-91795860D01*
X98841299Y-91986337D01*
X98888918Y-92081575D01*
X98936537Y-92129194D01*
X99031775Y-92176813D01*
X99222251Y-92176813D01*
X99317489Y-92129194D01*
X99365108Y-92081575D01*
X99412727Y-91986337D01*
X98936537Y-92605384D02*
X98888918Y-92653003D01*
X98841299Y-92605384D01*
X98888918Y-92557765D01*
X98936537Y-92605384D01*
X98841299Y-92605384D01*
X99746060Y-93033956D02*
X99793680Y-93081575D01*
X99841299Y-93176813D01*
X99841299Y-93414908D01*
X99793680Y-93510146D01*
X99746060Y-93557765D01*
X99650822Y-93605384D01*
X99555584Y-93605384D01*
X99412727Y-93557765D01*
X98841299Y-92986337D01*
X98841299Y-93605384D01*
X98841299Y-94795860D02*
X99507965Y-94795860D01*
X99412727Y-94795860D02*
X99460346Y-94843480D01*
X99507965Y-94938718D01*
X99507965Y-95081575D01*
X99460346Y-95176813D01*
X99365108Y-95224432D01*
X98841299Y-95224432D01*
X99365108Y-95224432D02*
X99460346Y-95272051D01*
X99507965Y-95367289D01*
X99507965Y-95510146D01*
X99460346Y-95605384D01*
X99365108Y-95653003D01*
X98841299Y-95653003D01*
X98841299Y-96129194D02*
X99507965Y-96129194D01*
X99412727Y-96129194D02*
X99460346Y-96176813D01*
X99507965Y-96272051D01*
X99507965Y-96414908D01*
X99460346Y-96510146D01*
X99365108Y-96557765D01*
X98841299Y-96557765D01*
X99365108Y-96557765D02*
X99460346Y-96605384D01*
X99507965Y-96700622D01*
X99507965Y-96843480D01*
X99460346Y-96938718D01*
X99365108Y-96986337D01*
X98841299Y-96986337D01*
X154641299Y-63324432D02*
X154641299Y-62753003D01*
X154641299Y-63038718D02*
X155641299Y-63038718D01*
X155498441Y-62943480D01*
X155403203Y-62848241D01*
X155355584Y-62753003D01*
X155212727Y-63895860D02*
X155260346Y-63800622D01*
X155307965Y-63753003D01*
X155403203Y-63705384D01*
X155450822Y-63705384D01*
X155546060Y-63753003D01*
X155593680Y-63800622D01*
X155641299Y-63895860D01*
X155641299Y-64086337D01*
X155593680Y-64181575D01*
X155546060Y-64229194D01*
X155450822Y-64276813D01*
X155403203Y-64276813D01*
X155307965Y-64229194D01*
X155260346Y-64181575D01*
X155212727Y-64086337D01*
X155212727Y-63895860D01*
X155165108Y-63800622D01*
X155117489Y-63753003D01*
X155022251Y-63705384D01*
X154831775Y-63705384D01*
X154736537Y-63753003D01*
X154688918Y-63800622D01*
X154641299Y-63895860D01*
X154641299Y-64086337D01*
X154688918Y-64181575D01*
X154736537Y-64229194D01*
X154831775Y-64276813D01*
X155022251Y-64276813D01*
X155117489Y-64229194D01*
X155165108Y-64181575D01*
X155212727Y-64086337D01*
X154736537Y-64705384D02*
X154688918Y-64753003D01*
X154641299Y-64705384D01*
X154688918Y-64657765D01*
X154736537Y-64705384D01*
X154641299Y-64705384D01*
X155546060Y-65133956D02*
X155593680Y-65181575D01*
X155641299Y-65276813D01*
X155641299Y-65514908D01*
X155593680Y-65610146D01*
X155546060Y-65657765D01*
X155450822Y-65705384D01*
X155355584Y-65705384D01*
X155212727Y-65657765D01*
X154641299Y-65086337D01*
X154641299Y-65705384D01*
X154641299Y-66895860D02*
X155307965Y-66895860D01*
X155212727Y-66895860D02*
X155260346Y-66943480D01*
X155307965Y-67038718D01*
X155307965Y-67181575D01*
X155260346Y-67276813D01*
X155165108Y-67324432D01*
X154641299Y-67324432D01*
X155165108Y-67324432D02*
X155260346Y-67372051D01*
X155307965Y-67467289D01*
X155307965Y-67610146D01*
X155260346Y-67705384D01*
X155165108Y-67753003D01*
X154641299Y-67753003D01*
X154641299Y-68229194D02*
X155307965Y-68229194D01*
X155212727Y-68229194D02*
X155260346Y-68276813D01*
X155307965Y-68372051D01*
X155307965Y-68514908D01*
X155260346Y-68610146D01*
X155165108Y-68657765D01*
X154641299Y-68657765D01*
X155165108Y-68657765D02*
X155260346Y-68705384D01*
X155307965Y-68800622D01*
X155307965Y-68943480D01*
X155260346Y-69038718D01*
X155165108Y-69086337D01*
X154641299Y-69086337D01*
X126741299Y-63324432D02*
X126741299Y-62753003D01*
X126741299Y-63038718D02*
X127741299Y-63038718D01*
X127598441Y-62943480D01*
X127503203Y-62848241D01*
X127455584Y-62753003D01*
X127312727Y-63895860D02*
X127360346Y-63800622D01*
X127407965Y-63753003D01*
X127503203Y-63705384D01*
X127550822Y-63705384D01*
X127646060Y-63753003D01*
X127693680Y-63800622D01*
X127741299Y-63895860D01*
X127741299Y-64086337D01*
X127693680Y-64181575D01*
X127646060Y-64229194D01*
X127550822Y-64276813D01*
X127503203Y-64276813D01*
X127407965Y-64229194D01*
X127360346Y-64181575D01*
X127312727Y-64086337D01*
X127312727Y-63895860D01*
X127265108Y-63800622D01*
X127217489Y-63753003D01*
X127122251Y-63705384D01*
X126931775Y-63705384D01*
X126836537Y-63753003D01*
X126788918Y-63800622D01*
X126741299Y-63895860D01*
X126741299Y-64086337D01*
X126788918Y-64181575D01*
X126836537Y-64229194D01*
X126931775Y-64276813D01*
X127122251Y-64276813D01*
X127217489Y-64229194D01*
X127265108Y-64181575D01*
X127312727Y-64086337D01*
X126836537Y-64705384D02*
X126788918Y-64753003D01*
X126741299Y-64705384D01*
X126788918Y-64657765D01*
X126836537Y-64705384D01*
X126741299Y-64705384D01*
X127646060Y-65133956D02*
X127693680Y-65181575D01*
X127741299Y-65276813D01*
X127741299Y-65514908D01*
X127693680Y-65610146D01*
X127646060Y-65657765D01*
X127550822Y-65705384D01*
X127455584Y-65705384D01*
X127312727Y-65657765D01*
X126741299Y-65086337D01*
X126741299Y-65705384D01*
X126741299Y-66895860D02*
X127407965Y-66895860D01*
X127312727Y-66895860D02*
X127360346Y-66943480D01*
X127407965Y-67038718D01*
X127407965Y-67181575D01*
X127360346Y-67276813D01*
X127265108Y-67324432D01*
X126741299Y-67324432D01*
X127265108Y-67324432D02*
X127360346Y-67372051D01*
X127407965Y-67467289D01*
X127407965Y-67610146D01*
X127360346Y-67705384D01*
X127265108Y-67753003D01*
X126741299Y-67753003D01*
X126741299Y-68229194D02*
X127407965Y-68229194D01*
X127312727Y-68229194D02*
X127360346Y-68276813D01*
X127407965Y-68372051D01*
X127407965Y-68514908D01*
X127360346Y-68610146D01*
X127265108Y-68657765D01*
X126741299Y-68657765D01*
X127265108Y-68657765D02*
X127360346Y-68705384D01*
X127407965Y-68800622D01*
X127407965Y-68943480D01*
X127360346Y-69038718D01*
X127265108Y-69086337D01*
X126741299Y-69086337D01*
X151316348Y-119676794D02*
X151344920Y-119705365D01*
X151373491Y-119762508D01*
X151373491Y-119905365D01*
X151344920Y-119962508D01*
X151316348Y-119991080D01*
X151259205Y-120019651D01*
X151202062Y-120019651D01*
X151116348Y-119991080D01*
X150773491Y-119648222D01*
X150773491Y-120019651D01*
X151373491Y-120562508D02*
X151373491Y-120276794D01*
X151087777Y-120248222D01*
X151116348Y-120276794D01*
X151144920Y-120333937D01*
X151144920Y-120476794D01*
X151116348Y-120533937D01*
X151087777Y-120562508D01*
X151030634Y-120591080D01*
X150887777Y-120591080D01*
X150830634Y-120562508D01*
X150802062Y-120533937D01*
X150773491Y-120476794D01*
X150773491Y-120333937D01*
X150802062Y-120276794D01*
X150830634Y-120248222D01*
X150830634Y-120848222D02*
X150802062Y-120876794D01*
X150773491Y-120848222D01*
X150802062Y-120819651D01*
X150830634Y-120848222D01*
X150773491Y-120848222D01*
X151173491Y-121391080D02*
X150773491Y-121391080D01*
X151402062Y-121248222D02*
X150973491Y-121105365D01*
X150973491Y-121476794D01*
X150773491Y-122162508D02*
X151173491Y-122162508D01*
X151116348Y-122162508D02*
X151144920Y-122191080D01*
X151173491Y-122248222D01*
X151173491Y-122333937D01*
X151144920Y-122391080D01*
X151087777Y-122419651D01*
X150773491Y-122419651D01*
X151087777Y-122419651D02*
X151144920Y-122448222D01*
X151173491Y-122505365D01*
X151173491Y-122591080D01*
X151144920Y-122648222D01*
X151087777Y-122676794D01*
X150773491Y-122676794D01*
X150773491Y-122962508D02*
X151173491Y-122962508D01*
X151116348Y-122962508D02*
X151144920Y-122991080D01*
X151173491Y-123048222D01*
X151173491Y-123133937D01*
X151144920Y-123191080D01*
X151087777Y-123219651D01*
X150773491Y-123219651D01*
X151087777Y-123219651D02*
X151144920Y-123248222D01*
X151173491Y-123305365D01*
X151173491Y-123391080D01*
X151144920Y-123448222D01*
X151087777Y-123476794D01*
X150773491Y-123476794D01*
X123416348Y-119676794D02*
X123444920Y-119705365D01*
X123473491Y-119762508D01*
X123473491Y-119905365D01*
X123444920Y-119962508D01*
X123416348Y-119991080D01*
X123359205Y-120019651D01*
X123302062Y-120019651D01*
X123216348Y-119991080D01*
X122873491Y-119648222D01*
X122873491Y-120019651D01*
X123473491Y-120562508D02*
X123473491Y-120276794D01*
X123187777Y-120248222D01*
X123216348Y-120276794D01*
X123244920Y-120333937D01*
X123244920Y-120476794D01*
X123216348Y-120533937D01*
X123187777Y-120562508D01*
X123130634Y-120591080D01*
X122987777Y-120591080D01*
X122930634Y-120562508D01*
X122902062Y-120533937D01*
X122873491Y-120476794D01*
X122873491Y-120333937D01*
X122902062Y-120276794D01*
X122930634Y-120248222D01*
X122930634Y-120848222D02*
X122902062Y-120876794D01*
X122873491Y-120848222D01*
X122902062Y-120819651D01*
X122930634Y-120848222D01*
X122873491Y-120848222D01*
X123273491Y-121391080D02*
X122873491Y-121391080D01*
X123502062Y-121248222D02*
X123073491Y-121105365D01*
X123073491Y-121476794D01*
X122873491Y-122162508D02*
X123273491Y-122162508D01*
X123216348Y-122162508D02*
X123244920Y-122191080D01*
X123273491Y-122248222D01*
X123273491Y-122333937D01*
X123244920Y-122391080D01*
X123187777Y-122419651D01*
X122873491Y-122419651D01*
X123187777Y-122419651D02*
X123244920Y-122448222D01*
X123273491Y-122505365D01*
X123273491Y-122591080D01*
X123244920Y-122648222D01*
X123187777Y-122676794D01*
X122873491Y-122676794D01*
X122873491Y-122962508D02*
X123273491Y-122962508D01*
X123216348Y-122962508D02*
X123244920Y-122991080D01*
X123273491Y-123048222D01*
X123273491Y-123133937D01*
X123244920Y-123191080D01*
X123187777Y-123219651D01*
X122873491Y-123219651D01*
X123187777Y-123219651D02*
X123244920Y-123248222D01*
X123273491Y-123305365D01*
X123273491Y-123391080D01*
X123244920Y-123448222D01*
X123187777Y-123476794D01*
X122873491Y-123476794D01*
X95516348Y-119676794D02*
X95544920Y-119705365D01*
X95573491Y-119762508D01*
X95573491Y-119905365D01*
X95544920Y-119962508D01*
X95516348Y-119991080D01*
X95459205Y-120019651D01*
X95402062Y-120019651D01*
X95316348Y-119991080D01*
X94973491Y-119648222D01*
X94973491Y-120019651D01*
X95573491Y-120562508D02*
X95573491Y-120276794D01*
X95287777Y-120248222D01*
X95316348Y-120276794D01*
X95344920Y-120333937D01*
X95344920Y-120476794D01*
X95316348Y-120533937D01*
X95287777Y-120562508D01*
X95230634Y-120591080D01*
X95087777Y-120591080D01*
X95030634Y-120562508D01*
X95002062Y-120533937D01*
X94973491Y-120476794D01*
X94973491Y-120333937D01*
X95002062Y-120276794D01*
X95030634Y-120248222D01*
X95030634Y-120848222D02*
X95002062Y-120876794D01*
X94973491Y-120848222D01*
X95002062Y-120819651D01*
X95030634Y-120848222D01*
X94973491Y-120848222D01*
X95373491Y-121391080D02*
X94973491Y-121391080D01*
X95602062Y-121248222D02*
X95173491Y-121105365D01*
X95173491Y-121476794D01*
X94973491Y-122162508D02*
X95373491Y-122162508D01*
X95316348Y-122162508D02*
X95344920Y-122191080D01*
X95373491Y-122248222D01*
X95373491Y-122333937D01*
X95344920Y-122391080D01*
X95287777Y-122419651D01*
X94973491Y-122419651D01*
X95287777Y-122419651D02*
X95344920Y-122448222D01*
X95373491Y-122505365D01*
X95373491Y-122591080D01*
X95344920Y-122648222D01*
X95287777Y-122676794D01*
X94973491Y-122676794D01*
X94973491Y-122962508D02*
X95373491Y-122962508D01*
X95316348Y-122962508D02*
X95344920Y-122991080D01*
X95373491Y-123048222D01*
X95373491Y-123133937D01*
X95344920Y-123191080D01*
X95287777Y-123219651D01*
X94973491Y-123219651D01*
X95287777Y-123219651D02*
X95344920Y-123248222D01*
X95373491Y-123305365D01*
X95373491Y-123391080D01*
X95344920Y-123448222D01*
X95287777Y-123476794D01*
X94973491Y-123476794D01*
X151316348Y-91776794D02*
X151344920Y-91805365D01*
X151373491Y-91862508D01*
X151373491Y-92005365D01*
X151344920Y-92062508D01*
X151316348Y-92091080D01*
X151259205Y-92119651D01*
X151202062Y-92119651D01*
X151116348Y-92091080D01*
X150773491Y-91748222D01*
X150773491Y-92119651D01*
X151373491Y-92662508D02*
X151373491Y-92376794D01*
X151087777Y-92348222D01*
X151116348Y-92376794D01*
X151144920Y-92433937D01*
X151144920Y-92576794D01*
X151116348Y-92633937D01*
X151087777Y-92662508D01*
X151030634Y-92691080D01*
X150887777Y-92691080D01*
X150830634Y-92662508D01*
X150802062Y-92633937D01*
X150773491Y-92576794D01*
X150773491Y-92433937D01*
X150802062Y-92376794D01*
X150830634Y-92348222D01*
X150830634Y-92948222D02*
X150802062Y-92976794D01*
X150773491Y-92948222D01*
X150802062Y-92919651D01*
X150830634Y-92948222D01*
X150773491Y-92948222D01*
X151173491Y-93491080D02*
X150773491Y-93491080D01*
X151402062Y-93348222D02*
X150973491Y-93205365D01*
X150973491Y-93576794D01*
X150773491Y-94262508D02*
X151173491Y-94262508D01*
X151116348Y-94262508D02*
X151144920Y-94291080D01*
X151173491Y-94348222D01*
X151173491Y-94433937D01*
X151144920Y-94491080D01*
X151087777Y-94519651D01*
X150773491Y-94519651D01*
X151087777Y-94519651D02*
X151144920Y-94548222D01*
X151173491Y-94605365D01*
X151173491Y-94691080D01*
X151144920Y-94748222D01*
X151087777Y-94776794D01*
X150773491Y-94776794D01*
X150773491Y-95062508D02*
X151173491Y-95062508D01*
X151116348Y-95062508D02*
X151144920Y-95091080D01*
X151173491Y-95148222D01*
X151173491Y-95233937D01*
X151144920Y-95291080D01*
X151087777Y-95319651D01*
X150773491Y-95319651D01*
X151087777Y-95319651D02*
X151144920Y-95348222D01*
X151173491Y-95405365D01*
X151173491Y-95491080D01*
X151144920Y-95548222D01*
X151087777Y-95576794D01*
X150773491Y-95576794D01*
X123416348Y-91776794D02*
X123444920Y-91805365D01*
X123473491Y-91862508D01*
X123473491Y-92005365D01*
X123444920Y-92062508D01*
X123416348Y-92091080D01*
X123359205Y-92119651D01*
X123302062Y-92119651D01*
X123216348Y-92091080D01*
X122873491Y-91748222D01*
X122873491Y-92119651D01*
X123473491Y-92662508D02*
X123473491Y-92376794D01*
X123187777Y-92348222D01*
X123216348Y-92376794D01*
X123244920Y-92433937D01*
X123244920Y-92576794D01*
X123216348Y-92633937D01*
X123187777Y-92662508D01*
X123130634Y-92691080D01*
X122987777Y-92691080D01*
X122930634Y-92662508D01*
X122902062Y-92633937D01*
X122873491Y-92576794D01*
X122873491Y-92433937D01*
X122902062Y-92376794D01*
X122930634Y-92348222D01*
X122930634Y-92948222D02*
X122902062Y-92976794D01*
X122873491Y-92948222D01*
X122902062Y-92919651D01*
X122930634Y-92948222D01*
X122873491Y-92948222D01*
X123273491Y-93491080D02*
X122873491Y-93491080D01*
X123502062Y-93348222D02*
X123073491Y-93205365D01*
X123073491Y-93576794D01*
X122873491Y-94262508D02*
X123273491Y-94262508D01*
X123216348Y-94262508D02*
X123244920Y-94291080D01*
X123273491Y-94348222D01*
X123273491Y-94433937D01*
X123244920Y-94491080D01*
X123187777Y-94519651D01*
X122873491Y-94519651D01*
X123187777Y-94519651D02*
X123244920Y-94548222D01*
X123273491Y-94605365D01*
X123273491Y-94691080D01*
X123244920Y-94748222D01*
X123187777Y-94776794D01*
X122873491Y-94776794D01*
X122873491Y-95062508D02*
X123273491Y-95062508D01*
X123216348Y-95062508D02*
X123244920Y-95091080D01*
X123273491Y-95148222D01*
X123273491Y-95233937D01*
X123244920Y-95291080D01*
X123187777Y-95319651D01*
X122873491Y-95319651D01*
X123187777Y-95319651D02*
X123244920Y-95348222D01*
X123273491Y-95405365D01*
X123273491Y-95491080D01*
X123244920Y-95548222D01*
X123187777Y-95576794D01*
X122873491Y-95576794D01*
X95516348Y-91776794D02*
X95544920Y-91805365D01*
X95573491Y-91862508D01*
X95573491Y-92005365D01*
X95544920Y-92062508D01*
X95516348Y-92091080D01*
X95459205Y-92119651D01*
X95402062Y-92119651D01*
X95316348Y-92091080D01*
X94973491Y-91748222D01*
X94973491Y-92119651D01*
X95573491Y-92662508D02*
X95573491Y-92376794D01*
X95287777Y-92348222D01*
X95316348Y-92376794D01*
X95344920Y-92433937D01*
X95344920Y-92576794D01*
X95316348Y-92633937D01*
X95287777Y-92662508D01*
X95230634Y-92691080D01*
X95087777Y-92691080D01*
X95030634Y-92662508D01*
X95002062Y-92633937D01*
X94973491Y-92576794D01*
X94973491Y-92433937D01*
X95002062Y-92376794D01*
X95030634Y-92348222D01*
X95030634Y-92948222D02*
X95002062Y-92976794D01*
X94973491Y-92948222D01*
X95002062Y-92919651D01*
X95030634Y-92948222D01*
X94973491Y-92948222D01*
X95373491Y-93491080D02*
X94973491Y-93491080D01*
X95602062Y-93348222D02*
X95173491Y-93205365D01*
X95173491Y-93576794D01*
X94973491Y-94262508D02*
X95373491Y-94262508D01*
X95316348Y-94262508D02*
X95344920Y-94291080D01*
X95373491Y-94348222D01*
X95373491Y-94433937D01*
X95344920Y-94491080D01*
X95287777Y-94519651D01*
X94973491Y-94519651D01*
X95287777Y-94519651D02*
X95344920Y-94548222D01*
X95373491Y-94605365D01*
X95373491Y-94691080D01*
X95344920Y-94748222D01*
X95287777Y-94776794D01*
X94973491Y-94776794D01*
X94973491Y-95062508D02*
X95373491Y-95062508D01*
X95316348Y-95062508D02*
X95344920Y-95091080D01*
X95373491Y-95148222D01*
X95373491Y-95233937D01*
X95344920Y-95291080D01*
X95287777Y-95319651D01*
X94973491Y-95319651D01*
X95287777Y-95319651D02*
X95344920Y-95348222D01*
X95373491Y-95405365D01*
X95373491Y-95491080D01*
X95344920Y-95548222D01*
X95287777Y-95576794D01*
X94973491Y-95576794D01*
X151316348Y-63876794D02*
X151344920Y-63905365D01*
X151373491Y-63962508D01*
X151373491Y-64105365D01*
X151344920Y-64162508D01*
X151316348Y-64191080D01*
X151259205Y-64219651D01*
X151202062Y-64219651D01*
X151116348Y-64191080D01*
X150773491Y-63848222D01*
X150773491Y-64219651D01*
X151373491Y-64762508D02*
X151373491Y-64476794D01*
X151087777Y-64448222D01*
X151116348Y-64476794D01*
X151144920Y-64533937D01*
X151144920Y-64676794D01*
X151116348Y-64733937D01*
X151087777Y-64762508D01*
X151030634Y-64791080D01*
X150887777Y-64791080D01*
X150830634Y-64762508D01*
X150802062Y-64733937D01*
X150773491Y-64676794D01*
X150773491Y-64533937D01*
X150802062Y-64476794D01*
X150830634Y-64448222D01*
X150830634Y-65048222D02*
X150802062Y-65076794D01*
X150773491Y-65048222D01*
X150802062Y-65019651D01*
X150830634Y-65048222D01*
X150773491Y-65048222D01*
X151173491Y-65591080D02*
X150773491Y-65591080D01*
X151402062Y-65448222D02*
X150973491Y-65305365D01*
X150973491Y-65676794D01*
X150773491Y-66362508D02*
X151173491Y-66362508D01*
X151116348Y-66362508D02*
X151144920Y-66391080D01*
X151173491Y-66448222D01*
X151173491Y-66533937D01*
X151144920Y-66591080D01*
X151087777Y-66619651D01*
X150773491Y-66619651D01*
X151087777Y-66619651D02*
X151144920Y-66648222D01*
X151173491Y-66705365D01*
X151173491Y-66791080D01*
X151144920Y-66848222D01*
X151087777Y-66876794D01*
X150773491Y-66876794D01*
X150773491Y-67162508D02*
X151173491Y-67162508D01*
X151116348Y-67162508D02*
X151144920Y-67191080D01*
X151173491Y-67248222D01*
X151173491Y-67333937D01*
X151144920Y-67391080D01*
X151087777Y-67419651D01*
X150773491Y-67419651D01*
X151087777Y-67419651D02*
X151144920Y-67448222D01*
X151173491Y-67505365D01*
X151173491Y-67591080D01*
X151144920Y-67648222D01*
X151087777Y-67676794D01*
X150773491Y-67676794D01*
X123416348Y-63876794D02*
X123444920Y-63905365D01*
X123473491Y-63962508D01*
X123473491Y-64105365D01*
X123444920Y-64162508D01*
X123416348Y-64191080D01*
X123359205Y-64219651D01*
X123302062Y-64219651D01*
X123216348Y-64191080D01*
X122873491Y-63848222D01*
X122873491Y-64219651D01*
X123473491Y-64762508D02*
X123473491Y-64476794D01*
X123187777Y-64448222D01*
X123216348Y-64476794D01*
X123244920Y-64533937D01*
X123244920Y-64676794D01*
X123216348Y-64733937D01*
X123187777Y-64762508D01*
X123130634Y-64791080D01*
X122987777Y-64791080D01*
X122930634Y-64762508D01*
X122902062Y-64733937D01*
X122873491Y-64676794D01*
X122873491Y-64533937D01*
X122902062Y-64476794D01*
X122930634Y-64448222D01*
X122930634Y-65048222D02*
X122902062Y-65076794D01*
X122873491Y-65048222D01*
X122902062Y-65019651D01*
X122930634Y-65048222D01*
X122873491Y-65048222D01*
X123273491Y-65591080D02*
X122873491Y-65591080D01*
X123502062Y-65448222D02*
X123073491Y-65305365D01*
X123073491Y-65676794D01*
X122873491Y-66362508D02*
X123273491Y-66362508D01*
X123216348Y-66362508D02*
X123244920Y-66391080D01*
X123273491Y-66448222D01*
X123273491Y-66533937D01*
X123244920Y-66591080D01*
X123187777Y-66619651D01*
X122873491Y-66619651D01*
X123187777Y-66619651D02*
X123244920Y-66648222D01*
X123273491Y-66705365D01*
X123273491Y-66791080D01*
X123244920Y-66848222D01*
X123187777Y-66876794D01*
X122873491Y-66876794D01*
X122873491Y-67162508D02*
X123273491Y-67162508D01*
X123216348Y-67162508D02*
X123244920Y-67191080D01*
X123273491Y-67248222D01*
X123273491Y-67333937D01*
X123244920Y-67391080D01*
X123187777Y-67419651D01*
X122873491Y-67419651D01*
X123187777Y-67419651D02*
X123244920Y-67448222D01*
X123273491Y-67505365D01*
X123273491Y-67591080D01*
X123244920Y-67648222D01*
X123187777Y-67676794D01*
X122873491Y-67676794D01*
D12*
X151677800Y-134771560D02*
X177077800Y-134771560D01*
X123777800Y-134771560D02*
X149177800Y-134771560D01*
X95877800Y-134771560D02*
X121277800Y-134771560D01*
X151677800Y-106871560D02*
X177077800Y-106871560D01*
X123777800Y-106871560D02*
X149177800Y-106871560D01*
X95877800Y-106871560D02*
X121277800Y-106871560D01*
X151677800Y-78971560D02*
X177077800Y-78971560D01*
X123777800Y-78971560D02*
X149177800Y-78971560D01*
X177077800Y-109371560D02*
X177077800Y-134771560D01*
X149177800Y-109371560D02*
X149177800Y-134771560D01*
X121277800Y-109371560D02*
X121277800Y-134771560D01*
X177077800Y-81471560D02*
X177077800Y-106871560D01*
X149177800Y-81471560D02*
X149177800Y-106871560D01*
X121277800Y-81471560D02*
X121277800Y-106871560D01*
X177077800Y-53571560D02*
X177077800Y-78971560D01*
X149177800Y-53571560D02*
X149177800Y-78971560D01*
X151677800Y-109371560D02*
X177077800Y-109371560D01*
X123777800Y-109371560D02*
X149177800Y-109371560D01*
X95877800Y-109371560D02*
X121277800Y-109371560D01*
X151677800Y-81471560D02*
X177077800Y-81471560D01*
X123777800Y-81471560D02*
X149177800Y-81471560D01*
X95877800Y-81471560D02*
X121277800Y-81471560D01*
X151677800Y-53571560D02*
X177077800Y-53571560D01*
X123777800Y-53571560D02*
X149177800Y-53571560D01*
X151677800Y-109371560D02*
X151677800Y-134771560D01*
X123777800Y-109371560D02*
X123777800Y-134771560D01*
X95877800Y-109371560D02*
X95877800Y-134771560D01*
X151677800Y-81471560D02*
X151677800Y-106871560D01*
X123777800Y-81471560D02*
X123777800Y-106871560D01*
X95877800Y-81471560D02*
X95877800Y-106871560D01*
X151677800Y-53571560D02*
X151677800Y-78971560D01*
X123777800Y-53571560D02*
X123777800Y-78971560D01*
D10*
X150427800Y-108121560D02*
X178327800Y-108121560D01*
X122527800Y-108121560D02*
X150427800Y-108121560D01*
X94627800Y-108121560D02*
X122527800Y-108121560D01*
X150427800Y-80221560D02*
X178327800Y-80221560D01*
X122527800Y-80221560D02*
X150427800Y-80221560D01*
X94627800Y-80221560D02*
X122527800Y-80221560D01*
X150427800Y-52321560D02*
X178327800Y-52321560D01*
X122527800Y-52321560D02*
X150427800Y-52321560D01*
D11*
X105765915Y-57898020D02*
X105765915Y-56898020D01*
X106337343Y-57898020D01*
X106337343Y-56898020D01*
X106099248Y-59024211D02*
X105765915Y-59024211D01*
X105765915Y-59548020D02*
X105765915Y-58548020D01*
X106242105Y-58548020D01*
X107099248Y-59548020D02*
X106623058Y-59548020D01*
X106623058Y-58548020D01*
X107384962Y-59262306D02*
X107861153Y-59262306D01*
X107289724Y-59548020D02*
X107623058Y-58548020D01*
X107956391Y-59548020D01*
X108289724Y-59548020D02*
X108289724Y-58548020D01*
X108861153Y-59548020D01*
X108861153Y-58548020D01*
X109861153Y-58595640D02*
X109765915Y-58548020D01*
X109623058Y-58548020D01*
X109480200Y-58595640D01*
X109384962Y-58690878D01*
X109337343Y-58786116D01*
X109289724Y-58976592D01*
X109289724Y-59119449D01*
X109337343Y-59309925D01*
X109384962Y-59405163D01*
X109480200Y-59500401D01*
X109623058Y-59548020D01*
X109718296Y-59548020D01*
X109861153Y-59500401D01*
X109908772Y-59452782D01*
X109908772Y-59119449D01*
X109718296Y-59119449D01*
X110337343Y-59024211D02*
X110670677Y-59024211D01*
X110813534Y-59548020D02*
X110337343Y-59548020D01*
X110337343Y-58548020D01*
X110813534Y-58548020D01*
X106194486Y-60531354D02*
X106194486Y-61198020D01*
X105956391Y-60150401D02*
X105718296Y-60864687D01*
X106337343Y-60864687D01*
X107480200Y-61198020D02*
X107480200Y-60198020D01*
X107480200Y-60674211D02*
X108051629Y-60674211D01*
X108051629Y-61198020D02*
X108051629Y-60198020D01*
X108718296Y-60198020D02*
X108908772Y-60198020D01*
X109004010Y-60245640D01*
X109099248Y-60340878D01*
X109146867Y-60531354D01*
X109146867Y-60864687D01*
X109099248Y-61055163D01*
X109004010Y-61150401D01*
X108908772Y-61198020D01*
X108718296Y-61198020D01*
X108623058Y-61150401D01*
X108527820Y-61055163D01*
X108480200Y-60864687D01*
X108480200Y-60531354D01*
X108527820Y-60340878D01*
X108623058Y-60245640D01*
X108718296Y-60198020D01*
X110051629Y-61198020D02*
X109575439Y-61198020D01*
X109575439Y-60198020D01*
X110384962Y-60674211D02*
X110718296Y-60674211D01*
X110861153Y-61198020D02*
X110384962Y-61198020D01*
X110384962Y-60198020D01*
X110861153Y-60198020D01*
X111242105Y-61150401D02*
X111384962Y-61198020D01*
X111623058Y-61198020D01*
X111718296Y-61150401D01*
X111765915Y-61102782D01*
X111813534Y-61007544D01*
X111813534Y-60912306D01*
X111765915Y-60817068D01*
X111718296Y-60769449D01*
X111623058Y-60721830D01*
X111432581Y-60674211D01*
X111337343Y-60626592D01*
X111289724Y-60578973D01*
X111242105Y-60483735D01*
X111242105Y-60388497D01*
X111289724Y-60293259D01*
X111337343Y-60245640D01*
X111432581Y-60198020D01*
X111670677Y-60198020D01*
X111813534Y-60245640D01*
X95516348Y-63876794D02*
X95544920Y-63905365D01*
X95573491Y-63962508D01*
X95573491Y-64105365D01*
X95544920Y-64162508D01*
X95516348Y-64191080D01*
X95459205Y-64219651D01*
X95402062Y-64219651D01*
X95316348Y-64191080D01*
X94973491Y-63848222D01*
X94973491Y-64219651D01*
X95573491Y-64762508D02*
X95573491Y-64476794D01*
X95287777Y-64448222D01*
X95316348Y-64476794D01*
X95344920Y-64533937D01*
X95344920Y-64676794D01*
X95316348Y-64733937D01*
X95287777Y-64762508D01*
X95230634Y-64791080D01*
X95087777Y-64791080D01*
X95030634Y-64762508D01*
X95002062Y-64733937D01*
X94973491Y-64676794D01*
X94973491Y-64533937D01*
X95002062Y-64476794D01*
X95030634Y-64448222D01*
X95030634Y-65048222D02*
X95002062Y-65076794D01*
X94973491Y-65048222D01*
X95002062Y-65019651D01*
X95030634Y-65048222D01*
X94973491Y-65048222D01*
X95373491Y-65591080D02*
X94973491Y-65591080D01*
X95602062Y-65448222D02*
X95173491Y-65305365D01*
X95173491Y-65676794D01*
X94973491Y-66362508D02*
X95373491Y-66362508D01*
X95316348Y-66362508D02*
X95344920Y-66391080D01*
X95373491Y-66448222D01*
X95373491Y-66533937D01*
X95344920Y-66591080D01*
X95287777Y-66619651D01*
X94973491Y-66619651D01*
X95287777Y-66619651D02*
X95344920Y-66648222D01*
X95373491Y-66705365D01*
X95373491Y-66791080D01*
X95344920Y-66848222D01*
X95287777Y-66876794D01*
X94973491Y-66876794D01*
X94973491Y-67162508D02*
X95373491Y-67162508D01*
X95316348Y-67162508D02*
X95344920Y-67191080D01*
X95373491Y-67248222D01*
X95373491Y-67333937D01*
X95344920Y-67391080D01*
X95287777Y-67419651D01*
X94973491Y-67419651D01*
X95287777Y-67419651D02*
X95344920Y-67448222D01*
X95373491Y-67505365D01*
X95373491Y-67591080D01*
X95344920Y-67648222D01*
X95287777Y-67676794D01*
X94973491Y-67676794D01*
X106177954Y-79367731D02*
X106206525Y-79339160D01*
X106263668Y-79310588D01*
X106406525Y-79310588D01*
X106463668Y-79339160D01*
X106492240Y-79367731D01*
X106520811Y-79424874D01*
X106520811Y-79482017D01*
X106492240Y-79567731D01*
X106149382Y-79910588D01*
X106520811Y-79910588D01*
X107063668Y-79310588D02*
X106777954Y-79310588D01*
X106749382Y-79596302D01*
X106777954Y-79567731D01*
X106835097Y-79539160D01*
X106977954Y-79539160D01*
X107035097Y-79567731D01*
X107063668Y-79596302D01*
X107092240Y-79653445D01*
X107092240Y-79796302D01*
X107063668Y-79853445D01*
X107035097Y-79882017D01*
X106977954Y-79910588D01*
X106835097Y-79910588D01*
X106777954Y-79882017D01*
X106749382Y-79853445D01*
X107349382Y-79853445D02*
X107377954Y-79882017D01*
X107349382Y-79910588D01*
X107320811Y-79882017D01*
X107349382Y-79853445D01*
X107349382Y-79910588D01*
X107892240Y-79510588D02*
X107892240Y-79910588D01*
X107749382Y-79282017D02*
X107606525Y-79710588D01*
X107977954Y-79710588D01*
X108663668Y-79910588D02*
X108663668Y-79510588D01*
X108663668Y-79567731D02*
X108692240Y-79539160D01*
X108749382Y-79510588D01*
X108835097Y-79510588D01*
X108892240Y-79539160D01*
X108920811Y-79596302D01*
X108920811Y-79910588D01*
X108920811Y-79596302D02*
X108949382Y-79539160D01*
X109006525Y-79510588D01*
X109092240Y-79510588D01*
X109149382Y-79539160D01*
X109177954Y-79596302D01*
X109177954Y-79910588D01*
X109463668Y-79910588D02*
X109463668Y-79510588D01*
X109463668Y-79567731D02*
X109492240Y-79539160D01*
X109549382Y-79510588D01*
X109635097Y-79510588D01*
X109692240Y-79539160D01*
X109720811Y-79596302D01*
X109720811Y-79910588D01*
X109720811Y-79596302D02*
X109749382Y-79539160D01*
X109806525Y-79510588D01*
X109892240Y-79510588D01*
X109949382Y-79539160D01*
X109977954Y-79596302D01*
X109977954Y-79910588D01*
X98841299Y-63324432D02*
X98841299Y-62753003D01*
X98841299Y-63038718D02*
X99841299Y-63038718D01*
X99698441Y-62943480D01*
X99603203Y-62848241D01*
X99555584Y-62753003D01*
X99412727Y-63895860D02*
X99460346Y-63800622D01*
X99507965Y-63753003D01*
X99603203Y-63705384D01*
X99650822Y-63705384D01*
X99746060Y-63753003D01*
X99793680Y-63800622D01*
X99841299Y-63895860D01*
X99841299Y-64086337D01*
X99793680Y-64181575D01*
X99746060Y-64229194D01*
X99650822Y-64276813D01*
X99603203Y-64276813D01*
X99507965Y-64229194D01*
X99460346Y-64181575D01*
X99412727Y-64086337D01*
X99412727Y-63895860D01*
X99365108Y-63800622D01*
X99317489Y-63753003D01*
X99222251Y-63705384D01*
X99031775Y-63705384D01*
X98936537Y-63753003D01*
X98888918Y-63800622D01*
X98841299Y-63895860D01*
X98841299Y-64086337D01*
X98888918Y-64181575D01*
X98936537Y-64229194D01*
X99031775Y-64276813D01*
X99222251Y-64276813D01*
X99317489Y-64229194D01*
X99365108Y-64181575D01*
X99412727Y-64086337D01*
X98936537Y-64705384D02*
X98888918Y-64753003D01*
X98841299Y-64705384D01*
X98888918Y-64657765D01*
X98936537Y-64705384D01*
X98841299Y-64705384D01*
X99746060Y-65133956D02*
X99793680Y-65181575D01*
X99841299Y-65276813D01*
X99841299Y-65514908D01*
X99793680Y-65610146D01*
X99746060Y-65657765D01*
X99650822Y-65705384D01*
X99555584Y-65705384D01*
X99412727Y-65657765D01*
X98841299Y-65086337D01*
X98841299Y-65705384D01*
X98841299Y-66895860D02*
X99507965Y-66895860D01*
X99412727Y-66895860D02*
X99460346Y-66943480D01*
X99507965Y-67038718D01*
X99507965Y-67181575D01*
X99460346Y-67276813D01*
X99365108Y-67324432D01*
X98841299Y-67324432D01*
X99365108Y-67324432D02*
X99460346Y-67372051D01*
X99507965Y-67467289D01*
X99507965Y-67610146D01*
X99460346Y-67705384D01*
X99365108Y-67753003D01*
X98841299Y-67753003D01*
X98841299Y-68229194D02*
X99507965Y-68229194D01*
X99412727Y-68229194D02*
X99460346Y-68276813D01*
X99507965Y-68372051D01*
X99507965Y-68514908D01*
X99460346Y-68610146D01*
X99365108Y-68657765D01*
X98841299Y-68657765D01*
X99365108Y-68657765D02*
X99460346Y-68705384D01*
X99507965Y-68800622D01*
X99507965Y-68943480D01*
X99460346Y-69038718D01*
X99365108Y-69086337D01*
X98841299Y-69086337D01*
X105386832Y-75915780D02*
X104815403Y-75915780D01*
X105101118Y-75915780D02*
X105101118Y-74915780D01*
X105005880Y-75058638D01*
X104910641Y-75153876D01*
X104815403Y-75201495D01*
X105958260Y-75344352D02*
X105863022Y-75296733D01*
X105815403Y-75249114D01*
X105767784Y-75153876D01*
X105767784Y-75106257D01*
X105815403Y-75011019D01*
X105863022Y-74963400D01*
X105958260Y-74915780D01*
X106148737Y-74915780D01*
X106243975Y-74963400D01*
X106291594Y-75011019D01*
X106339213Y-75106257D01*
X106339213Y-75153876D01*
X106291594Y-75249114D01*
X106243975Y-75296733D01*
X106148737Y-75344352D01*
X105958260Y-75344352D01*
X105863022Y-75391971D01*
X105815403Y-75439590D01*
X105767784Y-75534828D01*
X105767784Y-75725304D01*
X105815403Y-75820542D01*
X105863022Y-75868161D01*
X105958260Y-75915780D01*
X106148737Y-75915780D01*
X106243975Y-75868161D01*
X106291594Y-75820542D01*
X106339213Y-75725304D01*
X106339213Y-75534828D01*
X106291594Y-75439590D01*
X106243975Y-75391971D01*
X106148737Y-75344352D01*
X106767784Y-75820542D02*
X106815403Y-75868161D01*
X106767784Y-75915780D01*
X106720165Y-75868161D01*
X106767784Y-75820542D01*
X106767784Y-75915780D01*
X107196356Y-75011019D02*
X107243975Y-74963400D01*
X107339213Y-74915780D01*
X107577308Y-74915780D01*
X107672546Y-74963400D01*
X107720165Y-75011019D01*
X107767784Y-75106257D01*
X107767784Y-75201495D01*
X107720165Y-75344352D01*
X107148737Y-75915780D01*
X107767784Y-75915780D01*
X108958260Y-75915780D02*
X108958260Y-75249114D01*
X108958260Y-75344352D02*
X109005880Y-75296733D01*
X109101118Y-75249114D01*
X109243975Y-75249114D01*
X109339213Y-75296733D01*
X109386832Y-75391971D01*
X109386832Y-75915780D01*
X109386832Y-75391971D02*
X109434451Y-75296733D01*
X109529689Y-75249114D01*
X109672546Y-75249114D01*
X109767784Y-75296733D01*
X109815403Y-75391971D01*
X109815403Y-75915780D01*
X110291594Y-75915780D02*
X110291594Y-75249114D01*
X110291594Y-75344352D02*
X110339213Y-75296733D01*
X110434451Y-75249114D01*
X110577308Y-75249114D01*
X110672546Y-75296733D01*
X110720165Y-75391971D01*
X110720165Y-75915780D01*
X110720165Y-75391971D02*
X110767784Y-75296733D01*
X110863022Y-75249114D01*
X111005880Y-75249114D01*
X111101118Y-75296733D01*
X111148737Y-75391971D01*
X111148737Y-75915780D01*
D10*
X94627800Y-80221560D02*
X122527800Y-80221560D01*
X122527800Y-52321560D02*
X122527800Y-80221560D01*
D12*
X95877800Y-78971560D02*
X121277800Y-78971560D01*
X121277800Y-53571560D02*
X121277800Y-78971560D01*
X95877800Y-53571560D02*
X121277800Y-53571560D01*
X95877800Y-53571560D02*
X95877800Y-78971560D01*
D10*
X94627800Y-52321560D02*
X122527800Y-52321560D01*
X94627800Y-52321560D02*
X94627800Y-80221560D01*
M02*
