G04 #@! TF.GenerationSoftware,KiCad,Pcbnew,5.1.5+dfsg1-2build2*
G04 #@! TF.CreationDate,2022-07-13T23:25:36-05:00*
G04 #@! TF.ProjectId,,58585858-5858-4585-9858-585858585858,rev?*
G04 #@! TF.SameCoordinates,Original*
G04 #@! TF.FileFunction,Profile,NP*
%FSLAX46Y46*%
G04 Gerber Fmt 4.6, Leading zero omitted, Abs format (unit mm)*
G04 Created by KiCad (PCBNEW 5.1.5+dfsg1-2build2) date 2022-07-13 23:25:36*
%MOMM*%
%LPD*%
G04 APERTURE LIST*
%ADD10C,0.050000*%
G04 APERTURE END LIST*
D10*
X140923360Y-113195520D02*
X140923360Y-127295520D01*
X115923360Y-113195520D02*
X115923360Y-127295520D01*
X90923360Y-113195520D02*
X90923360Y-127295520D01*
X65923360Y-113195520D02*
X65923360Y-127295520D01*
X140923360Y-99095520D02*
X140923360Y-113195520D01*
X115923360Y-99095520D02*
X115923360Y-113195520D01*
X90923360Y-99095520D02*
X90923360Y-113195520D01*
X65923360Y-99095520D02*
X65923360Y-113195520D01*
X140923360Y-84995520D02*
X140923360Y-99095520D01*
X115923360Y-84995520D02*
X115923360Y-99095520D01*
X90923360Y-84995520D02*
X90923360Y-99095520D01*
X65923360Y-84995520D02*
X65923360Y-99095520D01*
X140923360Y-70895520D02*
X140923360Y-84995520D01*
X115923360Y-70895520D02*
X115923360Y-84995520D01*
X90923360Y-70895520D02*
X90923360Y-84995520D01*
X65923360Y-70895520D02*
X65923360Y-84995520D01*
X140923360Y-56795520D02*
X140923360Y-70895520D01*
X115923360Y-56795520D02*
X115923360Y-70895520D01*
X90923360Y-56795520D02*
X90923360Y-70895520D01*
X65923360Y-56795520D02*
X65923360Y-70895520D01*
X140923360Y-42695520D02*
X140923360Y-56795520D01*
X115923360Y-42695520D02*
X115923360Y-56795520D01*
X90923360Y-42695520D02*
X90923360Y-56795520D01*
X65923360Y-42695520D02*
X65923360Y-56795520D01*
X140923360Y-28595520D02*
X140923360Y-42695520D01*
X115923360Y-28595520D02*
X115923360Y-42695520D01*
X90923360Y-28595520D02*
X90923360Y-42695520D01*
X165923360Y-113195520D02*
X165923360Y-127295520D01*
X140923360Y-113195520D02*
X140923360Y-127295520D01*
X115923360Y-113195520D02*
X115923360Y-127295520D01*
X90923360Y-113195520D02*
X90923360Y-127295520D01*
X165923360Y-99095520D02*
X165923360Y-113195520D01*
X140923360Y-99095520D02*
X140923360Y-113195520D01*
X115923360Y-99095520D02*
X115923360Y-113195520D01*
X90923360Y-99095520D02*
X90923360Y-113195520D01*
X165923360Y-84995520D02*
X165923360Y-99095520D01*
X140923360Y-84995520D02*
X140923360Y-99095520D01*
X115923360Y-84995520D02*
X115923360Y-99095520D01*
X90923360Y-84995520D02*
X90923360Y-99095520D01*
X165923360Y-70895520D02*
X165923360Y-84995520D01*
X140923360Y-70895520D02*
X140923360Y-84995520D01*
X115923360Y-70895520D02*
X115923360Y-84995520D01*
X90923360Y-70895520D02*
X90923360Y-84995520D01*
X165923360Y-56795520D02*
X165923360Y-70895520D01*
X140923360Y-56795520D02*
X140923360Y-70895520D01*
X115923360Y-56795520D02*
X115923360Y-70895520D01*
X90923360Y-56795520D02*
X90923360Y-70895520D01*
X165923360Y-42695520D02*
X165923360Y-56795520D01*
X140923360Y-42695520D02*
X140923360Y-56795520D01*
X115923360Y-42695520D02*
X115923360Y-56795520D01*
X90923360Y-42695520D02*
X90923360Y-56795520D01*
X165923360Y-28595520D02*
X165923360Y-42695520D01*
X140923360Y-28595520D02*
X140923360Y-42695520D01*
X115923360Y-28595520D02*
X115923360Y-42695520D01*
X140923360Y-127295520D02*
X165923360Y-127295520D01*
X115923360Y-127295520D02*
X140923360Y-127295520D01*
X90923360Y-127295520D02*
X115923360Y-127295520D01*
X65923360Y-127295520D02*
X90923360Y-127295520D01*
X140923360Y-113195520D02*
X165923360Y-113195520D01*
X115923360Y-113195520D02*
X140923360Y-113195520D01*
X90923360Y-113195520D02*
X115923360Y-113195520D01*
X65923360Y-113195520D02*
X90923360Y-113195520D01*
X140923360Y-99095520D02*
X165923360Y-99095520D01*
X115923360Y-99095520D02*
X140923360Y-99095520D01*
X90923360Y-99095520D02*
X115923360Y-99095520D01*
X65923360Y-99095520D02*
X90923360Y-99095520D01*
X140923360Y-84995520D02*
X165923360Y-84995520D01*
X115923360Y-84995520D02*
X140923360Y-84995520D01*
X90923360Y-84995520D02*
X115923360Y-84995520D01*
X65923360Y-84995520D02*
X90923360Y-84995520D01*
X140923360Y-70895520D02*
X165923360Y-70895520D01*
X115923360Y-70895520D02*
X140923360Y-70895520D01*
X90923360Y-70895520D02*
X115923360Y-70895520D01*
X65923360Y-70895520D02*
X90923360Y-70895520D01*
X140923360Y-56795520D02*
X165923360Y-56795520D01*
X115923360Y-56795520D02*
X140923360Y-56795520D01*
X90923360Y-56795520D02*
X115923360Y-56795520D01*
X65923360Y-56795520D02*
X90923360Y-56795520D01*
X140923360Y-42695520D02*
X165923360Y-42695520D01*
X115923360Y-42695520D02*
X140923360Y-42695520D01*
X90923360Y-42695520D02*
X115923360Y-42695520D01*
X140923360Y-113195520D02*
X165923360Y-113195520D01*
X115923360Y-113195520D02*
X140923360Y-113195520D01*
X90923360Y-113195520D02*
X115923360Y-113195520D01*
X65923360Y-113195520D02*
X90923360Y-113195520D01*
X140923360Y-99095520D02*
X165923360Y-99095520D01*
X115923360Y-99095520D02*
X140923360Y-99095520D01*
X90923360Y-99095520D02*
X115923360Y-99095520D01*
X65923360Y-99095520D02*
X90923360Y-99095520D01*
X140923360Y-84995520D02*
X165923360Y-84995520D01*
X115923360Y-84995520D02*
X140923360Y-84995520D01*
X90923360Y-84995520D02*
X115923360Y-84995520D01*
X65923360Y-84995520D02*
X90923360Y-84995520D01*
X140923360Y-70895520D02*
X165923360Y-70895520D01*
X115923360Y-70895520D02*
X140923360Y-70895520D01*
X90923360Y-70895520D02*
X115923360Y-70895520D01*
X65923360Y-70895520D02*
X90923360Y-70895520D01*
X140923360Y-56795520D02*
X165923360Y-56795520D01*
X115923360Y-56795520D02*
X140923360Y-56795520D01*
X90923360Y-56795520D02*
X115923360Y-56795520D01*
X65923360Y-56795520D02*
X90923360Y-56795520D01*
X140923360Y-42695520D02*
X165923360Y-42695520D01*
X115923360Y-42695520D02*
X140923360Y-42695520D01*
X90923360Y-42695520D02*
X115923360Y-42695520D01*
X65923360Y-42695520D02*
X90923360Y-42695520D01*
X140923360Y-28595520D02*
X165923360Y-28595520D01*
X115923360Y-28595520D02*
X140923360Y-28595520D01*
X90923360Y-28595520D02*
X115923360Y-28595520D01*
X90923360Y-28595520D02*
X90923360Y-42695520D01*
X65923360Y-28595520D02*
X65923360Y-42695520D01*
X65923360Y-42695520D02*
X90923360Y-42695520D01*
X65923360Y-28595520D02*
X90923360Y-28595520D01*
M02*
