M48
; DRILL file {KiCad 5.1.5+dfsg1-2build2} date jue 14 jul 2022 11:50:12
; FORMAT={-:-/ absolute / metric / decimal}
; #@! TF.CreationDate,2022-07-14T11:50:12-05:00
; #@! TF.GenerationSoftware,Kicad,Pcbnew,5.1.5+dfsg1-2build2
; #@! TF.FileFunction,Plated,1,2,PTH
FMAT,2
METRIC
T1C1.001
%
G90
G05
T1
X144.074Y-144.533
X184.174Y-116.333
X94.074Y-102.233
X159.174Y-130.433
X134.174Y-74.033
X169.074Y-102.233
X134.174Y-144.533
X109.174Y-88.133
X144.074Y-116.333
X184.174Y-88.133
X144.074Y-59.933
X169.074Y-74.033
X119.074Y-130.433
X109.174Y-59.933
X159.174Y-102.233
X94.074Y-144.533
X134.174Y-116.333
X144.074Y-88.133
X169.074Y-144.533
X109.174Y-130.433
X119.074Y-74.033
X184.174Y-59.933
X119.074Y-102.233
X184.174Y-130.433
X159.174Y-74.033
X159.174Y-59.933
X94.074Y-116.333
X159.174Y-144.533
X134.174Y-88.133
X169.074Y-116.333
X134.174Y-59.933
X119.074Y-59.933
X109.174Y-102.233
X169.074Y-59.933
X144.074Y-130.433
X94.074Y-88.133
X184.174Y-102.233
X119.074Y-144.533
X159.174Y-116.333
X169.074Y-88.133
X134.174Y-130.433
X109.174Y-74.033
X144.074Y-74.033
X144.074Y-102.233
X109.174Y-144.533
X184.174Y-74.033
X119.074Y-116.333
X184.174Y-144.533
X159.174Y-88.133
X94.074Y-59.933
X94.074Y-130.433
X134.174Y-102.233
X169.074Y-130.433
X94.074Y-74.033
X119.074Y-88.133
X109.174Y-116.333
T0
M30
