<?xml version="1.0" encoding="UTF-8" standalone="no"?>
<svg
   xmlns:dc="http://purl.org/dc/elements/1.1/"
   xmlns:cc="http://creativecommons.org/ns#"
   xmlns:rdf="http://www.w3.org/1999/02/22-rdf-syntax-ns#"
   xmlns:svg="http://www.w3.org/2000/svg"
   xmlns="http://www.w3.org/2000/svg"
   xmlns:sodipodi="http://sodipodi.sourceforge.net/DTD/sodipodi-0.dtd"
   xmlns:inkscape="http://www.inkscape.org/namespaces/inkscape"
   version="1.1"
   width="1.5250059cm"
   height="1.5250059cm"
   viewBox="0 0 6003.9646 6003.9661"
   id="svg134"
   sodipodi:docname="drill-layout.svg"
   inkscape:version="0.92.5 (2060ec1f9f, 2020-04-08)">
  <metadata
     id="metadata140">
    <rdf:RDF>
      <cc:Work
         rdf:about="">
        <dc:format>image/svg+xml</dc:format>
        <dc:type
           rdf:resource="http://purl.org/dc/dcmitype/StillImage" />
        <dc:title>SVG Picture created as SMA_FLANGE_4_HOLES-PTH-drl_map.svg date 2022/03/04 21:39:16 </dc:title>
      </cc:Work>
    </rdf:RDF>
  </metadata>
  <defs
     id="defs138" />
  <sodipodi:namedview
     pagecolor="#ffffff"
     bordercolor="#666666"
     borderopacity="1"
     objecttolerance="10"
     gridtolerance="10"
     guidetolerance="10"
     inkscape:pageopacity="0"
     inkscape:pageshadow="2"
     inkscape:window-width="1360"
     inkscape:window-height="618"
     id="namedview136"
     showgrid="false"
     fit-margin-top="0"
     fit-margin-left="0"
     fit-margin-right="0"
     fit-margin-bottom="0"
     inkscape:zoom="4.7573017"
     inkscape:cx="53.510284"
     inkscape:cy="17.218371"
     inkscape:window-x="0"
     inkscape:window-y="0"
     inkscape:window-maximized="1"
     inkscape:current-layer="svg134" />
  <title
     id="title2">SVG Picture created as SMA_FLANGE_4_HOLES-PTH-drl_map.svg date 2022/03/04 21:39:16 </title>
  <desc
     id="desc4">Picture generated by PCBNEW </desc>
  <g
     style="fill:#000000;fill-opacity:1;stroke:#000000;stroke-linecap:round;stroke-linejoin:round;stroke-opacity:1"
     id="g6"
     transform="translate(-19675.017,-19675.017)" />
  <g
     style="fill:#000000;fill-opacity:0;stroke:#000000;stroke-width:-0.0003937;stroke-linecap:round;stroke-linejoin:round;stroke-opacity:1"
     id="g8"
     transform="translate(-19675.017,-19675.017)" />
  <g
     id="g1713"
     transform="translate(-19675.017,-19675.017)">
    <g
       id="g963">
      <g
         style="fill:#000000;fill-opacity:0;stroke:#000000;stroke-width:19.68499947;stroke-linecap:round;stroke-linejoin:round;stroke-opacity:1"
         id="g18">
        <path
           d="m 19685,25669 h 5984"
           id="path10"
           inkscape:connector-curvature="0" />
        <path
           d="m 25669,19685 v 5984"
           id="path12"
           inkscape:connector-curvature="0" />
        <path
           d="m 19685,19685 h 5984"
           id="path14"
           inkscape:connector-curvature="0" />
        <path
           d="m 19685,19685 v 5984"
           id="path16"
           inkscape:connector-curvature="0" />
      </g>
      <g
         style="fill:#000000;fill-opacity:0;stroke:#000000;stroke-width:78.74019623;stroke-linecap:round;stroke-linejoin:round;stroke-opacity:1"
         id="g40">
        <path
           d="m 20826,20826 315,315"
           id="path20"
           inkscape:connector-curvature="0" />
        <path
           d="m 21141,20826 -315,315"
           id="path22"
           inkscape:connector-curvature="0" />
        <path
           d="m 24212,20826 315,315"
           id="path24"
           inkscape:connector-curvature="0" />
        <path
           d="m 24527,20826 -315,315"
           id="path26"
           inkscape:connector-curvature="0" />
        <path
           d="m 20826,24212 315,315"
           id="path28"
           inkscape:connector-curvature="0" />
        <path
           d="m 21141,24212 -315,315"
           id="path30"
           inkscape:connector-curvature="0" />
        <path
           d="m 22519,22519 315,315"
           id="path32"
           inkscape:connector-curvature="0" />
        <path
           d="m 22834,22519 -315,315"
           id="path34"
           inkscape:connector-curvature="0" />
        <path
           d="m 24212,24212 315,315"
           id="path36"
           inkscape:connector-curvature="0" />
        <path
           d="m 24527,24212 -315,315"
           id="path38"
           inkscape:connector-curvature="0" />
      </g>
    </g>
    <g
       id="g1601">
      <g
         style="fill:#000000;fill-opacity:1;stroke:#000000;stroke-linecap:round;stroke-linejoin:round;stroke-opacity:1"
         id="g1317" />
      <g
         style="fill:#000000;fill-opacity:0;stroke:#000000;stroke-width:-0.0003937;stroke-linecap:round;stroke-linejoin:round;stroke-opacity:1"
         id="g1319" />
      <g
         style="fill:#000000;fill-opacity:0;stroke:#000000;stroke-width:59.05509949;stroke-linecap:round;stroke-linejoin:round;stroke-opacity:1"
         id="g1465">
        <text
           style="font-size:314.96099854px;text-anchor:start;opacity:0"
           x="21926"
           y="20742.699"
           textLength="774.185"
           font-size="314.961"
           lengthAdjust="spacingAndGlyphs"
           id="text1321">SMA</text>
        <path
           inkscape:connector-curvature="0"
           d="m 22009,20720 34,11 h 56 l 22,-11 12,-12 11,-22 v -23 l -11,-22 -12,-11 -22,-12 -45,-11 -23,-11 -11,-11 -11,-23 v -22 l 11,-23 11,-11 23,-11 h 56 l 34,11"
           id="path1323" />
        <path
           inkscape:connector-curvature="0"
           d="m 22245,20731 v -236 l 79,168 79,-168 v 236"
           id="path1325" />
        <path
           inkscape:connector-curvature="0"
           d="m 22504,20663 h 112"
           id="path1327" />
        <path
           inkscape:connector-curvature="0"
           d="m 22481,20731 79,-236 79,236"
           id="path1329" />
        <text
           style="font-size:314.96099854px;text-anchor:start;opacity:0"
           x="21926"
           y="21156.1"
           textLength="1370.36"
           font-size="314.961"
           lengthAdjust="spacingAndGlyphs"
           id="text1331">FLANGE</text>
        <path
           inkscape:connector-curvature="0"
           d="m 22099,21021 h -79"
           id="path1333" />
        <path
           inkscape:connector-curvature="0"
           d="m 22020,21144 v -236 h 113"
           id="path1335" />
        <path
           inkscape:connector-curvature="0"
           d="m 22335,21144 h -112 v -236"
           id="path1337" />
        <path
           inkscape:connector-curvature="0"
           d="m 22403,21077 h 112"
           id="path1339" />
        <path
           inkscape:connector-curvature="0"
           d="m 22380,21144 79,-236 79,236"
           id="path1341" />
        <path
           inkscape:connector-curvature="0"
           d="m 22616,21144 v -236 l 135,236 v -236"
           id="path1343" />
        <path
           inkscape:connector-curvature="0"
           d="m 22988,20919 -23,-11 h -34 l -33,11 -23,23 -11,22 -11,45 v 34 l 11,45 11,23 23,22 33,11 h 23 l 34,-11 11,-11 v -79 h -45"
           id="path1345" />
        <path
           inkscape:connector-curvature="0"
           d="m 23100,21021 h 79"
           id="path1347" />
        <path
           inkscape:connector-curvature="0"
           d="m 23212,21144 h -112 v -236 h 112"
           id="path1349" />
        <text
           style="font-size:314.96099854px;text-anchor:start;opacity:0"
           x="21926"
           y="21569.5"
           textLength="1606.58"
           font-size="314.961"
           lengthAdjust="spacingAndGlyphs"
           id="text1351">4 HOLES</text>
        <path
           inkscape:connector-curvature="0"
           d="m 22121,21400 v 158"
           id="path1353" />
        <path
           inkscape:connector-curvature="0"
           d="m 22065,21310 -56,169 h 146"
           id="path1355" />
        <path
           inkscape:connector-curvature="0"
           d="m 22425,21558 v -236"
           id="path1357" />
        <path
           inkscape:connector-curvature="0"
           d="m 22425,21434 h 135"
           id="path1359" />
        <path
           inkscape:connector-curvature="0"
           d="m 22560,21558 v -236"
           id="path1361" />
        <path
           inkscape:connector-curvature="0"
           d="m 22718,21322 h 45 l 22,11 23,22 11,45 v 79 l -11,45 -23,22 -22,12 h -45 l -23,-12 -22,-22 -12,-45 v -79 l 12,-45 22,-22 23,-11"
           id="path1363" />
        <path
           inkscape:connector-curvature="0"
           d="m 23033,21558 h -113 v -236"
           id="path1365" />
        <path
           inkscape:connector-curvature="0"
           d="m 23111,21434 h 79"
           id="path1367" />
        <path
           inkscape:connector-curvature="0"
           d="m 23224,21558 h -113 v -236 h 113"
           id="path1369" />
        <path
           inkscape:connector-curvature="0"
           d="m 23314,21546 33,12 h 57 l 22,-12 11,-11 12,-22 v -23 l -12,-22 -11,-11 -22,-12 -45,-11 -23,-11 -11,-11 -11,-23 v -22 l 11,-23 11,-11 23,-11 h 56 l 34,11"
           id="path1371" />
        <g
           transform="rotate(90,20962,22618)"
           id="g1375">
          <text
             style="font-size:367.45401001px;text-anchor:middle;opacity:0"
             x="20962"
             y="22755.801"
             textLength="1677.8199"
             font-size="367.454"
             lengthAdjust="spacingAndGlyphs"
             id="text1373">8.6 mm</text>
        </g>
        <path
           inkscape:connector-curvature="0"
           d="m 20994,21922 13,-26 14,-13 26,-14 h 13 l 26,14 13,13 13,26 v 52 l -13,27 -13,13 -26,13 h -13 l -26,-13 -14,-13 -13,-27 v -52 l -13,-26 -13,-13 -26,-14 h -53 l -26,14 -13,13 -13,26 v 52 l 13,27 13,13 26,13 h 53 l 26,-13 13,-13 13,-27"
           id="path1377" />
        <path
           inkscape:connector-curvature="0"
           d="m 20863,22145 -13,13 -13,-13 13,-13 13,13 h -26"
           id="path1379" />
        <path
           inkscape:connector-curvature="0"
           d="m 21112,22394 v -52 l -13,-26 -13,-13 -39,-27 -53,-13 h -105 l -26,13 -13,13 -13,27 v 52 l 13,26 13,14 26,13 h 66 l 26,-13 13,-14 13,-26 v -52 l -13,-27 -13,-13 -26,-13"
           id="path1381" />
        <path
           inkscape:connector-curvature="0"
           d="m 20837,22749 h 184"
           id="path1383" />
        <path
           inkscape:connector-curvature="0"
           d="m 20994,22749 13,13 14,26 v 39 l -14,27 -26,13 h -144"
           id="path1385" />
        <path
           inkscape:connector-curvature="0"
           d="m 20981,22867 26,13 14,26 v 40 l -14,26 -26,13 h -144"
           id="path1387" />
        <path
           inkscape:connector-curvature="0"
           d="m 20837,23116 h 184"
           id="path1389" />
        <path
           inkscape:connector-curvature="0"
           d="m 20994,23116 13,13 14,27 v 39 l -14,26 -26,13 h -144"
           id="path1391" />
        <path
           inkscape:connector-curvature="0"
           d="m 20981,23234 26,13 14,27 v 39 l -14,26 -26,13 h -144"
           id="path1393" />
        <text
           style="font-size:367.45401001px;text-anchor:middle;opacity:0"
           x="22624"
           y="24555.801"
           textLength="1677.8199"
           font-size="367.454"
           lengthAdjust="spacingAndGlyphs"
           id="text1395">8.6 mm</text>
        <path
           inkscape:connector-curvature="0"
           d="m 21928,24385 -26,-13 -13,-14 -14,-26 v -13 l 14,-26 13,-13 26,-13 h 52 l 27,13 13,13 13,26 v 13 l -13,26 -13,14 -27,13 h -52 l -26,13 -13,13 -14,26 v 53 l 14,26 13,13 26,13 h 52 l 27,-13 13,-13 13,-26 v -53 l -13,-26 -13,-13 -27,-13"
           id="path1397" />
        <path
           inkscape:connector-curvature="0"
           d="m 22151,24516 13,13 -13,13 -13,-13 13,-13 v 26"
           id="path1399" />
        <path
           inkscape:connector-curvature="0"
           d="m 22400,24267 h -52 l -26,13 -13,13 -27,39 -13,53 v 105 l 13,26 13,13 27,13 h 52 l 26,-13 14,-13 13,-26 v -66 l -13,-26 -14,-13 -26,-13 h -52 l -27,13 -13,13 -13,26"
           id="path1401" />
        <path
           inkscape:connector-curvature="0"
           d="m 22755,24542 v -184"
           id="path1403" />
        <path
           inkscape:connector-curvature="0"
           d="m 22755,24385 13,-13 26,-14 h 39 l 27,14 13,26 v 144"
           id="path1405" />
        <path
           inkscape:connector-curvature="0"
           d="m 22873,24398 13,-26 26,-14 h 40 l 26,14 13,26 v 144"
           id="path1407" />
        <path
           inkscape:connector-curvature="0"
           d="m 23122,24542 v -184"
           id="path1409" />
        <path
           inkscape:connector-curvature="0"
           d="m 23122,24385 13,-13 27,-14 h 39 l 26,14 13,26 v 144"
           id="path1411" />
        <path
           inkscape:connector-curvature="0"
           d="m 23240,24398 13,-26 27,-14 h 39 l 26,14 13,26 v 144"
           id="path1413" />
        <g
           transform="rotate(90,19900,22642)"
           id="g1417">
          <text
             style="font-size:367.45401001px;text-anchor:middle;opacity:0"
             x="19900"
             y="22779.801"
             textLength="1940.29"
             font-size="367.454"
             lengthAdjust="spacingAndGlyphs"
             id="text1415">12.7 mm</text>
        </g>
        <path
           inkscape:connector-curvature="0"
           d="m 19775,21920 v -158"
           id="path1419" />
        <path
           inkscape:connector-curvature="0"
           d="m 19775,21841 h 275 l -39,-26 -26,-27 -13,-26"
           id="path1421" />
        <path
           inkscape:connector-curvature="0"
           d="m 20024,22025 13,13 13,26 v 66 l -13,26 -13,13 -26,13 h -26 l -40,-13 -157,-157 v 170"
           id="path1423" />
        <path
           inkscape:connector-curvature="0"
           d="m 19801,22300 -13,13 -13,-13 13,-13 13,13 h -26"
           id="path1425" />
        <path
           inkscape:connector-curvature="0"
           d="m 20050,22405 v 184 l -275,-118"
           id="path1427" />
        <path
           inkscape:connector-curvature="0"
           d="m 19775,22904 h 184"
           id="path1429" />
        <path
           inkscape:connector-curvature="0"
           d="m 19932,22904 13,13 14,26 v 40 l -14,26 -26,13 h -144"
           id="path1431" />
        <path
           inkscape:connector-curvature="0"
           d="m 19919,23022 26,13 14,26 v 40 l -14,26 -26,13 h -144"
           id="path1433" />
        <path
           inkscape:connector-curvature="0"
           d="m 19775,23271 h 184"
           id="path1435" />
        <path
           inkscape:connector-curvature="0"
           d="m 19932,23271 13,14 14,26 v 39 l -14,26 -26,14 h -144"
           id="path1437" />
        <path
           inkscape:connector-curvature="0"
           d="m 19919,23390 26,13 14,26 v 39 l -14,27 -26,13 h -144"
           id="path1439" />
        <text
           style="font-size:367.45401001px;text-anchor:middle;opacity:0"
           x="22692"
           y="25571.801"
           textLength="1940.29"
           font-size="367.454"
           lengthAdjust="spacingAndGlyphs"
           id="text1441">12.7 mm</text>
        <path
           inkscape:connector-curvature="0"
           d="m 21970,25558 h -158"
           id="path1443" />
        <path
           inkscape:connector-curvature="0"
           d="m 21891,25558 v -275 l -26,39 -27,26 -26,13"
           id="path1445" />
        <path
           inkscape:connector-curvature="0"
           d="m 22075,25309 13,-13 26,-13 h 66 l 26,13 13,13 13,26 v 26 l -13,40 -157,157 h 170"
           id="path1447" />
        <path
           inkscape:connector-curvature="0"
           d="m 22350,25532 13,13 -13,13 -13,-13 13,-13 v 26"
           id="path1449" />
        <path
           inkscape:connector-curvature="0"
           d="m 22455,25283 h 184 l -118,275"
           id="path1451" />
        <path
           inkscape:connector-curvature="0"
           d="m 22954,25558 v -184"
           id="path1453" />
        <path
           inkscape:connector-curvature="0"
           d="m 22954,25401 13,-13 26,-14 h 40 l 26,14 13,26 v 144"
           id="path1455" />
        <path
           inkscape:connector-curvature="0"
           d="m 23072,25414 13,-26 26,-14 h 40 l 26,14 13,26 v 144"
           id="path1457" />
        <path
           inkscape:connector-curvature="0"
           d="m 23321,25558 v -184"
           id="path1459" />
        <path
           inkscape:connector-curvature="0"
           d="m 23321,25401 14,-13 26,-14 h 39 l 26,14 14,26 v 144"
           id="path1461" />
        <path
           inkscape:connector-curvature="0"
           d="m 23440,25414 13,-26 26,-14 h 39 l 27,14 13,26 v 144"
           id="path1463" />
      </g>
      <g
         style="fill:#000000;fill-opacity:0;stroke:#000000;stroke-width:19.68499947;stroke-linecap:round;stroke-linejoin:round;stroke-opacity:1"
         id="g1471">
        <path
           inkscape:connector-curvature="0"
           d="m 19685,25669 h 5984"
           id="path1467" />
        <path
           inkscape:connector-curvature="0"
           d="m 25669,19685 v 5984"
           id="path1469" />
      </g>
      <g
         style="fill:#000000;fill-opacity:0;stroke:#000000;stroke-width:47.24409866;stroke-linecap:round;stroke-linejoin:round;stroke-opacity:1"
         id="g1481">
        <path
           inkscape:connector-curvature="0"
           d="m 20177,25177 h 5000"
           id="path1473" />
        <path
           inkscape:connector-curvature="0"
           d="m 25177,20177 v 5000"
           id="path1475" />
        <path
           inkscape:connector-curvature="0"
           d="m 20177,20177 h 5000"
           id="path1477" />
        <path
           inkscape:connector-curvature="0"
           d="m 20177,20177 v 5000"
           id="path1479" />
      </g>
      <g
         style="fill:#000000;fill-opacity:0;stroke:#000000;stroke-width:19.68499947;stroke-linecap:round;stroke-linejoin:round;stroke-opacity:1"
         id="g1499">
        <path
           inkscape:connector-curvature="0"
           d="m 19685,19685 h 5984"
           id="path1483" />
        <path
           inkscape:connector-curvature="0"
           d="m 19685,19685 v 5984"
           id="path1485" />
        <g
           id="g1487" />
        <g
           id="g1489" />
        <g
           id="g1491" />
        <g
           id="g1493" />
        <g
           id="g1495" />
        <g
           id="g1497" />
      </g>
    </g>
  </g>
</svg>
