G04 #@! TF.GenerationSoftware,KiCad,Pcbnew,5.1.5+dfsg1-2build2*
G04 #@! TF.CreationDate,2022-03-04T19:05:06-05:00*
G04 #@! TF.ProjectId,LED_PANEL_26x45mm,4c45445f-5041-44e4-954c-5f3236783435,rev?*
G04 #@! TF.SameCoordinates,Original*
G04 #@! TF.FileFunction,Copper,L1,Top*
G04 #@! TF.FilePolarity,Positive*
%FSLAX46Y46*%
G04 Gerber Fmt 4.6, Leading zero omitted, Abs format (unit mm)*
G04 Created by KiCad (PCBNEW 5.1.5+dfsg1-2build2) date 2022-03-04 19:05:06*
%MOMM*%
%LPD*%
G04 APERTURE LIST*
%ADD10C,1.998980*%
%ADD11C,0.254000*%
G04 APERTURE END LIST*
D10*
X98250000Y-79250000D03*
X52750000Y-79250000D03*
X98250000Y-52750000D03*
X52750000Y-52750000D03*
D11*
G36*
X100340001Y-81340000D02*
G01*
X50660000Y-81340000D01*
X50660000Y-79089017D01*
X51115510Y-79089017D01*
X51115510Y-79410983D01*
X51178322Y-79726763D01*
X51301533Y-80024222D01*
X51480408Y-80291927D01*
X51708073Y-80519592D01*
X51975778Y-80698467D01*
X52273237Y-80821678D01*
X52589017Y-80884490D01*
X52910983Y-80884490D01*
X53226763Y-80821678D01*
X53524222Y-80698467D01*
X53791927Y-80519592D01*
X54019592Y-80291927D01*
X54198467Y-80024222D01*
X54321678Y-79726763D01*
X54384490Y-79410983D01*
X54384490Y-79089017D01*
X96615510Y-79089017D01*
X96615510Y-79410983D01*
X96678322Y-79726763D01*
X96801533Y-80024222D01*
X96980408Y-80291927D01*
X97208073Y-80519592D01*
X97475778Y-80698467D01*
X97773237Y-80821678D01*
X98089017Y-80884490D01*
X98410983Y-80884490D01*
X98726763Y-80821678D01*
X99024222Y-80698467D01*
X99291927Y-80519592D01*
X99519592Y-80291927D01*
X99698467Y-80024222D01*
X99821678Y-79726763D01*
X99884490Y-79410983D01*
X99884490Y-79089017D01*
X99821678Y-78773237D01*
X99698467Y-78475778D01*
X99519592Y-78208073D01*
X99291927Y-77980408D01*
X99024222Y-77801533D01*
X98726763Y-77678322D01*
X98410983Y-77615510D01*
X98089017Y-77615510D01*
X97773237Y-77678322D01*
X97475778Y-77801533D01*
X97208073Y-77980408D01*
X96980408Y-78208073D01*
X96801533Y-78475778D01*
X96678322Y-78773237D01*
X96615510Y-79089017D01*
X54384490Y-79089017D01*
X54321678Y-78773237D01*
X54198467Y-78475778D01*
X54019592Y-78208073D01*
X53791927Y-77980408D01*
X53524222Y-77801533D01*
X53226763Y-77678322D01*
X52910983Y-77615510D01*
X52589017Y-77615510D01*
X52273237Y-77678322D01*
X51975778Y-77801533D01*
X51708073Y-77980408D01*
X51480408Y-78208073D01*
X51301533Y-78475778D01*
X51178322Y-78773237D01*
X51115510Y-79089017D01*
X50660000Y-79089017D01*
X50660000Y-52589017D01*
X51115510Y-52589017D01*
X51115510Y-52910983D01*
X51178322Y-53226763D01*
X51301533Y-53524222D01*
X51480408Y-53791927D01*
X51708073Y-54019592D01*
X51975778Y-54198467D01*
X52273237Y-54321678D01*
X52589017Y-54384490D01*
X52910983Y-54384490D01*
X53226763Y-54321678D01*
X53524222Y-54198467D01*
X53791927Y-54019592D01*
X54019592Y-53791927D01*
X54198467Y-53524222D01*
X54321678Y-53226763D01*
X54384490Y-52910983D01*
X54384490Y-52589017D01*
X96615510Y-52589017D01*
X96615510Y-52910983D01*
X96678322Y-53226763D01*
X96801533Y-53524222D01*
X96980408Y-53791927D01*
X97208073Y-54019592D01*
X97475778Y-54198467D01*
X97773237Y-54321678D01*
X98089017Y-54384490D01*
X98410983Y-54384490D01*
X98726763Y-54321678D01*
X99024222Y-54198467D01*
X99291927Y-54019592D01*
X99519592Y-53791927D01*
X99698467Y-53524222D01*
X99821678Y-53226763D01*
X99884490Y-52910983D01*
X99884490Y-52589017D01*
X99821678Y-52273237D01*
X99698467Y-51975778D01*
X99519592Y-51708073D01*
X99291927Y-51480408D01*
X99024222Y-51301533D01*
X98726763Y-51178322D01*
X98410983Y-51115510D01*
X98089017Y-51115510D01*
X97773237Y-51178322D01*
X97475778Y-51301533D01*
X97208073Y-51480408D01*
X96980408Y-51708073D01*
X96801533Y-51975778D01*
X96678322Y-52273237D01*
X96615510Y-52589017D01*
X54384490Y-52589017D01*
X54321678Y-52273237D01*
X54198467Y-51975778D01*
X54019592Y-51708073D01*
X53791927Y-51480408D01*
X53524222Y-51301533D01*
X53226763Y-51178322D01*
X52910983Y-51115510D01*
X52589017Y-51115510D01*
X52273237Y-51178322D01*
X51975778Y-51301533D01*
X51708073Y-51480408D01*
X51480408Y-51708073D01*
X51301533Y-51975778D01*
X51178322Y-52273237D01*
X51115510Y-52589017D01*
X50660000Y-52589017D01*
X50660000Y-50660000D01*
X100340000Y-50660000D01*
X100340001Y-81340000D01*
G37*
X100340001Y-81340000D02*
X50660000Y-81340000D01*
X50660000Y-79089017D01*
X51115510Y-79089017D01*
X51115510Y-79410983D01*
X51178322Y-79726763D01*
X51301533Y-80024222D01*
X51480408Y-80291927D01*
X51708073Y-80519592D01*
X51975778Y-80698467D01*
X52273237Y-80821678D01*
X52589017Y-80884490D01*
X52910983Y-80884490D01*
X53226763Y-80821678D01*
X53524222Y-80698467D01*
X53791927Y-80519592D01*
X54019592Y-80291927D01*
X54198467Y-80024222D01*
X54321678Y-79726763D01*
X54384490Y-79410983D01*
X54384490Y-79089017D01*
X96615510Y-79089017D01*
X96615510Y-79410983D01*
X96678322Y-79726763D01*
X96801533Y-80024222D01*
X96980408Y-80291927D01*
X97208073Y-80519592D01*
X97475778Y-80698467D01*
X97773237Y-80821678D01*
X98089017Y-80884490D01*
X98410983Y-80884490D01*
X98726763Y-80821678D01*
X99024222Y-80698467D01*
X99291927Y-80519592D01*
X99519592Y-80291927D01*
X99698467Y-80024222D01*
X99821678Y-79726763D01*
X99884490Y-79410983D01*
X99884490Y-79089017D01*
X99821678Y-78773237D01*
X99698467Y-78475778D01*
X99519592Y-78208073D01*
X99291927Y-77980408D01*
X99024222Y-77801533D01*
X98726763Y-77678322D01*
X98410983Y-77615510D01*
X98089017Y-77615510D01*
X97773237Y-77678322D01*
X97475778Y-77801533D01*
X97208073Y-77980408D01*
X96980408Y-78208073D01*
X96801533Y-78475778D01*
X96678322Y-78773237D01*
X96615510Y-79089017D01*
X54384490Y-79089017D01*
X54321678Y-78773237D01*
X54198467Y-78475778D01*
X54019592Y-78208073D01*
X53791927Y-77980408D01*
X53524222Y-77801533D01*
X53226763Y-77678322D01*
X52910983Y-77615510D01*
X52589017Y-77615510D01*
X52273237Y-77678322D01*
X51975778Y-77801533D01*
X51708073Y-77980408D01*
X51480408Y-78208073D01*
X51301533Y-78475778D01*
X51178322Y-78773237D01*
X51115510Y-79089017D01*
X50660000Y-79089017D01*
X50660000Y-52589017D01*
X51115510Y-52589017D01*
X51115510Y-52910983D01*
X51178322Y-53226763D01*
X51301533Y-53524222D01*
X51480408Y-53791927D01*
X51708073Y-54019592D01*
X51975778Y-54198467D01*
X52273237Y-54321678D01*
X52589017Y-54384490D01*
X52910983Y-54384490D01*
X53226763Y-54321678D01*
X53524222Y-54198467D01*
X53791927Y-54019592D01*
X54019592Y-53791927D01*
X54198467Y-53524222D01*
X54321678Y-53226763D01*
X54384490Y-52910983D01*
X54384490Y-52589017D01*
X96615510Y-52589017D01*
X96615510Y-52910983D01*
X96678322Y-53226763D01*
X96801533Y-53524222D01*
X96980408Y-53791927D01*
X97208073Y-54019592D01*
X97475778Y-54198467D01*
X97773237Y-54321678D01*
X98089017Y-54384490D01*
X98410983Y-54384490D01*
X98726763Y-54321678D01*
X99024222Y-54198467D01*
X99291927Y-54019592D01*
X99519592Y-53791927D01*
X99698467Y-53524222D01*
X99821678Y-53226763D01*
X99884490Y-52910983D01*
X99884490Y-52589017D01*
X99821678Y-52273237D01*
X99698467Y-51975778D01*
X99519592Y-51708073D01*
X99291927Y-51480408D01*
X99024222Y-51301533D01*
X98726763Y-51178322D01*
X98410983Y-51115510D01*
X98089017Y-51115510D01*
X97773237Y-51178322D01*
X97475778Y-51301533D01*
X97208073Y-51480408D01*
X96980408Y-51708073D01*
X96801533Y-51975778D01*
X96678322Y-52273237D01*
X96615510Y-52589017D01*
X54384490Y-52589017D01*
X54321678Y-52273237D01*
X54198467Y-51975778D01*
X54019592Y-51708073D01*
X53791927Y-51480408D01*
X53524222Y-51301533D01*
X53226763Y-51178322D01*
X52910983Y-51115510D01*
X52589017Y-51115510D01*
X52273237Y-51178322D01*
X51975778Y-51301533D01*
X51708073Y-51480408D01*
X51480408Y-51708073D01*
X51301533Y-51975778D01*
X51178322Y-52273237D01*
X51115510Y-52589017D01*
X50660000Y-52589017D01*
X50660000Y-50660000D01*
X100340000Y-50660000D01*
X100340001Y-81340000D01*
M02*
