G04 #@! TF.GenerationSoftware,KiCad,Pcbnew,5.1.5+dfsg1-2build2*
G04 #@! TF.CreationDate,2022-03-04T19:05:06-05:00*
G04 #@! TF.ProjectId,LED_PANEL_26x45mm,4c45445f-5041-44e4-954c-5f3236783435,rev?*
G04 #@! TF.SameCoordinates,Original*
G04 #@! TF.FileFunction,Legend,Top*
G04 #@! TF.FilePolarity,Positive*
%FSLAX46Y46*%
G04 Gerber Fmt 4.6, Leading zero omitted, Abs format (unit mm)*
G04 Created by KiCad (PCBNEW 5.1.5+dfsg1-2build2) date 2022-03-04 19:05:06*
%MOMM*%
%LPD*%
G04 APERTURE LIST*
%ADD10C,0.150000*%
%ADD11C,0.120000*%
G04 APERTURE END LIST*
D10*
X82570249Y-81711207D02*
X82260725Y-81711207D01*
X82260725Y-81061207D01*
X82786916Y-81370731D02*
X83003582Y-81370731D01*
X83096440Y-81711207D02*
X82786916Y-81711207D01*
X82786916Y-81061207D01*
X83096440Y-81061207D01*
X83375011Y-81711207D02*
X83375011Y-81061207D01*
X83529773Y-81061207D01*
X83622630Y-81092160D01*
X83684535Y-81154064D01*
X83715487Y-81215969D01*
X83746440Y-81339779D01*
X83746440Y-81432636D01*
X83715487Y-81556445D01*
X83684535Y-81618350D01*
X83622630Y-81680255D01*
X83529773Y-81711207D01*
X83375011Y-81711207D01*
X84520249Y-81711207D02*
X84520249Y-81061207D01*
X84736916Y-81525493D01*
X84953582Y-81061207D01*
X84953582Y-81711207D01*
X85263106Y-81370731D02*
X85479773Y-81370731D01*
X85572630Y-81711207D02*
X85263106Y-81711207D01*
X85263106Y-81061207D01*
X85572630Y-81061207D01*
X85758344Y-81061207D02*
X86129773Y-81061207D01*
X85944059Y-81711207D02*
X85944059Y-81061207D01*
X86346440Y-81370731D02*
X86563106Y-81370731D01*
X86655963Y-81711207D02*
X86346440Y-81711207D01*
X86346440Y-81061207D01*
X86655963Y-81061207D01*
X87305963Y-81711207D02*
X87089297Y-81401683D01*
X86934535Y-81711207D02*
X86934535Y-81061207D01*
X87182154Y-81061207D01*
X87244059Y-81092160D01*
X87275011Y-81123112D01*
X87305963Y-81185017D01*
X87305963Y-81277874D01*
X87275011Y-81339779D01*
X87244059Y-81370731D01*
X87182154Y-81401683D01*
X86934535Y-81401683D01*
X88079773Y-81711207D02*
X88079773Y-81061207D01*
X88327392Y-81061207D01*
X88389297Y-81092160D01*
X88420249Y-81123112D01*
X88451201Y-81185017D01*
X88451201Y-81277874D01*
X88420249Y-81339779D01*
X88389297Y-81370731D01*
X88327392Y-81401683D01*
X88079773Y-81401683D01*
X88698820Y-81525493D02*
X89008344Y-81525493D01*
X88636916Y-81711207D02*
X88853582Y-81061207D01*
X89070249Y-81711207D01*
X89286916Y-81711207D02*
X89286916Y-81061207D01*
X89658344Y-81711207D01*
X89658344Y-81061207D01*
X89967868Y-81370731D02*
X90184535Y-81370731D01*
X90277392Y-81711207D02*
X89967868Y-81711207D01*
X89967868Y-81061207D01*
X90277392Y-81061207D01*
X90865487Y-81711207D02*
X90555963Y-81711207D01*
X90555963Y-81061207D01*
X91948820Y-81649302D02*
X91917868Y-81680255D01*
X91825011Y-81711207D01*
X91763106Y-81711207D01*
X91670249Y-81680255D01*
X91608344Y-81618350D01*
X91577392Y-81556445D01*
X91546440Y-81432636D01*
X91546440Y-81339779D01*
X91577392Y-81215969D01*
X91608344Y-81154064D01*
X91670249Y-81092160D01*
X91763106Y-81061207D01*
X91825011Y-81061207D01*
X91917868Y-81092160D01*
X91948820Y-81123112D01*
X92227392Y-81061207D02*
X92227392Y-81587398D01*
X92258344Y-81649302D01*
X92289297Y-81680255D01*
X92351201Y-81711207D01*
X92475011Y-81711207D01*
X92536916Y-81680255D01*
X92567868Y-81649302D01*
X92598820Y-81587398D01*
X92598820Y-81061207D01*
X92815487Y-81061207D02*
X93186916Y-81061207D01*
X93001201Y-81711207D02*
X93001201Y-81061207D01*
X93403582Y-81463588D02*
X93898820Y-81463588D01*
X94332154Y-81061207D02*
X94455963Y-81061207D01*
X94517868Y-81092160D01*
X94579773Y-81154064D01*
X94610725Y-81277874D01*
X94610725Y-81494540D01*
X94579773Y-81618350D01*
X94517868Y-81680255D01*
X94455963Y-81711207D01*
X94332154Y-81711207D01*
X94270249Y-81680255D01*
X94208344Y-81618350D01*
X94177392Y-81494540D01*
X94177392Y-81277874D01*
X94208344Y-81154064D01*
X94270249Y-81092160D01*
X94332154Y-81061207D01*
X94889297Y-81061207D02*
X94889297Y-81587398D01*
X94920249Y-81649302D01*
X94951201Y-81680255D01*
X95013106Y-81711207D01*
X95136916Y-81711207D01*
X95198820Y-81680255D01*
X95229773Y-81649302D01*
X95260725Y-81587398D01*
X95260725Y-81061207D01*
X95477392Y-81061207D02*
X95848820Y-81061207D01*
X95663106Y-81711207D02*
X95663106Y-81061207D01*
X96560725Y-81711207D02*
X96560725Y-81061207D01*
X96715487Y-81061207D01*
X96808344Y-81092160D01*
X96870249Y-81154064D01*
X96901201Y-81215969D01*
X96932154Y-81339779D01*
X96932154Y-81432636D01*
X96901201Y-81556445D01*
X96870249Y-81618350D01*
X96808344Y-81680255D01*
X96715487Y-81711207D01*
X96560725Y-81711207D01*
X97582154Y-81711207D02*
X97365487Y-81401683D01*
X97210725Y-81711207D02*
X97210725Y-81061207D01*
X97458344Y-81061207D01*
X97520249Y-81092160D01*
X97551201Y-81123112D01*
X97582154Y-81185017D01*
X97582154Y-81277874D01*
X97551201Y-81339779D01*
X97520249Y-81370731D01*
X97458344Y-81401683D01*
X97210725Y-81401683D01*
X97860725Y-81711207D02*
X97860725Y-81061207D01*
X98479773Y-81711207D02*
X98170249Y-81711207D01*
X98170249Y-81061207D01*
X99005963Y-81711207D02*
X98696440Y-81711207D01*
X98696440Y-81061207D01*
X99191678Y-81680255D02*
X99284535Y-81711207D01*
X99439297Y-81711207D01*
X99501201Y-81680255D01*
X99532154Y-81649302D01*
X99563106Y-81587398D01*
X99563106Y-81525493D01*
X99532154Y-81463588D01*
X99501201Y-81432636D01*
X99439297Y-81401683D01*
X99315487Y-81370731D01*
X99253582Y-81339779D01*
X99222630Y-81308826D01*
X99191678Y-81246921D01*
X99191678Y-81185017D01*
X99222630Y-81123112D01*
X99253582Y-81092160D01*
X99315487Y-81061207D01*
X99470249Y-81061207D01*
X99563106Y-81092160D01*
X73533291Y-79907257D02*
X73647577Y-79945352D01*
X73685672Y-79983447D01*
X73723767Y-80059638D01*
X73723767Y-80173923D01*
X73685672Y-80250114D01*
X73647577Y-80288209D01*
X73571386Y-80326304D01*
X73266624Y-80326304D01*
X73266624Y-79526304D01*
X73533291Y-79526304D01*
X73609481Y-79564400D01*
X73647577Y-79602495D01*
X73685672Y-79678685D01*
X73685672Y-79754876D01*
X73647577Y-79831066D01*
X73609481Y-79869161D01*
X73533291Y-79907257D01*
X73266624Y-79907257D01*
X74066624Y-79907257D02*
X74333291Y-79907257D01*
X74447577Y-80326304D02*
X74066624Y-80326304D01*
X74066624Y-79526304D01*
X74447577Y-79526304D01*
X74714243Y-79526304D02*
X75247577Y-79526304D01*
X74714243Y-80326304D01*
X75247577Y-80326304D01*
X75552339Y-79907257D02*
X75819005Y-79907257D01*
X75933291Y-80326304D02*
X75552339Y-80326304D01*
X75552339Y-79526304D01*
X75933291Y-79526304D01*
X76657100Y-80326304D02*
X76276148Y-80326304D01*
X76276148Y-79526304D01*
D11*
X99750000Y-51250000D02*
X99750000Y-80750000D01*
X51250000Y-51250000D02*
X51250000Y-80750000D01*
D10*
X72393942Y-67672342D02*
X72346323Y-67719961D01*
X72203466Y-67767580D01*
X72108228Y-67767580D01*
X71965371Y-67719961D01*
X71870133Y-67624723D01*
X71822514Y-67529485D01*
X71774895Y-67339009D01*
X71774895Y-67196152D01*
X71822514Y-67005676D01*
X71870133Y-66910438D01*
X71965371Y-66815200D01*
X72108228Y-66767580D01*
X72203466Y-66767580D01*
X72346323Y-66815200D01*
X72393942Y-66862819D01*
X72822514Y-66767580D02*
X72822514Y-67577104D01*
X72870133Y-67672342D01*
X72917752Y-67719961D01*
X73012990Y-67767580D01*
X73203466Y-67767580D01*
X73298704Y-67719961D01*
X73346323Y-67672342D01*
X73393942Y-67577104D01*
X73393942Y-66767580D01*
X73727276Y-66767580D02*
X74298704Y-66767580D01*
X74012990Y-67767580D02*
X74012990Y-66767580D01*
X74632038Y-67386628D02*
X75393942Y-67386628D01*
X76060609Y-66767580D02*
X76251085Y-66767580D01*
X76346323Y-66815200D01*
X76441561Y-66910438D01*
X76489180Y-67100914D01*
X76489180Y-67434247D01*
X76441561Y-67624723D01*
X76346323Y-67719961D01*
X76251085Y-67767580D01*
X76060609Y-67767580D01*
X75965371Y-67719961D01*
X75870133Y-67624723D01*
X75822514Y-67434247D01*
X75822514Y-67100914D01*
X75870133Y-66910438D01*
X75965371Y-66815200D01*
X76060609Y-66767580D01*
X76917752Y-66767580D02*
X76917752Y-67577104D01*
X76965371Y-67672342D01*
X77012990Y-67719961D01*
X77108228Y-67767580D01*
X77298704Y-67767580D01*
X77393942Y-67719961D01*
X77441561Y-67672342D01*
X77489180Y-67577104D01*
X77489180Y-66767580D01*
X77822514Y-66767580D02*
X78393942Y-66767580D01*
X78108228Y-67767580D02*
X78108228Y-66767580D01*
D11*
X51250000Y-80750000D02*
X99750000Y-80750000D01*
X51250000Y-51250000D02*
X99750000Y-51250000D01*
D10*
X91709076Y-66314179D02*
X91756695Y-66266560D01*
X91851933Y-66218940D01*
X92090028Y-66218940D01*
X92185266Y-66266560D01*
X92232885Y-66314179D01*
X92280504Y-66409417D01*
X92280504Y-66504655D01*
X92232885Y-66647512D01*
X91661457Y-67218940D01*
X92280504Y-67218940D01*
X93137647Y-66218940D02*
X92947171Y-66218940D01*
X92851933Y-66266560D01*
X92804314Y-66314179D01*
X92709076Y-66457036D01*
X92661457Y-66647512D01*
X92661457Y-67028464D01*
X92709076Y-67123702D01*
X92756695Y-67171321D01*
X92851933Y-67218940D01*
X93042409Y-67218940D01*
X93137647Y-67171321D01*
X93185266Y-67123702D01*
X93232885Y-67028464D01*
X93232885Y-66790369D01*
X93185266Y-66695131D01*
X93137647Y-66647512D01*
X93042409Y-66599893D01*
X92851933Y-66599893D01*
X92756695Y-66647512D01*
X92709076Y-66695131D01*
X92661457Y-66790369D01*
X93661457Y-67123702D02*
X93709076Y-67171321D01*
X93661457Y-67218940D01*
X93613838Y-67171321D01*
X93661457Y-67123702D01*
X93661457Y-67218940D01*
X94613838Y-66218940D02*
X94137647Y-66218940D01*
X94090028Y-66695131D01*
X94137647Y-66647512D01*
X94232885Y-66599893D01*
X94470980Y-66599893D01*
X94566219Y-66647512D01*
X94613838Y-66695131D01*
X94661457Y-66790369D01*
X94661457Y-67028464D01*
X94613838Y-67123702D01*
X94566219Y-67171321D01*
X94470980Y-67218940D01*
X94232885Y-67218940D01*
X94137647Y-67171321D01*
X94090028Y-67123702D01*
X95090028Y-67218940D02*
X95090028Y-66552274D01*
X95090028Y-66647512D02*
X95137647Y-66599893D01*
X95232885Y-66552274D01*
X95375742Y-66552274D01*
X95470980Y-66599893D01*
X95518600Y-66695131D01*
X95518600Y-67218940D01*
X95518600Y-66695131D02*
X95566219Y-66599893D01*
X95661457Y-66552274D01*
X95804314Y-66552274D01*
X95899552Y-66599893D01*
X95947171Y-66695131D01*
X95947171Y-67218940D01*
X96423361Y-67218940D02*
X96423361Y-66552274D01*
X96423361Y-66647512D02*
X96470980Y-66599893D01*
X96566219Y-66552274D01*
X96709076Y-66552274D01*
X96804314Y-66599893D01*
X96851933Y-66695131D01*
X96851933Y-67218940D01*
X96851933Y-66695131D02*
X96899552Y-66599893D01*
X96994790Y-66552274D01*
X97137647Y-66552274D01*
X97232885Y-66599893D01*
X97280504Y-66695131D01*
X97280504Y-67218940D01*
X72627266Y-54995274D02*
X72627266Y-55661940D01*
X72389171Y-54614321D02*
X72151076Y-55328607D01*
X72770123Y-55328607D01*
X73627266Y-54661940D02*
X73151076Y-54661940D01*
X73103457Y-55138131D01*
X73151076Y-55090512D01*
X73246314Y-55042893D01*
X73484409Y-55042893D01*
X73579647Y-55090512D01*
X73627266Y-55138131D01*
X73674885Y-55233369D01*
X73674885Y-55471464D01*
X73627266Y-55566702D01*
X73579647Y-55614321D01*
X73484409Y-55661940D01*
X73246314Y-55661940D01*
X73151076Y-55614321D01*
X73103457Y-55566702D01*
X74103457Y-55566702D02*
X74151076Y-55614321D01*
X74103457Y-55661940D01*
X74055838Y-55614321D01*
X74103457Y-55566702D01*
X74103457Y-55661940D01*
X75055838Y-54661940D02*
X74579647Y-54661940D01*
X74532028Y-55138131D01*
X74579647Y-55090512D01*
X74674885Y-55042893D01*
X74912980Y-55042893D01*
X75008219Y-55090512D01*
X75055838Y-55138131D01*
X75103457Y-55233369D01*
X75103457Y-55471464D01*
X75055838Y-55566702D01*
X75008219Y-55614321D01*
X74912980Y-55661940D01*
X74674885Y-55661940D01*
X74579647Y-55614321D01*
X74532028Y-55566702D01*
X75532028Y-55661940D02*
X75532028Y-54995274D01*
X75532028Y-55090512D02*
X75579647Y-55042893D01*
X75674885Y-54995274D01*
X75817742Y-54995274D01*
X75912980Y-55042893D01*
X75960600Y-55138131D01*
X75960600Y-55661940D01*
X75960600Y-55138131D02*
X76008219Y-55042893D01*
X76103457Y-54995274D01*
X76246314Y-54995274D01*
X76341552Y-55042893D01*
X76389171Y-55138131D01*
X76389171Y-55661940D01*
X76865361Y-55661940D02*
X76865361Y-54995274D01*
X76865361Y-55090512D02*
X76912980Y-55042893D01*
X77008219Y-54995274D01*
X77151076Y-54995274D01*
X77246314Y-55042893D01*
X77293933Y-55138131D01*
X77293933Y-55661940D01*
X77293933Y-55138131D02*
X77341552Y-55042893D01*
X77436790Y-54995274D01*
X77579647Y-54995274D01*
X77674885Y-55042893D01*
X77722504Y-55138131D01*
X77722504Y-55661940D01*
D11*
X52750000Y-52750000D02*
X52750000Y-79250000D01*
X98250000Y-52750000D02*
X98250000Y-79250000D01*
X52750000Y-79250000D02*
X98250000Y-79250000D01*
X52750000Y-52750000D02*
X98250000Y-52750000D01*
M02*
