<?xml version="1.0" standalone="no"?>
 <!DOCTYPE svg PUBLIC "-//W3C//DTD SVG 1.1//EN" 
 "http://www.w3.org/Graphics/SVG/1.1/DTD/svg11.dtd"> 
<svg xmlns="http://www.w3.org/2000/svg" version="1.1" 
    width="29.7002cm" height="21.0007cm" viewBox="0 0 116930 82680 ">
<title>SVG Picture created as usb-c-power-panel-drl_map.svg date 2022/07/14 12:27:44 </title>
  <desc>Picture generated by PCBNEW </desc>
<g style="fill:#000000; fill-opacity:1;stroke:#000000; stroke-opacity:1;
stroke-linecap:round; stroke-linejoin:round; "
 transform="translate(0 0) scale(1 1)">
</g>
<g style="fill:#000000; fill-opacity:0.0; 
stroke:#000000; stroke-width:-0.000393701; stroke-opacity:1; 
stroke-linecap:round; stroke-linejoin:round;">
</g>
<g style="fill:#000000; fill-opacity:0.0; 
stroke:#000000; stroke-width:19.685; stroke-opacity:1; 
stroke-linecap:round; stroke-linejoin:round;">
<path d="M49212 39370
L49212 44921
" />
<path d="M39370 39370
L39370 44921
" />
<path d="M39370 44921
L49212 44921
" />
<path d="M39370 39370
L49212 39370
" />
</g>
<g style="fill:#000000; fill-opacity:0.0; 
stroke:#000000; stroke-width:78.7402; stroke-opacity:1; 
stroke-linecap:round; stroke-linejoin:round;">
<path d="M47066 41948
L47460 42342
" />
<path d="M47460 41948
L47066 42342
" />
<path d="M41121 41948
L41515 42342
" />
<path d="M41515 41948
L41121 42342
" />
<circle cx="42342.5" cy="42417.3" r="196.85" /> 
<circle cx="42342.5" cy="42952.8" r="196.85" /> 
<circle cx="44291.3" cy="41338.6" r="196.85" /> 
<circle cx="43804.1" cy="41338.6" r="196.85" /> 
<circle cx="43316.9" cy="42952.8" r="196.85" /> 
<circle cx="44291.3" cy="42952.8" r="196.85" /> 
<circle cx="46240.2" cy="41874" r="196.85" /> 
<circle cx="45753" cy="41338.6" r="196.85" /> 
<circle cx="45753" cy="42952.8" r="196.85" /> 
<circle cx="45265.7" cy="41338.6" r="196.85" /> 
<circle cx="43316.9" cy="41338.6" r="196.85" /> 
<circle cx="44778.5" cy="42952.8" r="196.85" /> 
<circle cx="42342.5" cy="41338.6" r="196.85" /> 
<circle cx="42342.5" cy="41874" r="196.85" /> 
<circle cx="42829.7" cy="41338.6" r="196.85" /> 
<circle cx="45265.7" cy="42952.8" r="196.85" /> 
<circle cx="42829.7" cy="42952.8" r="196.85" /> 
<circle cx="46240.2" cy="42952.8" r="196.85" /> 
<circle cx="46240.2" cy="42417.3" r="196.85" /> 
<circle cx="43804.1" cy="42952.8" r="196.85" /> 
<circle cx="46240.2" cy="41338.6" r="196.85" /> 
<circle cx="44778.5" cy="41338.6" r="196.85" /> 
</g>
<g style="fill:#000000; fill-opacity:0.0; 
stroke:#000000; stroke-width:118.11; stroke-opacity:1; 
stroke-linecap:round; stroke-linejoin:round;">
<text x="40147.6" y="46820.9"
textLength="8779.53" font-size="1574.8" lengthAdjust="spacingAndGlyphs"
text-anchor="start" opacity="0">Drill Map:</text>
<path d="M40487 46764
L40487 45583
L40769 45583
L40937 45639
L41050 45752
L41106 45864
L41162 46089
L41162 46258
L41106 46483
L41050 46595
L40937 46708
L40769 46764
L40487 46764
" />
<path d="M41669 46764
L41669 45977
" />
<path d="M41669 46202
L41725 46089
L41781 46033
L41893 45977
L42006 45977
" />
<path d="M42400 46764
L42400 45977
" />
<path d="M42400 45583
L42343 45639
L42400 45696
L42456 45639
L42400 45583
L42400 45696
" />
<path d="M43131 46764
L43018 46708
L42962 46595
L42962 45583
" />
<path d="M43749 46764
L43637 46708
L43581 46595
L43581 45583
" />
<path d="M45099 46764
L45099 45583
L45493 46427
L45887 45583
L45887 46764
" />
<path d="M46955 46764
L46955 46145
L46899 46033
L46787 45977
L46562 45977
L46449 46033
" />
<path d="M46955 46708
L46843 46764
L46562 46764
L46449 46708
L46393 46595
L46393 46483
L46449 46370
L46562 46314
L46843 46314
L46955 46258
" />
<path d="M47518 45977
L47518 47158
" />
<path d="M47518 46033
L47630 45977
L47855 45977
L47968 46033
L48024 46089
L48080 46202
L48080 46539
L48024 46652
L47968 46708
L47855 46764
L47630 46764
L47518 46708
" />
<path d="M48586 46652
L48643 46708
L48586 46764
L48530 46708
L48586 46652
L48586 46764
" />
<path d="M48586 46033
L48643 46089
L48586 46145
L48530 46089
L48586 46033
L48586 46145
" />
<path d="M38966 48513
L39360 48907
" />
<path d="M39360 48513
L38966 48907
" />
<text x="40147.6" y="49301.2"
textLength="25427.4" font-size="1574.8" lengthAdjust="spacingAndGlyphs"
text-anchor="start" opacity="0">1.00mm / 0.039" (2 holes)</text>
<path d="M41106 49244
L40431 49244
" />
<path d="M40769 49244
L40769 48063
L40656 48232
L40544 48345
L40431 48401
" />
<path d="M41612 49132
L41669 49188
L41612 49244
L41556 49188
L41612 49132
L41612 49244
" />
<path d="M42400 48063
L42512 48063
L42625 48120
L42681 48176
L42737 48288
L42793 48513
L42793 48794
L42737 49019
L42681 49132
L42625 49188
L42512 49244
L42400 49244
L42287 49188
L42231 49132
L42175 49019
L42118 48794
L42118 48513
L42175 48288
L42231 48176
L42287 48120
L42400 48063
" />
<path d="M43525 48063
L43637 48063
L43749 48120
L43806 48176
L43862 48288
L43918 48513
L43918 48794
L43862 49019
L43806 49132
L43749 49188
L43637 49244
L43525 49244
L43412 49188
L43356 49132
L43300 49019
L43243 48794
L43243 48513
L43300 48288
L43356 48176
L43412 48120
L43525 48063
" />
<path d="M44424 49244
L44424 48457
" />
<path d="M44424 48570
L44481 48513
L44593 48457
L44762 48457
L44874 48513
L44931 48626
L44931 49244
" />
<path d="M44931 48626
L44987 48513
L45099 48457
L45268 48457
L45381 48513
L45437 48626
L45437 49244
" />
<path d="M45999 49244
L45999 48457
" />
<path d="M45999 48570
L46055 48513
L46168 48457
L46337 48457
L46449 48513
L46505 48626
L46505 49244
" />
<path d="M46505 48626
L46562 48513
L46674 48457
L46843 48457
L46955 48513
L47012 48626
L47012 49244
" />
<path d="M49318 48007
L48305 49526
" />
<path d="M50836 48063
L50949 48063
L51061 48120
L51117 48176
L51174 48288
L51230 48513
L51230 48794
L51174 49019
L51117 49132
L51061 49188
L50949 49244
L50836 49244
L50724 49188
L50667 49132
L50611 49019
L50555 48794
L50555 48513
L50611 48288
L50667 48176
L50724 48120
L50836 48063
" />
<path d="M51736 49132
L51792 49188
L51736 49244
L51680 49188
L51736 49132
L51736 49244
" />
<path d="M52523 48063
L52636 48063
L52748 48120
L52805 48176
L52861 48288
L52917 48513
L52917 48794
L52861 49019
L52805 49132
L52748 49188
L52636 49244
L52523 49244
L52411 49188
L52355 49132
L52298 49019
L52242 48794
L52242 48513
L52298 48288
L52355 48176
L52411 48120
L52523 48063
" />
<path d="M53311 48063
L54042 48063
L53648 48513
L53817 48513
L53929 48570
L53986 48626
L54042 48738
L54042 49019
L53986 49132
L53929 49188
L53817 49244
L53480 49244
L53367 49188
L53311 49132
" />
<path d="M54604 49244
L54829 49244
L54942 49188
L54998 49132
L55111 48963
L55167 48738
L55167 48288
L55111 48176
L55054 48120
L54942 48063
L54717 48063
L54604 48120
L54548 48176
L54492 48288
L54492 48570
L54548 48682
L54604 48738
L54717 48794
L54942 48794
L55054 48738
L55111 48682
L55167 48570
" />
<path d="M55617 48063
L55617 48288
" />
<path d="M56067 48063
L56067 48288
" />
<path d="M57810 49694
L57754 49638
L57642 49469
L57585 49357
L57529 49188
L57473 48907
L57473 48682
L57529 48401
L57585 48232
L57642 48120
L57754 47951
L57810 47895
" />
<path d="M58204 48176
L58260 48120
L58373 48063
L58654 48063
L58766 48120
L58823 48176
L58879 48288
L58879 48401
L58823 48570
L58148 49244
L58879 49244
" />
<path d="M60285 49244
L60285 48063
" />
<path d="M60791 49244
L60791 48626
L60735 48513
L60622 48457
L60454 48457
L60341 48513
L60285 48570
" />
<path d="M61522 49244
L61410 49188
L61354 49132
L61297 49019
L61297 48682
L61354 48570
L61410 48513
L61522 48457
L61691 48457
L61803 48513
L61860 48570
L61916 48682
L61916 49019
L61860 49132
L61803 49188
L61691 49244
L61522 49244
" />
<path d="M62591 49244
L62478 49188
L62422 49076
L62422 48063
" />
<path d="M63491 49188
L63378 49244
L63153 49244
L63041 49188
L62985 49076
L62985 48626
L63041 48513
L63153 48457
L63378 48457
L63491 48513
L63547 48626
L63547 48738
L62985 48851
" />
<path d="M63997 49188
L64109 49244
L64334 49244
L64447 49188
L64503 49076
L64503 49019
L64447 48907
L64334 48851
L64166 48851
L64053 48794
L63997 48682
L63997 48626
L64053 48513
L64166 48457
L64334 48457
L64447 48513
" />
<path d="M64897 49694
L64953 49638
L65066 49469
L65122 49357
L65178 49188
L65234 48907
L65234 48682
L65178 48401
L65122 48232
L65066 48120
L64953 47951
L64897 47895
" />
<circle cx="39163.4" cy="50269.7" r="196.85" /> 
<text x="40147.6" y="50860.2"
textLength="38250.8" font-size="1574.8" lengthAdjust="spacingAndGlyphs"
text-anchor="start" opacity="0">1.00mm / 0.039" (22 holes) (not plated)</text>
<path d="M41106 50803
L40431 50803
" />
<path d="M40769 50803
L40769 49622
L40656 49791
L40544 49904
L40431 49960
" />
<path d="M41612 50691
L41669 50747
L41612 50803
L41556 50747
L41612 50691
L41612 50803
" />
<path d="M42400 49622
L42512 49622
L42625 49679
L42681 49735
L42737 49847
L42793 50072
L42793 50354
L42737 50579
L42681 50691
L42625 50747
L42512 50803
L42400 50803
L42287 50747
L42231 50691
L42175 50579
L42118 50354
L42118 50072
L42175 49847
L42231 49735
L42287 49679
L42400 49622
" />
<path d="M43525 49622
L43637 49622
L43749 49679
L43806 49735
L43862 49847
L43918 50072
L43918 50354
L43862 50579
L43806 50691
L43749 50747
L43637 50803
L43525 50803
L43412 50747
L43356 50691
L43300 50579
L43243 50354
L43243 50072
L43300 49847
L43356 49735
L43412 49679
L43525 49622
" />
<path d="M44424 50803
L44424 50016
" />
<path d="M44424 50129
L44481 50072
L44593 50016
L44762 50016
L44874 50072
L44931 50185
L44931 50803
" />
<path d="M44931 50185
L44987 50072
L45099 50016
L45268 50016
L45381 50072
L45437 50185
L45437 50803
" />
<path d="M45999 50803
L45999 50016
" />
<path d="M45999 50129
L46055 50072
L46168 50016
L46337 50016
L46449 50072
L46505 50185
L46505 50803
" />
<path d="M46505 50185
L46562 50072
L46674 50016
L46843 50016
L46955 50072
L47012 50185
L47012 50803
" />
<path d="M49318 49566
L48305 51085
" />
<path d="M50836 49622
L50949 49622
L51061 49679
L51117 49735
L51174 49847
L51230 50072
L51230 50354
L51174 50579
L51117 50691
L51061 50747
L50949 50803
L50836 50803
L50724 50747
L50667 50691
L50611 50579
L50555 50354
L50555 50072
L50611 49847
L50667 49735
L50724 49679
L50836 49622
" />
<path d="M51736 50691
L51792 50747
L51736 50803
L51680 50747
L51736 50691
L51736 50803
" />
<path d="M52523 49622
L52636 49622
L52748 49679
L52805 49735
L52861 49847
L52917 50072
L52917 50354
L52861 50579
L52805 50691
L52748 50747
L52636 50803
L52523 50803
L52411 50747
L52355 50691
L52298 50579
L52242 50354
L52242 50072
L52298 49847
L52355 49735
L52411 49679
L52523 49622
" />
<path d="M53311 49622
L54042 49622
L53648 50072
L53817 50072
L53929 50129
L53986 50185
L54042 50297
L54042 50579
L53986 50691
L53929 50747
L53817 50803
L53480 50803
L53367 50747
L53311 50691
" />
<path d="M54604 50803
L54829 50803
L54942 50747
L54998 50691
L55111 50522
L55167 50297
L55167 49847
L55111 49735
L55054 49679
L54942 49622
L54717 49622
L54604 49679
L54548 49735
L54492 49847
L54492 50129
L54548 50241
L54604 50297
L54717 50354
L54942 50354
L55054 50297
L55111 50241
L55167 50129
" />
<path d="M55617 49622
L55617 49847
" />
<path d="M56067 49622
L56067 49847
" />
<path d="M57810 51253
L57754 51197
L57642 51028
L57585 50916
L57529 50747
L57473 50466
L57473 50241
L57529 49960
L57585 49791
L57642 49679
L57754 49510
L57810 49454
" />
<path d="M58204 49735
L58260 49679
L58373 49622
L58654 49622
L58766 49679
L58823 49735
L58879 49847
L58879 49960
L58823 50129
L58148 50803
L58879 50803
" />
<path d="M59329 49735
L59385 49679
L59498 49622
L59779 49622
L59891 49679
L59947 49735
L60004 49847
L60004 49960
L59947 50129
L59273 50803
L60004 50803
" />
<path d="M61410 50803
L61410 49622
" />
<path d="M61916 50803
L61916 50185
L61860 50072
L61747 50016
L61579 50016
L61466 50072
L61410 50129
" />
<path d="M62647 50803
L62535 50747
L62478 50691
L62422 50579
L62422 50241
L62478 50129
L62535 50072
L62647 50016
L62816 50016
L62928 50072
L62985 50129
L63041 50241
L63041 50579
L62985 50691
L62928 50747
L62816 50803
L62647 50803
" />
<path d="M63716 50803
L63603 50747
L63547 50635
L63547 49622
" />
<path d="M64616 50747
L64503 50803
L64278 50803
L64166 50747
L64109 50635
L64109 50185
L64166 50072
L64278 50016
L64503 50016
L64616 50072
L64672 50185
L64672 50297
L64109 50410
" />
<path d="M65122 50747
L65234 50803
L65459 50803
L65572 50747
L65628 50635
L65628 50579
L65572 50466
L65459 50410
L65291 50410
L65178 50354
L65122 50241
L65122 50185
L65178 50072
L65291 50016
L65459 50016
L65572 50072
" />
<path d="M66022 51253
L66078 51197
L66190 51028
L66247 50916
L66303 50747
L66359 50466
L66359 50241
L66303 49960
L66247 49791
L66190 49679
L66078 49510
L66022 49454
" />
<path d="M68159 51253
L68103 51197
L67990 51028
L67934 50916
L67878 50747
L67821 50466
L67821 50241
L67878 49960
L67934 49791
L67990 49679
L68103 49510
L68159 49454
" />
<path d="M68609 50016
L68609 50803
" />
<path d="M68609 50129
L68665 50072
L68778 50016
L68946 50016
L69059 50072
L69115 50185
L69115 50803
" />
<path d="M69846 50803
L69734 50747
L69678 50691
L69621 50579
L69621 50241
L69678 50129
L69734 50072
L69846 50016
L70015 50016
L70127 50072
L70184 50129
L70240 50241
L70240 50579
L70184 50691
L70127 50747
L70015 50803
L69846 50803
" />
<path d="M70577 50016
L71027 50016
" />
<path d="M70746 49622
L70746 50635
L70802 50747
L70915 50803
L71027 50803
" />
<path d="M72321 50016
L72321 51197
" />
<path d="M72321 50072
L72433 50016
L72658 50016
L72771 50072
L72827 50129
L72883 50241
L72883 50579
L72827 50691
L72771 50747
L72658 50803
L72433 50803
L72321 50747
" />
<path d="M73558 50803
L73446 50747
L73390 50635
L73390 49622
" />
<path d="M74514 50803
L74514 50185
L74458 50072
L74346 50016
L74121 50016
L74008 50072
" />
<path d="M74514 50747
L74402 50803
L74121 50803
L74008 50747
L73952 50635
L73952 50522
L74008 50410
L74121 50354
L74402 50354
L74514 50297
" />
<path d="M74908 50016
L75358 50016
" />
<path d="M75077 49622
L75077 50635
L75133 50747
L75246 50803
L75358 50803
" />
<path d="M76202 50747
L76089 50803
L75864 50803
L75752 50747
L75696 50635
L75696 50185
L75752 50072
L75864 50016
L76089 50016
L76202 50072
L76258 50185
L76258 50297
L75696 50410
" />
<path d="M77270 50803
L77270 49622
" />
<path d="M77270 50747
L77158 50803
L76933 50803
L76820 50747
L76764 50691
L76708 50579
L76708 50241
L76764 50129
L76820 50072
L76933 50016
L77158 50016
L77270 50072
" />
<path d="M77720 51253
L77776 51197
L77889 51028
L77945 50916
L78001 50747
L78058 50466
L78058 50241
L78001 49960
L77945 49791
L77889 49679
L77776 49510
L77720 49454
" />
</g> 
</svg>
