G04 #@! TF.GenerationSoftware,KiCad,Pcbnew,5.1.5+dfsg1-2build2*
G04 #@! TF.CreationDate,2022-07-25T22:48:39-05:00*
G04 #@! TF.ProjectId,usb-c-data-panel,7573622d-632d-4646-9174-612d70616e65,rev?*
G04 #@! TF.SameCoordinates,Original*
G04 #@! TF.FileFunction,Legend,Top*
G04 #@! TF.FilePolarity,Positive*
%FSLAX46Y46*%
G04 Gerber Fmt 4.6, Leading zero omitted, Abs format (unit mm)*
G04 Created by KiCad (PCBNEW 5.1.5+dfsg1-2build2) date 2022-07-25 22:48:39*
%MOMM*%
%LPD*%
G04 APERTURE LIST*
%ADD10C,0.120000*%
%ADD11C,0.125000*%
%ADD12C,0.150000*%
G04 APERTURE END LIST*
D10*
X105450000Y-113000000D02*
X119550000Y-113000000D01*
D11*
X118827396Y-109994830D02*
X118541681Y-109994830D01*
X118684539Y-109994830D02*
X118684539Y-109494830D01*
X118636920Y-109566259D01*
X118589300Y-109613878D01*
X118541681Y-109637687D01*
X119136920Y-109494830D02*
X119184539Y-109494830D01*
X119232158Y-109518640D01*
X119255967Y-109542449D01*
X119279777Y-109590068D01*
X119303586Y-109685306D01*
X119303586Y-109804354D01*
X119279777Y-109899592D01*
X119255967Y-109947211D01*
X119232158Y-109971020D01*
X119184539Y-109994830D01*
X119136920Y-109994830D01*
X119089300Y-109971020D01*
X119065491Y-109947211D01*
X119041681Y-109899592D01*
X119017872Y-109804354D01*
X119017872Y-109685306D01*
X119041681Y-109590068D01*
X119065491Y-109542449D01*
X119089300Y-109518640D01*
X119136920Y-109494830D01*
X119517872Y-109947211D02*
X119541681Y-109971020D01*
X119517872Y-109994830D01*
X119494062Y-109971020D01*
X119517872Y-109947211D01*
X119517872Y-109994830D01*
X119827396Y-109709116D02*
X119779777Y-109685306D01*
X119755967Y-109661497D01*
X119732158Y-109613878D01*
X119732158Y-109590068D01*
X119755967Y-109542449D01*
X119779777Y-109518640D01*
X119827396Y-109494830D01*
X119922634Y-109494830D01*
X119970253Y-109518640D01*
X119994062Y-109542449D01*
X120017872Y-109590068D01*
X120017872Y-109613878D01*
X119994062Y-109661497D01*
X119970253Y-109685306D01*
X119922634Y-109709116D01*
X119827396Y-109709116D01*
X119779777Y-109732925D01*
X119755967Y-109756735D01*
X119732158Y-109804354D01*
X119732158Y-109899592D01*
X119755967Y-109947211D01*
X119779777Y-109971020D01*
X119827396Y-109994830D01*
X119922634Y-109994830D01*
X119970253Y-109971020D01*
X119994062Y-109947211D01*
X120017872Y-109899592D01*
X120017872Y-109804354D01*
X119994062Y-109756735D01*
X119970253Y-109732925D01*
X119922634Y-109709116D01*
X120613110Y-109994830D02*
X120613110Y-109661497D01*
X120613110Y-109709116D02*
X120636920Y-109685306D01*
X120684539Y-109661497D01*
X120755967Y-109661497D01*
X120803586Y-109685306D01*
X120827396Y-109732925D01*
X120827396Y-109994830D01*
X120827396Y-109732925D02*
X120851205Y-109685306D01*
X120898824Y-109661497D01*
X120970253Y-109661497D01*
X121017872Y-109685306D01*
X121041681Y-109732925D01*
X121041681Y-109994830D01*
X121279777Y-109994830D02*
X121279777Y-109661497D01*
X121279777Y-109709116D02*
X121303586Y-109685306D01*
X121351205Y-109661497D01*
X121422634Y-109661497D01*
X121470253Y-109685306D01*
X121494062Y-109732925D01*
X121494062Y-109994830D01*
X121494062Y-109732925D02*
X121517872Y-109685306D01*
X121565491Y-109661497D01*
X121636920Y-109661497D01*
X121684539Y-109685306D01*
X121708348Y-109732925D01*
X121708348Y-109994830D01*
D10*
X107100000Y-110000000D02*
X117900000Y-110000000D01*
X106900000Y-104500000D02*
X106900000Y-109600000D01*
D11*
X106329990Y-112301518D02*
X106329990Y-112539613D01*
X106568085Y-112563422D01*
X106544276Y-112539613D01*
X106520466Y-112491994D01*
X106520466Y-112372946D01*
X106544276Y-112325327D01*
X106568085Y-112301518D01*
X106615704Y-112277708D01*
X106734752Y-112277708D01*
X106782371Y-112301518D01*
X106806180Y-112325327D01*
X106829990Y-112372946D01*
X106829990Y-112491994D01*
X106806180Y-112539613D01*
X106782371Y-112563422D01*
X106782371Y-112063422D02*
X106806180Y-112039613D01*
X106829990Y-112063422D01*
X106806180Y-112087232D01*
X106782371Y-112063422D01*
X106829990Y-112063422D01*
X106829990Y-111563422D02*
X106829990Y-111849137D01*
X106829990Y-111706280D02*
X106329990Y-111706280D01*
X106401419Y-111753899D01*
X106449038Y-111801518D01*
X106472847Y-111849137D01*
X106829990Y-110968184D02*
X106496657Y-110968184D01*
X106544276Y-110968184D02*
X106520466Y-110944375D01*
X106496657Y-110896756D01*
X106496657Y-110825327D01*
X106520466Y-110777708D01*
X106568085Y-110753899D01*
X106829990Y-110753899D01*
X106568085Y-110753899D02*
X106520466Y-110730089D01*
X106496657Y-110682470D01*
X106496657Y-110611041D01*
X106520466Y-110563422D01*
X106568085Y-110539613D01*
X106829990Y-110539613D01*
X106829990Y-110301518D02*
X106496657Y-110301518D01*
X106544276Y-110301518D02*
X106520466Y-110277708D01*
X106496657Y-110230089D01*
X106496657Y-110158660D01*
X106520466Y-110111041D01*
X106568085Y-110087232D01*
X106829990Y-110087232D01*
X106568085Y-110087232D02*
X106520466Y-110063422D01*
X106496657Y-110015803D01*
X106496657Y-109944375D01*
X106520466Y-109896756D01*
X106568085Y-109872946D01*
X106829990Y-109872946D01*
D12*
X110609641Y-112594344D02*
X110152499Y-112594344D01*
X110381070Y-112594344D02*
X110381070Y-111794344D01*
X110304880Y-111908630D01*
X110228689Y-111984820D01*
X110152499Y-112022916D01*
X111295356Y-112061011D02*
X111295356Y-112594344D01*
X111104880Y-111756249D02*
X110914403Y-112327678D01*
X111409641Y-112327678D01*
X111714403Y-112518154D02*
X111752499Y-112556249D01*
X111714403Y-112594344D01*
X111676308Y-112556249D01*
X111714403Y-112518154D01*
X111714403Y-112594344D01*
X112514403Y-112594344D02*
X112057260Y-112594344D01*
X112285832Y-112594344D02*
X112285832Y-111794344D01*
X112209641Y-111908630D01*
X112133451Y-111984820D01*
X112057260Y-112022916D01*
X113466784Y-112594344D02*
X113466784Y-112061011D01*
X113466784Y-112137201D02*
X113504880Y-112099106D01*
X113581070Y-112061011D01*
X113695356Y-112061011D01*
X113771546Y-112099106D01*
X113809641Y-112175297D01*
X113809641Y-112594344D01*
X113809641Y-112175297D02*
X113847737Y-112099106D01*
X113923927Y-112061011D01*
X114038213Y-112061011D01*
X114114403Y-112099106D01*
X114152499Y-112175297D01*
X114152499Y-112594344D01*
X114533451Y-112594344D02*
X114533451Y-112061011D01*
X114533451Y-112137201D02*
X114571546Y-112099106D01*
X114647737Y-112061011D01*
X114762022Y-112061011D01*
X114838213Y-112099106D01*
X114876308Y-112175297D01*
X114876308Y-112594344D01*
X114876308Y-112175297D02*
X114914403Y-112099106D01*
X114990594Y-112061011D01*
X115104880Y-112061011D01*
X115181070Y-112099106D01*
X115219165Y-112175297D01*
X115219165Y-112594344D01*
X108026415Y-101733100D02*
X108026415Y-102542624D01*
X108074034Y-102637862D01*
X108121653Y-102685481D01*
X108216891Y-102733100D01*
X108407367Y-102733100D01*
X108502605Y-102685481D01*
X108550224Y-102637862D01*
X108597843Y-102542624D01*
X108597843Y-101733100D01*
X109026415Y-102685481D02*
X109169272Y-102733100D01*
X109407367Y-102733100D01*
X109502605Y-102685481D01*
X109550224Y-102637862D01*
X109597843Y-102542624D01*
X109597843Y-102447386D01*
X109550224Y-102352148D01*
X109502605Y-102304529D01*
X109407367Y-102256910D01*
X109216891Y-102209291D01*
X109121653Y-102161672D01*
X109074034Y-102114053D01*
X109026415Y-102018815D01*
X109026415Y-101923577D01*
X109074034Y-101828339D01*
X109121653Y-101780720D01*
X109216891Y-101733100D01*
X109454986Y-101733100D01*
X109597843Y-101780720D01*
X110359748Y-102209291D02*
X110502605Y-102256910D01*
X110550224Y-102304529D01*
X110597843Y-102399767D01*
X110597843Y-102542624D01*
X110550224Y-102637862D01*
X110502605Y-102685481D01*
X110407367Y-102733100D01*
X110026415Y-102733100D01*
X110026415Y-101733100D01*
X110359748Y-101733100D01*
X110454986Y-101780720D01*
X110502605Y-101828339D01*
X110550224Y-101923577D01*
X110550224Y-102018815D01*
X110502605Y-102114053D01*
X110454986Y-102161672D01*
X110359748Y-102209291D01*
X110026415Y-102209291D01*
X112359748Y-102637862D02*
X112312129Y-102685481D01*
X112169272Y-102733100D01*
X112074034Y-102733100D01*
X111931177Y-102685481D01*
X111835939Y-102590243D01*
X111788320Y-102495005D01*
X111740700Y-102304529D01*
X111740700Y-102161672D01*
X111788320Y-101971196D01*
X111835939Y-101875958D01*
X111931177Y-101780720D01*
X112074034Y-101733100D01*
X112169272Y-101733100D01*
X112312129Y-101780720D01*
X112359748Y-101828339D01*
X113550224Y-102733100D02*
X113550224Y-101733100D01*
X113788320Y-101733100D01*
X113931177Y-101780720D01*
X114026415Y-101875958D01*
X114074034Y-101971196D01*
X114121653Y-102161672D01*
X114121653Y-102304529D01*
X114074034Y-102495005D01*
X114026415Y-102590243D01*
X113931177Y-102685481D01*
X113788320Y-102733100D01*
X113550224Y-102733100D01*
X114502605Y-102447386D02*
X114978796Y-102447386D01*
X114407367Y-102733100D02*
X114740700Y-101733100D01*
X115074034Y-102733100D01*
X115264510Y-101733100D02*
X115835939Y-101733100D01*
X115550224Y-102733100D02*
X115550224Y-101733100D01*
X116121653Y-102447386D02*
X116597843Y-102447386D01*
X116026415Y-102733100D02*
X116359748Y-101733100D01*
X116693081Y-102733100D01*
D10*
X119550000Y-108550000D02*
X119550000Y-113600000D01*
X119550000Y-100500000D02*
X119550000Y-105550000D01*
X105450000Y-108550000D02*
X105450000Y-113600000D01*
X105450000Y-100500000D02*
X105450000Y-105550000D01*
X121550000Y-107050000D02*
X124500000Y-107050000D01*
X100500000Y-107050000D02*
X103450000Y-107050000D01*
M02*
