G04 #@! TF.GenerationSoftware,KiCad,Pcbnew,5.1.5+dfsg1-2build2*
G04 #@! TF.CreationDate,2022-07-14T11:35:22-05:00*
G04 #@! TF.ProjectId,usb-c-power-panel,7573622d-632d-4706-9f77-65722d70616e,rev?*
G04 #@! TF.SameCoordinates,Original*
G04 #@! TF.FileFunction,Legend,Top*
G04 #@! TF.FilePolarity,Positive*
%FSLAX46Y46*%
G04 Gerber Fmt 4.6, Leading zero omitted, Abs format (unit mm)*
G04 Created by KiCad (PCBNEW 5.1.5+dfsg1-2build2) date 2022-07-14 11:35:22*
%MOMM*%
%LPD*%
G04 APERTURE LIST*
%ADD10C,0.120000*%
%ADD11C,0.125000*%
%ADD12C,0.150000*%
G04 APERTURE END LIST*
D10*
X104950000Y-113000000D02*
X120050000Y-113000000D01*
D11*
X118517516Y-110030390D02*
X118231801Y-110030390D01*
X118374659Y-110030390D02*
X118374659Y-109530390D01*
X118327040Y-109601819D01*
X118279420Y-109649438D01*
X118231801Y-109673247D01*
X118827040Y-109530390D02*
X118874659Y-109530390D01*
X118922278Y-109554200D01*
X118946087Y-109578009D01*
X118969897Y-109625628D01*
X118993706Y-109720866D01*
X118993706Y-109839914D01*
X118969897Y-109935152D01*
X118946087Y-109982771D01*
X118922278Y-110006580D01*
X118874659Y-110030390D01*
X118827040Y-110030390D01*
X118779420Y-110006580D01*
X118755611Y-109982771D01*
X118731801Y-109935152D01*
X118707992Y-109839914D01*
X118707992Y-109720866D01*
X118731801Y-109625628D01*
X118755611Y-109578009D01*
X118779420Y-109554200D01*
X118827040Y-109530390D01*
X119207992Y-109982771D02*
X119231801Y-110006580D01*
X119207992Y-110030390D01*
X119184182Y-110006580D01*
X119207992Y-109982771D01*
X119207992Y-110030390D01*
X119469897Y-110030390D02*
X119565135Y-110030390D01*
X119612754Y-110006580D01*
X119636563Y-109982771D01*
X119684182Y-109911342D01*
X119707992Y-109816104D01*
X119707992Y-109625628D01*
X119684182Y-109578009D01*
X119660373Y-109554200D01*
X119612754Y-109530390D01*
X119517516Y-109530390D01*
X119469897Y-109554200D01*
X119446087Y-109578009D01*
X119422278Y-109625628D01*
X119422278Y-109744676D01*
X119446087Y-109792295D01*
X119469897Y-109816104D01*
X119517516Y-109839914D01*
X119612754Y-109839914D01*
X119660373Y-109816104D01*
X119684182Y-109792295D01*
X119707992Y-109744676D01*
X120303230Y-110030390D02*
X120303230Y-109697057D01*
X120303230Y-109744676D02*
X120327040Y-109720866D01*
X120374659Y-109697057D01*
X120446087Y-109697057D01*
X120493706Y-109720866D01*
X120517516Y-109768485D01*
X120517516Y-110030390D01*
X120517516Y-109768485D02*
X120541325Y-109720866D01*
X120588944Y-109697057D01*
X120660373Y-109697057D01*
X120707992Y-109720866D01*
X120731801Y-109768485D01*
X120731801Y-110030390D01*
X120969897Y-110030390D02*
X120969897Y-109697057D01*
X120969897Y-109744676D02*
X120993706Y-109720866D01*
X121041325Y-109697057D01*
X121112754Y-109697057D01*
X121160373Y-109720866D01*
X121184182Y-109768485D01*
X121184182Y-110030390D01*
X121184182Y-109768485D02*
X121207992Y-109720866D01*
X121255611Y-109697057D01*
X121327040Y-109697057D01*
X121374659Y-109720866D01*
X121398468Y-109768485D01*
X121398468Y-110030390D01*
D10*
X107050000Y-110000000D02*
X117950000Y-110000000D01*
X106700000Y-104500000D02*
X106670000Y-109600000D01*
D11*
X106157270Y-112321838D02*
X106157270Y-112559933D01*
X106395365Y-112583742D01*
X106371556Y-112559933D01*
X106347746Y-112512314D01*
X106347746Y-112393266D01*
X106371556Y-112345647D01*
X106395365Y-112321838D01*
X106442984Y-112298028D01*
X106562032Y-112298028D01*
X106609651Y-112321838D01*
X106633460Y-112345647D01*
X106657270Y-112393266D01*
X106657270Y-112512314D01*
X106633460Y-112559933D01*
X106609651Y-112583742D01*
X106609651Y-112083742D02*
X106633460Y-112059933D01*
X106657270Y-112083742D01*
X106633460Y-112107552D01*
X106609651Y-112083742D01*
X106657270Y-112083742D01*
X106657270Y-111583742D02*
X106657270Y-111869457D01*
X106657270Y-111726600D02*
X106157270Y-111726600D01*
X106228699Y-111774219D01*
X106276318Y-111821838D01*
X106300127Y-111869457D01*
X106657270Y-110988504D02*
X106323937Y-110988504D01*
X106371556Y-110988504D02*
X106347746Y-110964695D01*
X106323937Y-110917076D01*
X106323937Y-110845647D01*
X106347746Y-110798028D01*
X106395365Y-110774219D01*
X106657270Y-110774219D01*
X106395365Y-110774219D02*
X106347746Y-110750409D01*
X106323937Y-110702790D01*
X106323937Y-110631361D01*
X106347746Y-110583742D01*
X106395365Y-110559933D01*
X106657270Y-110559933D01*
X106657270Y-110321838D02*
X106323937Y-110321838D01*
X106371556Y-110321838D02*
X106347746Y-110298028D01*
X106323937Y-110250409D01*
X106323937Y-110178980D01*
X106347746Y-110131361D01*
X106395365Y-110107552D01*
X106657270Y-110107552D01*
X106395365Y-110107552D02*
X106347746Y-110083742D01*
X106323937Y-110036123D01*
X106323937Y-109964695D01*
X106347746Y-109917076D01*
X106395365Y-109893266D01*
X106657270Y-109893266D01*
D12*
X110609641Y-112594344D02*
X110152499Y-112594344D01*
X110381070Y-112594344D02*
X110381070Y-111794344D01*
X110304880Y-111908630D01*
X110228689Y-111984820D01*
X110152499Y-112022916D01*
X111333451Y-111794344D02*
X110952499Y-111794344D01*
X110914403Y-112175297D01*
X110952499Y-112137201D01*
X111028689Y-112099106D01*
X111219165Y-112099106D01*
X111295356Y-112137201D01*
X111333451Y-112175297D01*
X111371546Y-112251487D01*
X111371546Y-112441963D01*
X111333451Y-112518154D01*
X111295356Y-112556249D01*
X111219165Y-112594344D01*
X111028689Y-112594344D01*
X110952499Y-112556249D01*
X110914403Y-112518154D01*
X111714403Y-112518154D02*
X111752499Y-112556249D01*
X111714403Y-112594344D01*
X111676308Y-112556249D01*
X111714403Y-112518154D01*
X111714403Y-112594344D01*
X112514403Y-112594344D02*
X112057260Y-112594344D01*
X112285832Y-112594344D02*
X112285832Y-111794344D01*
X112209641Y-111908630D01*
X112133451Y-111984820D01*
X112057260Y-112022916D01*
X113466784Y-112594344D02*
X113466784Y-112061011D01*
X113466784Y-112137201D02*
X113504880Y-112099106D01*
X113581070Y-112061011D01*
X113695356Y-112061011D01*
X113771546Y-112099106D01*
X113809641Y-112175297D01*
X113809641Y-112594344D01*
X113809641Y-112175297D02*
X113847737Y-112099106D01*
X113923927Y-112061011D01*
X114038213Y-112061011D01*
X114114403Y-112099106D01*
X114152499Y-112175297D01*
X114152499Y-112594344D01*
X114533451Y-112594344D02*
X114533451Y-112061011D01*
X114533451Y-112137201D02*
X114571546Y-112099106D01*
X114647737Y-112061011D01*
X114762022Y-112061011D01*
X114838213Y-112099106D01*
X114876308Y-112175297D01*
X114876308Y-112594344D01*
X114876308Y-112175297D02*
X114914403Y-112099106D01*
X114990594Y-112061011D01*
X115104880Y-112061011D01*
X115181070Y-112099106D01*
X115219165Y-112175297D01*
X115219165Y-112594344D01*
X107216891Y-101733100D02*
X107216891Y-102542624D01*
X107264510Y-102637862D01*
X107312129Y-102685481D01*
X107407367Y-102733100D01*
X107597843Y-102733100D01*
X107693081Y-102685481D01*
X107740700Y-102637862D01*
X107788320Y-102542624D01*
X107788320Y-101733100D01*
X108216891Y-102685481D02*
X108359748Y-102733100D01*
X108597843Y-102733100D01*
X108693081Y-102685481D01*
X108740700Y-102637862D01*
X108788320Y-102542624D01*
X108788320Y-102447386D01*
X108740700Y-102352148D01*
X108693081Y-102304529D01*
X108597843Y-102256910D01*
X108407367Y-102209291D01*
X108312129Y-102161672D01*
X108264510Y-102114053D01*
X108216891Y-102018815D01*
X108216891Y-101923577D01*
X108264510Y-101828339D01*
X108312129Y-101780720D01*
X108407367Y-101733100D01*
X108645462Y-101733100D01*
X108788320Y-101780720D01*
X109550224Y-102209291D02*
X109693081Y-102256910D01*
X109740700Y-102304529D01*
X109788320Y-102399767D01*
X109788320Y-102542624D01*
X109740700Y-102637862D01*
X109693081Y-102685481D01*
X109597843Y-102733100D01*
X109216891Y-102733100D01*
X109216891Y-101733100D01*
X109550224Y-101733100D01*
X109645462Y-101780720D01*
X109693081Y-101828339D01*
X109740700Y-101923577D01*
X109740700Y-102018815D01*
X109693081Y-102114053D01*
X109645462Y-102161672D01*
X109550224Y-102209291D01*
X109216891Y-102209291D01*
X111550224Y-102637862D02*
X111502605Y-102685481D01*
X111359748Y-102733100D01*
X111264510Y-102733100D01*
X111121653Y-102685481D01*
X111026415Y-102590243D01*
X110978796Y-102495005D01*
X110931177Y-102304529D01*
X110931177Y-102161672D01*
X110978796Y-101971196D01*
X111026415Y-101875958D01*
X111121653Y-101780720D01*
X111264510Y-101733100D01*
X111359748Y-101733100D01*
X111502605Y-101780720D01*
X111550224Y-101828339D01*
X112740700Y-102733100D02*
X112740700Y-101733100D01*
X113121653Y-101733100D01*
X113216891Y-101780720D01*
X113264510Y-101828339D01*
X113312129Y-101923577D01*
X113312129Y-102066434D01*
X113264510Y-102161672D01*
X113216891Y-102209291D01*
X113121653Y-102256910D01*
X112740700Y-102256910D01*
X113931177Y-101733100D02*
X114121653Y-101733100D01*
X114216891Y-101780720D01*
X114312129Y-101875958D01*
X114359748Y-102066434D01*
X114359748Y-102399767D01*
X114312129Y-102590243D01*
X114216891Y-102685481D01*
X114121653Y-102733100D01*
X113931177Y-102733100D01*
X113835939Y-102685481D01*
X113740700Y-102590243D01*
X113693081Y-102399767D01*
X113693081Y-102066434D01*
X113740700Y-101875958D01*
X113835939Y-101780720D01*
X113931177Y-101733100D01*
X114693081Y-101733100D02*
X114931177Y-102733100D01*
X115121653Y-102018815D01*
X115312129Y-102733100D01*
X115550224Y-101733100D01*
X115931177Y-102209291D02*
X116264510Y-102209291D01*
X116407367Y-102733100D02*
X115931177Y-102733100D01*
X115931177Y-101733100D01*
X116407367Y-101733100D01*
X117407367Y-102733100D02*
X117074034Y-102256910D01*
X116835939Y-102733100D02*
X116835939Y-101733100D01*
X117216891Y-101733100D01*
X117312129Y-101780720D01*
X117359748Y-101828339D01*
X117407367Y-101923577D01*
X117407367Y-102066434D01*
X117359748Y-102161672D01*
X117312129Y-102209291D01*
X117216891Y-102256910D01*
X116835939Y-102256910D01*
D10*
X120050000Y-108550000D02*
X120050000Y-113600000D01*
X120050000Y-100500000D02*
X120050000Y-105550000D01*
X104950000Y-108550000D02*
X104950000Y-113600000D01*
X104950000Y-100500000D02*
X104950000Y-105550000D01*
X121550000Y-107050000D02*
X124500000Y-107050000D01*
X100500000Y-107050000D02*
X103450000Y-107050000D01*
M02*
