M48
; DRILL file {KiCad 5.1.5+dfsg1-2build2} date lun 25 jul 2022 22:48:37
; FORMAT={-:-/ absolute / metric / decimal}
; #@! TF.CreationDate,2022-07-25T22:48:37-05:00
; #@! TF.GenerationSoftware,Kicad,Pcbnew,5.1.5+dfsg1-2build2
; #@! TF.FileFunction,NonPlated,1,2,NPTH
FMAT,2
METRIC
T1C1.000
%
G90
G05
T1
X114.95Y-105.0
X110.05Y-105.0
X113.725Y-109.1
X108.825Y-105.0
X107.6Y-107.74
X108.825Y-109.1
X111.275Y-109.1
X117.4Y-107.74
X117.4Y-109.1
X107.6Y-105.0
X110.05Y-109.1
X107.6Y-109.1
X111.275Y-105.0
X116.175Y-109.1
X117.4Y-106.36
X114.95Y-109.1
X116.175Y-105.0
X113.725Y-105.0
X117.4Y-105.0
X112.5Y-109.1
X112.5Y-105.0
X107.6Y-106.36
T0
M30
