G04 #@! TF.GenerationSoftware,KiCad,Pcbnew,5.1.5+dfsg1-2build2*
G04 #@! TF.CreationDate,2022-03-04T19:05:06-05:00*
G04 #@! TF.ProjectId,LED_PANEL_26x45mm,4c45445f-5041-44e4-954c-5f3236783435,rev?*
G04 #@! TF.SameCoordinates,Original*
G04 #@! TF.FileFunction,Soldermask,Top*
G04 #@! TF.FilePolarity,Negative*
%FSLAX46Y46*%
G04 Gerber Fmt 4.6, Leading zero omitted, Abs format (unit mm)*
G04 Created by KiCad (PCBNEW 5.1.5+dfsg1-2build2) date 2022-03-04 19:05:06*
%MOMM*%
%LPD*%
G04 APERTURE LIST*
%ADD10C,0.100000*%
G04 APERTURE END LIST*
D10*
G36*
X98556416Y-78239879D02*
G01*
X98747592Y-78319067D01*
X98747594Y-78319068D01*
X98919648Y-78434031D01*
X99065969Y-78580352D01*
X99180933Y-78752408D01*
X99260121Y-78943584D01*
X99300490Y-79146534D01*
X99300490Y-79353466D01*
X99260121Y-79556416D01*
X99180933Y-79747592D01*
X99180932Y-79747594D01*
X99065969Y-79919648D01*
X98919648Y-80065969D01*
X98747594Y-80180932D01*
X98747593Y-80180933D01*
X98747592Y-80180933D01*
X98556416Y-80260121D01*
X98353466Y-80300490D01*
X98146534Y-80300490D01*
X97943584Y-80260121D01*
X97752408Y-80180933D01*
X97752407Y-80180933D01*
X97752406Y-80180932D01*
X97580352Y-80065969D01*
X97434031Y-79919648D01*
X97319068Y-79747594D01*
X97319067Y-79747592D01*
X97239879Y-79556416D01*
X97199510Y-79353466D01*
X97199510Y-79146534D01*
X97239879Y-78943584D01*
X97319067Y-78752408D01*
X97434031Y-78580352D01*
X97580352Y-78434031D01*
X97752406Y-78319068D01*
X97752408Y-78319067D01*
X97943584Y-78239879D01*
X98146534Y-78199510D01*
X98353466Y-78199510D01*
X98556416Y-78239879D01*
G37*
G36*
X53056416Y-78239879D02*
G01*
X53247592Y-78319067D01*
X53247594Y-78319068D01*
X53419648Y-78434031D01*
X53565969Y-78580352D01*
X53680933Y-78752408D01*
X53760121Y-78943584D01*
X53800490Y-79146534D01*
X53800490Y-79353466D01*
X53760121Y-79556416D01*
X53680933Y-79747592D01*
X53680932Y-79747594D01*
X53565969Y-79919648D01*
X53419648Y-80065969D01*
X53247594Y-80180932D01*
X53247593Y-80180933D01*
X53247592Y-80180933D01*
X53056416Y-80260121D01*
X52853466Y-80300490D01*
X52646534Y-80300490D01*
X52443584Y-80260121D01*
X52252408Y-80180933D01*
X52252407Y-80180933D01*
X52252406Y-80180932D01*
X52080352Y-80065969D01*
X51934031Y-79919648D01*
X51819068Y-79747594D01*
X51819067Y-79747592D01*
X51739879Y-79556416D01*
X51699510Y-79353466D01*
X51699510Y-79146534D01*
X51739879Y-78943584D01*
X51819067Y-78752408D01*
X51934031Y-78580352D01*
X52080352Y-78434031D01*
X52252406Y-78319068D01*
X52252408Y-78319067D01*
X52443584Y-78239879D01*
X52646534Y-78199510D01*
X52853466Y-78199510D01*
X53056416Y-78239879D01*
G37*
G36*
X98556416Y-51739879D02*
G01*
X98747592Y-51819067D01*
X98747594Y-51819068D01*
X98919648Y-51934031D01*
X99065969Y-52080352D01*
X99180933Y-52252408D01*
X99260121Y-52443584D01*
X99300490Y-52646534D01*
X99300490Y-52853466D01*
X99260121Y-53056416D01*
X99180933Y-53247592D01*
X99180932Y-53247594D01*
X99065969Y-53419648D01*
X98919648Y-53565969D01*
X98747594Y-53680932D01*
X98747593Y-53680933D01*
X98747592Y-53680933D01*
X98556416Y-53760121D01*
X98353466Y-53800490D01*
X98146534Y-53800490D01*
X97943584Y-53760121D01*
X97752408Y-53680933D01*
X97752407Y-53680933D01*
X97752406Y-53680932D01*
X97580352Y-53565969D01*
X97434031Y-53419648D01*
X97319068Y-53247594D01*
X97319067Y-53247592D01*
X97239879Y-53056416D01*
X97199510Y-52853466D01*
X97199510Y-52646534D01*
X97239879Y-52443584D01*
X97319067Y-52252408D01*
X97434031Y-52080352D01*
X97580352Y-51934031D01*
X97752406Y-51819068D01*
X97752408Y-51819067D01*
X97943584Y-51739879D01*
X98146534Y-51699510D01*
X98353466Y-51699510D01*
X98556416Y-51739879D01*
G37*
G36*
X53056416Y-51739879D02*
G01*
X53247592Y-51819067D01*
X53247594Y-51819068D01*
X53419648Y-51934031D01*
X53565969Y-52080352D01*
X53680933Y-52252408D01*
X53760121Y-52443584D01*
X53800490Y-52646534D01*
X53800490Y-52853466D01*
X53760121Y-53056416D01*
X53680933Y-53247592D01*
X53680932Y-53247594D01*
X53565969Y-53419648D01*
X53419648Y-53565969D01*
X53247594Y-53680932D01*
X53247593Y-53680933D01*
X53247592Y-53680933D01*
X53056416Y-53760121D01*
X52853466Y-53800490D01*
X52646534Y-53800490D01*
X52443584Y-53760121D01*
X52252408Y-53680933D01*
X52252407Y-53680933D01*
X52252406Y-53680932D01*
X52080352Y-53565969D01*
X51934031Y-53419648D01*
X51819068Y-53247594D01*
X51819067Y-53247592D01*
X51739879Y-53056416D01*
X51699510Y-52853466D01*
X51699510Y-52646534D01*
X51739879Y-52443584D01*
X51819067Y-52252408D01*
X51934031Y-52080352D01*
X52080352Y-51934031D01*
X52252406Y-51819068D01*
X52252408Y-51819067D01*
X52443584Y-51739879D01*
X52646534Y-51699510D01*
X52853466Y-51699510D01*
X53056416Y-51739879D01*
G37*
M02*
