G04 #@! TF.GenerationSoftware,KiCad,Pcbnew,5.1.5+dfsg1-2build2*
G04 #@! TF.CreationDate,2022-03-04T22:05:38-05:00*
G04 #@! TF.ProjectId,SMA_FLANGE_4_HOLES,534d415f-464c-4414-9e47-455f345f484f,rev?*
G04 #@! TF.SameCoordinates,Original*
G04 #@! TF.FileFunction,Legend,Top*
G04 #@! TF.FilePolarity,Positive*
%FSLAX46Y46*%
G04 Gerber Fmt 4.6, Leading zero omitted, Abs format (unit mm)*
G04 Created by KiCad (PCBNEW 5.1.5+dfsg1-2build2) date 2022-03-04 22:05:38*
%MOMM*%
%LPD*%
G04 APERTURE LIST*
%ADD10C,0.150000*%
%ADD11C,0.120000*%
G04 APERTURE END LIST*
D10*
X55903825Y-52629377D02*
X55989540Y-52657948D01*
X56132397Y-52657948D01*
X56189540Y-52629377D01*
X56218111Y-52600805D01*
X56246682Y-52543662D01*
X56246682Y-52486520D01*
X56218111Y-52429377D01*
X56189540Y-52400805D01*
X56132397Y-52372234D01*
X56018111Y-52343662D01*
X55960968Y-52315091D01*
X55932397Y-52286520D01*
X55903825Y-52229377D01*
X55903825Y-52172234D01*
X55932397Y-52115091D01*
X55960968Y-52086520D01*
X56018111Y-52057948D01*
X56160968Y-52057948D01*
X56246682Y-52086520D01*
X56503825Y-52657948D02*
X56503825Y-52057948D01*
X56703825Y-52486520D01*
X56903825Y-52057948D01*
X56903825Y-52657948D01*
X57160968Y-52486520D02*
X57446682Y-52486520D01*
X57103825Y-52657948D02*
X57303825Y-52057948D01*
X57503825Y-52657948D01*
X56132397Y-53393662D02*
X55932397Y-53393662D01*
X55932397Y-53707948D02*
X55932397Y-53107948D01*
X56218111Y-53107948D01*
X56732397Y-53707948D02*
X56446682Y-53707948D01*
X56446682Y-53107948D01*
X56903825Y-53536520D02*
X57189540Y-53536520D01*
X56846682Y-53707948D02*
X57046682Y-53107948D01*
X57246682Y-53707948D01*
X57446682Y-53707948D02*
X57446682Y-53107948D01*
X57789540Y-53707948D01*
X57789540Y-53107948D01*
X58389540Y-53136520D02*
X58332397Y-53107948D01*
X58246682Y-53107948D01*
X58160968Y-53136520D01*
X58103825Y-53193662D01*
X58075254Y-53250805D01*
X58046682Y-53365091D01*
X58046682Y-53450805D01*
X58075254Y-53565091D01*
X58103825Y-53622234D01*
X58160968Y-53679377D01*
X58246682Y-53707948D01*
X58303825Y-53707948D01*
X58389540Y-53679377D01*
X58418111Y-53650805D01*
X58418111Y-53450805D01*
X58303825Y-53450805D01*
X58675254Y-53393662D02*
X58875254Y-53393662D01*
X58960968Y-53707948D02*
X58675254Y-53707948D01*
X58675254Y-53107948D01*
X58960968Y-53107948D01*
X56189540Y-54357948D02*
X56189540Y-54757948D01*
X56046682Y-54129377D02*
X55903825Y-54557948D01*
X56275254Y-54557948D01*
X56960968Y-54757948D02*
X56960968Y-54157948D01*
X56960968Y-54443662D02*
X57303825Y-54443662D01*
X57303825Y-54757948D02*
X57303825Y-54157948D01*
X57703825Y-54157948D02*
X57818111Y-54157948D01*
X57875254Y-54186520D01*
X57932397Y-54243662D01*
X57960968Y-54357948D01*
X57960968Y-54557948D01*
X57932397Y-54672234D01*
X57875254Y-54729377D01*
X57818111Y-54757948D01*
X57703825Y-54757948D01*
X57646682Y-54729377D01*
X57589540Y-54672234D01*
X57560968Y-54557948D01*
X57560968Y-54357948D01*
X57589540Y-54243662D01*
X57646682Y-54186520D01*
X57703825Y-54157948D01*
X58503825Y-54757948D02*
X58218111Y-54757948D01*
X58218111Y-54157948D01*
X58703825Y-54443662D02*
X58903825Y-54443662D01*
X58989540Y-54757948D02*
X58703825Y-54757948D01*
X58703825Y-54157948D01*
X58989540Y-54157948D01*
X59218111Y-54729377D02*
X59303825Y-54757948D01*
X59446682Y-54757948D01*
X59503825Y-54729377D01*
X59532397Y-54700805D01*
X59560968Y-54643662D01*
X59560968Y-54586520D01*
X59532397Y-54529377D01*
X59503825Y-54500805D01*
X59446682Y-54472234D01*
X59332397Y-54443662D01*
X59275254Y-54415091D01*
X59246682Y-54386520D01*
X59218111Y-54329377D01*
X59218111Y-54272234D01*
X59246682Y-54215091D01*
X59275254Y-54186520D01*
X59332397Y-54157948D01*
X59475254Y-54157948D01*
X59560968Y-54186520D01*
X53326813Y-55683053D02*
X53360146Y-55616386D01*
X53393480Y-55583053D01*
X53460146Y-55549720D01*
X53493480Y-55549720D01*
X53560146Y-55583053D01*
X53593480Y-55616386D01*
X53626813Y-55683053D01*
X53626813Y-55816386D01*
X53593480Y-55883053D01*
X53560146Y-55916386D01*
X53493480Y-55949720D01*
X53460146Y-55949720D01*
X53393480Y-55916386D01*
X53360146Y-55883053D01*
X53326813Y-55816386D01*
X53326813Y-55683053D01*
X53293480Y-55616386D01*
X53260146Y-55583053D01*
X53193480Y-55549720D01*
X53060146Y-55549720D01*
X52993480Y-55583053D01*
X52960146Y-55616386D01*
X52926813Y-55683053D01*
X52926813Y-55816386D01*
X52960146Y-55883053D01*
X52993480Y-55916386D01*
X53060146Y-55949720D01*
X53193480Y-55949720D01*
X53260146Y-55916386D01*
X53293480Y-55883053D01*
X53326813Y-55816386D01*
X52993480Y-56249720D02*
X52960146Y-56283053D01*
X52926813Y-56249720D01*
X52960146Y-56216386D01*
X52993480Y-56249720D01*
X52926813Y-56249720D01*
X53626813Y-56883053D02*
X53626813Y-56749720D01*
X53593480Y-56683053D01*
X53560146Y-56649720D01*
X53460146Y-56583053D01*
X53326813Y-56549720D01*
X53060146Y-56549720D01*
X52993480Y-56583053D01*
X52960146Y-56616386D01*
X52926813Y-56683053D01*
X52926813Y-56816386D01*
X52960146Y-56883053D01*
X52993480Y-56916386D01*
X53060146Y-56949720D01*
X53226813Y-56949720D01*
X53293480Y-56916386D01*
X53326813Y-56883053D01*
X53360146Y-56816386D01*
X53360146Y-56683053D01*
X53326813Y-56616386D01*
X53293480Y-56583053D01*
X53226813Y-56549720D01*
X52926813Y-57783053D02*
X53393480Y-57783053D01*
X53326813Y-57783053D02*
X53360146Y-57816386D01*
X53393480Y-57883053D01*
X53393480Y-57983053D01*
X53360146Y-58049720D01*
X53293480Y-58083053D01*
X52926813Y-58083053D01*
X53293480Y-58083053D02*
X53360146Y-58116386D01*
X53393480Y-58183053D01*
X53393480Y-58283053D01*
X53360146Y-58349720D01*
X53293480Y-58383053D01*
X52926813Y-58383053D01*
X52926813Y-58716386D02*
X53393480Y-58716386D01*
X53326813Y-58716386D02*
X53360146Y-58749720D01*
X53393480Y-58816386D01*
X53393480Y-58916386D01*
X53360146Y-58983053D01*
X53293480Y-59016386D01*
X52926813Y-59016386D01*
X53293480Y-59016386D02*
X53360146Y-59049720D01*
X53393480Y-59116386D01*
X53393480Y-59216386D01*
X53360146Y-59283053D01*
X53293480Y-59316386D01*
X52926813Y-59316386D01*
X55698293Y-61938386D02*
X55631626Y-61905053D01*
X55598293Y-61871720D01*
X55564960Y-61805053D01*
X55564960Y-61771720D01*
X55598293Y-61705053D01*
X55631626Y-61671720D01*
X55698293Y-61638386D01*
X55831626Y-61638386D01*
X55898293Y-61671720D01*
X55931626Y-61705053D01*
X55964960Y-61771720D01*
X55964960Y-61805053D01*
X55931626Y-61871720D01*
X55898293Y-61905053D01*
X55831626Y-61938386D01*
X55698293Y-61938386D01*
X55631626Y-61971720D01*
X55598293Y-62005053D01*
X55564960Y-62071720D01*
X55564960Y-62205053D01*
X55598293Y-62271720D01*
X55631626Y-62305053D01*
X55698293Y-62338386D01*
X55831626Y-62338386D01*
X55898293Y-62305053D01*
X55931626Y-62271720D01*
X55964960Y-62205053D01*
X55964960Y-62071720D01*
X55931626Y-62005053D01*
X55898293Y-61971720D01*
X55831626Y-61938386D01*
X56264960Y-62271720D02*
X56298293Y-62305053D01*
X56264960Y-62338386D01*
X56231626Y-62305053D01*
X56264960Y-62271720D01*
X56264960Y-62338386D01*
X56898293Y-61638386D02*
X56764960Y-61638386D01*
X56698293Y-61671720D01*
X56664960Y-61705053D01*
X56598293Y-61805053D01*
X56564960Y-61938386D01*
X56564960Y-62205053D01*
X56598293Y-62271720D01*
X56631626Y-62305053D01*
X56698293Y-62338386D01*
X56831626Y-62338386D01*
X56898293Y-62305053D01*
X56931626Y-62271720D01*
X56964960Y-62205053D01*
X56964960Y-62038386D01*
X56931626Y-61971720D01*
X56898293Y-61938386D01*
X56831626Y-61905053D01*
X56698293Y-61905053D01*
X56631626Y-61938386D01*
X56598293Y-61971720D01*
X56564960Y-62038386D01*
X57798293Y-62338386D02*
X57798293Y-61871720D01*
X57798293Y-61938386D02*
X57831626Y-61905053D01*
X57898293Y-61871720D01*
X57998293Y-61871720D01*
X58064960Y-61905053D01*
X58098293Y-61971720D01*
X58098293Y-62338386D01*
X58098293Y-61971720D02*
X58131626Y-61905053D01*
X58198293Y-61871720D01*
X58298293Y-61871720D01*
X58364960Y-61905053D01*
X58398293Y-61971720D01*
X58398293Y-62338386D01*
X58731626Y-62338386D02*
X58731626Y-61871720D01*
X58731626Y-61938386D02*
X58764960Y-61905053D01*
X58831626Y-61871720D01*
X58931626Y-61871720D01*
X58998293Y-61905053D01*
X59031626Y-61971720D01*
X59031626Y-62338386D01*
X59031626Y-61971720D02*
X59064960Y-61905053D01*
X59131626Y-61871720D01*
X59231626Y-61871720D01*
X59298293Y-61905053D01*
X59331626Y-61971720D01*
X59331626Y-62338386D01*
X50229333Y-55677346D02*
X50229333Y-55277346D01*
X50229333Y-55477346D02*
X50929333Y-55477346D01*
X50829333Y-55410680D01*
X50762666Y-55344013D01*
X50729333Y-55277346D01*
X50862666Y-55944013D02*
X50896000Y-55977346D01*
X50929333Y-56044013D01*
X50929333Y-56210680D01*
X50896000Y-56277346D01*
X50862666Y-56310680D01*
X50796000Y-56344013D01*
X50729333Y-56344013D01*
X50629333Y-56310680D01*
X50229333Y-55910680D01*
X50229333Y-56344013D01*
X50296000Y-56644013D02*
X50262666Y-56677346D01*
X50229333Y-56644013D01*
X50262666Y-56610680D01*
X50296000Y-56644013D01*
X50229333Y-56644013D01*
X50929333Y-56910680D02*
X50929333Y-57377346D01*
X50229333Y-57077346D01*
X50229333Y-58177346D02*
X50696000Y-58177346D01*
X50629333Y-58177346D02*
X50662666Y-58210680D01*
X50696000Y-58277346D01*
X50696000Y-58377346D01*
X50662666Y-58444013D01*
X50596000Y-58477346D01*
X50229333Y-58477346D01*
X50596000Y-58477346D02*
X50662666Y-58510680D01*
X50696000Y-58577346D01*
X50696000Y-58677346D01*
X50662666Y-58744013D01*
X50596000Y-58777346D01*
X50229333Y-58777346D01*
X50229333Y-59110680D02*
X50696000Y-59110680D01*
X50629333Y-59110680D02*
X50662666Y-59144013D01*
X50696000Y-59210680D01*
X50696000Y-59310680D01*
X50662666Y-59377346D01*
X50596000Y-59410680D01*
X50229333Y-59410680D01*
X50596000Y-59410680D02*
X50662666Y-59444013D01*
X50696000Y-59510680D01*
X50696000Y-59610680D01*
X50662666Y-59677346D01*
X50596000Y-59710680D01*
X50229333Y-59710680D01*
X55804346Y-64919026D02*
X55404346Y-64919026D01*
X55604346Y-64919026D02*
X55604346Y-64219026D01*
X55537680Y-64319026D01*
X55471013Y-64385693D01*
X55404346Y-64419026D01*
X56071013Y-64285693D02*
X56104346Y-64252360D01*
X56171013Y-64219026D01*
X56337680Y-64219026D01*
X56404346Y-64252360D01*
X56437680Y-64285693D01*
X56471013Y-64352360D01*
X56471013Y-64419026D01*
X56437680Y-64519026D01*
X56037680Y-64919026D01*
X56471013Y-64919026D01*
X56771013Y-64852360D02*
X56804346Y-64885693D01*
X56771013Y-64919026D01*
X56737680Y-64885693D01*
X56771013Y-64852360D01*
X56771013Y-64919026D01*
X57037680Y-64219026D02*
X57504346Y-64219026D01*
X57204346Y-64919026D01*
X58304346Y-64919026D02*
X58304346Y-64452360D01*
X58304346Y-64519026D02*
X58337680Y-64485693D01*
X58404346Y-64452360D01*
X58504346Y-64452360D01*
X58571013Y-64485693D01*
X58604346Y-64552360D01*
X58604346Y-64919026D01*
X58604346Y-64552360D02*
X58637680Y-64485693D01*
X58704346Y-64452360D01*
X58804346Y-64452360D01*
X58871013Y-64485693D01*
X58904346Y-64552360D01*
X58904346Y-64919026D01*
X59237680Y-64919026D02*
X59237680Y-64452360D01*
X59237680Y-64519026D02*
X59271013Y-64485693D01*
X59337680Y-64452360D01*
X59437680Y-64452360D01*
X59504346Y-64485693D01*
X59537680Y-64552360D01*
X59537680Y-64919026D01*
X59537680Y-64552360D02*
X59571013Y-64485693D01*
X59637680Y-64452360D01*
X59737680Y-64452360D01*
X59804346Y-64485693D01*
X59837680Y-64552360D01*
X59837680Y-64919026D01*
D11*
X51250000Y-63950000D02*
X63950000Y-63950000D01*
X63950000Y-51250000D02*
X63950000Y-63950000D01*
X51250000Y-51250000D02*
X63950000Y-51250000D01*
X51250000Y-51250000D02*
X51250000Y-63950000D01*
M02*
