G04 #@! TF.GenerationSoftware,KiCad,Pcbnew,5.1.5+dfsg1-2build2*
G04 #@! TF.CreationDate,2022-03-04T22:17:49-05:00*
G04 #@! TF.ProjectId,,58585858-5858-4585-9858-585858585858,rev?*
G04 #@! TF.SameCoordinates,Original*
G04 #@! TF.FileFunction,Soldermask,Bot*
G04 #@! TF.FilePolarity,Negative*
%FSLAX46Y46*%
G04 Gerber Fmt 4.6, Leading zero omitted, Abs format (unit mm)*
G04 Created by KiCad (PCBNEW 5.1.5+dfsg1-2build2) date 2022-03-04 22:17:49*
%MOMM*%
%LPD*%
G04 APERTURE LIST*
%ADD10C,0.100000*%
G04 APERTURE END LIST*
D10*
G36*
X201310176Y-154690199D02*
G01*
X201501352Y-154769387D01*
X201501354Y-154769388D01*
X201673408Y-154884351D01*
X201819729Y-155030672D01*
X201934693Y-155202728D01*
X202013881Y-155393904D01*
X202054250Y-155596854D01*
X202054250Y-155803786D01*
X202013881Y-156006736D01*
X201934693Y-156197912D01*
X201934692Y-156197914D01*
X201819729Y-156369968D01*
X201673408Y-156516289D01*
X201501354Y-156631252D01*
X201501353Y-156631253D01*
X201501352Y-156631253D01*
X201310176Y-156710441D01*
X201107226Y-156750810D01*
X200900294Y-156750810D01*
X200697344Y-156710441D01*
X200506168Y-156631253D01*
X200506167Y-156631253D01*
X200506166Y-156631252D01*
X200334112Y-156516289D01*
X200187791Y-156369968D01*
X200072828Y-156197914D01*
X200072827Y-156197912D01*
X199993639Y-156006736D01*
X199953270Y-155803786D01*
X199953270Y-155596854D01*
X199993639Y-155393904D01*
X200072827Y-155202728D01*
X200187791Y-155030672D01*
X200334112Y-154884351D01*
X200506166Y-154769388D01*
X200506168Y-154769387D01*
X200697344Y-154690199D01*
X200900294Y-154649830D01*
X201107226Y-154649830D01*
X201310176Y-154690199D01*
G37*
G36*
X186110176Y-154690199D02*
G01*
X186301352Y-154769387D01*
X186301354Y-154769388D01*
X186473408Y-154884351D01*
X186619729Y-155030672D01*
X186734693Y-155202728D01*
X186813881Y-155393904D01*
X186854250Y-155596854D01*
X186854250Y-155803786D01*
X186813881Y-156006736D01*
X186734693Y-156197912D01*
X186734692Y-156197914D01*
X186619729Y-156369968D01*
X186473408Y-156516289D01*
X186301354Y-156631252D01*
X186301353Y-156631253D01*
X186301352Y-156631253D01*
X186110176Y-156710441D01*
X185907226Y-156750810D01*
X185700294Y-156750810D01*
X185497344Y-156710441D01*
X185306168Y-156631253D01*
X185306167Y-156631253D01*
X185306166Y-156631252D01*
X185134112Y-156516289D01*
X184987791Y-156369968D01*
X184872828Y-156197914D01*
X184872827Y-156197912D01*
X184793639Y-156006736D01*
X184753270Y-155803786D01*
X184753270Y-155596854D01*
X184793639Y-155393904D01*
X184872827Y-155202728D01*
X184987791Y-155030672D01*
X185134112Y-154884351D01*
X185306166Y-154769388D01*
X185306168Y-154769387D01*
X185497344Y-154690199D01*
X185700294Y-154649830D01*
X185907226Y-154649830D01*
X186110176Y-154690199D01*
G37*
G36*
X170910176Y-154690199D02*
G01*
X171101352Y-154769387D01*
X171101354Y-154769388D01*
X171273408Y-154884351D01*
X171419729Y-155030672D01*
X171534693Y-155202728D01*
X171613881Y-155393904D01*
X171654250Y-155596854D01*
X171654250Y-155803786D01*
X171613881Y-156006736D01*
X171534693Y-156197912D01*
X171534692Y-156197914D01*
X171419729Y-156369968D01*
X171273408Y-156516289D01*
X171101354Y-156631252D01*
X171101353Y-156631253D01*
X171101352Y-156631253D01*
X170910176Y-156710441D01*
X170707226Y-156750810D01*
X170500294Y-156750810D01*
X170297344Y-156710441D01*
X170106168Y-156631253D01*
X170106167Y-156631253D01*
X170106166Y-156631252D01*
X169934112Y-156516289D01*
X169787791Y-156369968D01*
X169672828Y-156197914D01*
X169672827Y-156197912D01*
X169593639Y-156006736D01*
X169553270Y-155803786D01*
X169553270Y-155596854D01*
X169593639Y-155393904D01*
X169672827Y-155202728D01*
X169787791Y-155030672D01*
X169934112Y-154884351D01*
X170106166Y-154769388D01*
X170106168Y-154769387D01*
X170297344Y-154690199D01*
X170500294Y-154649830D01*
X170707226Y-154649830D01*
X170910176Y-154690199D01*
G37*
G36*
X155710176Y-154690199D02*
G01*
X155901352Y-154769387D01*
X155901354Y-154769388D01*
X156073408Y-154884351D01*
X156219729Y-155030672D01*
X156334693Y-155202728D01*
X156413881Y-155393904D01*
X156454250Y-155596854D01*
X156454250Y-155803786D01*
X156413881Y-156006736D01*
X156334693Y-156197912D01*
X156334692Y-156197914D01*
X156219729Y-156369968D01*
X156073408Y-156516289D01*
X155901354Y-156631252D01*
X155901353Y-156631253D01*
X155901352Y-156631253D01*
X155710176Y-156710441D01*
X155507226Y-156750810D01*
X155300294Y-156750810D01*
X155097344Y-156710441D01*
X154906168Y-156631253D01*
X154906167Y-156631253D01*
X154906166Y-156631252D01*
X154734112Y-156516289D01*
X154587791Y-156369968D01*
X154472828Y-156197914D01*
X154472827Y-156197912D01*
X154393639Y-156006736D01*
X154353270Y-155803786D01*
X154353270Y-155596854D01*
X154393639Y-155393904D01*
X154472827Y-155202728D01*
X154587791Y-155030672D01*
X154734112Y-154884351D01*
X154906166Y-154769388D01*
X154906168Y-154769387D01*
X155097344Y-154690199D01*
X155300294Y-154649830D01*
X155507226Y-154649830D01*
X155710176Y-154690199D01*
G37*
G36*
X140510176Y-154690199D02*
G01*
X140701352Y-154769387D01*
X140701354Y-154769388D01*
X140873408Y-154884351D01*
X141019729Y-155030672D01*
X141134693Y-155202728D01*
X141213881Y-155393904D01*
X141254250Y-155596854D01*
X141254250Y-155803786D01*
X141213881Y-156006736D01*
X141134693Y-156197912D01*
X141134692Y-156197914D01*
X141019729Y-156369968D01*
X140873408Y-156516289D01*
X140701354Y-156631252D01*
X140701353Y-156631253D01*
X140701352Y-156631253D01*
X140510176Y-156710441D01*
X140307226Y-156750810D01*
X140100294Y-156750810D01*
X139897344Y-156710441D01*
X139706168Y-156631253D01*
X139706167Y-156631253D01*
X139706166Y-156631252D01*
X139534112Y-156516289D01*
X139387791Y-156369968D01*
X139272828Y-156197914D01*
X139272827Y-156197912D01*
X139193639Y-156006736D01*
X139153270Y-155803786D01*
X139153270Y-155596854D01*
X139193639Y-155393904D01*
X139272827Y-155202728D01*
X139387791Y-155030672D01*
X139534112Y-154884351D01*
X139706166Y-154769388D01*
X139706168Y-154769387D01*
X139897344Y-154690199D01*
X140100294Y-154649830D01*
X140307226Y-154649830D01*
X140510176Y-154690199D01*
G37*
G36*
X125310176Y-154690199D02*
G01*
X125501352Y-154769387D01*
X125501354Y-154769388D01*
X125673408Y-154884351D01*
X125819729Y-155030672D01*
X125934693Y-155202728D01*
X126013881Y-155393904D01*
X126054250Y-155596854D01*
X126054250Y-155803786D01*
X126013881Y-156006736D01*
X125934693Y-156197912D01*
X125934692Y-156197914D01*
X125819729Y-156369968D01*
X125673408Y-156516289D01*
X125501354Y-156631252D01*
X125501353Y-156631253D01*
X125501352Y-156631253D01*
X125310176Y-156710441D01*
X125107226Y-156750810D01*
X124900294Y-156750810D01*
X124697344Y-156710441D01*
X124506168Y-156631253D01*
X124506167Y-156631253D01*
X124506166Y-156631252D01*
X124334112Y-156516289D01*
X124187791Y-156369968D01*
X124072828Y-156197914D01*
X124072827Y-156197912D01*
X123993639Y-156006736D01*
X123953270Y-155803786D01*
X123953270Y-155596854D01*
X123993639Y-155393904D01*
X124072827Y-155202728D01*
X124187791Y-155030672D01*
X124334112Y-154884351D01*
X124506166Y-154769388D01*
X124506168Y-154769387D01*
X124697344Y-154690199D01*
X124900294Y-154649830D01*
X125107226Y-154649830D01*
X125310176Y-154690199D01*
G37*
G36*
X192710176Y-154690199D02*
G01*
X192901352Y-154769387D01*
X192901354Y-154769388D01*
X193073408Y-154884351D01*
X193219729Y-155030672D01*
X193334693Y-155202728D01*
X193413881Y-155393904D01*
X193454250Y-155596854D01*
X193454250Y-155803786D01*
X193413881Y-156006736D01*
X193334693Y-156197912D01*
X193334692Y-156197914D01*
X193219729Y-156369968D01*
X193073408Y-156516289D01*
X192901354Y-156631252D01*
X192901353Y-156631253D01*
X192901352Y-156631253D01*
X192710176Y-156710441D01*
X192507226Y-156750810D01*
X192300294Y-156750810D01*
X192097344Y-156710441D01*
X191906168Y-156631253D01*
X191906167Y-156631253D01*
X191906166Y-156631252D01*
X191734112Y-156516289D01*
X191587791Y-156369968D01*
X191472828Y-156197914D01*
X191472827Y-156197912D01*
X191393639Y-156006736D01*
X191353270Y-155803786D01*
X191353270Y-155596854D01*
X191393639Y-155393904D01*
X191472827Y-155202728D01*
X191587791Y-155030672D01*
X191734112Y-154884351D01*
X191906166Y-154769388D01*
X191906168Y-154769387D01*
X192097344Y-154690199D01*
X192300294Y-154649830D01*
X192507226Y-154649830D01*
X192710176Y-154690199D01*
G37*
G36*
X177510176Y-154690199D02*
G01*
X177701352Y-154769387D01*
X177701354Y-154769388D01*
X177873408Y-154884351D01*
X178019729Y-155030672D01*
X178134693Y-155202728D01*
X178213881Y-155393904D01*
X178254250Y-155596854D01*
X178254250Y-155803786D01*
X178213881Y-156006736D01*
X178134693Y-156197912D01*
X178134692Y-156197914D01*
X178019729Y-156369968D01*
X177873408Y-156516289D01*
X177701354Y-156631252D01*
X177701353Y-156631253D01*
X177701352Y-156631253D01*
X177510176Y-156710441D01*
X177307226Y-156750810D01*
X177100294Y-156750810D01*
X176897344Y-156710441D01*
X176706168Y-156631253D01*
X176706167Y-156631253D01*
X176706166Y-156631252D01*
X176534112Y-156516289D01*
X176387791Y-156369968D01*
X176272828Y-156197914D01*
X176272827Y-156197912D01*
X176193639Y-156006736D01*
X176153270Y-155803786D01*
X176153270Y-155596854D01*
X176193639Y-155393904D01*
X176272827Y-155202728D01*
X176387791Y-155030672D01*
X176534112Y-154884351D01*
X176706166Y-154769388D01*
X176706168Y-154769387D01*
X176897344Y-154690199D01*
X177100294Y-154649830D01*
X177307226Y-154649830D01*
X177510176Y-154690199D01*
G37*
G36*
X147110176Y-154690199D02*
G01*
X147301352Y-154769387D01*
X147301354Y-154769388D01*
X147473408Y-154884351D01*
X147619729Y-155030672D01*
X147734693Y-155202728D01*
X147813881Y-155393904D01*
X147854250Y-155596854D01*
X147854250Y-155803786D01*
X147813881Y-156006736D01*
X147734693Y-156197912D01*
X147734692Y-156197914D01*
X147619729Y-156369968D01*
X147473408Y-156516289D01*
X147301354Y-156631252D01*
X147301353Y-156631253D01*
X147301352Y-156631253D01*
X147110176Y-156710441D01*
X146907226Y-156750810D01*
X146700294Y-156750810D01*
X146497344Y-156710441D01*
X146306168Y-156631253D01*
X146306167Y-156631253D01*
X146306166Y-156631252D01*
X146134112Y-156516289D01*
X145987791Y-156369968D01*
X145872828Y-156197914D01*
X145872827Y-156197912D01*
X145793639Y-156006736D01*
X145753270Y-155803786D01*
X145753270Y-155596854D01*
X145793639Y-155393904D01*
X145872827Y-155202728D01*
X145987791Y-155030672D01*
X146134112Y-154884351D01*
X146306166Y-154769388D01*
X146306168Y-154769387D01*
X146497344Y-154690199D01*
X146700294Y-154649830D01*
X146907226Y-154649830D01*
X147110176Y-154690199D01*
G37*
G36*
X131910176Y-154690199D02*
G01*
X132101352Y-154769387D01*
X132101354Y-154769388D01*
X132273408Y-154884351D01*
X132419729Y-155030672D01*
X132534693Y-155202728D01*
X132613881Y-155393904D01*
X132654250Y-155596854D01*
X132654250Y-155803786D01*
X132613881Y-156006736D01*
X132534693Y-156197912D01*
X132534692Y-156197914D01*
X132419729Y-156369968D01*
X132273408Y-156516289D01*
X132101354Y-156631252D01*
X132101353Y-156631253D01*
X132101352Y-156631253D01*
X131910176Y-156710441D01*
X131707226Y-156750810D01*
X131500294Y-156750810D01*
X131297344Y-156710441D01*
X131106168Y-156631253D01*
X131106167Y-156631253D01*
X131106166Y-156631252D01*
X130934112Y-156516289D01*
X130787791Y-156369968D01*
X130672828Y-156197914D01*
X130672827Y-156197912D01*
X130593639Y-156006736D01*
X130553270Y-155803786D01*
X130553270Y-155596854D01*
X130593639Y-155393904D01*
X130672827Y-155202728D01*
X130787791Y-155030672D01*
X130934112Y-154884351D01*
X131106166Y-154769388D01*
X131106168Y-154769387D01*
X131297344Y-154690199D01*
X131500294Y-154649830D01*
X131707226Y-154649830D01*
X131910176Y-154690199D01*
G37*
G36*
X116710176Y-154690199D02*
G01*
X116901352Y-154769387D01*
X116901354Y-154769388D01*
X117073408Y-154884351D01*
X117219729Y-155030672D01*
X117334693Y-155202728D01*
X117413881Y-155393904D01*
X117454250Y-155596854D01*
X117454250Y-155803786D01*
X117413881Y-156006736D01*
X117334693Y-156197912D01*
X117334692Y-156197914D01*
X117219729Y-156369968D01*
X117073408Y-156516289D01*
X116901354Y-156631252D01*
X116901353Y-156631253D01*
X116901352Y-156631253D01*
X116710176Y-156710441D01*
X116507226Y-156750810D01*
X116300294Y-156750810D01*
X116097344Y-156710441D01*
X115906168Y-156631253D01*
X115906167Y-156631253D01*
X115906166Y-156631252D01*
X115734112Y-156516289D01*
X115587791Y-156369968D01*
X115472828Y-156197914D01*
X115472827Y-156197912D01*
X115393639Y-156006736D01*
X115353270Y-155803786D01*
X115353270Y-155596854D01*
X115393639Y-155393904D01*
X115472827Y-155202728D01*
X115587791Y-155030672D01*
X115734112Y-154884351D01*
X115906166Y-154769388D01*
X115906168Y-154769387D01*
X116097344Y-154690199D01*
X116300294Y-154649830D01*
X116507226Y-154649830D01*
X116710176Y-154690199D01*
G37*
G36*
X162310176Y-154690199D02*
G01*
X162501352Y-154769387D01*
X162501354Y-154769388D01*
X162673408Y-154884351D01*
X162819729Y-155030672D01*
X162934693Y-155202728D01*
X163013881Y-155393904D01*
X163054250Y-155596854D01*
X163054250Y-155803786D01*
X163013881Y-156006736D01*
X162934693Y-156197912D01*
X162934692Y-156197914D01*
X162819729Y-156369968D01*
X162673408Y-156516289D01*
X162501354Y-156631252D01*
X162501353Y-156631253D01*
X162501352Y-156631253D01*
X162310176Y-156710441D01*
X162107226Y-156750810D01*
X161900294Y-156750810D01*
X161697344Y-156710441D01*
X161506168Y-156631253D01*
X161506167Y-156631253D01*
X161506166Y-156631252D01*
X161334112Y-156516289D01*
X161187791Y-156369968D01*
X161072828Y-156197914D01*
X161072827Y-156197912D01*
X160993639Y-156006736D01*
X160953270Y-155803786D01*
X160953270Y-155596854D01*
X160993639Y-155393904D01*
X161072827Y-155202728D01*
X161187791Y-155030672D01*
X161334112Y-154884351D01*
X161506166Y-154769388D01*
X161506168Y-154769387D01*
X161697344Y-154690199D01*
X161900294Y-154649830D01*
X162107226Y-154649830D01*
X162310176Y-154690199D01*
G37*
G36*
X197010176Y-150390199D02*
G01*
X197201352Y-150469387D01*
X197201354Y-150469388D01*
X197373408Y-150584351D01*
X197519729Y-150730672D01*
X197634693Y-150902728D01*
X197713881Y-151093904D01*
X197754250Y-151296854D01*
X197754250Y-151503786D01*
X197713881Y-151706736D01*
X197634693Y-151897912D01*
X197634692Y-151897914D01*
X197519729Y-152069968D01*
X197373408Y-152216289D01*
X197201354Y-152331252D01*
X197201353Y-152331253D01*
X197201352Y-152331253D01*
X197010176Y-152410441D01*
X196807226Y-152450810D01*
X196600294Y-152450810D01*
X196397344Y-152410441D01*
X196206168Y-152331253D01*
X196206167Y-152331253D01*
X196206166Y-152331252D01*
X196034112Y-152216289D01*
X195887791Y-152069968D01*
X195772828Y-151897914D01*
X195772827Y-151897912D01*
X195693639Y-151706736D01*
X195653270Y-151503786D01*
X195653270Y-151296854D01*
X195693639Y-151093904D01*
X195772827Y-150902728D01*
X195887791Y-150730672D01*
X196034112Y-150584351D01*
X196206166Y-150469388D01*
X196206168Y-150469387D01*
X196397344Y-150390199D01*
X196600294Y-150349830D01*
X196807226Y-150349830D01*
X197010176Y-150390199D01*
G37*
G36*
X181810176Y-150390199D02*
G01*
X182001352Y-150469387D01*
X182001354Y-150469388D01*
X182173408Y-150584351D01*
X182319729Y-150730672D01*
X182434693Y-150902728D01*
X182513881Y-151093904D01*
X182554250Y-151296854D01*
X182554250Y-151503786D01*
X182513881Y-151706736D01*
X182434693Y-151897912D01*
X182434692Y-151897914D01*
X182319729Y-152069968D01*
X182173408Y-152216289D01*
X182001354Y-152331252D01*
X182001353Y-152331253D01*
X182001352Y-152331253D01*
X181810176Y-152410441D01*
X181607226Y-152450810D01*
X181400294Y-152450810D01*
X181197344Y-152410441D01*
X181006168Y-152331253D01*
X181006167Y-152331253D01*
X181006166Y-152331252D01*
X180834112Y-152216289D01*
X180687791Y-152069968D01*
X180572828Y-151897914D01*
X180572827Y-151897912D01*
X180493639Y-151706736D01*
X180453270Y-151503786D01*
X180453270Y-151296854D01*
X180493639Y-151093904D01*
X180572827Y-150902728D01*
X180687791Y-150730672D01*
X180834112Y-150584351D01*
X181006166Y-150469388D01*
X181006168Y-150469387D01*
X181197344Y-150390199D01*
X181400294Y-150349830D01*
X181607226Y-150349830D01*
X181810176Y-150390199D01*
G37*
G36*
X166610176Y-150390199D02*
G01*
X166801352Y-150469387D01*
X166801354Y-150469388D01*
X166973408Y-150584351D01*
X167119729Y-150730672D01*
X167234693Y-150902728D01*
X167313881Y-151093904D01*
X167354250Y-151296854D01*
X167354250Y-151503786D01*
X167313881Y-151706736D01*
X167234693Y-151897912D01*
X167234692Y-151897914D01*
X167119729Y-152069968D01*
X166973408Y-152216289D01*
X166801354Y-152331252D01*
X166801353Y-152331253D01*
X166801352Y-152331253D01*
X166610176Y-152410441D01*
X166407226Y-152450810D01*
X166200294Y-152450810D01*
X165997344Y-152410441D01*
X165806168Y-152331253D01*
X165806167Y-152331253D01*
X165806166Y-152331252D01*
X165634112Y-152216289D01*
X165487791Y-152069968D01*
X165372828Y-151897914D01*
X165372827Y-151897912D01*
X165293639Y-151706736D01*
X165253270Y-151503786D01*
X165253270Y-151296854D01*
X165293639Y-151093904D01*
X165372827Y-150902728D01*
X165487791Y-150730672D01*
X165634112Y-150584351D01*
X165806166Y-150469388D01*
X165806168Y-150469387D01*
X165997344Y-150390199D01*
X166200294Y-150349830D01*
X166407226Y-150349830D01*
X166610176Y-150390199D01*
G37*
G36*
X151410176Y-150390199D02*
G01*
X151601352Y-150469387D01*
X151601354Y-150469388D01*
X151773408Y-150584351D01*
X151919729Y-150730672D01*
X152034693Y-150902728D01*
X152113881Y-151093904D01*
X152154250Y-151296854D01*
X152154250Y-151503786D01*
X152113881Y-151706736D01*
X152034693Y-151897912D01*
X152034692Y-151897914D01*
X151919729Y-152069968D01*
X151773408Y-152216289D01*
X151601354Y-152331252D01*
X151601353Y-152331253D01*
X151601352Y-152331253D01*
X151410176Y-152410441D01*
X151207226Y-152450810D01*
X151000294Y-152450810D01*
X150797344Y-152410441D01*
X150606168Y-152331253D01*
X150606167Y-152331253D01*
X150606166Y-152331252D01*
X150434112Y-152216289D01*
X150287791Y-152069968D01*
X150172828Y-151897914D01*
X150172827Y-151897912D01*
X150093639Y-151706736D01*
X150053270Y-151503786D01*
X150053270Y-151296854D01*
X150093639Y-151093904D01*
X150172827Y-150902728D01*
X150287791Y-150730672D01*
X150434112Y-150584351D01*
X150606166Y-150469388D01*
X150606168Y-150469387D01*
X150797344Y-150390199D01*
X151000294Y-150349830D01*
X151207226Y-150349830D01*
X151410176Y-150390199D01*
G37*
G36*
X136210176Y-150390199D02*
G01*
X136401352Y-150469387D01*
X136401354Y-150469388D01*
X136573408Y-150584351D01*
X136719729Y-150730672D01*
X136834693Y-150902728D01*
X136913881Y-151093904D01*
X136954250Y-151296854D01*
X136954250Y-151503786D01*
X136913881Y-151706736D01*
X136834693Y-151897912D01*
X136834692Y-151897914D01*
X136719729Y-152069968D01*
X136573408Y-152216289D01*
X136401354Y-152331252D01*
X136401353Y-152331253D01*
X136401352Y-152331253D01*
X136210176Y-152410441D01*
X136007226Y-152450810D01*
X135800294Y-152450810D01*
X135597344Y-152410441D01*
X135406168Y-152331253D01*
X135406167Y-152331253D01*
X135406166Y-152331252D01*
X135234112Y-152216289D01*
X135087791Y-152069968D01*
X134972828Y-151897914D01*
X134972827Y-151897912D01*
X134893639Y-151706736D01*
X134853270Y-151503786D01*
X134853270Y-151296854D01*
X134893639Y-151093904D01*
X134972827Y-150902728D01*
X135087791Y-150730672D01*
X135234112Y-150584351D01*
X135406166Y-150469388D01*
X135406168Y-150469387D01*
X135597344Y-150390199D01*
X135800294Y-150349830D01*
X136007226Y-150349830D01*
X136210176Y-150390199D01*
G37*
G36*
X121010176Y-150390199D02*
G01*
X121201352Y-150469387D01*
X121201354Y-150469388D01*
X121373408Y-150584351D01*
X121519729Y-150730672D01*
X121634693Y-150902728D01*
X121713881Y-151093904D01*
X121754250Y-151296854D01*
X121754250Y-151503786D01*
X121713881Y-151706736D01*
X121634693Y-151897912D01*
X121634692Y-151897914D01*
X121519729Y-152069968D01*
X121373408Y-152216289D01*
X121201354Y-152331252D01*
X121201353Y-152331253D01*
X121201352Y-152331253D01*
X121010176Y-152410441D01*
X120807226Y-152450810D01*
X120600294Y-152450810D01*
X120397344Y-152410441D01*
X120206168Y-152331253D01*
X120206167Y-152331253D01*
X120206166Y-152331252D01*
X120034112Y-152216289D01*
X119887791Y-152069968D01*
X119772828Y-151897914D01*
X119772827Y-151897912D01*
X119693639Y-151706736D01*
X119653270Y-151503786D01*
X119653270Y-151296854D01*
X119693639Y-151093904D01*
X119772827Y-150902728D01*
X119887791Y-150730672D01*
X120034112Y-150584351D01*
X120206166Y-150469388D01*
X120206168Y-150469387D01*
X120397344Y-150390199D01*
X120600294Y-150349830D01*
X120807226Y-150349830D01*
X121010176Y-150390199D01*
G37*
G36*
X147110176Y-146090199D02*
G01*
X147301352Y-146169387D01*
X147301354Y-146169388D01*
X147473408Y-146284351D01*
X147619729Y-146430672D01*
X147734693Y-146602728D01*
X147813881Y-146793904D01*
X147854250Y-146996854D01*
X147854250Y-147203786D01*
X147813881Y-147406736D01*
X147734693Y-147597912D01*
X147734692Y-147597914D01*
X147619729Y-147769968D01*
X147473408Y-147916289D01*
X147301354Y-148031252D01*
X147301353Y-148031253D01*
X147301352Y-148031253D01*
X147110176Y-148110441D01*
X146907226Y-148150810D01*
X146700294Y-148150810D01*
X146497344Y-148110441D01*
X146306168Y-148031253D01*
X146306167Y-148031253D01*
X146306166Y-148031252D01*
X146134112Y-147916289D01*
X145987791Y-147769968D01*
X145872828Y-147597914D01*
X145872827Y-147597912D01*
X145793639Y-147406736D01*
X145753270Y-147203786D01*
X145753270Y-146996854D01*
X145793639Y-146793904D01*
X145872827Y-146602728D01*
X145987791Y-146430672D01*
X146134112Y-146284351D01*
X146306166Y-146169388D01*
X146306168Y-146169387D01*
X146497344Y-146090199D01*
X146700294Y-146049830D01*
X146907226Y-146049830D01*
X147110176Y-146090199D01*
G37*
G36*
X116710176Y-146090199D02*
G01*
X116901352Y-146169387D01*
X116901354Y-146169388D01*
X117073408Y-146284351D01*
X117219729Y-146430672D01*
X117334693Y-146602728D01*
X117413881Y-146793904D01*
X117454250Y-146996854D01*
X117454250Y-147203786D01*
X117413881Y-147406736D01*
X117334693Y-147597912D01*
X117334692Y-147597914D01*
X117219729Y-147769968D01*
X117073408Y-147916289D01*
X116901354Y-148031252D01*
X116901353Y-148031253D01*
X116901352Y-148031253D01*
X116710176Y-148110441D01*
X116507226Y-148150810D01*
X116300294Y-148150810D01*
X116097344Y-148110441D01*
X115906168Y-148031253D01*
X115906167Y-148031253D01*
X115906166Y-148031252D01*
X115734112Y-147916289D01*
X115587791Y-147769968D01*
X115472828Y-147597914D01*
X115472827Y-147597912D01*
X115393639Y-147406736D01*
X115353270Y-147203786D01*
X115353270Y-146996854D01*
X115393639Y-146793904D01*
X115472827Y-146602728D01*
X115587791Y-146430672D01*
X115734112Y-146284351D01*
X115906166Y-146169388D01*
X115906168Y-146169387D01*
X116097344Y-146090199D01*
X116300294Y-146049830D01*
X116507226Y-146049830D01*
X116710176Y-146090199D01*
G37*
G36*
X131910176Y-146090199D02*
G01*
X132101352Y-146169387D01*
X132101354Y-146169388D01*
X132273408Y-146284351D01*
X132419729Y-146430672D01*
X132534693Y-146602728D01*
X132613881Y-146793904D01*
X132654250Y-146996854D01*
X132654250Y-147203786D01*
X132613881Y-147406736D01*
X132534693Y-147597912D01*
X132534692Y-147597914D01*
X132419729Y-147769968D01*
X132273408Y-147916289D01*
X132101354Y-148031252D01*
X132101353Y-148031253D01*
X132101352Y-148031253D01*
X131910176Y-148110441D01*
X131707226Y-148150810D01*
X131500294Y-148150810D01*
X131297344Y-148110441D01*
X131106168Y-148031253D01*
X131106167Y-148031253D01*
X131106166Y-148031252D01*
X130934112Y-147916289D01*
X130787791Y-147769968D01*
X130672828Y-147597914D01*
X130672827Y-147597912D01*
X130593639Y-147406736D01*
X130553270Y-147203786D01*
X130553270Y-146996854D01*
X130593639Y-146793904D01*
X130672827Y-146602728D01*
X130787791Y-146430672D01*
X130934112Y-146284351D01*
X131106166Y-146169388D01*
X131106168Y-146169387D01*
X131297344Y-146090199D01*
X131500294Y-146049830D01*
X131707226Y-146049830D01*
X131910176Y-146090199D01*
G37*
G36*
X162310176Y-146090199D02*
G01*
X162501352Y-146169387D01*
X162501354Y-146169388D01*
X162673408Y-146284351D01*
X162819729Y-146430672D01*
X162934693Y-146602728D01*
X163013881Y-146793904D01*
X163054250Y-146996854D01*
X163054250Y-147203786D01*
X163013881Y-147406736D01*
X162934693Y-147597912D01*
X162934692Y-147597914D01*
X162819729Y-147769968D01*
X162673408Y-147916289D01*
X162501354Y-148031252D01*
X162501353Y-148031253D01*
X162501352Y-148031253D01*
X162310176Y-148110441D01*
X162107226Y-148150810D01*
X161900294Y-148150810D01*
X161697344Y-148110441D01*
X161506168Y-148031253D01*
X161506167Y-148031253D01*
X161506166Y-148031252D01*
X161334112Y-147916289D01*
X161187791Y-147769968D01*
X161072828Y-147597914D01*
X161072827Y-147597912D01*
X160993639Y-147406736D01*
X160953270Y-147203786D01*
X160953270Y-146996854D01*
X160993639Y-146793904D01*
X161072827Y-146602728D01*
X161187791Y-146430672D01*
X161334112Y-146284351D01*
X161506166Y-146169388D01*
X161506168Y-146169387D01*
X161697344Y-146090199D01*
X161900294Y-146049830D01*
X162107226Y-146049830D01*
X162310176Y-146090199D01*
G37*
G36*
X177510176Y-146090199D02*
G01*
X177701352Y-146169387D01*
X177701354Y-146169388D01*
X177873408Y-146284351D01*
X178019729Y-146430672D01*
X178134693Y-146602728D01*
X178213881Y-146793904D01*
X178254250Y-146996854D01*
X178254250Y-147203786D01*
X178213881Y-147406736D01*
X178134693Y-147597912D01*
X178134692Y-147597914D01*
X178019729Y-147769968D01*
X177873408Y-147916289D01*
X177701354Y-148031252D01*
X177701353Y-148031253D01*
X177701352Y-148031253D01*
X177510176Y-148110441D01*
X177307226Y-148150810D01*
X177100294Y-148150810D01*
X176897344Y-148110441D01*
X176706168Y-148031253D01*
X176706167Y-148031253D01*
X176706166Y-148031252D01*
X176534112Y-147916289D01*
X176387791Y-147769968D01*
X176272828Y-147597914D01*
X176272827Y-147597912D01*
X176193639Y-147406736D01*
X176153270Y-147203786D01*
X176153270Y-146996854D01*
X176193639Y-146793904D01*
X176272827Y-146602728D01*
X176387791Y-146430672D01*
X176534112Y-146284351D01*
X176706166Y-146169388D01*
X176706168Y-146169387D01*
X176897344Y-146090199D01*
X177100294Y-146049830D01*
X177307226Y-146049830D01*
X177510176Y-146090199D01*
G37*
G36*
X192710176Y-146090199D02*
G01*
X192901352Y-146169387D01*
X192901354Y-146169388D01*
X193073408Y-146284351D01*
X193219729Y-146430672D01*
X193334693Y-146602728D01*
X193413881Y-146793904D01*
X193454250Y-146996854D01*
X193454250Y-147203786D01*
X193413881Y-147406736D01*
X193334693Y-147597912D01*
X193334692Y-147597914D01*
X193219729Y-147769968D01*
X193073408Y-147916289D01*
X192901354Y-148031252D01*
X192901353Y-148031253D01*
X192901352Y-148031253D01*
X192710176Y-148110441D01*
X192507226Y-148150810D01*
X192300294Y-148150810D01*
X192097344Y-148110441D01*
X191906168Y-148031253D01*
X191906167Y-148031253D01*
X191906166Y-148031252D01*
X191734112Y-147916289D01*
X191587791Y-147769968D01*
X191472828Y-147597914D01*
X191472827Y-147597912D01*
X191393639Y-147406736D01*
X191353270Y-147203786D01*
X191353270Y-146996854D01*
X191393639Y-146793904D01*
X191472827Y-146602728D01*
X191587791Y-146430672D01*
X191734112Y-146284351D01*
X191906166Y-146169388D01*
X191906168Y-146169387D01*
X192097344Y-146090199D01*
X192300294Y-146049830D01*
X192507226Y-146049830D01*
X192710176Y-146090199D01*
G37*
G36*
X140510176Y-146090199D02*
G01*
X140701352Y-146169387D01*
X140701354Y-146169388D01*
X140873408Y-146284351D01*
X141019729Y-146430672D01*
X141134693Y-146602728D01*
X141213881Y-146793904D01*
X141254250Y-146996854D01*
X141254250Y-147203786D01*
X141213881Y-147406736D01*
X141134693Y-147597912D01*
X141134692Y-147597914D01*
X141019729Y-147769968D01*
X140873408Y-147916289D01*
X140701354Y-148031252D01*
X140701353Y-148031253D01*
X140701352Y-148031253D01*
X140510176Y-148110441D01*
X140307226Y-148150810D01*
X140100294Y-148150810D01*
X139897344Y-148110441D01*
X139706168Y-148031253D01*
X139706167Y-148031253D01*
X139706166Y-148031252D01*
X139534112Y-147916289D01*
X139387791Y-147769968D01*
X139272828Y-147597914D01*
X139272827Y-147597912D01*
X139193639Y-147406736D01*
X139153270Y-147203786D01*
X139153270Y-146996854D01*
X139193639Y-146793904D01*
X139272827Y-146602728D01*
X139387791Y-146430672D01*
X139534112Y-146284351D01*
X139706166Y-146169388D01*
X139706168Y-146169387D01*
X139897344Y-146090199D01*
X140100294Y-146049830D01*
X140307226Y-146049830D01*
X140510176Y-146090199D01*
G37*
G36*
X155710176Y-146090199D02*
G01*
X155901352Y-146169387D01*
X155901354Y-146169388D01*
X156073408Y-146284351D01*
X156219729Y-146430672D01*
X156334693Y-146602728D01*
X156413881Y-146793904D01*
X156454250Y-146996854D01*
X156454250Y-147203786D01*
X156413881Y-147406736D01*
X156334693Y-147597912D01*
X156334692Y-147597914D01*
X156219729Y-147769968D01*
X156073408Y-147916289D01*
X155901354Y-148031252D01*
X155901353Y-148031253D01*
X155901352Y-148031253D01*
X155710176Y-148110441D01*
X155507226Y-148150810D01*
X155300294Y-148150810D01*
X155097344Y-148110441D01*
X154906168Y-148031253D01*
X154906167Y-148031253D01*
X154906166Y-148031252D01*
X154734112Y-147916289D01*
X154587791Y-147769968D01*
X154472828Y-147597914D01*
X154472827Y-147597912D01*
X154393639Y-147406736D01*
X154353270Y-147203786D01*
X154353270Y-146996854D01*
X154393639Y-146793904D01*
X154472827Y-146602728D01*
X154587791Y-146430672D01*
X154734112Y-146284351D01*
X154906166Y-146169388D01*
X154906168Y-146169387D01*
X155097344Y-146090199D01*
X155300294Y-146049830D01*
X155507226Y-146049830D01*
X155710176Y-146090199D01*
G37*
G36*
X201310176Y-146090199D02*
G01*
X201501352Y-146169387D01*
X201501354Y-146169388D01*
X201673408Y-146284351D01*
X201819729Y-146430672D01*
X201934693Y-146602728D01*
X202013881Y-146793904D01*
X202054250Y-146996854D01*
X202054250Y-147203786D01*
X202013881Y-147406736D01*
X201934693Y-147597912D01*
X201934692Y-147597914D01*
X201819729Y-147769968D01*
X201673408Y-147916289D01*
X201501354Y-148031252D01*
X201501353Y-148031253D01*
X201501352Y-148031253D01*
X201310176Y-148110441D01*
X201107226Y-148150810D01*
X200900294Y-148150810D01*
X200697344Y-148110441D01*
X200506168Y-148031253D01*
X200506167Y-148031253D01*
X200506166Y-148031252D01*
X200334112Y-147916289D01*
X200187791Y-147769968D01*
X200072828Y-147597914D01*
X200072827Y-147597912D01*
X199993639Y-147406736D01*
X199953270Y-147203786D01*
X199953270Y-146996854D01*
X199993639Y-146793904D01*
X200072827Y-146602728D01*
X200187791Y-146430672D01*
X200334112Y-146284351D01*
X200506166Y-146169388D01*
X200506168Y-146169387D01*
X200697344Y-146090199D01*
X200900294Y-146049830D01*
X201107226Y-146049830D01*
X201310176Y-146090199D01*
G37*
G36*
X170910176Y-146090199D02*
G01*
X171101352Y-146169387D01*
X171101354Y-146169388D01*
X171273408Y-146284351D01*
X171419729Y-146430672D01*
X171534693Y-146602728D01*
X171613881Y-146793904D01*
X171654250Y-146996854D01*
X171654250Y-147203786D01*
X171613881Y-147406736D01*
X171534693Y-147597912D01*
X171534692Y-147597914D01*
X171419729Y-147769968D01*
X171273408Y-147916289D01*
X171101354Y-148031252D01*
X171101353Y-148031253D01*
X171101352Y-148031253D01*
X170910176Y-148110441D01*
X170707226Y-148150810D01*
X170500294Y-148150810D01*
X170297344Y-148110441D01*
X170106168Y-148031253D01*
X170106167Y-148031253D01*
X170106166Y-148031252D01*
X169934112Y-147916289D01*
X169787791Y-147769968D01*
X169672828Y-147597914D01*
X169672827Y-147597912D01*
X169593639Y-147406736D01*
X169553270Y-147203786D01*
X169553270Y-146996854D01*
X169593639Y-146793904D01*
X169672827Y-146602728D01*
X169787791Y-146430672D01*
X169934112Y-146284351D01*
X170106166Y-146169388D01*
X170106168Y-146169387D01*
X170297344Y-146090199D01*
X170500294Y-146049830D01*
X170707226Y-146049830D01*
X170910176Y-146090199D01*
G37*
G36*
X186110176Y-146090199D02*
G01*
X186301352Y-146169387D01*
X186301354Y-146169388D01*
X186473408Y-146284351D01*
X186619729Y-146430672D01*
X186734693Y-146602728D01*
X186813881Y-146793904D01*
X186854250Y-146996854D01*
X186854250Y-147203786D01*
X186813881Y-147406736D01*
X186734693Y-147597912D01*
X186734692Y-147597914D01*
X186619729Y-147769968D01*
X186473408Y-147916289D01*
X186301354Y-148031252D01*
X186301353Y-148031253D01*
X186301352Y-148031253D01*
X186110176Y-148110441D01*
X185907226Y-148150810D01*
X185700294Y-148150810D01*
X185497344Y-148110441D01*
X185306168Y-148031253D01*
X185306167Y-148031253D01*
X185306166Y-148031252D01*
X185134112Y-147916289D01*
X184987791Y-147769968D01*
X184872828Y-147597914D01*
X184872827Y-147597912D01*
X184793639Y-147406736D01*
X184753270Y-147203786D01*
X184753270Y-146996854D01*
X184793639Y-146793904D01*
X184872827Y-146602728D01*
X184987791Y-146430672D01*
X185134112Y-146284351D01*
X185306166Y-146169388D01*
X185306168Y-146169387D01*
X185497344Y-146090199D01*
X185700294Y-146049830D01*
X185907226Y-146049830D01*
X186110176Y-146090199D01*
G37*
G36*
X125310176Y-146090199D02*
G01*
X125501352Y-146169387D01*
X125501354Y-146169388D01*
X125673408Y-146284351D01*
X125819729Y-146430672D01*
X125934693Y-146602728D01*
X126013881Y-146793904D01*
X126054250Y-146996854D01*
X126054250Y-147203786D01*
X126013881Y-147406736D01*
X125934693Y-147597912D01*
X125934692Y-147597914D01*
X125819729Y-147769968D01*
X125673408Y-147916289D01*
X125501354Y-148031252D01*
X125501353Y-148031253D01*
X125501352Y-148031253D01*
X125310176Y-148110441D01*
X125107226Y-148150810D01*
X124900294Y-148150810D01*
X124697344Y-148110441D01*
X124506168Y-148031253D01*
X124506167Y-148031253D01*
X124506166Y-148031252D01*
X124334112Y-147916289D01*
X124187791Y-147769968D01*
X124072828Y-147597914D01*
X124072827Y-147597912D01*
X123993639Y-147406736D01*
X123953270Y-147203786D01*
X123953270Y-146996854D01*
X123993639Y-146793904D01*
X124072827Y-146602728D01*
X124187791Y-146430672D01*
X124334112Y-146284351D01*
X124506166Y-146169388D01*
X124506168Y-146169387D01*
X124697344Y-146090199D01*
X124900294Y-146049830D01*
X125107226Y-146049830D01*
X125310176Y-146090199D01*
G37*
G36*
X116710176Y-139490199D02*
G01*
X116901352Y-139569387D01*
X116901354Y-139569388D01*
X117073408Y-139684351D01*
X117219729Y-139830672D01*
X117334693Y-140002728D01*
X117413881Y-140193904D01*
X117454250Y-140396854D01*
X117454250Y-140603786D01*
X117413881Y-140806736D01*
X117334693Y-140997912D01*
X117334692Y-140997914D01*
X117219729Y-141169968D01*
X117073408Y-141316289D01*
X116901354Y-141431252D01*
X116901353Y-141431253D01*
X116901352Y-141431253D01*
X116710176Y-141510441D01*
X116507226Y-141550810D01*
X116300294Y-141550810D01*
X116097344Y-141510441D01*
X115906168Y-141431253D01*
X115906167Y-141431253D01*
X115906166Y-141431252D01*
X115734112Y-141316289D01*
X115587791Y-141169968D01*
X115472828Y-140997914D01*
X115472827Y-140997912D01*
X115393639Y-140806736D01*
X115353270Y-140603786D01*
X115353270Y-140396854D01*
X115393639Y-140193904D01*
X115472827Y-140002728D01*
X115587791Y-139830672D01*
X115734112Y-139684351D01*
X115906166Y-139569388D01*
X115906168Y-139569387D01*
X116097344Y-139490199D01*
X116300294Y-139449830D01*
X116507226Y-139449830D01*
X116710176Y-139490199D01*
G37*
G36*
X125310176Y-139490199D02*
G01*
X125501352Y-139569387D01*
X125501354Y-139569388D01*
X125673408Y-139684351D01*
X125819729Y-139830672D01*
X125934693Y-140002728D01*
X126013881Y-140193904D01*
X126054250Y-140396854D01*
X126054250Y-140603786D01*
X126013881Y-140806736D01*
X125934693Y-140997912D01*
X125934692Y-140997914D01*
X125819729Y-141169968D01*
X125673408Y-141316289D01*
X125501354Y-141431252D01*
X125501353Y-141431253D01*
X125501352Y-141431253D01*
X125310176Y-141510441D01*
X125107226Y-141550810D01*
X124900294Y-141550810D01*
X124697344Y-141510441D01*
X124506168Y-141431253D01*
X124506167Y-141431253D01*
X124506166Y-141431252D01*
X124334112Y-141316289D01*
X124187791Y-141169968D01*
X124072828Y-140997914D01*
X124072827Y-140997912D01*
X123993639Y-140806736D01*
X123953270Y-140603786D01*
X123953270Y-140396854D01*
X123993639Y-140193904D01*
X124072827Y-140002728D01*
X124187791Y-139830672D01*
X124334112Y-139684351D01*
X124506166Y-139569388D01*
X124506168Y-139569387D01*
X124697344Y-139490199D01*
X124900294Y-139449830D01*
X125107226Y-139449830D01*
X125310176Y-139490199D01*
G37*
G36*
X155710176Y-139490199D02*
G01*
X155901352Y-139569387D01*
X155901354Y-139569388D01*
X156073408Y-139684351D01*
X156219729Y-139830672D01*
X156334693Y-140002728D01*
X156413881Y-140193904D01*
X156454250Y-140396854D01*
X156454250Y-140603786D01*
X156413881Y-140806736D01*
X156334693Y-140997912D01*
X156334692Y-140997914D01*
X156219729Y-141169968D01*
X156073408Y-141316289D01*
X155901354Y-141431252D01*
X155901353Y-141431253D01*
X155901352Y-141431253D01*
X155710176Y-141510441D01*
X155507226Y-141550810D01*
X155300294Y-141550810D01*
X155097344Y-141510441D01*
X154906168Y-141431253D01*
X154906167Y-141431253D01*
X154906166Y-141431252D01*
X154734112Y-141316289D01*
X154587791Y-141169968D01*
X154472828Y-140997914D01*
X154472827Y-140997912D01*
X154393639Y-140806736D01*
X154353270Y-140603786D01*
X154353270Y-140396854D01*
X154393639Y-140193904D01*
X154472827Y-140002728D01*
X154587791Y-139830672D01*
X154734112Y-139684351D01*
X154906166Y-139569388D01*
X154906168Y-139569387D01*
X155097344Y-139490199D01*
X155300294Y-139449830D01*
X155507226Y-139449830D01*
X155710176Y-139490199D01*
G37*
G36*
X170910176Y-139490199D02*
G01*
X171101352Y-139569387D01*
X171101354Y-139569388D01*
X171273408Y-139684351D01*
X171419729Y-139830672D01*
X171534693Y-140002728D01*
X171613881Y-140193904D01*
X171654250Y-140396854D01*
X171654250Y-140603786D01*
X171613881Y-140806736D01*
X171534693Y-140997912D01*
X171534692Y-140997914D01*
X171419729Y-141169968D01*
X171273408Y-141316289D01*
X171101354Y-141431252D01*
X171101353Y-141431253D01*
X171101352Y-141431253D01*
X170910176Y-141510441D01*
X170707226Y-141550810D01*
X170500294Y-141550810D01*
X170297344Y-141510441D01*
X170106168Y-141431253D01*
X170106167Y-141431253D01*
X170106166Y-141431252D01*
X169934112Y-141316289D01*
X169787791Y-141169968D01*
X169672828Y-140997914D01*
X169672827Y-140997912D01*
X169593639Y-140806736D01*
X169553270Y-140603786D01*
X169553270Y-140396854D01*
X169593639Y-140193904D01*
X169672827Y-140002728D01*
X169787791Y-139830672D01*
X169934112Y-139684351D01*
X170106166Y-139569388D01*
X170106168Y-139569387D01*
X170297344Y-139490199D01*
X170500294Y-139449830D01*
X170707226Y-139449830D01*
X170910176Y-139490199D01*
G37*
G36*
X186110176Y-139490199D02*
G01*
X186301352Y-139569387D01*
X186301354Y-139569388D01*
X186473408Y-139684351D01*
X186619729Y-139830672D01*
X186734693Y-140002728D01*
X186813881Y-140193904D01*
X186854250Y-140396854D01*
X186854250Y-140603786D01*
X186813881Y-140806736D01*
X186734693Y-140997912D01*
X186734692Y-140997914D01*
X186619729Y-141169968D01*
X186473408Y-141316289D01*
X186301354Y-141431252D01*
X186301353Y-141431253D01*
X186301352Y-141431253D01*
X186110176Y-141510441D01*
X185907226Y-141550810D01*
X185700294Y-141550810D01*
X185497344Y-141510441D01*
X185306168Y-141431253D01*
X185306167Y-141431253D01*
X185306166Y-141431252D01*
X185134112Y-141316289D01*
X184987791Y-141169968D01*
X184872828Y-140997914D01*
X184872827Y-140997912D01*
X184793639Y-140806736D01*
X184753270Y-140603786D01*
X184753270Y-140396854D01*
X184793639Y-140193904D01*
X184872827Y-140002728D01*
X184987791Y-139830672D01*
X185134112Y-139684351D01*
X185306166Y-139569388D01*
X185306168Y-139569387D01*
X185497344Y-139490199D01*
X185700294Y-139449830D01*
X185907226Y-139449830D01*
X186110176Y-139490199D01*
G37*
G36*
X131910176Y-139490199D02*
G01*
X132101352Y-139569387D01*
X132101354Y-139569388D01*
X132273408Y-139684351D01*
X132419729Y-139830672D01*
X132534693Y-140002728D01*
X132613881Y-140193904D01*
X132654250Y-140396854D01*
X132654250Y-140603786D01*
X132613881Y-140806736D01*
X132534693Y-140997912D01*
X132534692Y-140997914D01*
X132419729Y-141169968D01*
X132273408Y-141316289D01*
X132101354Y-141431252D01*
X132101353Y-141431253D01*
X132101352Y-141431253D01*
X131910176Y-141510441D01*
X131707226Y-141550810D01*
X131500294Y-141550810D01*
X131297344Y-141510441D01*
X131106168Y-141431253D01*
X131106167Y-141431253D01*
X131106166Y-141431252D01*
X130934112Y-141316289D01*
X130787791Y-141169968D01*
X130672828Y-140997914D01*
X130672827Y-140997912D01*
X130593639Y-140806736D01*
X130553270Y-140603786D01*
X130553270Y-140396854D01*
X130593639Y-140193904D01*
X130672827Y-140002728D01*
X130787791Y-139830672D01*
X130934112Y-139684351D01*
X131106166Y-139569388D01*
X131106168Y-139569387D01*
X131297344Y-139490199D01*
X131500294Y-139449830D01*
X131707226Y-139449830D01*
X131910176Y-139490199D01*
G37*
G36*
X162310176Y-139490199D02*
G01*
X162501352Y-139569387D01*
X162501354Y-139569388D01*
X162673408Y-139684351D01*
X162819729Y-139830672D01*
X162934693Y-140002728D01*
X163013881Y-140193904D01*
X163054250Y-140396854D01*
X163054250Y-140603786D01*
X163013881Y-140806736D01*
X162934693Y-140997912D01*
X162934692Y-140997914D01*
X162819729Y-141169968D01*
X162673408Y-141316289D01*
X162501354Y-141431252D01*
X162501353Y-141431253D01*
X162501352Y-141431253D01*
X162310176Y-141510441D01*
X162107226Y-141550810D01*
X161900294Y-141550810D01*
X161697344Y-141510441D01*
X161506168Y-141431253D01*
X161506167Y-141431253D01*
X161506166Y-141431252D01*
X161334112Y-141316289D01*
X161187791Y-141169968D01*
X161072828Y-140997914D01*
X161072827Y-140997912D01*
X160993639Y-140806736D01*
X160953270Y-140603786D01*
X160953270Y-140396854D01*
X160993639Y-140193904D01*
X161072827Y-140002728D01*
X161187791Y-139830672D01*
X161334112Y-139684351D01*
X161506166Y-139569388D01*
X161506168Y-139569387D01*
X161697344Y-139490199D01*
X161900294Y-139449830D01*
X162107226Y-139449830D01*
X162310176Y-139490199D01*
G37*
G36*
X177510176Y-139490199D02*
G01*
X177701352Y-139569387D01*
X177701354Y-139569388D01*
X177873408Y-139684351D01*
X178019729Y-139830672D01*
X178134693Y-140002728D01*
X178213881Y-140193904D01*
X178254250Y-140396854D01*
X178254250Y-140603786D01*
X178213881Y-140806736D01*
X178134693Y-140997912D01*
X178134692Y-140997914D01*
X178019729Y-141169968D01*
X177873408Y-141316289D01*
X177701354Y-141431252D01*
X177701353Y-141431253D01*
X177701352Y-141431253D01*
X177510176Y-141510441D01*
X177307226Y-141550810D01*
X177100294Y-141550810D01*
X176897344Y-141510441D01*
X176706168Y-141431253D01*
X176706167Y-141431253D01*
X176706166Y-141431252D01*
X176534112Y-141316289D01*
X176387791Y-141169968D01*
X176272828Y-140997914D01*
X176272827Y-140997912D01*
X176193639Y-140806736D01*
X176153270Y-140603786D01*
X176153270Y-140396854D01*
X176193639Y-140193904D01*
X176272827Y-140002728D01*
X176387791Y-139830672D01*
X176534112Y-139684351D01*
X176706166Y-139569388D01*
X176706168Y-139569387D01*
X176897344Y-139490199D01*
X177100294Y-139449830D01*
X177307226Y-139449830D01*
X177510176Y-139490199D01*
G37*
G36*
X192710176Y-139490199D02*
G01*
X192901352Y-139569387D01*
X192901354Y-139569388D01*
X193073408Y-139684351D01*
X193219729Y-139830672D01*
X193334693Y-140002728D01*
X193413881Y-140193904D01*
X193454250Y-140396854D01*
X193454250Y-140603786D01*
X193413881Y-140806736D01*
X193334693Y-140997912D01*
X193334692Y-140997914D01*
X193219729Y-141169968D01*
X193073408Y-141316289D01*
X192901354Y-141431252D01*
X192901353Y-141431253D01*
X192901352Y-141431253D01*
X192710176Y-141510441D01*
X192507226Y-141550810D01*
X192300294Y-141550810D01*
X192097344Y-141510441D01*
X191906168Y-141431253D01*
X191906167Y-141431253D01*
X191906166Y-141431252D01*
X191734112Y-141316289D01*
X191587791Y-141169968D01*
X191472828Y-140997914D01*
X191472827Y-140997912D01*
X191393639Y-140806736D01*
X191353270Y-140603786D01*
X191353270Y-140396854D01*
X191393639Y-140193904D01*
X191472827Y-140002728D01*
X191587791Y-139830672D01*
X191734112Y-139684351D01*
X191906166Y-139569388D01*
X191906168Y-139569387D01*
X192097344Y-139490199D01*
X192300294Y-139449830D01*
X192507226Y-139449830D01*
X192710176Y-139490199D01*
G37*
G36*
X201310176Y-139490199D02*
G01*
X201501352Y-139569387D01*
X201501354Y-139569388D01*
X201673408Y-139684351D01*
X201819729Y-139830672D01*
X201934693Y-140002728D01*
X202013881Y-140193904D01*
X202054250Y-140396854D01*
X202054250Y-140603786D01*
X202013881Y-140806736D01*
X201934693Y-140997912D01*
X201934692Y-140997914D01*
X201819729Y-141169968D01*
X201673408Y-141316289D01*
X201501354Y-141431252D01*
X201501353Y-141431253D01*
X201501352Y-141431253D01*
X201310176Y-141510441D01*
X201107226Y-141550810D01*
X200900294Y-141550810D01*
X200697344Y-141510441D01*
X200506168Y-141431253D01*
X200506167Y-141431253D01*
X200506166Y-141431252D01*
X200334112Y-141316289D01*
X200187791Y-141169968D01*
X200072828Y-140997914D01*
X200072827Y-140997912D01*
X199993639Y-140806736D01*
X199953270Y-140603786D01*
X199953270Y-140396854D01*
X199993639Y-140193904D01*
X200072827Y-140002728D01*
X200187791Y-139830672D01*
X200334112Y-139684351D01*
X200506166Y-139569388D01*
X200506168Y-139569387D01*
X200697344Y-139490199D01*
X200900294Y-139449830D01*
X201107226Y-139449830D01*
X201310176Y-139490199D01*
G37*
G36*
X140510176Y-139490199D02*
G01*
X140701352Y-139569387D01*
X140701354Y-139569388D01*
X140873408Y-139684351D01*
X141019729Y-139830672D01*
X141134693Y-140002728D01*
X141213881Y-140193904D01*
X141254250Y-140396854D01*
X141254250Y-140603786D01*
X141213881Y-140806736D01*
X141134693Y-140997912D01*
X141134692Y-140997914D01*
X141019729Y-141169968D01*
X140873408Y-141316289D01*
X140701354Y-141431252D01*
X140701353Y-141431253D01*
X140701352Y-141431253D01*
X140510176Y-141510441D01*
X140307226Y-141550810D01*
X140100294Y-141550810D01*
X139897344Y-141510441D01*
X139706168Y-141431253D01*
X139706167Y-141431253D01*
X139706166Y-141431252D01*
X139534112Y-141316289D01*
X139387791Y-141169968D01*
X139272828Y-140997914D01*
X139272827Y-140997912D01*
X139193639Y-140806736D01*
X139153270Y-140603786D01*
X139153270Y-140396854D01*
X139193639Y-140193904D01*
X139272827Y-140002728D01*
X139387791Y-139830672D01*
X139534112Y-139684351D01*
X139706166Y-139569388D01*
X139706168Y-139569387D01*
X139897344Y-139490199D01*
X140100294Y-139449830D01*
X140307226Y-139449830D01*
X140510176Y-139490199D01*
G37*
G36*
X147110176Y-139490199D02*
G01*
X147301352Y-139569387D01*
X147301354Y-139569388D01*
X147473408Y-139684351D01*
X147619729Y-139830672D01*
X147734693Y-140002728D01*
X147813881Y-140193904D01*
X147854250Y-140396854D01*
X147854250Y-140603786D01*
X147813881Y-140806736D01*
X147734693Y-140997912D01*
X147734692Y-140997914D01*
X147619729Y-141169968D01*
X147473408Y-141316289D01*
X147301354Y-141431252D01*
X147301353Y-141431253D01*
X147301352Y-141431253D01*
X147110176Y-141510441D01*
X146907226Y-141550810D01*
X146700294Y-141550810D01*
X146497344Y-141510441D01*
X146306168Y-141431253D01*
X146306167Y-141431253D01*
X146306166Y-141431252D01*
X146134112Y-141316289D01*
X145987791Y-141169968D01*
X145872828Y-140997914D01*
X145872827Y-140997912D01*
X145793639Y-140806736D01*
X145753270Y-140603786D01*
X145753270Y-140396854D01*
X145793639Y-140193904D01*
X145872827Y-140002728D01*
X145987791Y-139830672D01*
X146134112Y-139684351D01*
X146306166Y-139569388D01*
X146306168Y-139569387D01*
X146497344Y-139490199D01*
X146700294Y-139449830D01*
X146907226Y-139449830D01*
X147110176Y-139490199D01*
G37*
G36*
X151410176Y-135190199D02*
G01*
X151601352Y-135269387D01*
X151601354Y-135269388D01*
X151773408Y-135384351D01*
X151919729Y-135530672D01*
X152034693Y-135702728D01*
X152113881Y-135893904D01*
X152154250Y-136096854D01*
X152154250Y-136303786D01*
X152113881Y-136506736D01*
X152034693Y-136697912D01*
X152034692Y-136697914D01*
X151919729Y-136869968D01*
X151773408Y-137016289D01*
X151601354Y-137131252D01*
X151601353Y-137131253D01*
X151601352Y-137131253D01*
X151410176Y-137210441D01*
X151207226Y-137250810D01*
X151000294Y-137250810D01*
X150797344Y-137210441D01*
X150606168Y-137131253D01*
X150606167Y-137131253D01*
X150606166Y-137131252D01*
X150434112Y-137016289D01*
X150287791Y-136869968D01*
X150172828Y-136697914D01*
X150172827Y-136697912D01*
X150093639Y-136506736D01*
X150053270Y-136303786D01*
X150053270Y-136096854D01*
X150093639Y-135893904D01*
X150172827Y-135702728D01*
X150287791Y-135530672D01*
X150434112Y-135384351D01*
X150606166Y-135269388D01*
X150606168Y-135269387D01*
X150797344Y-135190199D01*
X151000294Y-135149830D01*
X151207226Y-135149830D01*
X151410176Y-135190199D01*
G37*
G36*
X181810176Y-135190199D02*
G01*
X182001352Y-135269387D01*
X182001354Y-135269388D01*
X182173408Y-135384351D01*
X182319729Y-135530672D01*
X182434693Y-135702728D01*
X182513881Y-135893904D01*
X182554250Y-136096854D01*
X182554250Y-136303786D01*
X182513881Y-136506736D01*
X182434693Y-136697912D01*
X182434692Y-136697914D01*
X182319729Y-136869968D01*
X182173408Y-137016289D01*
X182001354Y-137131252D01*
X182001353Y-137131253D01*
X182001352Y-137131253D01*
X181810176Y-137210441D01*
X181607226Y-137250810D01*
X181400294Y-137250810D01*
X181197344Y-137210441D01*
X181006168Y-137131253D01*
X181006167Y-137131253D01*
X181006166Y-137131252D01*
X180834112Y-137016289D01*
X180687791Y-136869968D01*
X180572828Y-136697914D01*
X180572827Y-136697912D01*
X180493639Y-136506736D01*
X180453270Y-136303786D01*
X180453270Y-136096854D01*
X180493639Y-135893904D01*
X180572827Y-135702728D01*
X180687791Y-135530672D01*
X180834112Y-135384351D01*
X181006166Y-135269388D01*
X181006168Y-135269387D01*
X181197344Y-135190199D01*
X181400294Y-135149830D01*
X181607226Y-135149830D01*
X181810176Y-135190199D01*
G37*
G36*
X166610176Y-135190199D02*
G01*
X166801352Y-135269387D01*
X166801354Y-135269388D01*
X166973408Y-135384351D01*
X167119729Y-135530672D01*
X167234693Y-135702728D01*
X167313881Y-135893904D01*
X167354250Y-136096854D01*
X167354250Y-136303786D01*
X167313881Y-136506736D01*
X167234693Y-136697912D01*
X167234692Y-136697914D01*
X167119729Y-136869968D01*
X166973408Y-137016289D01*
X166801354Y-137131252D01*
X166801353Y-137131253D01*
X166801352Y-137131253D01*
X166610176Y-137210441D01*
X166407226Y-137250810D01*
X166200294Y-137250810D01*
X165997344Y-137210441D01*
X165806168Y-137131253D01*
X165806167Y-137131253D01*
X165806166Y-137131252D01*
X165634112Y-137016289D01*
X165487791Y-136869968D01*
X165372828Y-136697914D01*
X165372827Y-136697912D01*
X165293639Y-136506736D01*
X165253270Y-136303786D01*
X165253270Y-136096854D01*
X165293639Y-135893904D01*
X165372827Y-135702728D01*
X165487791Y-135530672D01*
X165634112Y-135384351D01*
X165806166Y-135269388D01*
X165806168Y-135269387D01*
X165997344Y-135190199D01*
X166200294Y-135149830D01*
X166407226Y-135149830D01*
X166610176Y-135190199D01*
G37*
G36*
X136210176Y-135190199D02*
G01*
X136401352Y-135269387D01*
X136401354Y-135269388D01*
X136573408Y-135384351D01*
X136719729Y-135530672D01*
X136834693Y-135702728D01*
X136913881Y-135893904D01*
X136954250Y-136096854D01*
X136954250Y-136303786D01*
X136913881Y-136506736D01*
X136834693Y-136697912D01*
X136834692Y-136697914D01*
X136719729Y-136869968D01*
X136573408Y-137016289D01*
X136401354Y-137131252D01*
X136401353Y-137131253D01*
X136401352Y-137131253D01*
X136210176Y-137210441D01*
X136007226Y-137250810D01*
X135800294Y-137250810D01*
X135597344Y-137210441D01*
X135406168Y-137131253D01*
X135406167Y-137131253D01*
X135406166Y-137131252D01*
X135234112Y-137016289D01*
X135087791Y-136869968D01*
X134972828Y-136697914D01*
X134972827Y-136697912D01*
X134893639Y-136506736D01*
X134853270Y-136303786D01*
X134853270Y-136096854D01*
X134893639Y-135893904D01*
X134972827Y-135702728D01*
X135087791Y-135530672D01*
X135234112Y-135384351D01*
X135406166Y-135269388D01*
X135406168Y-135269387D01*
X135597344Y-135190199D01*
X135800294Y-135149830D01*
X136007226Y-135149830D01*
X136210176Y-135190199D01*
G37*
G36*
X121010176Y-135190199D02*
G01*
X121201352Y-135269387D01*
X121201354Y-135269388D01*
X121373408Y-135384351D01*
X121519729Y-135530672D01*
X121634693Y-135702728D01*
X121713881Y-135893904D01*
X121754250Y-136096854D01*
X121754250Y-136303786D01*
X121713881Y-136506736D01*
X121634693Y-136697912D01*
X121634692Y-136697914D01*
X121519729Y-136869968D01*
X121373408Y-137016289D01*
X121201354Y-137131252D01*
X121201353Y-137131253D01*
X121201352Y-137131253D01*
X121010176Y-137210441D01*
X120807226Y-137250810D01*
X120600294Y-137250810D01*
X120397344Y-137210441D01*
X120206168Y-137131253D01*
X120206167Y-137131253D01*
X120206166Y-137131252D01*
X120034112Y-137016289D01*
X119887791Y-136869968D01*
X119772828Y-136697914D01*
X119772827Y-136697912D01*
X119693639Y-136506736D01*
X119653270Y-136303786D01*
X119653270Y-136096854D01*
X119693639Y-135893904D01*
X119772827Y-135702728D01*
X119887791Y-135530672D01*
X120034112Y-135384351D01*
X120206166Y-135269388D01*
X120206168Y-135269387D01*
X120397344Y-135190199D01*
X120600294Y-135149830D01*
X120807226Y-135149830D01*
X121010176Y-135190199D01*
G37*
G36*
X197010176Y-135190199D02*
G01*
X197201352Y-135269387D01*
X197201354Y-135269388D01*
X197373408Y-135384351D01*
X197519729Y-135530672D01*
X197634693Y-135702728D01*
X197713881Y-135893904D01*
X197754250Y-136096854D01*
X197754250Y-136303786D01*
X197713881Y-136506736D01*
X197634693Y-136697912D01*
X197634692Y-136697914D01*
X197519729Y-136869968D01*
X197373408Y-137016289D01*
X197201354Y-137131252D01*
X197201353Y-137131253D01*
X197201352Y-137131253D01*
X197010176Y-137210441D01*
X196807226Y-137250810D01*
X196600294Y-137250810D01*
X196397344Y-137210441D01*
X196206168Y-137131253D01*
X196206167Y-137131253D01*
X196206166Y-137131252D01*
X196034112Y-137016289D01*
X195887791Y-136869968D01*
X195772828Y-136697914D01*
X195772827Y-136697912D01*
X195693639Y-136506736D01*
X195653270Y-136303786D01*
X195653270Y-136096854D01*
X195693639Y-135893904D01*
X195772827Y-135702728D01*
X195887791Y-135530672D01*
X196034112Y-135384351D01*
X196206166Y-135269388D01*
X196206168Y-135269387D01*
X196397344Y-135190199D01*
X196600294Y-135149830D01*
X196807226Y-135149830D01*
X197010176Y-135190199D01*
G37*
G36*
X170910176Y-130890199D02*
G01*
X171101352Y-130969387D01*
X171101354Y-130969388D01*
X171273408Y-131084351D01*
X171419729Y-131230672D01*
X171534693Y-131402728D01*
X171613881Y-131593904D01*
X171654250Y-131796854D01*
X171654250Y-132003786D01*
X171613881Y-132206736D01*
X171534693Y-132397912D01*
X171534692Y-132397914D01*
X171419729Y-132569968D01*
X171273408Y-132716289D01*
X171101354Y-132831252D01*
X171101353Y-132831253D01*
X171101352Y-132831253D01*
X170910176Y-132910441D01*
X170707226Y-132950810D01*
X170500294Y-132950810D01*
X170297344Y-132910441D01*
X170106168Y-132831253D01*
X170106167Y-132831253D01*
X170106166Y-132831252D01*
X169934112Y-132716289D01*
X169787791Y-132569968D01*
X169672828Y-132397914D01*
X169672827Y-132397912D01*
X169593639Y-132206736D01*
X169553270Y-132003786D01*
X169553270Y-131796854D01*
X169593639Y-131593904D01*
X169672827Y-131402728D01*
X169787791Y-131230672D01*
X169934112Y-131084351D01*
X170106166Y-130969388D01*
X170106168Y-130969387D01*
X170297344Y-130890199D01*
X170500294Y-130849830D01*
X170707226Y-130849830D01*
X170910176Y-130890199D01*
G37*
G36*
X125310176Y-130890199D02*
G01*
X125501352Y-130969387D01*
X125501354Y-130969388D01*
X125673408Y-131084351D01*
X125819729Y-131230672D01*
X125934693Y-131402728D01*
X126013881Y-131593904D01*
X126054250Y-131796854D01*
X126054250Y-132003786D01*
X126013881Y-132206736D01*
X125934693Y-132397912D01*
X125934692Y-132397914D01*
X125819729Y-132569968D01*
X125673408Y-132716289D01*
X125501354Y-132831252D01*
X125501353Y-132831253D01*
X125501352Y-132831253D01*
X125310176Y-132910441D01*
X125107226Y-132950810D01*
X124900294Y-132950810D01*
X124697344Y-132910441D01*
X124506168Y-132831253D01*
X124506167Y-132831253D01*
X124506166Y-132831252D01*
X124334112Y-132716289D01*
X124187791Y-132569968D01*
X124072828Y-132397914D01*
X124072827Y-132397912D01*
X123993639Y-132206736D01*
X123953270Y-132003786D01*
X123953270Y-131796854D01*
X123993639Y-131593904D01*
X124072827Y-131402728D01*
X124187791Y-131230672D01*
X124334112Y-131084351D01*
X124506166Y-130969388D01*
X124506168Y-130969387D01*
X124697344Y-130890199D01*
X124900294Y-130849830D01*
X125107226Y-130849830D01*
X125310176Y-130890199D01*
G37*
G36*
X140510176Y-130890199D02*
G01*
X140701352Y-130969387D01*
X140701354Y-130969388D01*
X140873408Y-131084351D01*
X141019729Y-131230672D01*
X141134693Y-131402728D01*
X141213881Y-131593904D01*
X141254250Y-131796854D01*
X141254250Y-132003786D01*
X141213881Y-132206736D01*
X141134693Y-132397912D01*
X141134692Y-132397914D01*
X141019729Y-132569968D01*
X140873408Y-132716289D01*
X140701354Y-132831252D01*
X140701353Y-132831253D01*
X140701352Y-132831253D01*
X140510176Y-132910441D01*
X140307226Y-132950810D01*
X140100294Y-132950810D01*
X139897344Y-132910441D01*
X139706168Y-132831253D01*
X139706167Y-132831253D01*
X139706166Y-132831252D01*
X139534112Y-132716289D01*
X139387791Y-132569968D01*
X139272828Y-132397914D01*
X139272827Y-132397912D01*
X139193639Y-132206736D01*
X139153270Y-132003786D01*
X139153270Y-131796854D01*
X139193639Y-131593904D01*
X139272827Y-131402728D01*
X139387791Y-131230672D01*
X139534112Y-131084351D01*
X139706166Y-130969388D01*
X139706168Y-130969387D01*
X139897344Y-130890199D01*
X140100294Y-130849830D01*
X140307226Y-130849830D01*
X140510176Y-130890199D01*
G37*
G36*
X116710176Y-130890199D02*
G01*
X116901352Y-130969387D01*
X116901354Y-130969388D01*
X117073408Y-131084351D01*
X117219729Y-131230672D01*
X117334693Y-131402728D01*
X117413881Y-131593904D01*
X117454250Y-131796854D01*
X117454250Y-132003786D01*
X117413881Y-132206736D01*
X117334693Y-132397912D01*
X117334692Y-132397914D01*
X117219729Y-132569968D01*
X117073408Y-132716289D01*
X116901354Y-132831252D01*
X116901353Y-132831253D01*
X116901352Y-132831253D01*
X116710176Y-132910441D01*
X116507226Y-132950810D01*
X116300294Y-132950810D01*
X116097344Y-132910441D01*
X115906168Y-132831253D01*
X115906167Y-132831253D01*
X115906166Y-132831252D01*
X115734112Y-132716289D01*
X115587791Y-132569968D01*
X115472828Y-132397914D01*
X115472827Y-132397912D01*
X115393639Y-132206736D01*
X115353270Y-132003786D01*
X115353270Y-131796854D01*
X115393639Y-131593904D01*
X115472827Y-131402728D01*
X115587791Y-131230672D01*
X115734112Y-131084351D01*
X115906166Y-130969388D01*
X115906168Y-130969387D01*
X116097344Y-130890199D01*
X116300294Y-130849830D01*
X116507226Y-130849830D01*
X116710176Y-130890199D01*
G37*
G36*
X147110176Y-130890199D02*
G01*
X147301352Y-130969387D01*
X147301354Y-130969388D01*
X147473408Y-131084351D01*
X147619729Y-131230672D01*
X147734693Y-131402728D01*
X147813881Y-131593904D01*
X147854250Y-131796854D01*
X147854250Y-132003786D01*
X147813881Y-132206736D01*
X147734693Y-132397912D01*
X147734692Y-132397914D01*
X147619729Y-132569968D01*
X147473408Y-132716289D01*
X147301354Y-132831252D01*
X147301353Y-132831253D01*
X147301352Y-132831253D01*
X147110176Y-132910441D01*
X146907226Y-132950810D01*
X146700294Y-132950810D01*
X146497344Y-132910441D01*
X146306168Y-132831253D01*
X146306167Y-132831253D01*
X146306166Y-132831252D01*
X146134112Y-132716289D01*
X145987791Y-132569968D01*
X145872828Y-132397914D01*
X145872827Y-132397912D01*
X145793639Y-132206736D01*
X145753270Y-132003786D01*
X145753270Y-131796854D01*
X145793639Y-131593904D01*
X145872827Y-131402728D01*
X145987791Y-131230672D01*
X146134112Y-131084351D01*
X146306166Y-130969388D01*
X146306168Y-130969387D01*
X146497344Y-130890199D01*
X146700294Y-130849830D01*
X146907226Y-130849830D01*
X147110176Y-130890199D01*
G37*
G36*
X155710176Y-130890199D02*
G01*
X155901352Y-130969387D01*
X155901354Y-130969388D01*
X156073408Y-131084351D01*
X156219729Y-131230672D01*
X156334693Y-131402728D01*
X156413881Y-131593904D01*
X156454250Y-131796854D01*
X156454250Y-132003786D01*
X156413881Y-132206736D01*
X156334693Y-132397912D01*
X156334692Y-132397914D01*
X156219729Y-132569968D01*
X156073408Y-132716289D01*
X155901354Y-132831252D01*
X155901353Y-132831253D01*
X155901352Y-132831253D01*
X155710176Y-132910441D01*
X155507226Y-132950810D01*
X155300294Y-132950810D01*
X155097344Y-132910441D01*
X154906168Y-132831253D01*
X154906167Y-132831253D01*
X154906166Y-132831252D01*
X154734112Y-132716289D01*
X154587791Y-132569968D01*
X154472828Y-132397914D01*
X154472827Y-132397912D01*
X154393639Y-132206736D01*
X154353270Y-132003786D01*
X154353270Y-131796854D01*
X154393639Y-131593904D01*
X154472827Y-131402728D01*
X154587791Y-131230672D01*
X154734112Y-131084351D01*
X154906166Y-130969388D01*
X154906168Y-130969387D01*
X155097344Y-130890199D01*
X155300294Y-130849830D01*
X155507226Y-130849830D01*
X155710176Y-130890199D01*
G37*
G36*
X131910176Y-130890199D02*
G01*
X132101352Y-130969387D01*
X132101354Y-130969388D01*
X132273408Y-131084351D01*
X132419729Y-131230672D01*
X132534693Y-131402728D01*
X132613881Y-131593904D01*
X132654250Y-131796854D01*
X132654250Y-132003786D01*
X132613881Y-132206736D01*
X132534693Y-132397912D01*
X132534692Y-132397914D01*
X132419729Y-132569968D01*
X132273408Y-132716289D01*
X132101354Y-132831252D01*
X132101353Y-132831253D01*
X132101352Y-132831253D01*
X131910176Y-132910441D01*
X131707226Y-132950810D01*
X131500294Y-132950810D01*
X131297344Y-132910441D01*
X131106168Y-132831253D01*
X131106167Y-132831253D01*
X131106166Y-132831252D01*
X130934112Y-132716289D01*
X130787791Y-132569968D01*
X130672828Y-132397914D01*
X130672827Y-132397912D01*
X130593639Y-132206736D01*
X130553270Y-132003786D01*
X130553270Y-131796854D01*
X130593639Y-131593904D01*
X130672827Y-131402728D01*
X130787791Y-131230672D01*
X130934112Y-131084351D01*
X131106166Y-130969388D01*
X131106168Y-130969387D01*
X131297344Y-130890199D01*
X131500294Y-130849830D01*
X131707226Y-130849830D01*
X131910176Y-130890199D01*
G37*
G36*
X162310176Y-130890199D02*
G01*
X162501352Y-130969387D01*
X162501354Y-130969388D01*
X162673408Y-131084351D01*
X162819729Y-131230672D01*
X162934693Y-131402728D01*
X163013881Y-131593904D01*
X163054250Y-131796854D01*
X163054250Y-132003786D01*
X163013881Y-132206736D01*
X162934693Y-132397912D01*
X162934692Y-132397914D01*
X162819729Y-132569968D01*
X162673408Y-132716289D01*
X162501354Y-132831252D01*
X162501353Y-132831253D01*
X162501352Y-132831253D01*
X162310176Y-132910441D01*
X162107226Y-132950810D01*
X161900294Y-132950810D01*
X161697344Y-132910441D01*
X161506168Y-132831253D01*
X161506167Y-132831253D01*
X161506166Y-132831252D01*
X161334112Y-132716289D01*
X161187791Y-132569968D01*
X161072828Y-132397914D01*
X161072827Y-132397912D01*
X160993639Y-132206736D01*
X160953270Y-132003786D01*
X160953270Y-131796854D01*
X160993639Y-131593904D01*
X161072827Y-131402728D01*
X161187791Y-131230672D01*
X161334112Y-131084351D01*
X161506166Y-130969388D01*
X161506168Y-130969387D01*
X161697344Y-130890199D01*
X161900294Y-130849830D01*
X162107226Y-130849830D01*
X162310176Y-130890199D01*
G37*
G36*
X201310176Y-130890199D02*
G01*
X201501352Y-130969387D01*
X201501354Y-130969388D01*
X201673408Y-131084351D01*
X201819729Y-131230672D01*
X201934693Y-131402728D01*
X202013881Y-131593904D01*
X202054250Y-131796854D01*
X202054250Y-132003786D01*
X202013881Y-132206736D01*
X201934693Y-132397912D01*
X201934692Y-132397914D01*
X201819729Y-132569968D01*
X201673408Y-132716289D01*
X201501354Y-132831252D01*
X201501353Y-132831253D01*
X201501352Y-132831253D01*
X201310176Y-132910441D01*
X201107226Y-132950810D01*
X200900294Y-132950810D01*
X200697344Y-132910441D01*
X200506168Y-132831253D01*
X200506167Y-132831253D01*
X200506166Y-132831252D01*
X200334112Y-132716289D01*
X200187791Y-132569968D01*
X200072828Y-132397914D01*
X200072827Y-132397912D01*
X199993639Y-132206736D01*
X199953270Y-132003786D01*
X199953270Y-131796854D01*
X199993639Y-131593904D01*
X200072827Y-131402728D01*
X200187791Y-131230672D01*
X200334112Y-131084351D01*
X200506166Y-130969388D01*
X200506168Y-130969387D01*
X200697344Y-130890199D01*
X200900294Y-130849830D01*
X201107226Y-130849830D01*
X201310176Y-130890199D01*
G37*
G36*
X192710176Y-130890199D02*
G01*
X192901352Y-130969387D01*
X192901354Y-130969388D01*
X193073408Y-131084351D01*
X193219729Y-131230672D01*
X193334693Y-131402728D01*
X193413881Y-131593904D01*
X193454250Y-131796854D01*
X193454250Y-132003786D01*
X193413881Y-132206736D01*
X193334693Y-132397912D01*
X193334692Y-132397914D01*
X193219729Y-132569968D01*
X193073408Y-132716289D01*
X192901354Y-132831252D01*
X192901353Y-132831253D01*
X192901352Y-132831253D01*
X192710176Y-132910441D01*
X192507226Y-132950810D01*
X192300294Y-132950810D01*
X192097344Y-132910441D01*
X191906168Y-132831253D01*
X191906167Y-132831253D01*
X191906166Y-132831252D01*
X191734112Y-132716289D01*
X191587791Y-132569968D01*
X191472828Y-132397914D01*
X191472827Y-132397912D01*
X191393639Y-132206736D01*
X191353270Y-132003786D01*
X191353270Y-131796854D01*
X191393639Y-131593904D01*
X191472827Y-131402728D01*
X191587791Y-131230672D01*
X191734112Y-131084351D01*
X191906166Y-130969388D01*
X191906168Y-130969387D01*
X192097344Y-130890199D01*
X192300294Y-130849830D01*
X192507226Y-130849830D01*
X192710176Y-130890199D01*
G37*
G36*
X177510176Y-130890199D02*
G01*
X177701352Y-130969387D01*
X177701354Y-130969388D01*
X177873408Y-131084351D01*
X178019729Y-131230672D01*
X178134693Y-131402728D01*
X178213881Y-131593904D01*
X178254250Y-131796854D01*
X178254250Y-132003786D01*
X178213881Y-132206736D01*
X178134693Y-132397912D01*
X178134692Y-132397914D01*
X178019729Y-132569968D01*
X177873408Y-132716289D01*
X177701354Y-132831252D01*
X177701353Y-132831253D01*
X177701352Y-132831253D01*
X177510176Y-132910441D01*
X177307226Y-132950810D01*
X177100294Y-132950810D01*
X176897344Y-132910441D01*
X176706168Y-132831253D01*
X176706167Y-132831253D01*
X176706166Y-132831252D01*
X176534112Y-132716289D01*
X176387791Y-132569968D01*
X176272828Y-132397914D01*
X176272827Y-132397912D01*
X176193639Y-132206736D01*
X176153270Y-132003786D01*
X176153270Y-131796854D01*
X176193639Y-131593904D01*
X176272827Y-131402728D01*
X176387791Y-131230672D01*
X176534112Y-131084351D01*
X176706166Y-130969388D01*
X176706168Y-130969387D01*
X176897344Y-130890199D01*
X177100294Y-130849830D01*
X177307226Y-130849830D01*
X177510176Y-130890199D01*
G37*
G36*
X186110176Y-130890199D02*
G01*
X186301352Y-130969387D01*
X186301354Y-130969388D01*
X186473408Y-131084351D01*
X186619729Y-131230672D01*
X186734693Y-131402728D01*
X186813881Y-131593904D01*
X186854250Y-131796854D01*
X186854250Y-132003786D01*
X186813881Y-132206736D01*
X186734693Y-132397912D01*
X186734692Y-132397914D01*
X186619729Y-132569968D01*
X186473408Y-132716289D01*
X186301354Y-132831252D01*
X186301353Y-132831253D01*
X186301352Y-132831253D01*
X186110176Y-132910441D01*
X185907226Y-132950810D01*
X185700294Y-132950810D01*
X185497344Y-132910441D01*
X185306168Y-132831253D01*
X185306167Y-132831253D01*
X185306166Y-132831252D01*
X185134112Y-132716289D01*
X184987791Y-132569968D01*
X184872828Y-132397914D01*
X184872827Y-132397912D01*
X184793639Y-132206736D01*
X184753270Y-132003786D01*
X184753270Y-131796854D01*
X184793639Y-131593904D01*
X184872827Y-131402728D01*
X184987791Y-131230672D01*
X185134112Y-131084351D01*
X185306166Y-130969388D01*
X185306168Y-130969387D01*
X185497344Y-130890199D01*
X185700294Y-130849830D01*
X185907226Y-130849830D01*
X186110176Y-130890199D01*
G37*
G36*
X125310176Y-124290199D02*
G01*
X125501352Y-124369387D01*
X125501354Y-124369388D01*
X125673408Y-124484351D01*
X125819729Y-124630672D01*
X125934693Y-124802728D01*
X126013881Y-124993904D01*
X126054250Y-125196854D01*
X126054250Y-125403786D01*
X126013881Y-125606736D01*
X125934693Y-125797912D01*
X125934692Y-125797914D01*
X125819729Y-125969968D01*
X125673408Y-126116289D01*
X125501354Y-126231252D01*
X125501353Y-126231253D01*
X125501352Y-126231253D01*
X125310176Y-126310441D01*
X125107226Y-126350810D01*
X124900294Y-126350810D01*
X124697344Y-126310441D01*
X124506168Y-126231253D01*
X124506167Y-126231253D01*
X124506166Y-126231252D01*
X124334112Y-126116289D01*
X124187791Y-125969968D01*
X124072828Y-125797914D01*
X124072827Y-125797912D01*
X123993639Y-125606736D01*
X123953270Y-125403786D01*
X123953270Y-125196854D01*
X123993639Y-124993904D01*
X124072827Y-124802728D01*
X124187791Y-124630672D01*
X124334112Y-124484351D01*
X124506166Y-124369388D01*
X124506168Y-124369387D01*
X124697344Y-124290199D01*
X124900294Y-124249830D01*
X125107226Y-124249830D01*
X125310176Y-124290199D01*
G37*
G36*
X192710176Y-124290199D02*
G01*
X192901352Y-124369387D01*
X192901354Y-124369388D01*
X193073408Y-124484351D01*
X193219729Y-124630672D01*
X193334693Y-124802728D01*
X193413881Y-124993904D01*
X193454250Y-125196854D01*
X193454250Y-125403786D01*
X193413881Y-125606736D01*
X193334693Y-125797912D01*
X193334692Y-125797914D01*
X193219729Y-125969968D01*
X193073408Y-126116289D01*
X192901354Y-126231252D01*
X192901353Y-126231253D01*
X192901352Y-126231253D01*
X192710176Y-126310441D01*
X192507226Y-126350810D01*
X192300294Y-126350810D01*
X192097344Y-126310441D01*
X191906168Y-126231253D01*
X191906167Y-126231253D01*
X191906166Y-126231252D01*
X191734112Y-126116289D01*
X191587791Y-125969968D01*
X191472828Y-125797914D01*
X191472827Y-125797912D01*
X191393639Y-125606736D01*
X191353270Y-125403786D01*
X191353270Y-125196854D01*
X191393639Y-124993904D01*
X191472827Y-124802728D01*
X191587791Y-124630672D01*
X191734112Y-124484351D01*
X191906166Y-124369388D01*
X191906168Y-124369387D01*
X192097344Y-124290199D01*
X192300294Y-124249830D01*
X192507226Y-124249830D01*
X192710176Y-124290199D01*
G37*
G36*
X201310176Y-124290199D02*
G01*
X201501352Y-124369387D01*
X201501354Y-124369388D01*
X201673408Y-124484351D01*
X201819729Y-124630672D01*
X201934693Y-124802728D01*
X202013881Y-124993904D01*
X202054250Y-125196854D01*
X202054250Y-125403786D01*
X202013881Y-125606736D01*
X201934693Y-125797912D01*
X201934692Y-125797914D01*
X201819729Y-125969968D01*
X201673408Y-126116289D01*
X201501354Y-126231252D01*
X201501353Y-126231253D01*
X201501352Y-126231253D01*
X201310176Y-126310441D01*
X201107226Y-126350810D01*
X200900294Y-126350810D01*
X200697344Y-126310441D01*
X200506168Y-126231253D01*
X200506167Y-126231253D01*
X200506166Y-126231252D01*
X200334112Y-126116289D01*
X200187791Y-125969968D01*
X200072828Y-125797914D01*
X200072827Y-125797912D01*
X199993639Y-125606736D01*
X199953270Y-125403786D01*
X199953270Y-125196854D01*
X199993639Y-124993904D01*
X200072827Y-124802728D01*
X200187791Y-124630672D01*
X200334112Y-124484351D01*
X200506166Y-124369388D01*
X200506168Y-124369387D01*
X200697344Y-124290199D01*
X200900294Y-124249830D01*
X201107226Y-124249830D01*
X201310176Y-124290199D01*
G37*
G36*
X186110176Y-124290199D02*
G01*
X186301352Y-124369387D01*
X186301354Y-124369388D01*
X186473408Y-124484351D01*
X186619729Y-124630672D01*
X186734693Y-124802728D01*
X186813881Y-124993904D01*
X186854250Y-125196854D01*
X186854250Y-125403786D01*
X186813881Y-125606736D01*
X186734693Y-125797912D01*
X186734692Y-125797914D01*
X186619729Y-125969968D01*
X186473408Y-126116289D01*
X186301354Y-126231252D01*
X186301353Y-126231253D01*
X186301352Y-126231253D01*
X186110176Y-126310441D01*
X185907226Y-126350810D01*
X185700294Y-126350810D01*
X185497344Y-126310441D01*
X185306168Y-126231253D01*
X185306167Y-126231253D01*
X185306166Y-126231252D01*
X185134112Y-126116289D01*
X184987791Y-125969968D01*
X184872828Y-125797914D01*
X184872827Y-125797912D01*
X184793639Y-125606736D01*
X184753270Y-125403786D01*
X184753270Y-125196854D01*
X184793639Y-124993904D01*
X184872827Y-124802728D01*
X184987791Y-124630672D01*
X185134112Y-124484351D01*
X185306166Y-124369388D01*
X185306168Y-124369387D01*
X185497344Y-124290199D01*
X185700294Y-124249830D01*
X185907226Y-124249830D01*
X186110176Y-124290199D01*
G37*
G36*
X170910176Y-124290199D02*
G01*
X171101352Y-124369387D01*
X171101354Y-124369388D01*
X171273408Y-124484351D01*
X171419729Y-124630672D01*
X171534693Y-124802728D01*
X171613881Y-124993904D01*
X171654250Y-125196854D01*
X171654250Y-125403786D01*
X171613881Y-125606736D01*
X171534693Y-125797912D01*
X171534692Y-125797914D01*
X171419729Y-125969968D01*
X171273408Y-126116289D01*
X171101354Y-126231252D01*
X171101353Y-126231253D01*
X171101352Y-126231253D01*
X170910176Y-126310441D01*
X170707226Y-126350810D01*
X170500294Y-126350810D01*
X170297344Y-126310441D01*
X170106168Y-126231253D01*
X170106167Y-126231253D01*
X170106166Y-126231252D01*
X169934112Y-126116289D01*
X169787791Y-125969968D01*
X169672828Y-125797914D01*
X169672827Y-125797912D01*
X169593639Y-125606736D01*
X169553270Y-125403786D01*
X169553270Y-125196854D01*
X169593639Y-124993904D01*
X169672827Y-124802728D01*
X169787791Y-124630672D01*
X169934112Y-124484351D01*
X170106166Y-124369388D01*
X170106168Y-124369387D01*
X170297344Y-124290199D01*
X170500294Y-124249830D01*
X170707226Y-124249830D01*
X170910176Y-124290199D01*
G37*
G36*
X155710176Y-124290199D02*
G01*
X155901352Y-124369387D01*
X155901354Y-124369388D01*
X156073408Y-124484351D01*
X156219729Y-124630672D01*
X156334693Y-124802728D01*
X156413881Y-124993904D01*
X156454250Y-125196854D01*
X156454250Y-125403786D01*
X156413881Y-125606736D01*
X156334693Y-125797912D01*
X156334692Y-125797914D01*
X156219729Y-125969968D01*
X156073408Y-126116289D01*
X155901354Y-126231252D01*
X155901353Y-126231253D01*
X155901352Y-126231253D01*
X155710176Y-126310441D01*
X155507226Y-126350810D01*
X155300294Y-126350810D01*
X155097344Y-126310441D01*
X154906168Y-126231253D01*
X154906167Y-126231253D01*
X154906166Y-126231252D01*
X154734112Y-126116289D01*
X154587791Y-125969968D01*
X154472828Y-125797914D01*
X154472827Y-125797912D01*
X154393639Y-125606736D01*
X154353270Y-125403786D01*
X154353270Y-125196854D01*
X154393639Y-124993904D01*
X154472827Y-124802728D01*
X154587791Y-124630672D01*
X154734112Y-124484351D01*
X154906166Y-124369388D01*
X154906168Y-124369387D01*
X155097344Y-124290199D01*
X155300294Y-124249830D01*
X155507226Y-124249830D01*
X155710176Y-124290199D01*
G37*
G36*
X140510176Y-124290199D02*
G01*
X140701352Y-124369387D01*
X140701354Y-124369388D01*
X140873408Y-124484351D01*
X141019729Y-124630672D01*
X141134693Y-124802728D01*
X141213881Y-124993904D01*
X141254250Y-125196854D01*
X141254250Y-125403786D01*
X141213881Y-125606736D01*
X141134693Y-125797912D01*
X141134692Y-125797914D01*
X141019729Y-125969968D01*
X140873408Y-126116289D01*
X140701354Y-126231252D01*
X140701353Y-126231253D01*
X140701352Y-126231253D01*
X140510176Y-126310441D01*
X140307226Y-126350810D01*
X140100294Y-126350810D01*
X139897344Y-126310441D01*
X139706168Y-126231253D01*
X139706167Y-126231253D01*
X139706166Y-126231252D01*
X139534112Y-126116289D01*
X139387791Y-125969968D01*
X139272828Y-125797914D01*
X139272827Y-125797912D01*
X139193639Y-125606736D01*
X139153270Y-125403786D01*
X139153270Y-125196854D01*
X139193639Y-124993904D01*
X139272827Y-124802728D01*
X139387791Y-124630672D01*
X139534112Y-124484351D01*
X139706166Y-124369388D01*
X139706168Y-124369387D01*
X139897344Y-124290199D01*
X140100294Y-124249830D01*
X140307226Y-124249830D01*
X140510176Y-124290199D01*
G37*
G36*
X116710176Y-124290199D02*
G01*
X116901352Y-124369387D01*
X116901354Y-124369388D01*
X117073408Y-124484351D01*
X117219729Y-124630672D01*
X117334693Y-124802728D01*
X117413881Y-124993904D01*
X117454250Y-125196854D01*
X117454250Y-125403786D01*
X117413881Y-125606736D01*
X117334693Y-125797912D01*
X117334692Y-125797914D01*
X117219729Y-125969968D01*
X117073408Y-126116289D01*
X116901354Y-126231252D01*
X116901353Y-126231253D01*
X116901352Y-126231253D01*
X116710176Y-126310441D01*
X116507226Y-126350810D01*
X116300294Y-126350810D01*
X116097344Y-126310441D01*
X115906168Y-126231253D01*
X115906167Y-126231253D01*
X115906166Y-126231252D01*
X115734112Y-126116289D01*
X115587791Y-125969968D01*
X115472828Y-125797914D01*
X115472827Y-125797912D01*
X115393639Y-125606736D01*
X115353270Y-125403786D01*
X115353270Y-125196854D01*
X115393639Y-124993904D01*
X115472827Y-124802728D01*
X115587791Y-124630672D01*
X115734112Y-124484351D01*
X115906166Y-124369388D01*
X115906168Y-124369387D01*
X116097344Y-124290199D01*
X116300294Y-124249830D01*
X116507226Y-124249830D01*
X116710176Y-124290199D01*
G37*
G36*
X131910176Y-124290199D02*
G01*
X132101352Y-124369387D01*
X132101354Y-124369388D01*
X132273408Y-124484351D01*
X132419729Y-124630672D01*
X132534693Y-124802728D01*
X132613881Y-124993904D01*
X132654250Y-125196854D01*
X132654250Y-125403786D01*
X132613881Y-125606736D01*
X132534693Y-125797912D01*
X132534692Y-125797914D01*
X132419729Y-125969968D01*
X132273408Y-126116289D01*
X132101354Y-126231252D01*
X132101353Y-126231253D01*
X132101352Y-126231253D01*
X131910176Y-126310441D01*
X131707226Y-126350810D01*
X131500294Y-126350810D01*
X131297344Y-126310441D01*
X131106168Y-126231253D01*
X131106167Y-126231253D01*
X131106166Y-126231252D01*
X130934112Y-126116289D01*
X130787791Y-125969968D01*
X130672828Y-125797914D01*
X130672827Y-125797912D01*
X130593639Y-125606736D01*
X130553270Y-125403786D01*
X130553270Y-125196854D01*
X130593639Y-124993904D01*
X130672827Y-124802728D01*
X130787791Y-124630672D01*
X130934112Y-124484351D01*
X131106166Y-124369388D01*
X131106168Y-124369387D01*
X131297344Y-124290199D01*
X131500294Y-124249830D01*
X131707226Y-124249830D01*
X131910176Y-124290199D01*
G37*
G36*
X147110176Y-124290199D02*
G01*
X147301352Y-124369387D01*
X147301354Y-124369388D01*
X147473408Y-124484351D01*
X147619729Y-124630672D01*
X147734693Y-124802728D01*
X147813881Y-124993904D01*
X147854250Y-125196854D01*
X147854250Y-125403786D01*
X147813881Y-125606736D01*
X147734693Y-125797912D01*
X147734692Y-125797914D01*
X147619729Y-125969968D01*
X147473408Y-126116289D01*
X147301354Y-126231252D01*
X147301353Y-126231253D01*
X147301352Y-126231253D01*
X147110176Y-126310441D01*
X146907226Y-126350810D01*
X146700294Y-126350810D01*
X146497344Y-126310441D01*
X146306168Y-126231253D01*
X146306167Y-126231253D01*
X146306166Y-126231252D01*
X146134112Y-126116289D01*
X145987791Y-125969968D01*
X145872828Y-125797914D01*
X145872827Y-125797912D01*
X145793639Y-125606736D01*
X145753270Y-125403786D01*
X145753270Y-125196854D01*
X145793639Y-124993904D01*
X145872827Y-124802728D01*
X145987791Y-124630672D01*
X146134112Y-124484351D01*
X146306166Y-124369388D01*
X146306168Y-124369387D01*
X146497344Y-124290199D01*
X146700294Y-124249830D01*
X146907226Y-124249830D01*
X147110176Y-124290199D01*
G37*
G36*
X162310176Y-124290199D02*
G01*
X162501352Y-124369387D01*
X162501354Y-124369388D01*
X162673408Y-124484351D01*
X162819729Y-124630672D01*
X162934693Y-124802728D01*
X163013881Y-124993904D01*
X163054250Y-125196854D01*
X163054250Y-125403786D01*
X163013881Y-125606736D01*
X162934693Y-125797912D01*
X162934692Y-125797914D01*
X162819729Y-125969968D01*
X162673408Y-126116289D01*
X162501354Y-126231252D01*
X162501353Y-126231253D01*
X162501352Y-126231253D01*
X162310176Y-126310441D01*
X162107226Y-126350810D01*
X161900294Y-126350810D01*
X161697344Y-126310441D01*
X161506168Y-126231253D01*
X161506167Y-126231253D01*
X161506166Y-126231252D01*
X161334112Y-126116289D01*
X161187791Y-125969968D01*
X161072828Y-125797914D01*
X161072827Y-125797912D01*
X160993639Y-125606736D01*
X160953270Y-125403786D01*
X160953270Y-125196854D01*
X160993639Y-124993904D01*
X161072827Y-124802728D01*
X161187791Y-124630672D01*
X161334112Y-124484351D01*
X161506166Y-124369388D01*
X161506168Y-124369387D01*
X161697344Y-124290199D01*
X161900294Y-124249830D01*
X162107226Y-124249830D01*
X162310176Y-124290199D01*
G37*
G36*
X177510176Y-124290199D02*
G01*
X177701352Y-124369387D01*
X177701354Y-124369388D01*
X177873408Y-124484351D01*
X178019729Y-124630672D01*
X178134693Y-124802728D01*
X178213881Y-124993904D01*
X178254250Y-125196854D01*
X178254250Y-125403786D01*
X178213881Y-125606736D01*
X178134693Y-125797912D01*
X178134692Y-125797914D01*
X178019729Y-125969968D01*
X177873408Y-126116289D01*
X177701354Y-126231252D01*
X177701353Y-126231253D01*
X177701352Y-126231253D01*
X177510176Y-126310441D01*
X177307226Y-126350810D01*
X177100294Y-126350810D01*
X176897344Y-126310441D01*
X176706168Y-126231253D01*
X176706167Y-126231253D01*
X176706166Y-126231252D01*
X176534112Y-126116289D01*
X176387791Y-125969968D01*
X176272828Y-125797914D01*
X176272827Y-125797912D01*
X176193639Y-125606736D01*
X176153270Y-125403786D01*
X176153270Y-125196854D01*
X176193639Y-124993904D01*
X176272827Y-124802728D01*
X176387791Y-124630672D01*
X176534112Y-124484351D01*
X176706166Y-124369388D01*
X176706168Y-124369387D01*
X176897344Y-124290199D01*
X177100294Y-124249830D01*
X177307226Y-124249830D01*
X177510176Y-124290199D01*
G37*
G36*
X151410176Y-119990199D02*
G01*
X151601352Y-120069387D01*
X151601354Y-120069388D01*
X151773408Y-120184351D01*
X151919729Y-120330672D01*
X152034693Y-120502728D01*
X152113881Y-120693904D01*
X152154250Y-120896854D01*
X152154250Y-121103786D01*
X152113881Y-121306736D01*
X152034693Y-121497912D01*
X152034692Y-121497914D01*
X151919729Y-121669968D01*
X151773408Y-121816289D01*
X151601354Y-121931252D01*
X151601353Y-121931253D01*
X151601352Y-121931253D01*
X151410176Y-122010441D01*
X151207226Y-122050810D01*
X151000294Y-122050810D01*
X150797344Y-122010441D01*
X150606168Y-121931253D01*
X150606167Y-121931253D01*
X150606166Y-121931252D01*
X150434112Y-121816289D01*
X150287791Y-121669968D01*
X150172828Y-121497914D01*
X150172827Y-121497912D01*
X150093639Y-121306736D01*
X150053270Y-121103786D01*
X150053270Y-120896854D01*
X150093639Y-120693904D01*
X150172827Y-120502728D01*
X150287791Y-120330672D01*
X150434112Y-120184351D01*
X150606166Y-120069388D01*
X150606168Y-120069387D01*
X150797344Y-119990199D01*
X151000294Y-119949830D01*
X151207226Y-119949830D01*
X151410176Y-119990199D01*
G37*
G36*
X121010176Y-119990199D02*
G01*
X121201352Y-120069387D01*
X121201354Y-120069388D01*
X121373408Y-120184351D01*
X121519729Y-120330672D01*
X121634693Y-120502728D01*
X121713881Y-120693904D01*
X121754250Y-120896854D01*
X121754250Y-121103786D01*
X121713881Y-121306736D01*
X121634693Y-121497912D01*
X121634692Y-121497914D01*
X121519729Y-121669968D01*
X121373408Y-121816289D01*
X121201354Y-121931252D01*
X121201353Y-121931253D01*
X121201352Y-121931253D01*
X121010176Y-122010441D01*
X120807226Y-122050810D01*
X120600294Y-122050810D01*
X120397344Y-122010441D01*
X120206168Y-121931253D01*
X120206167Y-121931253D01*
X120206166Y-121931252D01*
X120034112Y-121816289D01*
X119887791Y-121669968D01*
X119772828Y-121497914D01*
X119772827Y-121497912D01*
X119693639Y-121306736D01*
X119653270Y-121103786D01*
X119653270Y-120896854D01*
X119693639Y-120693904D01*
X119772827Y-120502728D01*
X119887791Y-120330672D01*
X120034112Y-120184351D01*
X120206166Y-120069388D01*
X120206168Y-120069387D01*
X120397344Y-119990199D01*
X120600294Y-119949830D01*
X120807226Y-119949830D01*
X121010176Y-119990199D01*
G37*
G36*
X136210176Y-119990199D02*
G01*
X136401352Y-120069387D01*
X136401354Y-120069388D01*
X136573408Y-120184351D01*
X136719729Y-120330672D01*
X136834693Y-120502728D01*
X136913881Y-120693904D01*
X136954250Y-120896854D01*
X136954250Y-121103786D01*
X136913881Y-121306736D01*
X136834693Y-121497912D01*
X136834692Y-121497914D01*
X136719729Y-121669968D01*
X136573408Y-121816289D01*
X136401354Y-121931252D01*
X136401353Y-121931253D01*
X136401352Y-121931253D01*
X136210176Y-122010441D01*
X136007226Y-122050810D01*
X135800294Y-122050810D01*
X135597344Y-122010441D01*
X135406168Y-121931253D01*
X135406167Y-121931253D01*
X135406166Y-121931252D01*
X135234112Y-121816289D01*
X135087791Y-121669968D01*
X134972828Y-121497914D01*
X134972827Y-121497912D01*
X134893639Y-121306736D01*
X134853270Y-121103786D01*
X134853270Y-120896854D01*
X134893639Y-120693904D01*
X134972827Y-120502728D01*
X135087791Y-120330672D01*
X135234112Y-120184351D01*
X135406166Y-120069388D01*
X135406168Y-120069387D01*
X135597344Y-119990199D01*
X135800294Y-119949830D01*
X136007226Y-119949830D01*
X136210176Y-119990199D01*
G37*
G36*
X181810176Y-119990199D02*
G01*
X182001352Y-120069387D01*
X182001354Y-120069388D01*
X182173408Y-120184351D01*
X182319729Y-120330672D01*
X182434693Y-120502728D01*
X182513881Y-120693904D01*
X182554250Y-120896854D01*
X182554250Y-121103786D01*
X182513881Y-121306736D01*
X182434693Y-121497912D01*
X182434692Y-121497914D01*
X182319729Y-121669968D01*
X182173408Y-121816289D01*
X182001354Y-121931252D01*
X182001353Y-121931253D01*
X182001352Y-121931253D01*
X181810176Y-122010441D01*
X181607226Y-122050810D01*
X181400294Y-122050810D01*
X181197344Y-122010441D01*
X181006168Y-121931253D01*
X181006167Y-121931253D01*
X181006166Y-121931252D01*
X180834112Y-121816289D01*
X180687791Y-121669968D01*
X180572828Y-121497914D01*
X180572827Y-121497912D01*
X180493639Y-121306736D01*
X180453270Y-121103786D01*
X180453270Y-120896854D01*
X180493639Y-120693904D01*
X180572827Y-120502728D01*
X180687791Y-120330672D01*
X180834112Y-120184351D01*
X181006166Y-120069388D01*
X181006168Y-120069387D01*
X181197344Y-119990199D01*
X181400294Y-119949830D01*
X181607226Y-119949830D01*
X181810176Y-119990199D01*
G37*
G36*
X197010176Y-119990199D02*
G01*
X197201352Y-120069387D01*
X197201354Y-120069388D01*
X197373408Y-120184351D01*
X197519729Y-120330672D01*
X197634693Y-120502728D01*
X197713881Y-120693904D01*
X197754250Y-120896854D01*
X197754250Y-121103786D01*
X197713881Y-121306736D01*
X197634693Y-121497912D01*
X197634692Y-121497914D01*
X197519729Y-121669968D01*
X197373408Y-121816289D01*
X197201354Y-121931252D01*
X197201353Y-121931253D01*
X197201352Y-121931253D01*
X197010176Y-122010441D01*
X196807226Y-122050810D01*
X196600294Y-122050810D01*
X196397344Y-122010441D01*
X196206168Y-121931253D01*
X196206167Y-121931253D01*
X196206166Y-121931252D01*
X196034112Y-121816289D01*
X195887791Y-121669968D01*
X195772828Y-121497914D01*
X195772827Y-121497912D01*
X195693639Y-121306736D01*
X195653270Y-121103786D01*
X195653270Y-120896854D01*
X195693639Y-120693904D01*
X195772827Y-120502728D01*
X195887791Y-120330672D01*
X196034112Y-120184351D01*
X196206166Y-120069388D01*
X196206168Y-120069387D01*
X196397344Y-119990199D01*
X196600294Y-119949830D01*
X196807226Y-119949830D01*
X197010176Y-119990199D01*
G37*
G36*
X166610176Y-119990199D02*
G01*
X166801352Y-120069387D01*
X166801354Y-120069388D01*
X166973408Y-120184351D01*
X167119729Y-120330672D01*
X167234693Y-120502728D01*
X167313881Y-120693904D01*
X167354250Y-120896854D01*
X167354250Y-121103786D01*
X167313881Y-121306736D01*
X167234693Y-121497912D01*
X167234692Y-121497914D01*
X167119729Y-121669968D01*
X166973408Y-121816289D01*
X166801354Y-121931252D01*
X166801353Y-121931253D01*
X166801352Y-121931253D01*
X166610176Y-122010441D01*
X166407226Y-122050810D01*
X166200294Y-122050810D01*
X165997344Y-122010441D01*
X165806168Y-121931253D01*
X165806167Y-121931253D01*
X165806166Y-121931252D01*
X165634112Y-121816289D01*
X165487791Y-121669968D01*
X165372828Y-121497914D01*
X165372827Y-121497912D01*
X165293639Y-121306736D01*
X165253270Y-121103786D01*
X165253270Y-120896854D01*
X165293639Y-120693904D01*
X165372827Y-120502728D01*
X165487791Y-120330672D01*
X165634112Y-120184351D01*
X165806166Y-120069388D01*
X165806168Y-120069387D01*
X165997344Y-119990199D01*
X166200294Y-119949830D01*
X166407226Y-119949830D01*
X166610176Y-119990199D01*
G37*
G36*
X162310176Y-115690199D02*
G01*
X162501352Y-115769387D01*
X162501354Y-115769388D01*
X162673408Y-115884351D01*
X162819729Y-116030672D01*
X162934693Y-116202728D01*
X163013881Y-116393904D01*
X163054250Y-116596854D01*
X163054250Y-116803786D01*
X163013881Y-117006736D01*
X162934693Y-117197912D01*
X162934692Y-117197914D01*
X162819729Y-117369968D01*
X162673408Y-117516289D01*
X162501354Y-117631252D01*
X162501353Y-117631253D01*
X162501352Y-117631253D01*
X162310176Y-117710441D01*
X162107226Y-117750810D01*
X161900294Y-117750810D01*
X161697344Y-117710441D01*
X161506168Y-117631253D01*
X161506167Y-117631253D01*
X161506166Y-117631252D01*
X161334112Y-117516289D01*
X161187791Y-117369968D01*
X161072828Y-117197914D01*
X161072827Y-117197912D01*
X160993639Y-117006736D01*
X160953270Y-116803786D01*
X160953270Y-116596854D01*
X160993639Y-116393904D01*
X161072827Y-116202728D01*
X161187791Y-116030672D01*
X161334112Y-115884351D01*
X161506166Y-115769388D01*
X161506168Y-115769387D01*
X161697344Y-115690199D01*
X161900294Y-115649830D01*
X162107226Y-115649830D01*
X162310176Y-115690199D01*
G37*
G36*
X125310176Y-115690199D02*
G01*
X125501352Y-115769387D01*
X125501354Y-115769388D01*
X125673408Y-115884351D01*
X125819729Y-116030672D01*
X125934693Y-116202728D01*
X126013881Y-116393904D01*
X126054250Y-116596854D01*
X126054250Y-116803786D01*
X126013881Y-117006736D01*
X125934693Y-117197912D01*
X125934692Y-117197914D01*
X125819729Y-117369968D01*
X125673408Y-117516289D01*
X125501354Y-117631252D01*
X125501353Y-117631253D01*
X125501352Y-117631253D01*
X125310176Y-117710441D01*
X125107226Y-117750810D01*
X124900294Y-117750810D01*
X124697344Y-117710441D01*
X124506168Y-117631253D01*
X124506167Y-117631253D01*
X124506166Y-117631252D01*
X124334112Y-117516289D01*
X124187791Y-117369968D01*
X124072828Y-117197914D01*
X124072827Y-117197912D01*
X123993639Y-117006736D01*
X123953270Y-116803786D01*
X123953270Y-116596854D01*
X123993639Y-116393904D01*
X124072827Y-116202728D01*
X124187791Y-116030672D01*
X124334112Y-115884351D01*
X124506166Y-115769388D01*
X124506168Y-115769387D01*
X124697344Y-115690199D01*
X124900294Y-115649830D01*
X125107226Y-115649830D01*
X125310176Y-115690199D01*
G37*
G36*
X170910176Y-115690199D02*
G01*
X171101352Y-115769387D01*
X171101354Y-115769388D01*
X171273408Y-115884351D01*
X171419729Y-116030672D01*
X171534693Y-116202728D01*
X171613881Y-116393904D01*
X171654250Y-116596854D01*
X171654250Y-116803786D01*
X171613881Y-117006736D01*
X171534693Y-117197912D01*
X171534692Y-117197914D01*
X171419729Y-117369968D01*
X171273408Y-117516289D01*
X171101354Y-117631252D01*
X171101353Y-117631253D01*
X171101352Y-117631253D01*
X170910176Y-117710441D01*
X170707226Y-117750810D01*
X170500294Y-117750810D01*
X170297344Y-117710441D01*
X170106168Y-117631253D01*
X170106167Y-117631253D01*
X170106166Y-117631252D01*
X169934112Y-117516289D01*
X169787791Y-117369968D01*
X169672828Y-117197914D01*
X169672827Y-117197912D01*
X169593639Y-117006736D01*
X169553270Y-116803786D01*
X169553270Y-116596854D01*
X169593639Y-116393904D01*
X169672827Y-116202728D01*
X169787791Y-116030672D01*
X169934112Y-115884351D01*
X170106166Y-115769388D01*
X170106168Y-115769387D01*
X170297344Y-115690199D01*
X170500294Y-115649830D01*
X170707226Y-115649830D01*
X170910176Y-115690199D01*
G37*
G36*
X116710176Y-115690199D02*
G01*
X116901352Y-115769387D01*
X116901354Y-115769388D01*
X117073408Y-115884351D01*
X117219729Y-116030672D01*
X117334693Y-116202728D01*
X117413881Y-116393904D01*
X117454250Y-116596854D01*
X117454250Y-116803786D01*
X117413881Y-117006736D01*
X117334693Y-117197912D01*
X117334692Y-117197914D01*
X117219729Y-117369968D01*
X117073408Y-117516289D01*
X116901354Y-117631252D01*
X116901353Y-117631253D01*
X116901352Y-117631253D01*
X116710176Y-117710441D01*
X116507226Y-117750810D01*
X116300294Y-117750810D01*
X116097344Y-117710441D01*
X115906168Y-117631253D01*
X115906167Y-117631253D01*
X115906166Y-117631252D01*
X115734112Y-117516289D01*
X115587791Y-117369968D01*
X115472828Y-117197914D01*
X115472827Y-117197912D01*
X115393639Y-117006736D01*
X115353270Y-116803786D01*
X115353270Y-116596854D01*
X115393639Y-116393904D01*
X115472827Y-116202728D01*
X115587791Y-116030672D01*
X115734112Y-115884351D01*
X115906166Y-115769388D01*
X115906168Y-115769387D01*
X116097344Y-115690199D01*
X116300294Y-115649830D01*
X116507226Y-115649830D01*
X116710176Y-115690199D01*
G37*
G36*
X147110176Y-115690199D02*
G01*
X147301352Y-115769387D01*
X147301354Y-115769388D01*
X147473408Y-115884351D01*
X147619729Y-116030672D01*
X147734693Y-116202728D01*
X147813881Y-116393904D01*
X147854250Y-116596854D01*
X147854250Y-116803786D01*
X147813881Y-117006736D01*
X147734693Y-117197912D01*
X147734692Y-117197914D01*
X147619729Y-117369968D01*
X147473408Y-117516289D01*
X147301354Y-117631252D01*
X147301353Y-117631253D01*
X147301352Y-117631253D01*
X147110176Y-117710441D01*
X146907226Y-117750810D01*
X146700294Y-117750810D01*
X146497344Y-117710441D01*
X146306168Y-117631253D01*
X146306167Y-117631253D01*
X146306166Y-117631252D01*
X146134112Y-117516289D01*
X145987791Y-117369968D01*
X145872828Y-117197914D01*
X145872827Y-117197912D01*
X145793639Y-117006736D01*
X145753270Y-116803786D01*
X145753270Y-116596854D01*
X145793639Y-116393904D01*
X145872827Y-116202728D01*
X145987791Y-116030672D01*
X146134112Y-115884351D01*
X146306166Y-115769388D01*
X146306168Y-115769387D01*
X146497344Y-115690199D01*
X146700294Y-115649830D01*
X146907226Y-115649830D01*
X147110176Y-115690199D01*
G37*
G36*
X177510176Y-115690199D02*
G01*
X177701352Y-115769387D01*
X177701354Y-115769388D01*
X177873408Y-115884351D01*
X178019729Y-116030672D01*
X178134693Y-116202728D01*
X178213881Y-116393904D01*
X178254250Y-116596854D01*
X178254250Y-116803786D01*
X178213881Y-117006736D01*
X178134693Y-117197912D01*
X178134692Y-117197914D01*
X178019729Y-117369968D01*
X177873408Y-117516289D01*
X177701354Y-117631252D01*
X177701353Y-117631253D01*
X177701352Y-117631253D01*
X177510176Y-117710441D01*
X177307226Y-117750810D01*
X177100294Y-117750810D01*
X176897344Y-117710441D01*
X176706168Y-117631253D01*
X176706167Y-117631253D01*
X176706166Y-117631252D01*
X176534112Y-117516289D01*
X176387791Y-117369968D01*
X176272828Y-117197914D01*
X176272827Y-117197912D01*
X176193639Y-117006736D01*
X176153270Y-116803786D01*
X176153270Y-116596854D01*
X176193639Y-116393904D01*
X176272827Y-116202728D01*
X176387791Y-116030672D01*
X176534112Y-115884351D01*
X176706166Y-115769388D01*
X176706168Y-115769387D01*
X176897344Y-115690199D01*
X177100294Y-115649830D01*
X177307226Y-115649830D01*
X177510176Y-115690199D01*
G37*
G36*
X201310176Y-115690199D02*
G01*
X201501352Y-115769387D01*
X201501354Y-115769388D01*
X201673408Y-115884351D01*
X201819729Y-116030672D01*
X201934693Y-116202728D01*
X202013881Y-116393904D01*
X202054250Y-116596854D01*
X202054250Y-116803786D01*
X202013881Y-117006736D01*
X201934693Y-117197912D01*
X201934692Y-117197914D01*
X201819729Y-117369968D01*
X201673408Y-117516289D01*
X201501354Y-117631252D01*
X201501353Y-117631253D01*
X201501352Y-117631253D01*
X201310176Y-117710441D01*
X201107226Y-117750810D01*
X200900294Y-117750810D01*
X200697344Y-117710441D01*
X200506168Y-117631253D01*
X200506167Y-117631253D01*
X200506166Y-117631252D01*
X200334112Y-117516289D01*
X200187791Y-117369968D01*
X200072828Y-117197914D01*
X200072827Y-117197912D01*
X199993639Y-117006736D01*
X199953270Y-116803786D01*
X199953270Y-116596854D01*
X199993639Y-116393904D01*
X200072827Y-116202728D01*
X200187791Y-116030672D01*
X200334112Y-115884351D01*
X200506166Y-115769388D01*
X200506168Y-115769387D01*
X200697344Y-115690199D01*
X200900294Y-115649830D01*
X201107226Y-115649830D01*
X201310176Y-115690199D01*
G37*
G36*
X192710176Y-115690199D02*
G01*
X192901352Y-115769387D01*
X192901354Y-115769388D01*
X193073408Y-115884351D01*
X193219729Y-116030672D01*
X193334693Y-116202728D01*
X193413881Y-116393904D01*
X193454250Y-116596854D01*
X193454250Y-116803786D01*
X193413881Y-117006736D01*
X193334693Y-117197912D01*
X193334692Y-117197914D01*
X193219729Y-117369968D01*
X193073408Y-117516289D01*
X192901354Y-117631252D01*
X192901353Y-117631253D01*
X192901352Y-117631253D01*
X192710176Y-117710441D01*
X192507226Y-117750810D01*
X192300294Y-117750810D01*
X192097344Y-117710441D01*
X191906168Y-117631253D01*
X191906167Y-117631253D01*
X191906166Y-117631252D01*
X191734112Y-117516289D01*
X191587791Y-117369968D01*
X191472828Y-117197914D01*
X191472827Y-117197912D01*
X191393639Y-117006736D01*
X191353270Y-116803786D01*
X191353270Y-116596854D01*
X191393639Y-116393904D01*
X191472827Y-116202728D01*
X191587791Y-116030672D01*
X191734112Y-115884351D01*
X191906166Y-115769388D01*
X191906168Y-115769387D01*
X192097344Y-115690199D01*
X192300294Y-115649830D01*
X192507226Y-115649830D01*
X192710176Y-115690199D01*
G37*
G36*
X186110176Y-115690199D02*
G01*
X186301352Y-115769387D01*
X186301354Y-115769388D01*
X186473408Y-115884351D01*
X186619729Y-116030672D01*
X186734693Y-116202728D01*
X186813881Y-116393904D01*
X186854250Y-116596854D01*
X186854250Y-116803786D01*
X186813881Y-117006736D01*
X186734693Y-117197912D01*
X186734692Y-117197914D01*
X186619729Y-117369968D01*
X186473408Y-117516289D01*
X186301354Y-117631252D01*
X186301353Y-117631253D01*
X186301352Y-117631253D01*
X186110176Y-117710441D01*
X185907226Y-117750810D01*
X185700294Y-117750810D01*
X185497344Y-117710441D01*
X185306168Y-117631253D01*
X185306167Y-117631253D01*
X185306166Y-117631252D01*
X185134112Y-117516289D01*
X184987791Y-117369968D01*
X184872828Y-117197914D01*
X184872827Y-117197912D01*
X184793639Y-117006736D01*
X184753270Y-116803786D01*
X184753270Y-116596854D01*
X184793639Y-116393904D01*
X184872827Y-116202728D01*
X184987791Y-116030672D01*
X185134112Y-115884351D01*
X185306166Y-115769388D01*
X185306168Y-115769387D01*
X185497344Y-115690199D01*
X185700294Y-115649830D01*
X185907226Y-115649830D01*
X186110176Y-115690199D01*
G37*
G36*
X155710176Y-115690199D02*
G01*
X155901352Y-115769387D01*
X155901354Y-115769388D01*
X156073408Y-115884351D01*
X156219729Y-116030672D01*
X156334693Y-116202728D01*
X156413881Y-116393904D01*
X156454250Y-116596854D01*
X156454250Y-116803786D01*
X156413881Y-117006736D01*
X156334693Y-117197912D01*
X156334692Y-117197914D01*
X156219729Y-117369968D01*
X156073408Y-117516289D01*
X155901354Y-117631252D01*
X155901353Y-117631253D01*
X155901352Y-117631253D01*
X155710176Y-117710441D01*
X155507226Y-117750810D01*
X155300294Y-117750810D01*
X155097344Y-117710441D01*
X154906168Y-117631253D01*
X154906167Y-117631253D01*
X154906166Y-117631252D01*
X154734112Y-117516289D01*
X154587791Y-117369968D01*
X154472828Y-117197914D01*
X154472827Y-117197912D01*
X154393639Y-117006736D01*
X154353270Y-116803786D01*
X154353270Y-116596854D01*
X154393639Y-116393904D01*
X154472827Y-116202728D01*
X154587791Y-116030672D01*
X154734112Y-115884351D01*
X154906166Y-115769388D01*
X154906168Y-115769387D01*
X155097344Y-115690199D01*
X155300294Y-115649830D01*
X155507226Y-115649830D01*
X155710176Y-115690199D01*
G37*
G36*
X140510176Y-115690199D02*
G01*
X140701352Y-115769387D01*
X140701354Y-115769388D01*
X140873408Y-115884351D01*
X141019729Y-116030672D01*
X141134693Y-116202728D01*
X141213881Y-116393904D01*
X141254250Y-116596854D01*
X141254250Y-116803786D01*
X141213881Y-117006736D01*
X141134693Y-117197912D01*
X141134692Y-117197914D01*
X141019729Y-117369968D01*
X140873408Y-117516289D01*
X140701354Y-117631252D01*
X140701353Y-117631253D01*
X140701352Y-117631253D01*
X140510176Y-117710441D01*
X140307226Y-117750810D01*
X140100294Y-117750810D01*
X139897344Y-117710441D01*
X139706168Y-117631253D01*
X139706167Y-117631253D01*
X139706166Y-117631252D01*
X139534112Y-117516289D01*
X139387791Y-117369968D01*
X139272828Y-117197914D01*
X139272827Y-117197912D01*
X139193639Y-117006736D01*
X139153270Y-116803786D01*
X139153270Y-116596854D01*
X139193639Y-116393904D01*
X139272827Y-116202728D01*
X139387791Y-116030672D01*
X139534112Y-115884351D01*
X139706166Y-115769388D01*
X139706168Y-115769387D01*
X139897344Y-115690199D01*
X140100294Y-115649830D01*
X140307226Y-115649830D01*
X140510176Y-115690199D01*
G37*
G36*
X131910176Y-115690199D02*
G01*
X132101352Y-115769387D01*
X132101354Y-115769388D01*
X132273408Y-115884351D01*
X132419729Y-116030672D01*
X132534693Y-116202728D01*
X132613881Y-116393904D01*
X132654250Y-116596854D01*
X132654250Y-116803786D01*
X132613881Y-117006736D01*
X132534693Y-117197912D01*
X132534692Y-117197914D01*
X132419729Y-117369968D01*
X132273408Y-117516289D01*
X132101354Y-117631252D01*
X132101353Y-117631253D01*
X132101352Y-117631253D01*
X131910176Y-117710441D01*
X131707226Y-117750810D01*
X131500294Y-117750810D01*
X131297344Y-117710441D01*
X131106168Y-117631253D01*
X131106167Y-117631253D01*
X131106166Y-117631252D01*
X130934112Y-117516289D01*
X130787791Y-117369968D01*
X130672828Y-117197914D01*
X130672827Y-117197912D01*
X130593639Y-117006736D01*
X130553270Y-116803786D01*
X130553270Y-116596854D01*
X130593639Y-116393904D01*
X130672827Y-116202728D01*
X130787791Y-116030672D01*
X130934112Y-115884351D01*
X131106166Y-115769388D01*
X131106168Y-115769387D01*
X131297344Y-115690199D01*
X131500294Y-115649830D01*
X131707226Y-115649830D01*
X131910176Y-115690199D01*
G37*
G36*
X186110176Y-109090199D02*
G01*
X186301352Y-109169387D01*
X186301354Y-109169388D01*
X186473408Y-109284351D01*
X186619729Y-109430672D01*
X186734693Y-109602728D01*
X186813881Y-109793904D01*
X186854250Y-109996854D01*
X186854250Y-110203786D01*
X186813881Y-110406736D01*
X186734693Y-110597912D01*
X186734692Y-110597914D01*
X186619729Y-110769968D01*
X186473408Y-110916289D01*
X186301354Y-111031252D01*
X186301353Y-111031253D01*
X186301352Y-111031253D01*
X186110176Y-111110441D01*
X185907226Y-111150810D01*
X185700294Y-111150810D01*
X185497344Y-111110441D01*
X185306168Y-111031253D01*
X185306167Y-111031253D01*
X185306166Y-111031252D01*
X185134112Y-110916289D01*
X184987791Y-110769968D01*
X184872828Y-110597914D01*
X184872827Y-110597912D01*
X184793639Y-110406736D01*
X184753270Y-110203786D01*
X184753270Y-109996854D01*
X184793639Y-109793904D01*
X184872827Y-109602728D01*
X184987791Y-109430672D01*
X185134112Y-109284351D01*
X185306166Y-109169388D01*
X185306168Y-109169387D01*
X185497344Y-109090199D01*
X185700294Y-109049830D01*
X185907226Y-109049830D01*
X186110176Y-109090199D01*
G37*
G36*
X192710176Y-109090199D02*
G01*
X192901352Y-109169387D01*
X192901354Y-109169388D01*
X193073408Y-109284351D01*
X193219729Y-109430672D01*
X193334693Y-109602728D01*
X193413881Y-109793904D01*
X193454250Y-109996854D01*
X193454250Y-110203786D01*
X193413881Y-110406736D01*
X193334693Y-110597912D01*
X193334692Y-110597914D01*
X193219729Y-110769968D01*
X193073408Y-110916289D01*
X192901354Y-111031252D01*
X192901353Y-111031253D01*
X192901352Y-111031253D01*
X192710176Y-111110441D01*
X192507226Y-111150810D01*
X192300294Y-111150810D01*
X192097344Y-111110441D01*
X191906168Y-111031253D01*
X191906167Y-111031253D01*
X191906166Y-111031252D01*
X191734112Y-110916289D01*
X191587791Y-110769968D01*
X191472828Y-110597914D01*
X191472827Y-110597912D01*
X191393639Y-110406736D01*
X191353270Y-110203786D01*
X191353270Y-109996854D01*
X191393639Y-109793904D01*
X191472827Y-109602728D01*
X191587791Y-109430672D01*
X191734112Y-109284351D01*
X191906166Y-109169388D01*
X191906168Y-109169387D01*
X192097344Y-109090199D01*
X192300294Y-109049830D01*
X192507226Y-109049830D01*
X192710176Y-109090199D01*
G37*
G36*
X177510176Y-109090199D02*
G01*
X177701352Y-109169387D01*
X177701354Y-109169388D01*
X177873408Y-109284351D01*
X178019729Y-109430672D01*
X178134693Y-109602728D01*
X178213881Y-109793904D01*
X178254250Y-109996854D01*
X178254250Y-110203786D01*
X178213881Y-110406736D01*
X178134693Y-110597912D01*
X178134692Y-110597914D01*
X178019729Y-110769968D01*
X177873408Y-110916289D01*
X177701354Y-111031252D01*
X177701353Y-111031253D01*
X177701352Y-111031253D01*
X177510176Y-111110441D01*
X177307226Y-111150810D01*
X177100294Y-111150810D01*
X176897344Y-111110441D01*
X176706168Y-111031253D01*
X176706167Y-111031253D01*
X176706166Y-111031252D01*
X176534112Y-110916289D01*
X176387791Y-110769968D01*
X176272828Y-110597914D01*
X176272827Y-110597912D01*
X176193639Y-110406736D01*
X176153270Y-110203786D01*
X176153270Y-109996854D01*
X176193639Y-109793904D01*
X176272827Y-109602728D01*
X176387791Y-109430672D01*
X176534112Y-109284351D01*
X176706166Y-109169388D01*
X176706168Y-109169387D01*
X176897344Y-109090199D01*
X177100294Y-109049830D01*
X177307226Y-109049830D01*
X177510176Y-109090199D01*
G37*
G36*
X162310176Y-109090199D02*
G01*
X162501352Y-109169387D01*
X162501354Y-109169388D01*
X162673408Y-109284351D01*
X162819729Y-109430672D01*
X162934693Y-109602728D01*
X163013881Y-109793904D01*
X163054250Y-109996854D01*
X163054250Y-110203786D01*
X163013881Y-110406736D01*
X162934693Y-110597912D01*
X162934692Y-110597914D01*
X162819729Y-110769968D01*
X162673408Y-110916289D01*
X162501354Y-111031252D01*
X162501353Y-111031253D01*
X162501352Y-111031253D01*
X162310176Y-111110441D01*
X162107226Y-111150810D01*
X161900294Y-111150810D01*
X161697344Y-111110441D01*
X161506168Y-111031253D01*
X161506167Y-111031253D01*
X161506166Y-111031252D01*
X161334112Y-110916289D01*
X161187791Y-110769968D01*
X161072828Y-110597914D01*
X161072827Y-110597912D01*
X160993639Y-110406736D01*
X160953270Y-110203786D01*
X160953270Y-109996854D01*
X160993639Y-109793904D01*
X161072827Y-109602728D01*
X161187791Y-109430672D01*
X161334112Y-109284351D01*
X161506166Y-109169388D01*
X161506168Y-109169387D01*
X161697344Y-109090199D01*
X161900294Y-109049830D01*
X162107226Y-109049830D01*
X162310176Y-109090199D01*
G37*
G36*
X147110176Y-109090199D02*
G01*
X147301352Y-109169387D01*
X147301354Y-109169388D01*
X147473408Y-109284351D01*
X147619729Y-109430672D01*
X147734693Y-109602728D01*
X147813881Y-109793904D01*
X147854250Y-109996854D01*
X147854250Y-110203786D01*
X147813881Y-110406736D01*
X147734693Y-110597912D01*
X147734692Y-110597914D01*
X147619729Y-110769968D01*
X147473408Y-110916289D01*
X147301354Y-111031252D01*
X147301353Y-111031253D01*
X147301352Y-111031253D01*
X147110176Y-111110441D01*
X146907226Y-111150810D01*
X146700294Y-111150810D01*
X146497344Y-111110441D01*
X146306168Y-111031253D01*
X146306167Y-111031253D01*
X146306166Y-111031252D01*
X146134112Y-110916289D01*
X145987791Y-110769968D01*
X145872828Y-110597914D01*
X145872827Y-110597912D01*
X145793639Y-110406736D01*
X145753270Y-110203786D01*
X145753270Y-109996854D01*
X145793639Y-109793904D01*
X145872827Y-109602728D01*
X145987791Y-109430672D01*
X146134112Y-109284351D01*
X146306166Y-109169388D01*
X146306168Y-109169387D01*
X146497344Y-109090199D01*
X146700294Y-109049830D01*
X146907226Y-109049830D01*
X147110176Y-109090199D01*
G37*
G36*
X125310176Y-109090199D02*
G01*
X125501352Y-109169387D01*
X125501354Y-109169388D01*
X125673408Y-109284351D01*
X125819729Y-109430672D01*
X125934693Y-109602728D01*
X126013881Y-109793904D01*
X126054250Y-109996854D01*
X126054250Y-110203786D01*
X126013881Y-110406736D01*
X125934693Y-110597912D01*
X125934692Y-110597914D01*
X125819729Y-110769968D01*
X125673408Y-110916289D01*
X125501354Y-111031252D01*
X125501353Y-111031253D01*
X125501352Y-111031253D01*
X125310176Y-111110441D01*
X125107226Y-111150810D01*
X124900294Y-111150810D01*
X124697344Y-111110441D01*
X124506168Y-111031253D01*
X124506167Y-111031253D01*
X124506166Y-111031252D01*
X124334112Y-110916289D01*
X124187791Y-110769968D01*
X124072828Y-110597914D01*
X124072827Y-110597912D01*
X123993639Y-110406736D01*
X123953270Y-110203786D01*
X123953270Y-109996854D01*
X123993639Y-109793904D01*
X124072827Y-109602728D01*
X124187791Y-109430672D01*
X124334112Y-109284351D01*
X124506166Y-109169388D01*
X124506168Y-109169387D01*
X124697344Y-109090199D01*
X124900294Y-109049830D01*
X125107226Y-109049830D01*
X125310176Y-109090199D01*
G37*
G36*
X155710176Y-109090199D02*
G01*
X155901352Y-109169387D01*
X155901354Y-109169388D01*
X156073408Y-109284351D01*
X156219729Y-109430672D01*
X156334693Y-109602728D01*
X156413881Y-109793904D01*
X156454250Y-109996854D01*
X156454250Y-110203786D01*
X156413881Y-110406736D01*
X156334693Y-110597912D01*
X156334692Y-110597914D01*
X156219729Y-110769968D01*
X156073408Y-110916289D01*
X155901354Y-111031252D01*
X155901353Y-111031253D01*
X155901352Y-111031253D01*
X155710176Y-111110441D01*
X155507226Y-111150810D01*
X155300294Y-111150810D01*
X155097344Y-111110441D01*
X154906168Y-111031253D01*
X154906167Y-111031253D01*
X154906166Y-111031252D01*
X154734112Y-110916289D01*
X154587791Y-110769968D01*
X154472828Y-110597914D01*
X154472827Y-110597912D01*
X154393639Y-110406736D01*
X154353270Y-110203786D01*
X154353270Y-109996854D01*
X154393639Y-109793904D01*
X154472827Y-109602728D01*
X154587791Y-109430672D01*
X154734112Y-109284351D01*
X154906166Y-109169388D01*
X154906168Y-109169387D01*
X155097344Y-109090199D01*
X155300294Y-109049830D01*
X155507226Y-109049830D01*
X155710176Y-109090199D01*
G37*
G36*
X170910176Y-109090199D02*
G01*
X171101352Y-109169387D01*
X171101354Y-109169388D01*
X171273408Y-109284351D01*
X171419729Y-109430672D01*
X171534693Y-109602728D01*
X171613881Y-109793904D01*
X171654250Y-109996854D01*
X171654250Y-110203786D01*
X171613881Y-110406736D01*
X171534693Y-110597912D01*
X171534692Y-110597914D01*
X171419729Y-110769968D01*
X171273408Y-110916289D01*
X171101354Y-111031252D01*
X171101353Y-111031253D01*
X171101352Y-111031253D01*
X170910176Y-111110441D01*
X170707226Y-111150810D01*
X170500294Y-111150810D01*
X170297344Y-111110441D01*
X170106168Y-111031253D01*
X170106167Y-111031253D01*
X170106166Y-111031252D01*
X169934112Y-110916289D01*
X169787791Y-110769968D01*
X169672828Y-110597914D01*
X169672827Y-110597912D01*
X169593639Y-110406736D01*
X169553270Y-110203786D01*
X169553270Y-109996854D01*
X169593639Y-109793904D01*
X169672827Y-109602728D01*
X169787791Y-109430672D01*
X169934112Y-109284351D01*
X170106166Y-109169388D01*
X170106168Y-109169387D01*
X170297344Y-109090199D01*
X170500294Y-109049830D01*
X170707226Y-109049830D01*
X170910176Y-109090199D01*
G37*
G36*
X131910176Y-109090199D02*
G01*
X132101352Y-109169387D01*
X132101354Y-109169388D01*
X132273408Y-109284351D01*
X132419729Y-109430672D01*
X132534693Y-109602728D01*
X132613881Y-109793904D01*
X132654250Y-109996854D01*
X132654250Y-110203786D01*
X132613881Y-110406736D01*
X132534693Y-110597912D01*
X132534692Y-110597914D01*
X132419729Y-110769968D01*
X132273408Y-110916289D01*
X132101354Y-111031252D01*
X132101353Y-111031253D01*
X132101352Y-111031253D01*
X131910176Y-111110441D01*
X131707226Y-111150810D01*
X131500294Y-111150810D01*
X131297344Y-111110441D01*
X131106168Y-111031253D01*
X131106167Y-111031253D01*
X131106166Y-111031252D01*
X130934112Y-110916289D01*
X130787791Y-110769968D01*
X130672828Y-110597914D01*
X130672827Y-110597912D01*
X130593639Y-110406736D01*
X130553270Y-110203786D01*
X130553270Y-109996854D01*
X130593639Y-109793904D01*
X130672827Y-109602728D01*
X130787791Y-109430672D01*
X130934112Y-109284351D01*
X131106166Y-109169388D01*
X131106168Y-109169387D01*
X131297344Y-109090199D01*
X131500294Y-109049830D01*
X131707226Y-109049830D01*
X131910176Y-109090199D01*
G37*
G36*
X201310176Y-109090199D02*
G01*
X201501352Y-109169387D01*
X201501354Y-109169388D01*
X201673408Y-109284351D01*
X201819729Y-109430672D01*
X201934693Y-109602728D01*
X202013881Y-109793904D01*
X202054250Y-109996854D01*
X202054250Y-110203786D01*
X202013881Y-110406736D01*
X201934693Y-110597912D01*
X201934692Y-110597914D01*
X201819729Y-110769968D01*
X201673408Y-110916289D01*
X201501354Y-111031252D01*
X201501353Y-111031253D01*
X201501352Y-111031253D01*
X201310176Y-111110441D01*
X201107226Y-111150810D01*
X200900294Y-111150810D01*
X200697344Y-111110441D01*
X200506168Y-111031253D01*
X200506167Y-111031253D01*
X200506166Y-111031252D01*
X200334112Y-110916289D01*
X200187791Y-110769968D01*
X200072828Y-110597914D01*
X200072827Y-110597912D01*
X199993639Y-110406736D01*
X199953270Y-110203786D01*
X199953270Y-109996854D01*
X199993639Y-109793904D01*
X200072827Y-109602728D01*
X200187791Y-109430672D01*
X200334112Y-109284351D01*
X200506166Y-109169388D01*
X200506168Y-109169387D01*
X200697344Y-109090199D01*
X200900294Y-109049830D01*
X201107226Y-109049830D01*
X201310176Y-109090199D01*
G37*
G36*
X116710176Y-109090199D02*
G01*
X116901352Y-109169387D01*
X116901354Y-109169388D01*
X117073408Y-109284351D01*
X117219729Y-109430672D01*
X117334693Y-109602728D01*
X117413881Y-109793904D01*
X117454250Y-109996854D01*
X117454250Y-110203786D01*
X117413881Y-110406736D01*
X117334693Y-110597912D01*
X117334692Y-110597914D01*
X117219729Y-110769968D01*
X117073408Y-110916289D01*
X116901354Y-111031252D01*
X116901353Y-111031253D01*
X116901352Y-111031253D01*
X116710176Y-111110441D01*
X116507226Y-111150810D01*
X116300294Y-111150810D01*
X116097344Y-111110441D01*
X115906168Y-111031253D01*
X115906167Y-111031253D01*
X115906166Y-111031252D01*
X115734112Y-110916289D01*
X115587791Y-110769968D01*
X115472828Y-110597914D01*
X115472827Y-110597912D01*
X115393639Y-110406736D01*
X115353270Y-110203786D01*
X115353270Y-109996854D01*
X115393639Y-109793904D01*
X115472827Y-109602728D01*
X115587791Y-109430672D01*
X115734112Y-109284351D01*
X115906166Y-109169388D01*
X115906168Y-109169387D01*
X116097344Y-109090199D01*
X116300294Y-109049830D01*
X116507226Y-109049830D01*
X116710176Y-109090199D01*
G37*
G36*
X140510176Y-109090199D02*
G01*
X140701352Y-109169387D01*
X140701354Y-109169388D01*
X140873408Y-109284351D01*
X141019729Y-109430672D01*
X141134693Y-109602728D01*
X141213881Y-109793904D01*
X141254250Y-109996854D01*
X141254250Y-110203786D01*
X141213881Y-110406736D01*
X141134693Y-110597912D01*
X141134692Y-110597914D01*
X141019729Y-110769968D01*
X140873408Y-110916289D01*
X140701354Y-111031252D01*
X140701353Y-111031253D01*
X140701352Y-111031253D01*
X140510176Y-111110441D01*
X140307226Y-111150810D01*
X140100294Y-111150810D01*
X139897344Y-111110441D01*
X139706168Y-111031253D01*
X139706167Y-111031253D01*
X139706166Y-111031252D01*
X139534112Y-110916289D01*
X139387791Y-110769968D01*
X139272828Y-110597914D01*
X139272827Y-110597912D01*
X139193639Y-110406736D01*
X139153270Y-110203786D01*
X139153270Y-109996854D01*
X139193639Y-109793904D01*
X139272827Y-109602728D01*
X139387791Y-109430672D01*
X139534112Y-109284351D01*
X139706166Y-109169388D01*
X139706168Y-109169387D01*
X139897344Y-109090199D01*
X140100294Y-109049830D01*
X140307226Y-109049830D01*
X140510176Y-109090199D01*
G37*
G36*
X151410176Y-104790199D02*
G01*
X151601352Y-104869387D01*
X151601354Y-104869388D01*
X151773408Y-104984351D01*
X151919729Y-105130672D01*
X152034693Y-105302728D01*
X152113881Y-105493904D01*
X152154250Y-105696854D01*
X152154250Y-105903786D01*
X152113881Y-106106736D01*
X152034693Y-106297912D01*
X152034692Y-106297914D01*
X151919729Y-106469968D01*
X151773408Y-106616289D01*
X151601354Y-106731252D01*
X151601353Y-106731253D01*
X151601352Y-106731253D01*
X151410176Y-106810441D01*
X151207226Y-106850810D01*
X151000294Y-106850810D01*
X150797344Y-106810441D01*
X150606168Y-106731253D01*
X150606167Y-106731253D01*
X150606166Y-106731252D01*
X150434112Y-106616289D01*
X150287791Y-106469968D01*
X150172828Y-106297914D01*
X150172827Y-106297912D01*
X150093639Y-106106736D01*
X150053270Y-105903786D01*
X150053270Y-105696854D01*
X150093639Y-105493904D01*
X150172827Y-105302728D01*
X150287791Y-105130672D01*
X150434112Y-104984351D01*
X150606166Y-104869388D01*
X150606168Y-104869387D01*
X150797344Y-104790199D01*
X151000294Y-104749830D01*
X151207226Y-104749830D01*
X151410176Y-104790199D01*
G37*
G36*
X181810176Y-104790199D02*
G01*
X182001352Y-104869387D01*
X182001354Y-104869388D01*
X182173408Y-104984351D01*
X182319729Y-105130672D01*
X182434693Y-105302728D01*
X182513881Y-105493904D01*
X182554250Y-105696854D01*
X182554250Y-105903786D01*
X182513881Y-106106736D01*
X182434693Y-106297912D01*
X182434692Y-106297914D01*
X182319729Y-106469968D01*
X182173408Y-106616289D01*
X182001354Y-106731252D01*
X182001353Y-106731253D01*
X182001352Y-106731253D01*
X181810176Y-106810441D01*
X181607226Y-106850810D01*
X181400294Y-106850810D01*
X181197344Y-106810441D01*
X181006168Y-106731253D01*
X181006167Y-106731253D01*
X181006166Y-106731252D01*
X180834112Y-106616289D01*
X180687791Y-106469968D01*
X180572828Y-106297914D01*
X180572827Y-106297912D01*
X180493639Y-106106736D01*
X180453270Y-105903786D01*
X180453270Y-105696854D01*
X180493639Y-105493904D01*
X180572827Y-105302728D01*
X180687791Y-105130672D01*
X180834112Y-104984351D01*
X181006166Y-104869388D01*
X181006168Y-104869387D01*
X181197344Y-104790199D01*
X181400294Y-104749830D01*
X181607226Y-104749830D01*
X181810176Y-104790199D01*
G37*
G36*
X166610176Y-104790199D02*
G01*
X166801352Y-104869387D01*
X166801354Y-104869388D01*
X166973408Y-104984351D01*
X167119729Y-105130672D01*
X167234693Y-105302728D01*
X167313881Y-105493904D01*
X167354250Y-105696854D01*
X167354250Y-105903786D01*
X167313881Y-106106736D01*
X167234693Y-106297912D01*
X167234692Y-106297914D01*
X167119729Y-106469968D01*
X166973408Y-106616289D01*
X166801354Y-106731252D01*
X166801353Y-106731253D01*
X166801352Y-106731253D01*
X166610176Y-106810441D01*
X166407226Y-106850810D01*
X166200294Y-106850810D01*
X165997344Y-106810441D01*
X165806168Y-106731253D01*
X165806167Y-106731253D01*
X165806166Y-106731252D01*
X165634112Y-106616289D01*
X165487791Y-106469968D01*
X165372828Y-106297914D01*
X165372827Y-106297912D01*
X165293639Y-106106736D01*
X165253270Y-105903786D01*
X165253270Y-105696854D01*
X165293639Y-105493904D01*
X165372827Y-105302728D01*
X165487791Y-105130672D01*
X165634112Y-104984351D01*
X165806166Y-104869388D01*
X165806168Y-104869387D01*
X165997344Y-104790199D01*
X166200294Y-104749830D01*
X166407226Y-104749830D01*
X166610176Y-104790199D01*
G37*
G36*
X136210176Y-104790199D02*
G01*
X136401352Y-104869387D01*
X136401354Y-104869388D01*
X136573408Y-104984351D01*
X136719729Y-105130672D01*
X136834693Y-105302728D01*
X136913881Y-105493904D01*
X136954250Y-105696854D01*
X136954250Y-105903786D01*
X136913881Y-106106736D01*
X136834693Y-106297912D01*
X136834692Y-106297914D01*
X136719729Y-106469968D01*
X136573408Y-106616289D01*
X136401354Y-106731252D01*
X136401353Y-106731253D01*
X136401352Y-106731253D01*
X136210176Y-106810441D01*
X136007226Y-106850810D01*
X135800294Y-106850810D01*
X135597344Y-106810441D01*
X135406168Y-106731253D01*
X135406167Y-106731253D01*
X135406166Y-106731252D01*
X135234112Y-106616289D01*
X135087791Y-106469968D01*
X134972828Y-106297914D01*
X134972827Y-106297912D01*
X134893639Y-106106736D01*
X134853270Y-105903786D01*
X134853270Y-105696854D01*
X134893639Y-105493904D01*
X134972827Y-105302728D01*
X135087791Y-105130672D01*
X135234112Y-104984351D01*
X135406166Y-104869388D01*
X135406168Y-104869387D01*
X135597344Y-104790199D01*
X135800294Y-104749830D01*
X136007226Y-104749830D01*
X136210176Y-104790199D01*
G37*
G36*
X121010176Y-104790199D02*
G01*
X121201352Y-104869387D01*
X121201354Y-104869388D01*
X121373408Y-104984351D01*
X121519729Y-105130672D01*
X121634693Y-105302728D01*
X121713881Y-105493904D01*
X121754250Y-105696854D01*
X121754250Y-105903786D01*
X121713881Y-106106736D01*
X121634693Y-106297912D01*
X121634692Y-106297914D01*
X121519729Y-106469968D01*
X121373408Y-106616289D01*
X121201354Y-106731252D01*
X121201353Y-106731253D01*
X121201352Y-106731253D01*
X121010176Y-106810441D01*
X120807226Y-106850810D01*
X120600294Y-106850810D01*
X120397344Y-106810441D01*
X120206168Y-106731253D01*
X120206167Y-106731253D01*
X120206166Y-106731252D01*
X120034112Y-106616289D01*
X119887791Y-106469968D01*
X119772828Y-106297914D01*
X119772827Y-106297912D01*
X119693639Y-106106736D01*
X119653270Y-105903786D01*
X119653270Y-105696854D01*
X119693639Y-105493904D01*
X119772827Y-105302728D01*
X119887791Y-105130672D01*
X120034112Y-104984351D01*
X120206166Y-104869388D01*
X120206168Y-104869387D01*
X120397344Y-104790199D01*
X120600294Y-104749830D01*
X120807226Y-104749830D01*
X121010176Y-104790199D01*
G37*
G36*
X197010176Y-104790199D02*
G01*
X197201352Y-104869387D01*
X197201354Y-104869388D01*
X197373408Y-104984351D01*
X197519729Y-105130672D01*
X197634693Y-105302728D01*
X197713881Y-105493904D01*
X197754250Y-105696854D01*
X197754250Y-105903786D01*
X197713881Y-106106736D01*
X197634693Y-106297912D01*
X197634692Y-106297914D01*
X197519729Y-106469968D01*
X197373408Y-106616289D01*
X197201354Y-106731252D01*
X197201353Y-106731253D01*
X197201352Y-106731253D01*
X197010176Y-106810441D01*
X196807226Y-106850810D01*
X196600294Y-106850810D01*
X196397344Y-106810441D01*
X196206168Y-106731253D01*
X196206167Y-106731253D01*
X196206166Y-106731252D01*
X196034112Y-106616289D01*
X195887791Y-106469968D01*
X195772828Y-106297914D01*
X195772827Y-106297912D01*
X195693639Y-106106736D01*
X195653270Y-105903786D01*
X195653270Y-105696854D01*
X195693639Y-105493904D01*
X195772827Y-105302728D01*
X195887791Y-105130672D01*
X196034112Y-104984351D01*
X196206166Y-104869388D01*
X196206168Y-104869387D01*
X196397344Y-104790199D01*
X196600294Y-104749830D01*
X196807226Y-104749830D01*
X197010176Y-104790199D01*
G37*
G36*
X162310176Y-100490199D02*
G01*
X162501352Y-100569387D01*
X162501354Y-100569388D01*
X162673408Y-100684351D01*
X162819729Y-100830672D01*
X162934693Y-101002728D01*
X163013881Y-101193904D01*
X163054250Y-101396854D01*
X163054250Y-101603786D01*
X163013881Y-101806736D01*
X162934693Y-101997912D01*
X162934692Y-101997914D01*
X162819729Y-102169968D01*
X162673408Y-102316289D01*
X162501354Y-102431252D01*
X162501353Y-102431253D01*
X162501352Y-102431253D01*
X162310176Y-102510441D01*
X162107226Y-102550810D01*
X161900294Y-102550810D01*
X161697344Y-102510441D01*
X161506168Y-102431253D01*
X161506167Y-102431253D01*
X161506166Y-102431252D01*
X161334112Y-102316289D01*
X161187791Y-102169968D01*
X161072828Y-101997914D01*
X161072827Y-101997912D01*
X160993639Y-101806736D01*
X160953270Y-101603786D01*
X160953270Y-101396854D01*
X160993639Y-101193904D01*
X161072827Y-101002728D01*
X161187791Y-100830672D01*
X161334112Y-100684351D01*
X161506166Y-100569388D01*
X161506168Y-100569387D01*
X161697344Y-100490199D01*
X161900294Y-100449830D01*
X162107226Y-100449830D01*
X162310176Y-100490199D01*
G37*
G36*
X116710176Y-100490199D02*
G01*
X116901352Y-100569387D01*
X116901354Y-100569388D01*
X117073408Y-100684351D01*
X117219729Y-100830672D01*
X117334693Y-101002728D01*
X117413881Y-101193904D01*
X117454250Y-101396854D01*
X117454250Y-101603786D01*
X117413881Y-101806736D01*
X117334693Y-101997912D01*
X117334692Y-101997914D01*
X117219729Y-102169968D01*
X117073408Y-102316289D01*
X116901354Y-102431252D01*
X116901353Y-102431253D01*
X116901352Y-102431253D01*
X116710176Y-102510441D01*
X116507226Y-102550810D01*
X116300294Y-102550810D01*
X116097344Y-102510441D01*
X115906168Y-102431253D01*
X115906167Y-102431253D01*
X115906166Y-102431252D01*
X115734112Y-102316289D01*
X115587791Y-102169968D01*
X115472828Y-101997914D01*
X115472827Y-101997912D01*
X115393639Y-101806736D01*
X115353270Y-101603786D01*
X115353270Y-101396854D01*
X115393639Y-101193904D01*
X115472827Y-101002728D01*
X115587791Y-100830672D01*
X115734112Y-100684351D01*
X115906166Y-100569388D01*
X115906168Y-100569387D01*
X116097344Y-100490199D01*
X116300294Y-100449830D01*
X116507226Y-100449830D01*
X116710176Y-100490199D01*
G37*
G36*
X125310176Y-100490199D02*
G01*
X125501352Y-100569387D01*
X125501354Y-100569388D01*
X125673408Y-100684351D01*
X125819729Y-100830672D01*
X125934693Y-101002728D01*
X126013881Y-101193904D01*
X126054250Y-101396854D01*
X126054250Y-101603786D01*
X126013881Y-101806736D01*
X125934693Y-101997912D01*
X125934692Y-101997914D01*
X125819729Y-102169968D01*
X125673408Y-102316289D01*
X125501354Y-102431252D01*
X125501353Y-102431253D01*
X125501352Y-102431253D01*
X125310176Y-102510441D01*
X125107226Y-102550810D01*
X124900294Y-102550810D01*
X124697344Y-102510441D01*
X124506168Y-102431253D01*
X124506167Y-102431253D01*
X124506166Y-102431252D01*
X124334112Y-102316289D01*
X124187791Y-102169968D01*
X124072828Y-101997914D01*
X124072827Y-101997912D01*
X123993639Y-101806736D01*
X123953270Y-101603786D01*
X123953270Y-101396854D01*
X123993639Y-101193904D01*
X124072827Y-101002728D01*
X124187791Y-100830672D01*
X124334112Y-100684351D01*
X124506166Y-100569388D01*
X124506168Y-100569387D01*
X124697344Y-100490199D01*
X124900294Y-100449830D01*
X125107226Y-100449830D01*
X125310176Y-100490199D01*
G37*
G36*
X140510176Y-100490199D02*
G01*
X140701352Y-100569387D01*
X140701354Y-100569388D01*
X140873408Y-100684351D01*
X141019729Y-100830672D01*
X141134693Y-101002728D01*
X141213881Y-101193904D01*
X141254250Y-101396854D01*
X141254250Y-101603786D01*
X141213881Y-101806736D01*
X141134693Y-101997912D01*
X141134692Y-101997914D01*
X141019729Y-102169968D01*
X140873408Y-102316289D01*
X140701354Y-102431252D01*
X140701353Y-102431253D01*
X140701352Y-102431253D01*
X140510176Y-102510441D01*
X140307226Y-102550810D01*
X140100294Y-102550810D01*
X139897344Y-102510441D01*
X139706168Y-102431253D01*
X139706167Y-102431253D01*
X139706166Y-102431252D01*
X139534112Y-102316289D01*
X139387791Y-102169968D01*
X139272828Y-101997914D01*
X139272827Y-101997912D01*
X139193639Y-101806736D01*
X139153270Y-101603786D01*
X139153270Y-101396854D01*
X139193639Y-101193904D01*
X139272827Y-101002728D01*
X139387791Y-100830672D01*
X139534112Y-100684351D01*
X139706166Y-100569388D01*
X139706168Y-100569387D01*
X139897344Y-100490199D01*
X140100294Y-100449830D01*
X140307226Y-100449830D01*
X140510176Y-100490199D01*
G37*
G36*
X201310176Y-100490199D02*
G01*
X201501352Y-100569387D01*
X201501354Y-100569388D01*
X201673408Y-100684351D01*
X201819729Y-100830672D01*
X201934693Y-101002728D01*
X202013881Y-101193904D01*
X202054250Y-101396854D01*
X202054250Y-101603786D01*
X202013881Y-101806736D01*
X201934693Y-101997912D01*
X201934692Y-101997914D01*
X201819729Y-102169968D01*
X201673408Y-102316289D01*
X201501354Y-102431252D01*
X201501353Y-102431253D01*
X201501352Y-102431253D01*
X201310176Y-102510441D01*
X201107226Y-102550810D01*
X200900294Y-102550810D01*
X200697344Y-102510441D01*
X200506168Y-102431253D01*
X200506167Y-102431253D01*
X200506166Y-102431252D01*
X200334112Y-102316289D01*
X200187791Y-102169968D01*
X200072828Y-101997914D01*
X200072827Y-101997912D01*
X199993639Y-101806736D01*
X199953270Y-101603786D01*
X199953270Y-101396854D01*
X199993639Y-101193904D01*
X200072827Y-101002728D01*
X200187791Y-100830672D01*
X200334112Y-100684351D01*
X200506166Y-100569388D01*
X200506168Y-100569387D01*
X200697344Y-100490199D01*
X200900294Y-100449830D01*
X201107226Y-100449830D01*
X201310176Y-100490199D01*
G37*
G36*
X192710176Y-100490199D02*
G01*
X192901352Y-100569387D01*
X192901354Y-100569388D01*
X193073408Y-100684351D01*
X193219729Y-100830672D01*
X193334693Y-101002728D01*
X193413881Y-101193904D01*
X193454250Y-101396854D01*
X193454250Y-101603786D01*
X193413881Y-101806736D01*
X193334693Y-101997912D01*
X193334692Y-101997914D01*
X193219729Y-102169968D01*
X193073408Y-102316289D01*
X192901354Y-102431252D01*
X192901353Y-102431253D01*
X192901352Y-102431253D01*
X192710176Y-102510441D01*
X192507226Y-102550810D01*
X192300294Y-102550810D01*
X192097344Y-102510441D01*
X191906168Y-102431253D01*
X191906167Y-102431253D01*
X191906166Y-102431252D01*
X191734112Y-102316289D01*
X191587791Y-102169968D01*
X191472828Y-101997914D01*
X191472827Y-101997912D01*
X191393639Y-101806736D01*
X191353270Y-101603786D01*
X191353270Y-101396854D01*
X191393639Y-101193904D01*
X191472827Y-101002728D01*
X191587791Y-100830672D01*
X191734112Y-100684351D01*
X191906166Y-100569388D01*
X191906168Y-100569387D01*
X192097344Y-100490199D01*
X192300294Y-100449830D01*
X192507226Y-100449830D01*
X192710176Y-100490199D01*
G37*
G36*
X186110176Y-100490199D02*
G01*
X186301352Y-100569387D01*
X186301354Y-100569388D01*
X186473408Y-100684351D01*
X186619729Y-100830672D01*
X186734693Y-101002728D01*
X186813881Y-101193904D01*
X186854250Y-101396854D01*
X186854250Y-101603786D01*
X186813881Y-101806736D01*
X186734693Y-101997912D01*
X186734692Y-101997914D01*
X186619729Y-102169968D01*
X186473408Y-102316289D01*
X186301354Y-102431252D01*
X186301353Y-102431253D01*
X186301352Y-102431253D01*
X186110176Y-102510441D01*
X185907226Y-102550810D01*
X185700294Y-102550810D01*
X185497344Y-102510441D01*
X185306168Y-102431253D01*
X185306167Y-102431253D01*
X185306166Y-102431252D01*
X185134112Y-102316289D01*
X184987791Y-102169968D01*
X184872828Y-101997914D01*
X184872827Y-101997912D01*
X184793639Y-101806736D01*
X184753270Y-101603786D01*
X184753270Y-101396854D01*
X184793639Y-101193904D01*
X184872827Y-101002728D01*
X184987791Y-100830672D01*
X185134112Y-100684351D01*
X185306166Y-100569388D01*
X185306168Y-100569387D01*
X185497344Y-100490199D01*
X185700294Y-100449830D01*
X185907226Y-100449830D01*
X186110176Y-100490199D01*
G37*
G36*
X177510176Y-100490199D02*
G01*
X177701352Y-100569387D01*
X177701354Y-100569388D01*
X177873408Y-100684351D01*
X178019729Y-100830672D01*
X178134693Y-101002728D01*
X178213881Y-101193904D01*
X178254250Y-101396854D01*
X178254250Y-101603786D01*
X178213881Y-101806736D01*
X178134693Y-101997912D01*
X178134692Y-101997914D01*
X178019729Y-102169968D01*
X177873408Y-102316289D01*
X177701354Y-102431252D01*
X177701353Y-102431253D01*
X177701352Y-102431253D01*
X177510176Y-102510441D01*
X177307226Y-102550810D01*
X177100294Y-102550810D01*
X176897344Y-102510441D01*
X176706168Y-102431253D01*
X176706167Y-102431253D01*
X176706166Y-102431252D01*
X176534112Y-102316289D01*
X176387791Y-102169968D01*
X176272828Y-101997914D01*
X176272827Y-101997912D01*
X176193639Y-101806736D01*
X176153270Y-101603786D01*
X176153270Y-101396854D01*
X176193639Y-101193904D01*
X176272827Y-101002728D01*
X176387791Y-100830672D01*
X176534112Y-100684351D01*
X176706166Y-100569388D01*
X176706168Y-100569387D01*
X176897344Y-100490199D01*
X177100294Y-100449830D01*
X177307226Y-100449830D01*
X177510176Y-100490199D01*
G37*
G36*
X170910176Y-100490199D02*
G01*
X171101352Y-100569387D01*
X171101354Y-100569388D01*
X171273408Y-100684351D01*
X171419729Y-100830672D01*
X171534693Y-101002728D01*
X171613881Y-101193904D01*
X171654250Y-101396854D01*
X171654250Y-101603786D01*
X171613881Y-101806736D01*
X171534693Y-101997912D01*
X171534692Y-101997914D01*
X171419729Y-102169968D01*
X171273408Y-102316289D01*
X171101354Y-102431252D01*
X171101353Y-102431253D01*
X171101352Y-102431253D01*
X170910176Y-102510441D01*
X170707226Y-102550810D01*
X170500294Y-102550810D01*
X170297344Y-102510441D01*
X170106168Y-102431253D01*
X170106167Y-102431253D01*
X170106166Y-102431252D01*
X169934112Y-102316289D01*
X169787791Y-102169968D01*
X169672828Y-101997914D01*
X169672827Y-101997912D01*
X169593639Y-101806736D01*
X169553270Y-101603786D01*
X169553270Y-101396854D01*
X169593639Y-101193904D01*
X169672827Y-101002728D01*
X169787791Y-100830672D01*
X169934112Y-100684351D01*
X170106166Y-100569388D01*
X170106168Y-100569387D01*
X170297344Y-100490199D01*
X170500294Y-100449830D01*
X170707226Y-100449830D01*
X170910176Y-100490199D01*
G37*
G36*
X147110176Y-100490199D02*
G01*
X147301352Y-100569387D01*
X147301354Y-100569388D01*
X147473408Y-100684351D01*
X147619729Y-100830672D01*
X147734693Y-101002728D01*
X147813881Y-101193904D01*
X147854250Y-101396854D01*
X147854250Y-101603786D01*
X147813881Y-101806736D01*
X147734693Y-101997912D01*
X147734692Y-101997914D01*
X147619729Y-102169968D01*
X147473408Y-102316289D01*
X147301354Y-102431252D01*
X147301353Y-102431253D01*
X147301352Y-102431253D01*
X147110176Y-102510441D01*
X146907226Y-102550810D01*
X146700294Y-102550810D01*
X146497344Y-102510441D01*
X146306168Y-102431253D01*
X146306167Y-102431253D01*
X146306166Y-102431252D01*
X146134112Y-102316289D01*
X145987791Y-102169968D01*
X145872828Y-101997914D01*
X145872827Y-101997912D01*
X145793639Y-101806736D01*
X145753270Y-101603786D01*
X145753270Y-101396854D01*
X145793639Y-101193904D01*
X145872827Y-101002728D01*
X145987791Y-100830672D01*
X146134112Y-100684351D01*
X146306166Y-100569388D01*
X146306168Y-100569387D01*
X146497344Y-100490199D01*
X146700294Y-100449830D01*
X146907226Y-100449830D01*
X147110176Y-100490199D01*
G37*
G36*
X131910176Y-100490199D02*
G01*
X132101352Y-100569387D01*
X132101354Y-100569388D01*
X132273408Y-100684351D01*
X132419729Y-100830672D01*
X132534693Y-101002728D01*
X132613881Y-101193904D01*
X132654250Y-101396854D01*
X132654250Y-101603786D01*
X132613881Y-101806736D01*
X132534693Y-101997912D01*
X132534692Y-101997914D01*
X132419729Y-102169968D01*
X132273408Y-102316289D01*
X132101354Y-102431252D01*
X132101353Y-102431253D01*
X132101352Y-102431253D01*
X131910176Y-102510441D01*
X131707226Y-102550810D01*
X131500294Y-102550810D01*
X131297344Y-102510441D01*
X131106168Y-102431253D01*
X131106167Y-102431253D01*
X131106166Y-102431252D01*
X130934112Y-102316289D01*
X130787791Y-102169968D01*
X130672828Y-101997914D01*
X130672827Y-101997912D01*
X130593639Y-101806736D01*
X130553270Y-101603786D01*
X130553270Y-101396854D01*
X130593639Y-101193904D01*
X130672827Y-101002728D01*
X130787791Y-100830672D01*
X130934112Y-100684351D01*
X131106166Y-100569388D01*
X131106168Y-100569387D01*
X131297344Y-100490199D01*
X131500294Y-100449830D01*
X131707226Y-100449830D01*
X131910176Y-100490199D01*
G37*
G36*
X155710176Y-100490199D02*
G01*
X155901352Y-100569387D01*
X155901354Y-100569388D01*
X156073408Y-100684351D01*
X156219729Y-100830672D01*
X156334693Y-101002728D01*
X156413881Y-101193904D01*
X156454250Y-101396854D01*
X156454250Y-101603786D01*
X156413881Y-101806736D01*
X156334693Y-101997912D01*
X156334692Y-101997914D01*
X156219729Y-102169968D01*
X156073408Y-102316289D01*
X155901354Y-102431252D01*
X155901353Y-102431253D01*
X155901352Y-102431253D01*
X155710176Y-102510441D01*
X155507226Y-102550810D01*
X155300294Y-102550810D01*
X155097344Y-102510441D01*
X154906168Y-102431253D01*
X154906167Y-102431253D01*
X154906166Y-102431252D01*
X154734112Y-102316289D01*
X154587791Y-102169968D01*
X154472828Y-101997914D01*
X154472827Y-101997912D01*
X154393639Y-101806736D01*
X154353270Y-101603786D01*
X154353270Y-101396854D01*
X154393639Y-101193904D01*
X154472827Y-101002728D01*
X154587791Y-100830672D01*
X154734112Y-100684351D01*
X154906166Y-100569388D01*
X154906168Y-100569387D01*
X155097344Y-100490199D01*
X155300294Y-100449830D01*
X155507226Y-100449830D01*
X155710176Y-100490199D01*
G37*
G36*
X192710176Y-93890199D02*
G01*
X192901352Y-93969387D01*
X192901354Y-93969388D01*
X193073408Y-94084351D01*
X193219729Y-94230672D01*
X193334693Y-94402728D01*
X193413881Y-94593904D01*
X193454250Y-94796854D01*
X193454250Y-95003786D01*
X193413881Y-95206736D01*
X193334693Y-95397912D01*
X193334692Y-95397914D01*
X193219729Y-95569968D01*
X193073408Y-95716289D01*
X192901354Y-95831252D01*
X192901353Y-95831253D01*
X192901352Y-95831253D01*
X192710176Y-95910441D01*
X192507226Y-95950810D01*
X192300294Y-95950810D01*
X192097344Y-95910441D01*
X191906168Y-95831253D01*
X191906167Y-95831253D01*
X191906166Y-95831252D01*
X191734112Y-95716289D01*
X191587791Y-95569968D01*
X191472828Y-95397914D01*
X191472827Y-95397912D01*
X191393639Y-95206736D01*
X191353270Y-95003786D01*
X191353270Y-94796854D01*
X191393639Y-94593904D01*
X191472827Y-94402728D01*
X191587791Y-94230672D01*
X191734112Y-94084351D01*
X191906166Y-93969388D01*
X191906168Y-93969387D01*
X192097344Y-93890199D01*
X192300294Y-93849830D01*
X192507226Y-93849830D01*
X192710176Y-93890199D01*
G37*
G36*
X186110176Y-93890199D02*
G01*
X186301352Y-93969387D01*
X186301354Y-93969388D01*
X186473408Y-94084351D01*
X186619729Y-94230672D01*
X186734693Y-94402728D01*
X186813881Y-94593904D01*
X186854250Y-94796854D01*
X186854250Y-95003786D01*
X186813881Y-95206736D01*
X186734693Y-95397912D01*
X186734692Y-95397914D01*
X186619729Y-95569968D01*
X186473408Y-95716289D01*
X186301354Y-95831252D01*
X186301353Y-95831253D01*
X186301352Y-95831253D01*
X186110176Y-95910441D01*
X185907226Y-95950810D01*
X185700294Y-95950810D01*
X185497344Y-95910441D01*
X185306168Y-95831253D01*
X185306167Y-95831253D01*
X185306166Y-95831252D01*
X185134112Y-95716289D01*
X184987791Y-95569968D01*
X184872828Y-95397914D01*
X184872827Y-95397912D01*
X184793639Y-95206736D01*
X184753270Y-95003786D01*
X184753270Y-94796854D01*
X184793639Y-94593904D01*
X184872827Y-94402728D01*
X184987791Y-94230672D01*
X185134112Y-94084351D01*
X185306166Y-93969388D01*
X185306168Y-93969387D01*
X185497344Y-93890199D01*
X185700294Y-93849830D01*
X185907226Y-93849830D01*
X186110176Y-93890199D01*
G37*
G36*
X201310176Y-93890199D02*
G01*
X201501352Y-93969387D01*
X201501354Y-93969388D01*
X201673408Y-94084351D01*
X201819729Y-94230672D01*
X201934693Y-94402728D01*
X202013881Y-94593904D01*
X202054250Y-94796854D01*
X202054250Y-95003786D01*
X202013881Y-95206736D01*
X201934693Y-95397912D01*
X201934692Y-95397914D01*
X201819729Y-95569968D01*
X201673408Y-95716289D01*
X201501354Y-95831252D01*
X201501353Y-95831253D01*
X201501352Y-95831253D01*
X201310176Y-95910441D01*
X201107226Y-95950810D01*
X200900294Y-95950810D01*
X200697344Y-95910441D01*
X200506168Y-95831253D01*
X200506167Y-95831253D01*
X200506166Y-95831252D01*
X200334112Y-95716289D01*
X200187791Y-95569968D01*
X200072828Y-95397914D01*
X200072827Y-95397912D01*
X199993639Y-95206736D01*
X199953270Y-95003786D01*
X199953270Y-94796854D01*
X199993639Y-94593904D01*
X200072827Y-94402728D01*
X200187791Y-94230672D01*
X200334112Y-94084351D01*
X200506166Y-93969388D01*
X200506168Y-93969387D01*
X200697344Y-93890199D01*
X200900294Y-93849830D01*
X201107226Y-93849830D01*
X201310176Y-93890199D01*
G37*
G36*
X170910176Y-93890199D02*
G01*
X171101352Y-93969387D01*
X171101354Y-93969388D01*
X171273408Y-94084351D01*
X171419729Y-94230672D01*
X171534693Y-94402728D01*
X171613881Y-94593904D01*
X171654250Y-94796854D01*
X171654250Y-95003786D01*
X171613881Y-95206736D01*
X171534693Y-95397912D01*
X171534692Y-95397914D01*
X171419729Y-95569968D01*
X171273408Y-95716289D01*
X171101354Y-95831252D01*
X171101353Y-95831253D01*
X171101352Y-95831253D01*
X170910176Y-95910441D01*
X170707226Y-95950810D01*
X170500294Y-95950810D01*
X170297344Y-95910441D01*
X170106168Y-95831253D01*
X170106167Y-95831253D01*
X170106166Y-95831252D01*
X169934112Y-95716289D01*
X169787791Y-95569968D01*
X169672828Y-95397914D01*
X169672827Y-95397912D01*
X169593639Y-95206736D01*
X169553270Y-95003786D01*
X169553270Y-94796854D01*
X169593639Y-94593904D01*
X169672827Y-94402728D01*
X169787791Y-94230672D01*
X169934112Y-94084351D01*
X170106166Y-93969388D01*
X170106168Y-93969387D01*
X170297344Y-93890199D01*
X170500294Y-93849830D01*
X170707226Y-93849830D01*
X170910176Y-93890199D01*
G37*
G36*
X155710176Y-93890199D02*
G01*
X155901352Y-93969387D01*
X155901354Y-93969388D01*
X156073408Y-94084351D01*
X156219729Y-94230672D01*
X156334693Y-94402728D01*
X156413881Y-94593904D01*
X156454250Y-94796854D01*
X156454250Y-95003786D01*
X156413881Y-95206736D01*
X156334693Y-95397912D01*
X156334692Y-95397914D01*
X156219729Y-95569968D01*
X156073408Y-95716289D01*
X155901354Y-95831252D01*
X155901353Y-95831253D01*
X155901352Y-95831253D01*
X155710176Y-95910441D01*
X155507226Y-95950810D01*
X155300294Y-95950810D01*
X155097344Y-95910441D01*
X154906168Y-95831253D01*
X154906167Y-95831253D01*
X154906166Y-95831252D01*
X154734112Y-95716289D01*
X154587791Y-95569968D01*
X154472828Y-95397914D01*
X154472827Y-95397912D01*
X154393639Y-95206736D01*
X154353270Y-95003786D01*
X154353270Y-94796854D01*
X154393639Y-94593904D01*
X154472827Y-94402728D01*
X154587791Y-94230672D01*
X154734112Y-94084351D01*
X154906166Y-93969388D01*
X154906168Y-93969387D01*
X155097344Y-93890199D01*
X155300294Y-93849830D01*
X155507226Y-93849830D01*
X155710176Y-93890199D01*
G37*
G36*
X140510176Y-93890199D02*
G01*
X140701352Y-93969387D01*
X140701354Y-93969388D01*
X140873408Y-94084351D01*
X141019729Y-94230672D01*
X141134693Y-94402728D01*
X141213881Y-94593904D01*
X141254250Y-94796854D01*
X141254250Y-95003786D01*
X141213881Y-95206736D01*
X141134693Y-95397912D01*
X141134692Y-95397914D01*
X141019729Y-95569968D01*
X140873408Y-95716289D01*
X140701354Y-95831252D01*
X140701353Y-95831253D01*
X140701352Y-95831253D01*
X140510176Y-95910441D01*
X140307226Y-95950810D01*
X140100294Y-95950810D01*
X139897344Y-95910441D01*
X139706168Y-95831253D01*
X139706167Y-95831253D01*
X139706166Y-95831252D01*
X139534112Y-95716289D01*
X139387791Y-95569968D01*
X139272828Y-95397914D01*
X139272827Y-95397912D01*
X139193639Y-95206736D01*
X139153270Y-95003786D01*
X139153270Y-94796854D01*
X139193639Y-94593904D01*
X139272827Y-94402728D01*
X139387791Y-94230672D01*
X139534112Y-94084351D01*
X139706166Y-93969388D01*
X139706168Y-93969387D01*
X139897344Y-93890199D01*
X140100294Y-93849830D01*
X140307226Y-93849830D01*
X140510176Y-93890199D01*
G37*
G36*
X125310176Y-93890199D02*
G01*
X125501352Y-93969387D01*
X125501354Y-93969388D01*
X125673408Y-94084351D01*
X125819729Y-94230672D01*
X125934693Y-94402728D01*
X126013881Y-94593904D01*
X126054250Y-94796854D01*
X126054250Y-95003786D01*
X126013881Y-95206736D01*
X125934693Y-95397912D01*
X125934692Y-95397914D01*
X125819729Y-95569968D01*
X125673408Y-95716289D01*
X125501354Y-95831252D01*
X125501353Y-95831253D01*
X125501352Y-95831253D01*
X125310176Y-95910441D01*
X125107226Y-95950810D01*
X124900294Y-95950810D01*
X124697344Y-95910441D01*
X124506168Y-95831253D01*
X124506167Y-95831253D01*
X124506166Y-95831252D01*
X124334112Y-95716289D01*
X124187791Y-95569968D01*
X124072828Y-95397914D01*
X124072827Y-95397912D01*
X123993639Y-95206736D01*
X123953270Y-95003786D01*
X123953270Y-94796854D01*
X123993639Y-94593904D01*
X124072827Y-94402728D01*
X124187791Y-94230672D01*
X124334112Y-94084351D01*
X124506166Y-93969388D01*
X124506168Y-93969387D01*
X124697344Y-93890199D01*
X124900294Y-93849830D01*
X125107226Y-93849830D01*
X125310176Y-93890199D01*
G37*
G36*
X116710176Y-93890199D02*
G01*
X116901352Y-93969387D01*
X116901354Y-93969388D01*
X117073408Y-94084351D01*
X117219729Y-94230672D01*
X117334693Y-94402728D01*
X117413881Y-94593904D01*
X117454250Y-94796854D01*
X117454250Y-95003786D01*
X117413881Y-95206736D01*
X117334693Y-95397912D01*
X117334692Y-95397914D01*
X117219729Y-95569968D01*
X117073408Y-95716289D01*
X116901354Y-95831252D01*
X116901353Y-95831253D01*
X116901352Y-95831253D01*
X116710176Y-95910441D01*
X116507226Y-95950810D01*
X116300294Y-95950810D01*
X116097344Y-95910441D01*
X115906168Y-95831253D01*
X115906167Y-95831253D01*
X115906166Y-95831252D01*
X115734112Y-95716289D01*
X115587791Y-95569968D01*
X115472828Y-95397914D01*
X115472827Y-95397912D01*
X115393639Y-95206736D01*
X115353270Y-95003786D01*
X115353270Y-94796854D01*
X115393639Y-94593904D01*
X115472827Y-94402728D01*
X115587791Y-94230672D01*
X115734112Y-94084351D01*
X115906166Y-93969388D01*
X115906168Y-93969387D01*
X116097344Y-93890199D01*
X116300294Y-93849830D01*
X116507226Y-93849830D01*
X116710176Y-93890199D01*
G37*
G36*
X147110176Y-93890199D02*
G01*
X147301352Y-93969387D01*
X147301354Y-93969388D01*
X147473408Y-94084351D01*
X147619729Y-94230672D01*
X147734693Y-94402728D01*
X147813881Y-94593904D01*
X147854250Y-94796854D01*
X147854250Y-95003786D01*
X147813881Y-95206736D01*
X147734693Y-95397912D01*
X147734692Y-95397914D01*
X147619729Y-95569968D01*
X147473408Y-95716289D01*
X147301354Y-95831252D01*
X147301353Y-95831253D01*
X147301352Y-95831253D01*
X147110176Y-95910441D01*
X146907226Y-95950810D01*
X146700294Y-95950810D01*
X146497344Y-95910441D01*
X146306168Y-95831253D01*
X146306167Y-95831253D01*
X146306166Y-95831252D01*
X146134112Y-95716289D01*
X145987791Y-95569968D01*
X145872828Y-95397914D01*
X145872827Y-95397912D01*
X145793639Y-95206736D01*
X145753270Y-95003786D01*
X145753270Y-94796854D01*
X145793639Y-94593904D01*
X145872827Y-94402728D01*
X145987791Y-94230672D01*
X146134112Y-94084351D01*
X146306166Y-93969388D01*
X146306168Y-93969387D01*
X146497344Y-93890199D01*
X146700294Y-93849830D01*
X146907226Y-93849830D01*
X147110176Y-93890199D01*
G37*
G36*
X162310176Y-93890199D02*
G01*
X162501352Y-93969387D01*
X162501354Y-93969388D01*
X162673408Y-94084351D01*
X162819729Y-94230672D01*
X162934693Y-94402728D01*
X163013881Y-94593904D01*
X163054250Y-94796854D01*
X163054250Y-95003786D01*
X163013881Y-95206736D01*
X162934693Y-95397912D01*
X162934692Y-95397914D01*
X162819729Y-95569968D01*
X162673408Y-95716289D01*
X162501354Y-95831252D01*
X162501353Y-95831253D01*
X162501352Y-95831253D01*
X162310176Y-95910441D01*
X162107226Y-95950810D01*
X161900294Y-95950810D01*
X161697344Y-95910441D01*
X161506168Y-95831253D01*
X161506167Y-95831253D01*
X161506166Y-95831252D01*
X161334112Y-95716289D01*
X161187791Y-95569968D01*
X161072828Y-95397914D01*
X161072827Y-95397912D01*
X160993639Y-95206736D01*
X160953270Y-95003786D01*
X160953270Y-94796854D01*
X160993639Y-94593904D01*
X161072827Y-94402728D01*
X161187791Y-94230672D01*
X161334112Y-94084351D01*
X161506166Y-93969388D01*
X161506168Y-93969387D01*
X161697344Y-93890199D01*
X161900294Y-93849830D01*
X162107226Y-93849830D01*
X162310176Y-93890199D01*
G37*
G36*
X177510176Y-93890199D02*
G01*
X177701352Y-93969387D01*
X177701354Y-93969388D01*
X177873408Y-94084351D01*
X178019729Y-94230672D01*
X178134693Y-94402728D01*
X178213881Y-94593904D01*
X178254250Y-94796854D01*
X178254250Y-95003786D01*
X178213881Y-95206736D01*
X178134693Y-95397912D01*
X178134692Y-95397914D01*
X178019729Y-95569968D01*
X177873408Y-95716289D01*
X177701354Y-95831252D01*
X177701353Y-95831253D01*
X177701352Y-95831253D01*
X177510176Y-95910441D01*
X177307226Y-95950810D01*
X177100294Y-95950810D01*
X176897344Y-95910441D01*
X176706168Y-95831253D01*
X176706167Y-95831253D01*
X176706166Y-95831252D01*
X176534112Y-95716289D01*
X176387791Y-95569968D01*
X176272828Y-95397914D01*
X176272827Y-95397912D01*
X176193639Y-95206736D01*
X176153270Y-95003786D01*
X176153270Y-94796854D01*
X176193639Y-94593904D01*
X176272827Y-94402728D01*
X176387791Y-94230672D01*
X176534112Y-94084351D01*
X176706166Y-93969388D01*
X176706168Y-93969387D01*
X176897344Y-93890199D01*
X177100294Y-93849830D01*
X177307226Y-93849830D01*
X177510176Y-93890199D01*
G37*
G36*
X131910176Y-93890199D02*
G01*
X132101352Y-93969387D01*
X132101354Y-93969388D01*
X132273408Y-94084351D01*
X132419729Y-94230672D01*
X132534693Y-94402728D01*
X132613881Y-94593904D01*
X132654250Y-94796854D01*
X132654250Y-95003786D01*
X132613881Y-95206736D01*
X132534693Y-95397912D01*
X132534692Y-95397914D01*
X132419729Y-95569968D01*
X132273408Y-95716289D01*
X132101354Y-95831252D01*
X132101353Y-95831253D01*
X132101352Y-95831253D01*
X131910176Y-95910441D01*
X131707226Y-95950810D01*
X131500294Y-95950810D01*
X131297344Y-95910441D01*
X131106168Y-95831253D01*
X131106167Y-95831253D01*
X131106166Y-95831252D01*
X130934112Y-95716289D01*
X130787791Y-95569968D01*
X130672828Y-95397914D01*
X130672827Y-95397912D01*
X130593639Y-95206736D01*
X130553270Y-95003786D01*
X130553270Y-94796854D01*
X130593639Y-94593904D01*
X130672827Y-94402728D01*
X130787791Y-94230672D01*
X130934112Y-94084351D01*
X131106166Y-93969388D01*
X131106168Y-93969387D01*
X131297344Y-93890199D01*
X131500294Y-93849830D01*
X131707226Y-93849830D01*
X131910176Y-93890199D01*
G37*
G36*
X151410176Y-89590199D02*
G01*
X151601352Y-89669387D01*
X151601354Y-89669388D01*
X151773408Y-89784351D01*
X151919729Y-89930672D01*
X152034693Y-90102728D01*
X152113881Y-90293904D01*
X152154250Y-90496854D01*
X152154250Y-90703786D01*
X152113881Y-90906736D01*
X152034693Y-91097912D01*
X152034692Y-91097914D01*
X151919729Y-91269968D01*
X151773408Y-91416289D01*
X151601354Y-91531252D01*
X151601353Y-91531253D01*
X151601352Y-91531253D01*
X151410176Y-91610441D01*
X151207226Y-91650810D01*
X151000294Y-91650810D01*
X150797344Y-91610441D01*
X150606168Y-91531253D01*
X150606167Y-91531253D01*
X150606166Y-91531252D01*
X150434112Y-91416289D01*
X150287791Y-91269968D01*
X150172828Y-91097914D01*
X150172827Y-91097912D01*
X150093639Y-90906736D01*
X150053270Y-90703786D01*
X150053270Y-90496854D01*
X150093639Y-90293904D01*
X150172827Y-90102728D01*
X150287791Y-89930672D01*
X150434112Y-89784351D01*
X150606166Y-89669388D01*
X150606168Y-89669387D01*
X150797344Y-89590199D01*
X151000294Y-89549830D01*
X151207226Y-89549830D01*
X151410176Y-89590199D01*
G37*
G36*
X166610176Y-89590199D02*
G01*
X166801352Y-89669387D01*
X166801354Y-89669388D01*
X166973408Y-89784351D01*
X167119729Y-89930672D01*
X167234693Y-90102728D01*
X167313881Y-90293904D01*
X167354250Y-90496854D01*
X167354250Y-90703786D01*
X167313881Y-90906736D01*
X167234693Y-91097912D01*
X167234692Y-91097914D01*
X167119729Y-91269968D01*
X166973408Y-91416289D01*
X166801354Y-91531252D01*
X166801353Y-91531253D01*
X166801352Y-91531253D01*
X166610176Y-91610441D01*
X166407226Y-91650810D01*
X166200294Y-91650810D01*
X165997344Y-91610441D01*
X165806168Y-91531253D01*
X165806167Y-91531253D01*
X165806166Y-91531252D01*
X165634112Y-91416289D01*
X165487791Y-91269968D01*
X165372828Y-91097914D01*
X165372827Y-91097912D01*
X165293639Y-90906736D01*
X165253270Y-90703786D01*
X165253270Y-90496854D01*
X165293639Y-90293904D01*
X165372827Y-90102728D01*
X165487791Y-89930672D01*
X165634112Y-89784351D01*
X165806166Y-89669388D01*
X165806168Y-89669387D01*
X165997344Y-89590199D01*
X166200294Y-89549830D01*
X166407226Y-89549830D01*
X166610176Y-89590199D01*
G37*
G36*
X181810176Y-89590199D02*
G01*
X182001352Y-89669387D01*
X182001354Y-89669388D01*
X182173408Y-89784351D01*
X182319729Y-89930672D01*
X182434693Y-90102728D01*
X182513881Y-90293904D01*
X182554250Y-90496854D01*
X182554250Y-90703786D01*
X182513881Y-90906736D01*
X182434693Y-91097912D01*
X182434692Y-91097914D01*
X182319729Y-91269968D01*
X182173408Y-91416289D01*
X182001354Y-91531252D01*
X182001353Y-91531253D01*
X182001352Y-91531253D01*
X181810176Y-91610441D01*
X181607226Y-91650810D01*
X181400294Y-91650810D01*
X181197344Y-91610441D01*
X181006168Y-91531253D01*
X181006167Y-91531253D01*
X181006166Y-91531252D01*
X180834112Y-91416289D01*
X180687791Y-91269968D01*
X180572828Y-91097914D01*
X180572827Y-91097912D01*
X180493639Y-90906736D01*
X180453270Y-90703786D01*
X180453270Y-90496854D01*
X180493639Y-90293904D01*
X180572827Y-90102728D01*
X180687791Y-89930672D01*
X180834112Y-89784351D01*
X181006166Y-89669388D01*
X181006168Y-89669387D01*
X181197344Y-89590199D01*
X181400294Y-89549830D01*
X181607226Y-89549830D01*
X181810176Y-89590199D01*
G37*
G36*
X136210176Y-89590199D02*
G01*
X136401352Y-89669387D01*
X136401354Y-89669388D01*
X136573408Y-89784351D01*
X136719729Y-89930672D01*
X136834693Y-90102728D01*
X136913881Y-90293904D01*
X136954250Y-90496854D01*
X136954250Y-90703786D01*
X136913881Y-90906736D01*
X136834693Y-91097912D01*
X136834692Y-91097914D01*
X136719729Y-91269968D01*
X136573408Y-91416289D01*
X136401354Y-91531252D01*
X136401353Y-91531253D01*
X136401352Y-91531253D01*
X136210176Y-91610441D01*
X136007226Y-91650810D01*
X135800294Y-91650810D01*
X135597344Y-91610441D01*
X135406168Y-91531253D01*
X135406167Y-91531253D01*
X135406166Y-91531252D01*
X135234112Y-91416289D01*
X135087791Y-91269968D01*
X134972828Y-91097914D01*
X134972827Y-91097912D01*
X134893639Y-90906736D01*
X134853270Y-90703786D01*
X134853270Y-90496854D01*
X134893639Y-90293904D01*
X134972827Y-90102728D01*
X135087791Y-89930672D01*
X135234112Y-89784351D01*
X135406166Y-89669388D01*
X135406168Y-89669387D01*
X135597344Y-89590199D01*
X135800294Y-89549830D01*
X136007226Y-89549830D01*
X136210176Y-89590199D01*
G37*
G36*
X121010176Y-89590199D02*
G01*
X121201352Y-89669387D01*
X121201354Y-89669388D01*
X121373408Y-89784351D01*
X121519729Y-89930672D01*
X121634693Y-90102728D01*
X121713881Y-90293904D01*
X121754250Y-90496854D01*
X121754250Y-90703786D01*
X121713881Y-90906736D01*
X121634693Y-91097912D01*
X121634692Y-91097914D01*
X121519729Y-91269968D01*
X121373408Y-91416289D01*
X121201354Y-91531252D01*
X121201353Y-91531253D01*
X121201352Y-91531253D01*
X121010176Y-91610441D01*
X120807226Y-91650810D01*
X120600294Y-91650810D01*
X120397344Y-91610441D01*
X120206168Y-91531253D01*
X120206167Y-91531253D01*
X120206166Y-91531252D01*
X120034112Y-91416289D01*
X119887791Y-91269968D01*
X119772828Y-91097914D01*
X119772827Y-91097912D01*
X119693639Y-90906736D01*
X119653270Y-90703786D01*
X119653270Y-90496854D01*
X119693639Y-90293904D01*
X119772827Y-90102728D01*
X119887791Y-89930672D01*
X120034112Y-89784351D01*
X120206166Y-89669388D01*
X120206168Y-89669387D01*
X120397344Y-89590199D01*
X120600294Y-89549830D01*
X120807226Y-89549830D01*
X121010176Y-89590199D01*
G37*
G36*
X197010176Y-89590199D02*
G01*
X197201352Y-89669387D01*
X197201354Y-89669388D01*
X197373408Y-89784351D01*
X197519729Y-89930672D01*
X197634693Y-90102728D01*
X197713881Y-90293904D01*
X197754250Y-90496854D01*
X197754250Y-90703786D01*
X197713881Y-90906736D01*
X197634693Y-91097912D01*
X197634692Y-91097914D01*
X197519729Y-91269968D01*
X197373408Y-91416289D01*
X197201354Y-91531252D01*
X197201353Y-91531253D01*
X197201352Y-91531253D01*
X197010176Y-91610441D01*
X196807226Y-91650810D01*
X196600294Y-91650810D01*
X196397344Y-91610441D01*
X196206168Y-91531253D01*
X196206167Y-91531253D01*
X196206166Y-91531252D01*
X196034112Y-91416289D01*
X195887791Y-91269968D01*
X195772828Y-91097914D01*
X195772827Y-91097912D01*
X195693639Y-90906736D01*
X195653270Y-90703786D01*
X195653270Y-90496854D01*
X195693639Y-90293904D01*
X195772827Y-90102728D01*
X195887791Y-89930672D01*
X196034112Y-89784351D01*
X196206166Y-89669388D01*
X196206168Y-89669387D01*
X196397344Y-89590199D01*
X196600294Y-89549830D01*
X196807226Y-89549830D01*
X197010176Y-89590199D01*
G37*
G36*
X155710176Y-85290199D02*
G01*
X155901352Y-85369387D01*
X155901354Y-85369388D01*
X156073408Y-85484351D01*
X156219729Y-85630672D01*
X156334693Y-85802728D01*
X156413881Y-85993904D01*
X156454250Y-86196854D01*
X156454250Y-86403786D01*
X156413881Y-86606736D01*
X156334693Y-86797912D01*
X156334692Y-86797914D01*
X156219729Y-86969968D01*
X156073408Y-87116289D01*
X155901354Y-87231252D01*
X155901353Y-87231253D01*
X155901352Y-87231253D01*
X155710176Y-87310441D01*
X155507226Y-87350810D01*
X155300294Y-87350810D01*
X155097344Y-87310441D01*
X154906168Y-87231253D01*
X154906167Y-87231253D01*
X154906166Y-87231252D01*
X154734112Y-87116289D01*
X154587791Y-86969968D01*
X154472828Y-86797914D01*
X154472827Y-86797912D01*
X154393639Y-86606736D01*
X154353270Y-86403786D01*
X154353270Y-86196854D01*
X154393639Y-85993904D01*
X154472827Y-85802728D01*
X154587791Y-85630672D01*
X154734112Y-85484351D01*
X154906166Y-85369388D01*
X154906168Y-85369387D01*
X155097344Y-85290199D01*
X155300294Y-85249830D01*
X155507226Y-85249830D01*
X155710176Y-85290199D01*
G37*
G36*
X201310176Y-85290199D02*
G01*
X201501352Y-85369387D01*
X201501354Y-85369388D01*
X201673408Y-85484351D01*
X201819729Y-85630672D01*
X201934693Y-85802728D01*
X202013881Y-85993904D01*
X202054250Y-86196854D01*
X202054250Y-86403786D01*
X202013881Y-86606736D01*
X201934693Y-86797912D01*
X201934692Y-86797914D01*
X201819729Y-86969968D01*
X201673408Y-87116289D01*
X201501354Y-87231252D01*
X201501353Y-87231253D01*
X201501352Y-87231253D01*
X201310176Y-87310441D01*
X201107226Y-87350810D01*
X200900294Y-87350810D01*
X200697344Y-87310441D01*
X200506168Y-87231253D01*
X200506167Y-87231253D01*
X200506166Y-87231252D01*
X200334112Y-87116289D01*
X200187791Y-86969968D01*
X200072828Y-86797914D01*
X200072827Y-86797912D01*
X199993639Y-86606736D01*
X199953270Y-86403786D01*
X199953270Y-86196854D01*
X199993639Y-85993904D01*
X200072827Y-85802728D01*
X200187791Y-85630672D01*
X200334112Y-85484351D01*
X200506166Y-85369388D01*
X200506168Y-85369387D01*
X200697344Y-85290199D01*
X200900294Y-85249830D01*
X201107226Y-85249830D01*
X201310176Y-85290199D01*
G37*
G36*
X186110176Y-85290199D02*
G01*
X186301352Y-85369387D01*
X186301354Y-85369388D01*
X186473408Y-85484351D01*
X186619729Y-85630672D01*
X186734693Y-85802728D01*
X186813881Y-85993904D01*
X186854250Y-86196854D01*
X186854250Y-86403786D01*
X186813881Y-86606736D01*
X186734693Y-86797912D01*
X186734692Y-86797914D01*
X186619729Y-86969968D01*
X186473408Y-87116289D01*
X186301354Y-87231252D01*
X186301353Y-87231253D01*
X186301352Y-87231253D01*
X186110176Y-87310441D01*
X185907226Y-87350810D01*
X185700294Y-87350810D01*
X185497344Y-87310441D01*
X185306168Y-87231253D01*
X185306167Y-87231253D01*
X185306166Y-87231252D01*
X185134112Y-87116289D01*
X184987791Y-86969968D01*
X184872828Y-86797914D01*
X184872827Y-86797912D01*
X184793639Y-86606736D01*
X184753270Y-86403786D01*
X184753270Y-86196854D01*
X184793639Y-85993904D01*
X184872827Y-85802728D01*
X184987791Y-85630672D01*
X185134112Y-85484351D01*
X185306166Y-85369388D01*
X185306168Y-85369387D01*
X185497344Y-85290199D01*
X185700294Y-85249830D01*
X185907226Y-85249830D01*
X186110176Y-85290199D01*
G37*
G36*
X170910176Y-85290199D02*
G01*
X171101352Y-85369387D01*
X171101354Y-85369388D01*
X171273408Y-85484351D01*
X171419729Y-85630672D01*
X171534693Y-85802728D01*
X171613881Y-85993904D01*
X171654250Y-86196854D01*
X171654250Y-86403786D01*
X171613881Y-86606736D01*
X171534693Y-86797912D01*
X171534692Y-86797914D01*
X171419729Y-86969968D01*
X171273408Y-87116289D01*
X171101354Y-87231252D01*
X171101353Y-87231253D01*
X171101352Y-87231253D01*
X170910176Y-87310441D01*
X170707226Y-87350810D01*
X170500294Y-87350810D01*
X170297344Y-87310441D01*
X170106168Y-87231253D01*
X170106167Y-87231253D01*
X170106166Y-87231252D01*
X169934112Y-87116289D01*
X169787791Y-86969968D01*
X169672828Y-86797914D01*
X169672827Y-86797912D01*
X169593639Y-86606736D01*
X169553270Y-86403786D01*
X169553270Y-86196854D01*
X169593639Y-85993904D01*
X169672827Y-85802728D01*
X169787791Y-85630672D01*
X169934112Y-85484351D01*
X170106166Y-85369388D01*
X170106168Y-85369387D01*
X170297344Y-85290199D01*
X170500294Y-85249830D01*
X170707226Y-85249830D01*
X170910176Y-85290199D01*
G37*
G36*
X192710176Y-85290199D02*
G01*
X192901352Y-85369387D01*
X192901354Y-85369388D01*
X193073408Y-85484351D01*
X193219729Y-85630672D01*
X193334693Y-85802728D01*
X193413881Y-85993904D01*
X193454250Y-86196854D01*
X193454250Y-86403786D01*
X193413881Y-86606736D01*
X193334693Y-86797912D01*
X193334692Y-86797914D01*
X193219729Y-86969968D01*
X193073408Y-87116289D01*
X192901354Y-87231252D01*
X192901353Y-87231253D01*
X192901352Y-87231253D01*
X192710176Y-87310441D01*
X192507226Y-87350810D01*
X192300294Y-87350810D01*
X192097344Y-87310441D01*
X191906168Y-87231253D01*
X191906167Y-87231253D01*
X191906166Y-87231252D01*
X191734112Y-87116289D01*
X191587791Y-86969968D01*
X191472828Y-86797914D01*
X191472827Y-86797912D01*
X191393639Y-86606736D01*
X191353270Y-86403786D01*
X191353270Y-86196854D01*
X191393639Y-85993904D01*
X191472827Y-85802728D01*
X191587791Y-85630672D01*
X191734112Y-85484351D01*
X191906166Y-85369388D01*
X191906168Y-85369387D01*
X192097344Y-85290199D01*
X192300294Y-85249830D01*
X192507226Y-85249830D01*
X192710176Y-85290199D01*
G37*
G36*
X162310176Y-85290199D02*
G01*
X162501352Y-85369387D01*
X162501354Y-85369388D01*
X162673408Y-85484351D01*
X162819729Y-85630672D01*
X162934693Y-85802728D01*
X163013881Y-85993904D01*
X163054250Y-86196854D01*
X163054250Y-86403786D01*
X163013881Y-86606736D01*
X162934693Y-86797912D01*
X162934692Y-86797914D01*
X162819729Y-86969968D01*
X162673408Y-87116289D01*
X162501354Y-87231252D01*
X162501353Y-87231253D01*
X162501352Y-87231253D01*
X162310176Y-87310441D01*
X162107226Y-87350810D01*
X161900294Y-87350810D01*
X161697344Y-87310441D01*
X161506168Y-87231253D01*
X161506167Y-87231253D01*
X161506166Y-87231252D01*
X161334112Y-87116289D01*
X161187791Y-86969968D01*
X161072828Y-86797914D01*
X161072827Y-86797912D01*
X160993639Y-86606736D01*
X160953270Y-86403786D01*
X160953270Y-86196854D01*
X160993639Y-85993904D01*
X161072827Y-85802728D01*
X161187791Y-85630672D01*
X161334112Y-85484351D01*
X161506166Y-85369388D01*
X161506168Y-85369387D01*
X161697344Y-85290199D01*
X161900294Y-85249830D01*
X162107226Y-85249830D01*
X162310176Y-85290199D01*
G37*
G36*
X125310176Y-85290199D02*
G01*
X125501352Y-85369387D01*
X125501354Y-85369388D01*
X125673408Y-85484351D01*
X125819729Y-85630672D01*
X125934693Y-85802728D01*
X126013881Y-85993904D01*
X126054250Y-86196854D01*
X126054250Y-86403786D01*
X126013881Y-86606736D01*
X125934693Y-86797912D01*
X125934692Y-86797914D01*
X125819729Y-86969968D01*
X125673408Y-87116289D01*
X125501354Y-87231252D01*
X125501353Y-87231253D01*
X125501352Y-87231253D01*
X125310176Y-87310441D01*
X125107226Y-87350810D01*
X124900294Y-87350810D01*
X124697344Y-87310441D01*
X124506168Y-87231253D01*
X124506167Y-87231253D01*
X124506166Y-87231252D01*
X124334112Y-87116289D01*
X124187791Y-86969968D01*
X124072828Y-86797914D01*
X124072827Y-86797912D01*
X123993639Y-86606736D01*
X123953270Y-86403786D01*
X123953270Y-86196854D01*
X123993639Y-85993904D01*
X124072827Y-85802728D01*
X124187791Y-85630672D01*
X124334112Y-85484351D01*
X124506166Y-85369388D01*
X124506168Y-85369387D01*
X124697344Y-85290199D01*
X124900294Y-85249830D01*
X125107226Y-85249830D01*
X125310176Y-85290199D01*
G37*
G36*
X131910176Y-85290199D02*
G01*
X132101352Y-85369387D01*
X132101354Y-85369388D01*
X132273408Y-85484351D01*
X132419729Y-85630672D01*
X132534693Y-85802728D01*
X132613881Y-85993904D01*
X132654250Y-86196854D01*
X132654250Y-86403786D01*
X132613881Y-86606736D01*
X132534693Y-86797912D01*
X132534692Y-86797914D01*
X132419729Y-86969968D01*
X132273408Y-87116289D01*
X132101354Y-87231252D01*
X132101353Y-87231253D01*
X132101352Y-87231253D01*
X131910176Y-87310441D01*
X131707226Y-87350810D01*
X131500294Y-87350810D01*
X131297344Y-87310441D01*
X131106168Y-87231253D01*
X131106167Y-87231253D01*
X131106166Y-87231252D01*
X130934112Y-87116289D01*
X130787791Y-86969968D01*
X130672828Y-86797914D01*
X130672827Y-86797912D01*
X130593639Y-86606736D01*
X130553270Y-86403786D01*
X130553270Y-86196854D01*
X130593639Y-85993904D01*
X130672827Y-85802728D01*
X130787791Y-85630672D01*
X130934112Y-85484351D01*
X131106166Y-85369388D01*
X131106168Y-85369387D01*
X131297344Y-85290199D01*
X131500294Y-85249830D01*
X131707226Y-85249830D01*
X131910176Y-85290199D01*
G37*
G36*
X140510176Y-85290199D02*
G01*
X140701352Y-85369387D01*
X140701354Y-85369388D01*
X140873408Y-85484351D01*
X141019729Y-85630672D01*
X141134693Y-85802728D01*
X141213881Y-85993904D01*
X141254250Y-86196854D01*
X141254250Y-86403786D01*
X141213881Y-86606736D01*
X141134693Y-86797912D01*
X141134692Y-86797914D01*
X141019729Y-86969968D01*
X140873408Y-87116289D01*
X140701354Y-87231252D01*
X140701353Y-87231253D01*
X140701352Y-87231253D01*
X140510176Y-87310441D01*
X140307226Y-87350810D01*
X140100294Y-87350810D01*
X139897344Y-87310441D01*
X139706168Y-87231253D01*
X139706167Y-87231253D01*
X139706166Y-87231252D01*
X139534112Y-87116289D01*
X139387791Y-86969968D01*
X139272828Y-86797914D01*
X139272827Y-86797912D01*
X139193639Y-86606736D01*
X139153270Y-86403786D01*
X139153270Y-86196854D01*
X139193639Y-85993904D01*
X139272827Y-85802728D01*
X139387791Y-85630672D01*
X139534112Y-85484351D01*
X139706166Y-85369388D01*
X139706168Y-85369387D01*
X139897344Y-85290199D01*
X140100294Y-85249830D01*
X140307226Y-85249830D01*
X140510176Y-85290199D01*
G37*
G36*
X147110176Y-85290199D02*
G01*
X147301352Y-85369387D01*
X147301354Y-85369388D01*
X147473408Y-85484351D01*
X147619729Y-85630672D01*
X147734693Y-85802728D01*
X147813881Y-85993904D01*
X147854250Y-86196854D01*
X147854250Y-86403786D01*
X147813881Y-86606736D01*
X147734693Y-86797912D01*
X147734692Y-86797914D01*
X147619729Y-86969968D01*
X147473408Y-87116289D01*
X147301354Y-87231252D01*
X147301353Y-87231253D01*
X147301352Y-87231253D01*
X147110176Y-87310441D01*
X146907226Y-87350810D01*
X146700294Y-87350810D01*
X146497344Y-87310441D01*
X146306168Y-87231253D01*
X146306167Y-87231253D01*
X146306166Y-87231252D01*
X146134112Y-87116289D01*
X145987791Y-86969968D01*
X145872828Y-86797914D01*
X145872827Y-86797912D01*
X145793639Y-86606736D01*
X145753270Y-86403786D01*
X145753270Y-86196854D01*
X145793639Y-85993904D01*
X145872827Y-85802728D01*
X145987791Y-85630672D01*
X146134112Y-85484351D01*
X146306166Y-85369388D01*
X146306168Y-85369387D01*
X146497344Y-85290199D01*
X146700294Y-85249830D01*
X146907226Y-85249830D01*
X147110176Y-85290199D01*
G37*
G36*
X177510176Y-85290199D02*
G01*
X177701352Y-85369387D01*
X177701354Y-85369388D01*
X177873408Y-85484351D01*
X178019729Y-85630672D01*
X178134693Y-85802728D01*
X178213881Y-85993904D01*
X178254250Y-86196854D01*
X178254250Y-86403786D01*
X178213881Y-86606736D01*
X178134693Y-86797912D01*
X178134692Y-86797914D01*
X178019729Y-86969968D01*
X177873408Y-87116289D01*
X177701354Y-87231252D01*
X177701353Y-87231253D01*
X177701352Y-87231253D01*
X177510176Y-87310441D01*
X177307226Y-87350810D01*
X177100294Y-87350810D01*
X176897344Y-87310441D01*
X176706168Y-87231253D01*
X176706167Y-87231253D01*
X176706166Y-87231252D01*
X176534112Y-87116289D01*
X176387791Y-86969968D01*
X176272828Y-86797914D01*
X176272827Y-86797912D01*
X176193639Y-86606736D01*
X176153270Y-86403786D01*
X176153270Y-86196854D01*
X176193639Y-85993904D01*
X176272827Y-85802728D01*
X176387791Y-85630672D01*
X176534112Y-85484351D01*
X176706166Y-85369388D01*
X176706168Y-85369387D01*
X176897344Y-85290199D01*
X177100294Y-85249830D01*
X177307226Y-85249830D01*
X177510176Y-85290199D01*
G37*
G36*
X116710176Y-85290199D02*
G01*
X116901352Y-85369387D01*
X116901354Y-85369388D01*
X117073408Y-85484351D01*
X117219729Y-85630672D01*
X117334693Y-85802728D01*
X117413881Y-85993904D01*
X117454250Y-86196854D01*
X117454250Y-86403786D01*
X117413881Y-86606736D01*
X117334693Y-86797912D01*
X117334692Y-86797914D01*
X117219729Y-86969968D01*
X117073408Y-87116289D01*
X116901354Y-87231252D01*
X116901353Y-87231253D01*
X116901352Y-87231253D01*
X116710176Y-87310441D01*
X116507226Y-87350810D01*
X116300294Y-87350810D01*
X116097344Y-87310441D01*
X115906168Y-87231253D01*
X115906167Y-87231253D01*
X115906166Y-87231252D01*
X115734112Y-87116289D01*
X115587791Y-86969968D01*
X115472828Y-86797914D01*
X115472827Y-86797912D01*
X115393639Y-86606736D01*
X115353270Y-86403786D01*
X115353270Y-86196854D01*
X115393639Y-85993904D01*
X115472827Y-85802728D01*
X115587791Y-85630672D01*
X115734112Y-85484351D01*
X115906166Y-85369388D01*
X115906168Y-85369387D01*
X116097344Y-85290199D01*
X116300294Y-85249830D01*
X116507226Y-85249830D01*
X116710176Y-85290199D01*
G37*
G36*
X192710176Y-78690199D02*
G01*
X192901352Y-78769387D01*
X192901354Y-78769388D01*
X193073408Y-78884351D01*
X193219729Y-79030672D01*
X193334693Y-79202728D01*
X193413881Y-79393904D01*
X193454250Y-79596854D01*
X193454250Y-79803786D01*
X193413881Y-80006736D01*
X193334693Y-80197912D01*
X193334692Y-80197914D01*
X193219729Y-80369968D01*
X193073408Y-80516289D01*
X192901354Y-80631252D01*
X192901353Y-80631253D01*
X192901352Y-80631253D01*
X192710176Y-80710441D01*
X192507226Y-80750810D01*
X192300294Y-80750810D01*
X192097344Y-80710441D01*
X191906168Y-80631253D01*
X191906167Y-80631253D01*
X191906166Y-80631252D01*
X191734112Y-80516289D01*
X191587791Y-80369968D01*
X191472828Y-80197914D01*
X191472827Y-80197912D01*
X191393639Y-80006736D01*
X191353270Y-79803786D01*
X191353270Y-79596854D01*
X191393639Y-79393904D01*
X191472827Y-79202728D01*
X191587791Y-79030672D01*
X191734112Y-78884351D01*
X191906166Y-78769388D01*
X191906168Y-78769387D01*
X192097344Y-78690199D01*
X192300294Y-78649830D01*
X192507226Y-78649830D01*
X192710176Y-78690199D01*
G37*
G36*
X186110176Y-78690199D02*
G01*
X186301352Y-78769387D01*
X186301354Y-78769388D01*
X186473408Y-78884351D01*
X186619729Y-79030672D01*
X186734693Y-79202728D01*
X186813881Y-79393904D01*
X186854250Y-79596854D01*
X186854250Y-79803786D01*
X186813881Y-80006736D01*
X186734693Y-80197912D01*
X186734692Y-80197914D01*
X186619729Y-80369968D01*
X186473408Y-80516289D01*
X186301354Y-80631252D01*
X186301353Y-80631253D01*
X186301352Y-80631253D01*
X186110176Y-80710441D01*
X185907226Y-80750810D01*
X185700294Y-80750810D01*
X185497344Y-80710441D01*
X185306168Y-80631253D01*
X185306167Y-80631253D01*
X185306166Y-80631252D01*
X185134112Y-80516289D01*
X184987791Y-80369968D01*
X184872828Y-80197914D01*
X184872827Y-80197912D01*
X184793639Y-80006736D01*
X184753270Y-79803786D01*
X184753270Y-79596854D01*
X184793639Y-79393904D01*
X184872827Y-79202728D01*
X184987791Y-79030672D01*
X185134112Y-78884351D01*
X185306166Y-78769388D01*
X185306168Y-78769387D01*
X185497344Y-78690199D01*
X185700294Y-78649830D01*
X185907226Y-78649830D01*
X186110176Y-78690199D01*
G37*
G36*
X201310176Y-78690199D02*
G01*
X201501352Y-78769387D01*
X201501354Y-78769388D01*
X201673408Y-78884351D01*
X201819729Y-79030672D01*
X201934693Y-79202728D01*
X202013881Y-79393904D01*
X202054250Y-79596854D01*
X202054250Y-79803786D01*
X202013881Y-80006736D01*
X201934693Y-80197912D01*
X201934692Y-80197914D01*
X201819729Y-80369968D01*
X201673408Y-80516289D01*
X201501354Y-80631252D01*
X201501353Y-80631253D01*
X201501352Y-80631253D01*
X201310176Y-80710441D01*
X201107226Y-80750810D01*
X200900294Y-80750810D01*
X200697344Y-80710441D01*
X200506168Y-80631253D01*
X200506167Y-80631253D01*
X200506166Y-80631252D01*
X200334112Y-80516289D01*
X200187791Y-80369968D01*
X200072828Y-80197914D01*
X200072827Y-80197912D01*
X199993639Y-80006736D01*
X199953270Y-79803786D01*
X199953270Y-79596854D01*
X199993639Y-79393904D01*
X200072827Y-79202728D01*
X200187791Y-79030672D01*
X200334112Y-78884351D01*
X200506166Y-78769388D01*
X200506168Y-78769387D01*
X200697344Y-78690199D01*
X200900294Y-78649830D01*
X201107226Y-78649830D01*
X201310176Y-78690199D01*
G37*
G36*
X140510176Y-78690199D02*
G01*
X140701352Y-78769387D01*
X140701354Y-78769388D01*
X140873408Y-78884351D01*
X141019729Y-79030672D01*
X141134693Y-79202728D01*
X141213881Y-79393904D01*
X141254250Y-79596854D01*
X141254250Y-79803786D01*
X141213881Y-80006736D01*
X141134693Y-80197912D01*
X141134692Y-80197914D01*
X141019729Y-80369968D01*
X140873408Y-80516289D01*
X140701354Y-80631252D01*
X140701353Y-80631253D01*
X140701352Y-80631253D01*
X140510176Y-80710441D01*
X140307226Y-80750810D01*
X140100294Y-80750810D01*
X139897344Y-80710441D01*
X139706168Y-80631253D01*
X139706167Y-80631253D01*
X139706166Y-80631252D01*
X139534112Y-80516289D01*
X139387791Y-80369968D01*
X139272828Y-80197914D01*
X139272827Y-80197912D01*
X139193639Y-80006736D01*
X139153270Y-79803786D01*
X139153270Y-79596854D01*
X139193639Y-79393904D01*
X139272827Y-79202728D01*
X139387791Y-79030672D01*
X139534112Y-78884351D01*
X139706166Y-78769388D01*
X139706168Y-78769387D01*
X139897344Y-78690199D01*
X140100294Y-78649830D01*
X140307226Y-78649830D01*
X140510176Y-78690199D01*
G37*
G36*
X155710176Y-78690199D02*
G01*
X155901352Y-78769387D01*
X155901354Y-78769388D01*
X156073408Y-78884351D01*
X156219729Y-79030672D01*
X156334693Y-79202728D01*
X156413881Y-79393904D01*
X156454250Y-79596854D01*
X156454250Y-79803786D01*
X156413881Y-80006736D01*
X156334693Y-80197912D01*
X156334692Y-80197914D01*
X156219729Y-80369968D01*
X156073408Y-80516289D01*
X155901354Y-80631252D01*
X155901353Y-80631253D01*
X155901352Y-80631253D01*
X155710176Y-80710441D01*
X155507226Y-80750810D01*
X155300294Y-80750810D01*
X155097344Y-80710441D01*
X154906168Y-80631253D01*
X154906167Y-80631253D01*
X154906166Y-80631252D01*
X154734112Y-80516289D01*
X154587791Y-80369968D01*
X154472828Y-80197914D01*
X154472827Y-80197912D01*
X154393639Y-80006736D01*
X154353270Y-79803786D01*
X154353270Y-79596854D01*
X154393639Y-79393904D01*
X154472827Y-79202728D01*
X154587791Y-79030672D01*
X154734112Y-78884351D01*
X154906166Y-78769388D01*
X154906168Y-78769387D01*
X155097344Y-78690199D01*
X155300294Y-78649830D01*
X155507226Y-78649830D01*
X155710176Y-78690199D01*
G37*
G36*
X170910176Y-78690199D02*
G01*
X171101352Y-78769387D01*
X171101354Y-78769388D01*
X171273408Y-78884351D01*
X171419729Y-79030672D01*
X171534693Y-79202728D01*
X171613881Y-79393904D01*
X171654250Y-79596854D01*
X171654250Y-79803786D01*
X171613881Y-80006736D01*
X171534693Y-80197912D01*
X171534692Y-80197914D01*
X171419729Y-80369968D01*
X171273408Y-80516289D01*
X171101354Y-80631252D01*
X171101353Y-80631253D01*
X171101352Y-80631253D01*
X170910176Y-80710441D01*
X170707226Y-80750810D01*
X170500294Y-80750810D01*
X170297344Y-80710441D01*
X170106168Y-80631253D01*
X170106167Y-80631253D01*
X170106166Y-80631252D01*
X169934112Y-80516289D01*
X169787791Y-80369968D01*
X169672828Y-80197914D01*
X169672827Y-80197912D01*
X169593639Y-80006736D01*
X169553270Y-79803786D01*
X169553270Y-79596854D01*
X169593639Y-79393904D01*
X169672827Y-79202728D01*
X169787791Y-79030672D01*
X169934112Y-78884351D01*
X170106166Y-78769388D01*
X170106168Y-78769387D01*
X170297344Y-78690199D01*
X170500294Y-78649830D01*
X170707226Y-78649830D01*
X170910176Y-78690199D01*
G37*
G36*
X162310176Y-78690199D02*
G01*
X162501352Y-78769387D01*
X162501354Y-78769388D01*
X162673408Y-78884351D01*
X162819729Y-79030672D01*
X162934693Y-79202728D01*
X163013881Y-79393904D01*
X163054250Y-79596854D01*
X163054250Y-79803786D01*
X163013881Y-80006736D01*
X162934693Y-80197912D01*
X162934692Y-80197914D01*
X162819729Y-80369968D01*
X162673408Y-80516289D01*
X162501354Y-80631252D01*
X162501353Y-80631253D01*
X162501352Y-80631253D01*
X162310176Y-80710441D01*
X162107226Y-80750810D01*
X161900294Y-80750810D01*
X161697344Y-80710441D01*
X161506168Y-80631253D01*
X161506167Y-80631253D01*
X161506166Y-80631252D01*
X161334112Y-80516289D01*
X161187791Y-80369968D01*
X161072828Y-80197914D01*
X161072827Y-80197912D01*
X160993639Y-80006736D01*
X160953270Y-79803786D01*
X160953270Y-79596854D01*
X160993639Y-79393904D01*
X161072827Y-79202728D01*
X161187791Y-79030672D01*
X161334112Y-78884351D01*
X161506166Y-78769388D01*
X161506168Y-78769387D01*
X161697344Y-78690199D01*
X161900294Y-78649830D01*
X162107226Y-78649830D01*
X162310176Y-78690199D01*
G37*
G36*
X177510176Y-78690199D02*
G01*
X177701352Y-78769387D01*
X177701354Y-78769388D01*
X177873408Y-78884351D01*
X178019729Y-79030672D01*
X178134693Y-79202728D01*
X178213881Y-79393904D01*
X178254250Y-79596854D01*
X178254250Y-79803786D01*
X178213881Y-80006736D01*
X178134693Y-80197912D01*
X178134692Y-80197914D01*
X178019729Y-80369968D01*
X177873408Y-80516289D01*
X177701354Y-80631252D01*
X177701353Y-80631253D01*
X177701352Y-80631253D01*
X177510176Y-80710441D01*
X177307226Y-80750810D01*
X177100294Y-80750810D01*
X176897344Y-80710441D01*
X176706168Y-80631253D01*
X176706167Y-80631253D01*
X176706166Y-80631252D01*
X176534112Y-80516289D01*
X176387791Y-80369968D01*
X176272828Y-80197914D01*
X176272827Y-80197912D01*
X176193639Y-80006736D01*
X176153270Y-79803786D01*
X176153270Y-79596854D01*
X176193639Y-79393904D01*
X176272827Y-79202728D01*
X176387791Y-79030672D01*
X176534112Y-78884351D01*
X176706166Y-78769388D01*
X176706168Y-78769387D01*
X176897344Y-78690199D01*
X177100294Y-78649830D01*
X177307226Y-78649830D01*
X177510176Y-78690199D01*
G37*
G36*
X147110176Y-78690199D02*
G01*
X147301352Y-78769387D01*
X147301354Y-78769388D01*
X147473408Y-78884351D01*
X147619729Y-79030672D01*
X147734693Y-79202728D01*
X147813881Y-79393904D01*
X147854250Y-79596854D01*
X147854250Y-79803786D01*
X147813881Y-80006736D01*
X147734693Y-80197912D01*
X147734692Y-80197914D01*
X147619729Y-80369968D01*
X147473408Y-80516289D01*
X147301354Y-80631252D01*
X147301353Y-80631253D01*
X147301352Y-80631253D01*
X147110176Y-80710441D01*
X146907226Y-80750810D01*
X146700294Y-80750810D01*
X146497344Y-80710441D01*
X146306168Y-80631253D01*
X146306167Y-80631253D01*
X146306166Y-80631252D01*
X146134112Y-80516289D01*
X145987791Y-80369968D01*
X145872828Y-80197914D01*
X145872827Y-80197912D01*
X145793639Y-80006736D01*
X145753270Y-79803786D01*
X145753270Y-79596854D01*
X145793639Y-79393904D01*
X145872827Y-79202728D01*
X145987791Y-79030672D01*
X146134112Y-78884351D01*
X146306166Y-78769388D01*
X146306168Y-78769387D01*
X146497344Y-78690199D01*
X146700294Y-78649830D01*
X146907226Y-78649830D01*
X147110176Y-78690199D01*
G37*
G36*
X131910176Y-78690199D02*
G01*
X132101352Y-78769387D01*
X132101354Y-78769388D01*
X132273408Y-78884351D01*
X132419729Y-79030672D01*
X132534693Y-79202728D01*
X132613881Y-79393904D01*
X132654250Y-79596854D01*
X132654250Y-79803786D01*
X132613881Y-80006736D01*
X132534693Y-80197912D01*
X132534692Y-80197914D01*
X132419729Y-80369968D01*
X132273408Y-80516289D01*
X132101354Y-80631252D01*
X132101353Y-80631253D01*
X132101352Y-80631253D01*
X131910176Y-80710441D01*
X131707226Y-80750810D01*
X131500294Y-80750810D01*
X131297344Y-80710441D01*
X131106168Y-80631253D01*
X131106167Y-80631253D01*
X131106166Y-80631252D01*
X130934112Y-80516289D01*
X130787791Y-80369968D01*
X130672828Y-80197914D01*
X130672827Y-80197912D01*
X130593639Y-80006736D01*
X130553270Y-79803786D01*
X130553270Y-79596854D01*
X130593639Y-79393904D01*
X130672827Y-79202728D01*
X130787791Y-79030672D01*
X130934112Y-78884351D01*
X131106166Y-78769388D01*
X131106168Y-78769387D01*
X131297344Y-78690199D01*
X131500294Y-78649830D01*
X131707226Y-78649830D01*
X131910176Y-78690199D01*
G37*
G36*
X116710176Y-78690199D02*
G01*
X116901352Y-78769387D01*
X116901354Y-78769388D01*
X117073408Y-78884351D01*
X117219729Y-79030672D01*
X117334693Y-79202728D01*
X117413881Y-79393904D01*
X117454250Y-79596854D01*
X117454250Y-79803786D01*
X117413881Y-80006736D01*
X117334693Y-80197912D01*
X117334692Y-80197914D01*
X117219729Y-80369968D01*
X117073408Y-80516289D01*
X116901354Y-80631252D01*
X116901353Y-80631253D01*
X116901352Y-80631253D01*
X116710176Y-80710441D01*
X116507226Y-80750810D01*
X116300294Y-80750810D01*
X116097344Y-80710441D01*
X115906168Y-80631253D01*
X115906167Y-80631253D01*
X115906166Y-80631252D01*
X115734112Y-80516289D01*
X115587791Y-80369968D01*
X115472828Y-80197914D01*
X115472827Y-80197912D01*
X115393639Y-80006736D01*
X115353270Y-79803786D01*
X115353270Y-79596854D01*
X115393639Y-79393904D01*
X115472827Y-79202728D01*
X115587791Y-79030672D01*
X115734112Y-78884351D01*
X115906166Y-78769388D01*
X115906168Y-78769387D01*
X116097344Y-78690199D01*
X116300294Y-78649830D01*
X116507226Y-78649830D01*
X116710176Y-78690199D01*
G37*
G36*
X125310176Y-78690199D02*
G01*
X125501352Y-78769387D01*
X125501354Y-78769388D01*
X125673408Y-78884351D01*
X125819729Y-79030672D01*
X125934693Y-79202728D01*
X126013881Y-79393904D01*
X126054250Y-79596854D01*
X126054250Y-79803786D01*
X126013881Y-80006736D01*
X125934693Y-80197912D01*
X125934692Y-80197914D01*
X125819729Y-80369968D01*
X125673408Y-80516289D01*
X125501354Y-80631252D01*
X125501353Y-80631253D01*
X125501352Y-80631253D01*
X125310176Y-80710441D01*
X125107226Y-80750810D01*
X124900294Y-80750810D01*
X124697344Y-80710441D01*
X124506168Y-80631253D01*
X124506167Y-80631253D01*
X124506166Y-80631252D01*
X124334112Y-80516289D01*
X124187791Y-80369968D01*
X124072828Y-80197914D01*
X124072827Y-80197912D01*
X123993639Y-80006736D01*
X123953270Y-79803786D01*
X123953270Y-79596854D01*
X123993639Y-79393904D01*
X124072827Y-79202728D01*
X124187791Y-79030672D01*
X124334112Y-78884351D01*
X124506166Y-78769388D01*
X124506168Y-78769387D01*
X124697344Y-78690199D01*
X124900294Y-78649830D01*
X125107226Y-78649830D01*
X125310176Y-78690199D01*
G37*
G36*
X121010176Y-74390199D02*
G01*
X121201352Y-74469387D01*
X121201354Y-74469388D01*
X121373408Y-74584351D01*
X121519729Y-74730672D01*
X121634693Y-74902728D01*
X121713881Y-75093904D01*
X121754250Y-75296854D01*
X121754250Y-75503786D01*
X121713881Y-75706736D01*
X121634693Y-75897912D01*
X121634692Y-75897914D01*
X121519729Y-76069968D01*
X121373408Y-76216289D01*
X121201354Y-76331252D01*
X121201353Y-76331253D01*
X121201352Y-76331253D01*
X121010176Y-76410441D01*
X120807226Y-76450810D01*
X120600294Y-76450810D01*
X120397344Y-76410441D01*
X120206168Y-76331253D01*
X120206167Y-76331253D01*
X120206166Y-76331252D01*
X120034112Y-76216289D01*
X119887791Y-76069968D01*
X119772828Y-75897914D01*
X119772827Y-75897912D01*
X119693639Y-75706736D01*
X119653270Y-75503786D01*
X119653270Y-75296854D01*
X119693639Y-75093904D01*
X119772827Y-74902728D01*
X119887791Y-74730672D01*
X120034112Y-74584351D01*
X120206166Y-74469388D01*
X120206168Y-74469387D01*
X120397344Y-74390199D01*
X120600294Y-74349830D01*
X120807226Y-74349830D01*
X121010176Y-74390199D01*
G37*
G36*
X197010176Y-74390199D02*
G01*
X197201352Y-74469387D01*
X197201354Y-74469388D01*
X197373408Y-74584351D01*
X197519729Y-74730672D01*
X197634693Y-74902728D01*
X197713881Y-75093904D01*
X197754250Y-75296854D01*
X197754250Y-75503786D01*
X197713881Y-75706736D01*
X197634693Y-75897912D01*
X197634692Y-75897914D01*
X197519729Y-76069968D01*
X197373408Y-76216289D01*
X197201354Y-76331252D01*
X197201353Y-76331253D01*
X197201352Y-76331253D01*
X197010176Y-76410441D01*
X196807226Y-76450810D01*
X196600294Y-76450810D01*
X196397344Y-76410441D01*
X196206168Y-76331253D01*
X196206167Y-76331253D01*
X196206166Y-76331252D01*
X196034112Y-76216289D01*
X195887791Y-76069968D01*
X195772828Y-75897914D01*
X195772827Y-75897912D01*
X195693639Y-75706736D01*
X195653270Y-75503786D01*
X195653270Y-75296854D01*
X195693639Y-75093904D01*
X195772827Y-74902728D01*
X195887791Y-74730672D01*
X196034112Y-74584351D01*
X196206166Y-74469388D01*
X196206168Y-74469387D01*
X196397344Y-74390199D01*
X196600294Y-74349830D01*
X196807226Y-74349830D01*
X197010176Y-74390199D01*
G37*
G36*
X181810176Y-74390199D02*
G01*
X182001352Y-74469387D01*
X182001354Y-74469388D01*
X182173408Y-74584351D01*
X182319729Y-74730672D01*
X182434693Y-74902728D01*
X182513881Y-75093904D01*
X182554250Y-75296854D01*
X182554250Y-75503786D01*
X182513881Y-75706736D01*
X182434693Y-75897912D01*
X182434692Y-75897914D01*
X182319729Y-76069968D01*
X182173408Y-76216289D01*
X182001354Y-76331252D01*
X182001353Y-76331253D01*
X182001352Y-76331253D01*
X181810176Y-76410441D01*
X181607226Y-76450810D01*
X181400294Y-76450810D01*
X181197344Y-76410441D01*
X181006168Y-76331253D01*
X181006167Y-76331253D01*
X181006166Y-76331252D01*
X180834112Y-76216289D01*
X180687791Y-76069968D01*
X180572828Y-75897914D01*
X180572827Y-75897912D01*
X180493639Y-75706736D01*
X180453270Y-75503786D01*
X180453270Y-75296854D01*
X180493639Y-75093904D01*
X180572827Y-74902728D01*
X180687791Y-74730672D01*
X180834112Y-74584351D01*
X181006166Y-74469388D01*
X181006168Y-74469387D01*
X181197344Y-74390199D01*
X181400294Y-74349830D01*
X181607226Y-74349830D01*
X181810176Y-74390199D01*
G37*
G36*
X166610176Y-74390199D02*
G01*
X166801352Y-74469387D01*
X166801354Y-74469388D01*
X166973408Y-74584351D01*
X167119729Y-74730672D01*
X167234693Y-74902728D01*
X167313881Y-75093904D01*
X167354250Y-75296854D01*
X167354250Y-75503786D01*
X167313881Y-75706736D01*
X167234693Y-75897912D01*
X167234692Y-75897914D01*
X167119729Y-76069968D01*
X166973408Y-76216289D01*
X166801354Y-76331252D01*
X166801353Y-76331253D01*
X166801352Y-76331253D01*
X166610176Y-76410441D01*
X166407226Y-76450810D01*
X166200294Y-76450810D01*
X165997344Y-76410441D01*
X165806168Y-76331253D01*
X165806167Y-76331253D01*
X165806166Y-76331252D01*
X165634112Y-76216289D01*
X165487791Y-76069968D01*
X165372828Y-75897914D01*
X165372827Y-75897912D01*
X165293639Y-75706736D01*
X165253270Y-75503786D01*
X165253270Y-75296854D01*
X165293639Y-75093904D01*
X165372827Y-74902728D01*
X165487791Y-74730672D01*
X165634112Y-74584351D01*
X165806166Y-74469388D01*
X165806168Y-74469387D01*
X165997344Y-74390199D01*
X166200294Y-74349830D01*
X166407226Y-74349830D01*
X166610176Y-74390199D01*
G37*
G36*
X151410176Y-74390199D02*
G01*
X151601352Y-74469387D01*
X151601354Y-74469388D01*
X151773408Y-74584351D01*
X151919729Y-74730672D01*
X152034693Y-74902728D01*
X152113881Y-75093904D01*
X152154250Y-75296854D01*
X152154250Y-75503786D01*
X152113881Y-75706736D01*
X152034693Y-75897912D01*
X152034692Y-75897914D01*
X151919729Y-76069968D01*
X151773408Y-76216289D01*
X151601354Y-76331252D01*
X151601353Y-76331253D01*
X151601352Y-76331253D01*
X151410176Y-76410441D01*
X151207226Y-76450810D01*
X151000294Y-76450810D01*
X150797344Y-76410441D01*
X150606168Y-76331253D01*
X150606167Y-76331253D01*
X150606166Y-76331252D01*
X150434112Y-76216289D01*
X150287791Y-76069968D01*
X150172828Y-75897914D01*
X150172827Y-75897912D01*
X150093639Y-75706736D01*
X150053270Y-75503786D01*
X150053270Y-75296854D01*
X150093639Y-75093904D01*
X150172827Y-74902728D01*
X150287791Y-74730672D01*
X150434112Y-74584351D01*
X150606166Y-74469388D01*
X150606168Y-74469387D01*
X150797344Y-74390199D01*
X151000294Y-74349830D01*
X151207226Y-74349830D01*
X151410176Y-74390199D01*
G37*
G36*
X136210176Y-74390199D02*
G01*
X136401352Y-74469387D01*
X136401354Y-74469388D01*
X136573408Y-74584351D01*
X136719729Y-74730672D01*
X136834693Y-74902728D01*
X136913881Y-75093904D01*
X136954250Y-75296854D01*
X136954250Y-75503786D01*
X136913881Y-75706736D01*
X136834693Y-75897912D01*
X136834692Y-75897914D01*
X136719729Y-76069968D01*
X136573408Y-76216289D01*
X136401354Y-76331252D01*
X136401353Y-76331253D01*
X136401352Y-76331253D01*
X136210176Y-76410441D01*
X136007226Y-76450810D01*
X135800294Y-76450810D01*
X135597344Y-76410441D01*
X135406168Y-76331253D01*
X135406167Y-76331253D01*
X135406166Y-76331252D01*
X135234112Y-76216289D01*
X135087791Y-76069968D01*
X134972828Y-75897914D01*
X134972827Y-75897912D01*
X134893639Y-75706736D01*
X134853270Y-75503786D01*
X134853270Y-75296854D01*
X134893639Y-75093904D01*
X134972827Y-74902728D01*
X135087791Y-74730672D01*
X135234112Y-74584351D01*
X135406166Y-74469388D01*
X135406168Y-74469387D01*
X135597344Y-74390199D01*
X135800294Y-74349830D01*
X136007226Y-74349830D01*
X136210176Y-74390199D01*
G37*
G36*
X162310176Y-70090199D02*
G01*
X162501352Y-70169387D01*
X162501354Y-70169388D01*
X162673408Y-70284351D01*
X162819729Y-70430672D01*
X162934693Y-70602728D01*
X163013881Y-70793904D01*
X163054250Y-70996854D01*
X163054250Y-71203786D01*
X163013881Y-71406736D01*
X162934693Y-71597912D01*
X162934692Y-71597914D01*
X162819729Y-71769968D01*
X162673408Y-71916289D01*
X162501354Y-72031252D01*
X162501353Y-72031253D01*
X162501352Y-72031253D01*
X162310176Y-72110441D01*
X162107226Y-72150810D01*
X161900294Y-72150810D01*
X161697344Y-72110441D01*
X161506168Y-72031253D01*
X161506167Y-72031253D01*
X161506166Y-72031252D01*
X161334112Y-71916289D01*
X161187791Y-71769968D01*
X161072828Y-71597914D01*
X161072827Y-71597912D01*
X160993639Y-71406736D01*
X160953270Y-71203786D01*
X160953270Y-70996854D01*
X160993639Y-70793904D01*
X161072827Y-70602728D01*
X161187791Y-70430672D01*
X161334112Y-70284351D01*
X161506166Y-70169388D01*
X161506168Y-70169387D01*
X161697344Y-70090199D01*
X161900294Y-70049830D01*
X162107226Y-70049830D01*
X162310176Y-70090199D01*
G37*
G36*
X192710176Y-70090199D02*
G01*
X192901352Y-70169387D01*
X192901354Y-70169388D01*
X193073408Y-70284351D01*
X193219729Y-70430672D01*
X193334693Y-70602728D01*
X193413881Y-70793904D01*
X193454250Y-70996854D01*
X193454250Y-71203786D01*
X193413881Y-71406736D01*
X193334693Y-71597912D01*
X193334692Y-71597914D01*
X193219729Y-71769968D01*
X193073408Y-71916289D01*
X192901354Y-72031252D01*
X192901353Y-72031253D01*
X192901352Y-72031253D01*
X192710176Y-72110441D01*
X192507226Y-72150810D01*
X192300294Y-72150810D01*
X192097344Y-72110441D01*
X191906168Y-72031253D01*
X191906167Y-72031253D01*
X191906166Y-72031252D01*
X191734112Y-71916289D01*
X191587791Y-71769968D01*
X191472828Y-71597914D01*
X191472827Y-71597912D01*
X191393639Y-71406736D01*
X191353270Y-71203786D01*
X191353270Y-70996854D01*
X191393639Y-70793904D01*
X191472827Y-70602728D01*
X191587791Y-70430672D01*
X191734112Y-70284351D01*
X191906166Y-70169388D01*
X191906168Y-70169387D01*
X192097344Y-70090199D01*
X192300294Y-70049830D01*
X192507226Y-70049830D01*
X192710176Y-70090199D01*
G37*
G36*
X177510176Y-70090199D02*
G01*
X177701352Y-70169387D01*
X177701354Y-70169388D01*
X177873408Y-70284351D01*
X178019729Y-70430672D01*
X178134693Y-70602728D01*
X178213881Y-70793904D01*
X178254250Y-70996854D01*
X178254250Y-71203786D01*
X178213881Y-71406736D01*
X178134693Y-71597912D01*
X178134692Y-71597914D01*
X178019729Y-71769968D01*
X177873408Y-71916289D01*
X177701354Y-72031252D01*
X177701353Y-72031253D01*
X177701352Y-72031253D01*
X177510176Y-72110441D01*
X177307226Y-72150810D01*
X177100294Y-72150810D01*
X176897344Y-72110441D01*
X176706168Y-72031253D01*
X176706167Y-72031253D01*
X176706166Y-72031252D01*
X176534112Y-71916289D01*
X176387791Y-71769968D01*
X176272828Y-71597914D01*
X176272827Y-71597912D01*
X176193639Y-71406736D01*
X176153270Y-71203786D01*
X176153270Y-70996854D01*
X176193639Y-70793904D01*
X176272827Y-70602728D01*
X176387791Y-70430672D01*
X176534112Y-70284351D01*
X176706166Y-70169388D01*
X176706168Y-70169387D01*
X176897344Y-70090199D01*
X177100294Y-70049830D01*
X177307226Y-70049830D01*
X177510176Y-70090199D01*
G37*
G36*
X201310176Y-70090199D02*
G01*
X201501352Y-70169387D01*
X201501354Y-70169388D01*
X201673408Y-70284351D01*
X201819729Y-70430672D01*
X201934693Y-70602728D01*
X202013881Y-70793904D01*
X202054250Y-70996854D01*
X202054250Y-71203786D01*
X202013881Y-71406736D01*
X201934693Y-71597912D01*
X201934692Y-71597914D01*
X201819729Y-71769968D01*
X201673408Y-71916289D01*
X201501354Y-72031252D01*
X201501353Y-72031253D01*
X201501352Y-72031253D01*
X201310176Y-72110441D01*
X201107226Y-72150810D01*
X200900294Y-72150810D01*
X200697344Y-72110441D01*
X200506168Y-72031253D01*
X200506167Y-72031253D01*
X200506166Y-72031252D01*
X200334112Y-71916289D01*
X200187791Y-71769968D01*
X200072828Y-71597914D01*
X200072827Y-71597912D01*
X199993639Y-71406736D01*
X199953270Y-71203786D01*
X199953270Y-70996854D01*
X199993639Y-70793904D01*
X200072827Y-70602728D01*
X200187791Y-70430672D01*
X200334112Y-70284351D01*
X200506166Y-70169388D01*
X200506168Y-70169387D01*
X200697344Y-70090199D01*
X200900294Y-70049830D01*
X201107226Y-70049830D01*
X201310176Y-70090199D01*
G37*
G36*
X147110176Y-70090199D02*
G01*
X147301352Y-70169387D01*
X147301354Y-70169388D01*
X147473408Y-70284351D01*
X147619729Y-70430672D01*
X147734693Y-70602728D01*
X147813881Y-70793904D01*
X147854250Y-70996854D01*
X147854250Y-71203786D01*
X147813881Y-71406736D01*
X147734693Y-71597912D01*
X147734692Y-71597914D01*
X147619729Y-71769968D01*
X147473408Y-71916289D01*
X147301354Y-72031252D01*
X147301353Y-72031253D01*
X147301352Y-72031253D01*
X147110176Y-72110441D01*
X146907226Y-72150810D01*
X146700294Y-72150810D01*
X146497344Y-72110441D01*
X146306168Y-72031253D01*
X146306167Y-72031253D01*
X146306166Y-72031252D01*
X146134112Y-71916289D01*
X145987791Y-71769968D01*
X145872828Y-71597914D01*
X145872827Y-71597912D01*
X145793639Y-71406736D01*
X145753270Y-71203786D01*
X145753270Y-70996854D01*
X145793639Y-70793904D01*
X145872827Y-70602728D01*
X145987791Y-70430672D01*
X146134112Y-70284351D01*
X146306166Y-70169388D01*
X146306168Y-70169387D01*
X146497344Y-70090199D01*
X146700294Y-70049830D01*
X146907226Y-70049830D01*
X147110176Y-70090199D01*
G37*
G36*
X131910176Y-70090199D02*
G01*
X132101352Y-70169387D01*
X132101354Y-70169388D01*
X132273408Y-70284351D01*
X132419729Y-70430672D01*
X132534693Y-70602728D01*
X132613881Y-70793904D01*
X132654250Y-70996854D01*
X132654250Y-71203786D01*
X132613881Y-71406736D01*
X132534693Y-71597912D01*
X132534692Y-71597914D01*
X132419729Y-71769968D01*
X132273408Y-71916289D01*
X132101354Y-72031252D01*
X132101353Y-72031253D01*
X132101352Y-72031253D01*
X131910176Y-72110441D01*
X131707226Y-72150810D01*
X131500294Y-72150810D01*
X131297344Y-72110441D01*
X131106168Y-72031253D01*
X131106167Y-72031253D01*
X131106166Y-72031252D01*
X130934112Y-71916289D01*
X130787791Y-71769968D01*
X130672828Y-71597914D01*
X130672827Y-71597912D01*
X130593639Y-71406736D01*
X130553270Y-71203786D01*
X130553270Y-70996854D01*
X130593639Y-70793904D01*
X130672827Y-70602728D01*
X130787791Y-70430672D01*
X130934112Y-70284351D01*
X131106166Y-70169388D01*
X131106168Y-70169387D01*
X131297344Y-70090199D01*
X131500294Y-70049830D01*
X131707226Y-70049830D01*
X131910176Y-70090199D01*
G37*
G36*
X125310176Y-70090199D02*
G01*
X125501352Y-70169387D01*
X125501354Y-70169388D01*
X125673408Y-70284351D01*
X125819729Y-70430672D01*
X125934693Y-70602728D01*
X126013881Y-70793904D01*
X126054250Y-70996854D01*
X126054250Y-71203786D01*
X126013881Y-71406736D01*
X125934693Y-71597912D01*
X125934692Y-71597914D01*
X125819729Y-71769968D01*
X125673408Y-71916289D01*
X125501354Y-72031252D01*
X125501353Y-72031253D01*
X125501352Y-72031253D01*
X125310176Y-72110441D01*
X125107226Y-72150810D01*
X124900294Y-72150810D01*
X124697344Y-72110441D01*
X124506168Y-72031253D01*
X124506167Y-72031253D01*
X124506166Y-72031252D01*
X124334112Y-71916289D01*
X124187791Y-71769968D01*
X124072828Y-71597914D01*
X124072827Y-71597912D01*
X123993639Y-71406736D01*
X123953270Y-71203786D01*
X123953270Y-70996854D01*
X123993639Y-70793904D01*
X124072827Y-70602728D01*
X124187791Y-70430672D01*
X124334112Y-70284351D01*
X124506166Y-70169388D01*
X124506168Y-70169387D01*
X124697344Y-70090199D01*
X124900294Y-70049830D01*
X125107226Y-70049830D01*
X125310176Y-70090199D01*
G37*
G36*
X116710176Y-70090199D02*
G01*
X116901352Y-70169387D01*
X116901354Y-70169388D01*
X117073408Y-70284351D01*
X117219729Y-70430672D01*
X117334693Y-70602728D01*
X117413881Y-70793904D01*
X117454250Y-70996854D01*
X117454250Y-71203786D01*
X117413881Y-71406736D01*
X117334693Y-71597912D01*
X117334692Y-71597914D01*
X117219729Y-71769968D01*
X117073408Y-71916289D01*
X116901354Y-72031252D01*
X116901353Y-72031253D01*
X116901352Y-72031253D01*
X116710176Y-72110441D01*
X116507226Y-72150810D01*
X116300294Y-72150810D01*
X116097344Y-72110441D01*
X115906168Y-72031253D01*
X115906167Y-72031253D01*
X115906166Y-72031252D01*
X115734112Y-71916289D01*
X115587791Y-71769968D01*
X115472828Y-71597914D01*
X115472827Y-71597912D01*
X115393639Y-71406736D01*
X115353270Y-71203786D01*
X115353270Y-70996854D01*
X115393639Y-70793904D01*
X115472827Y-70602728D01*
X115587791Y-70430672D01*
X115734112Y-70284351D01*
X115906166Y-70169388D01*
X115906168Y-70169387D01*
X116097344Y-70090199D01*
X116300294Y-70049830D01*
X116507226Y-70049830D01*
X116710176Y-70090199D01*
G37*
G36*
X140510176Y-70090199D02*
G01*
X140701352Y-70169387D01*
X140701354Y-70169388D01*
X140873408Y-70284351D01*
X141019729Y-70430672D01*
X141134693Y-70602728D01*
X141213881Y-70793904D01*
X141254250Y-70996854D01*
X141254250Y-71203786D01*
X141213881Y-71406736D01*
X141134693Y-71597912D01*
X141134692Y-71597914D01*
X141019729Y-71769968D01*
X140873408Y-71916289D01*
X140701354Y-72031252D01*
X140701353Y-72031253D01*
X140701352Y-72031253D01*
X140510176Y-72110441D01*
X140307226Y-72150810D01*
X140100294Y-72150810D01*
X139897344Y-72110441D01*
X139706168Y-72031253D01*
X139706167Y-72031253D01*
X139706166Y-72031252D01*
X139534112Y-71916289D01*
X139387791Y-71769968D01*
X139272828Y-71597914D01*
X139272827Y-71597912D01*
X139193639Y-71406736D01*
X139153270Y-71203786D01*
X139153270Y-70996854D01*
X139193639Y-70793904D01*
X139272827Y-70602728D01*
X139387791Y-70430672D01*
X139534112Y-70284351D01*
X139706166Y-70169388D01*
X139706168Y-70169387D01*
X139897344Y-70090199D01*
X140100294Y-70049830D01*
X140307226Y-70049830D01*
X140510176Y-70090199D01*
G37*
G36*
X186110176Y-70090199D02*
G01*
X186301352Y-70169387D01*
X186301354Y-70169388D01*
X186473408Y-70284351D01*
X186619729Y-70430672D01*
X186734693Y-70602728D01*
X186813881Y-70793904D01*
X186854250Y-70996854D01*
X186854250Y-71203786D01*
X186813881Y-71406736D01*
X186734693Y-71597912D01*
X186734692Y-71597914D01*
X186619729Y-71769968D01*
X186473408Y-71916289D01*
X186301354Y-72031252D01*
X186301353Y-72031253D01*
X186301352Y-72031253D01*
X186110176Y-72110441D01*
X185907226Y-72150810D01*
X185700294Y-72150810D01*
X185497344Y-72110441D01*
X185306168Y-72031253D01*
X185306167Y-72031253D01*
X185306166Y-72031252D01*
X185134112Y-71916289D01*
X184987791Y-71769968D01*
X184872828Y-71597914D01*
X184872827Y-71597912D01*
X184793639Y-71406736D01*
X184753270Y-71203786D01*
X184753270Y-70996854D01*
X184793639Y-70793904D01*
X184872827Y-70602728D01*
X184987791Y-70430672D01*
X185134112Y-70284351D01*
X185306166Y-70169388D01*
X185306168Y-70169387D01*
X185497344Y-70090199D01*
X185700294Y-70049830D01*
X185907226Y-70049830D01*
X186110176Y-70090199D01*
G37*
G36*
X170910176Y-70090199D02*
G01*
X171101352Y-70169387D01*
X171101354Y-70169388D01*
X171273408Y-70284351D01*
X171419729Y-70430672D01*
X171534693Y-70602728D01*
X171613881Y-70793904D01*
X171654250Y-70996854D01*
X171654250Y-71203786D01*
X171613881Y-71406736D01*
X171534693Y-71597912D01*
X171534692Y-71597914D01*
X171419729Y-71769968D01*
X171273408Y-71916289D01*
X171101354Y-72031252D01*
X171101353Y-72031253D01*
X171101352Y-72031253D01*
X170910176Y-72110441D01*
X170707226Y-72150810D01*
X170500294Y-72150810D01*
X170297344Y-72110441D01*
X170106168Y-72031253D01*
X170106167Y-72031253D01*
X170106166Y-72031252D01*
X169934112Y-71916289D01*
X169787791Y-71769968D01*
X169672828Y-71597914D01*
X169672827Y-71597912D01*
X169593639Y-71406736D01*
X169553270Y-71203786D01*
X169553270Y-70996854D01*
X169593639Y-70793904D01*
X169672827Y-70602728D01*
X169787791Y-70430672D01*
X169934112Y-70284351D01*
X170106166Y-70169388D01*
X170106168Y-70169387D01*
X170297344Y-70090199D01*
X170500294Y-70049830D01*
X170707226Y-70049830D01*
X170910176Y-70090199D01*
G37*
G36*
X155710176Y-70090199D02*
G01*
X155901352Y-70169387D01*
X155901354Y-70169388D01*
X156073408Y-70284351D01*
X156219729Y-70430672D01*
X156334693Y-70602728D01*
X156413881Y-70793904D01*
X156454250Y-70996854D01*
X156454250Y-71203786D01*
X156413881Y-71406736D01*
X156334693Y-71597912D01*
X156334692Y-71597914D01*
X156219729Y-71769968D01*
X156073408Y-71916289D01*
X155901354Y-72031252D01*
X155901353Y-72031253D01*
X155901352Y-72031253D01*
X155710176Y-72110441D01*
X155507226Y-72150810D01*
X155300294Y-72150810D01*
X155097344Y-72110441D01*
X154906168Y-72031253D01*
X154906167Y-72031253D01*
X154906166Y-72031252D01*
X154734112Y-71916289D01*
X154587791Y-71769968D01*
X154472828Y-71597914D01*
X154472827Y-71597912D01*
X154393639Y-71406736D01*
X154353270Y-71203786D01*
X154353270Y-70996854D01*
X154393639Y-70793904D01*
X154472827Y-70602728D01*
X154587791Y-70430672D01*
X154734112Y-70284351D01*
X154906166Y-70169388D01*
X154906168Y-70169387D01*
X155097344Y-70090199D01*
X155300294Y-70049830D01*
X155507226Y-70049830D01*
X155710176Y-70090199D01*
G37*
M02*
