G04 #@! TF.GenerationSoftware,KiCad,Pcbnew,5.1.5+dfsg1-2build2*
G04 #@! TF.CreationDate,2022-03-04T22:17:49-05:00*
G04 #@! TF.ProjectId,,58585858-5858-4585-9858-585858585858,rev?*
G04 #@! TF.SameCoordinates,Original*
G04 #@! TF.FileFunction,Copper,L1,Top*
G04 #@! TF.FilePolarity,Positive*
%FSLAX46Y46*%
G04 Gerber Fmt 4.6, Leading zero omitted, Abs format (unit mm)*
G04 Created by KiCad (PCBNEW 5.1.5+dfsg1-2build2) date 2022-03-04 22:17:49*
%MOMM*%
%LPD*%
G04 APERTURE LIST*
%ADD10C,1.998980*%
G04 APERTURE END LIST*
D10*
X196703760Y-151400320D03*
X181503760Y-151400320D03*
X166303760Y-151400320D03*
X151103760Y-151400320D03*
X135903760Y-151400320D03*
X120703760Y-151400320D03*
X196703760Y-136200320D03*
X181503760Y-136200320D03*
X166303760Y-136200320D03*
X151103760Y-136200320D03*
X135903760Y-136200320D03*
X120703760Y-136200320D03*
X196703760Y-121000320D03*
X181503760Y-121000320D03*
X166303760Y-121000320D03*
X151103760Y-121000320D03*
X135903760Y-121000320D03*
X120703760Y-121000320D03*
X196703760Y-105800320D03*
X181503760Y-105800320D03*
X166303760Y-105800320D03*
X151103760Y-105800320D03*
X135903760Y-105800320D03*
X120703760Y-105800320D03*
X196703760Y-90600320D03*
X181503760Y-90600320D03*
X166303760Y-90600320D03*
X151103760Y-90600320D03*
X135903760Y-90600320D03*
X120703760Y-90600320D03*
X196703760Y-75400320D03*
X181503760Y-75400320D03*
X166303760Y-75400320D03*
X151103760Y-75400320D03*
X135903760Y-75400320D03*
X201003760Y-155700320D03*
X185803760Y-155700320D03*
X170603760Y-155700320D03*
X155403760Y-155700320D03*
X140203760Y-155700320D03*
X125003760Y-155700320D03*
X201003760Y-140500320D03*
X185803760Y-140500320D03*
X170603760Y-140500320D03*
X155403760Y-140500320D03*
X140203760Y-140500320D03*
X125003760Y-140500320D03*
X201003760Y-125300320D03*
X185803760Y-125300320D03*
X170603760Y-125300320D03*
X155403760Y-125300320D03*
X140203760Y-125300320D03*
X125003760Y-125300320D03*
X201003760Y-110100320D03*
X185803760Y-110100320D03*
X170603760Y-110100320D03*
X155403760Y-110100320D03*
X140203760Y-110100320D03*
X125003760Y-110100320D03*
X201003760Y-94900320D03*
X185803760Y-94900320D03*
X170603760Y-94900320D03*
X155403760Y-94900320D03*
X140203760Y-94900320D03*
X125003760Y-94900320D03*
X201003760Y-79700320D03*
X185803760Y-79700320D03*
X170603760Y-79700320D03*
X155403760Y-79700320D03*
X140203760Y-79700320D03*
X201003760Y-147100320D03*
X185803760Y-147100320D03*
X170603760Y-147100320D03*
X155403760Y-147100320D03*
X140203760Y-147100320D03*
X125003760Y-147100320D03*
X201003760Y-131900320D03*
X185803760Y-131900320D03*
X170603760Y-131900320D03*
X155403760Y-131900320D03*
X140203760Y-131900320D03*
X125003760Y-131900320D03*
X201003760Y-116700320D03*
X185803760Y-116700320D03*
X170603760Y-116700320D03*
X155403760Y-116700320D03*
X140203760Y-116700320D03*
X125003760Y-116700320D03*
X201003760Y-101500320D03*
X185803760Y-101500320D03*
X170603760Y-101500320D03*
X155403760Y-101500320D03*
X140203760Y-101500320D03*
X125003760Y-101500320D03*
X201003760Y-86300320D03*
X185803760Y-86300320D03*
X170603760Y-86300320D03*
X155403760Y-86300320D03*
X140203760Y-86300320D03*
X125003760Y-86300320D03*
X201003760Y-71100320D03*
X185803760Y-71100320D03*
X170603760Y-71100320D03*
X155403760Y-71100320D03*
X140203760Y-71100320D03*
X192403760Y-155700320D03*
X177203760Y-155700320D03*
X162003760Y-155700320D03*
X146803760Y-155700320D03*
X131603760Y-155700320D03*
X116403760Y-155700320D03*
X192403760Y-140500320D03*
X177203760Y-140500320D03*
X162003760Y-140500320D03*
X146803760Y-140500320D03*
X131603760Y-140500320D03*
X116403760Y-140500320D03*
X192403760Y-125300320D03*
X177203760Y-125300320D03*
X162003760Y-125300320D03*
X146803760Y-125300320D03*
X131603760Y-125300320D03*
X116403760Y-125300320D03*
X192403760Y-110100320D03*
X177203760Y-110100320D03*
X162003760Y-110100320D03*
X146803760Y-110100320D03*
X131603760Y-110100320D03*
X116403760Y-110100320D03*
X192403760Y-94900320D03*
X177203760Y-94900320D03*
X162003760Y-94900320D03*
X146803760Y-94900320D03*
X131603760Y-94900320D03*
X116403760Y-94900320D03*
X192403760Y-79700320D03*
X177203760Y-79700320D03*
X162003760Y-79700320D03*
X146803760Y-79700320D03*
X131603760Y-79700320D03*
X192403760Y-147100320D03*
X177203760Y-147100320D03*
X162003760Y-147100320D03*
X146803760Y-147100320D03*
X131603760Y-147100320D03*
X116403760Y-147100320D03*
X192403760Y-131900320D03*
X177203760Y-131900320D03*
X162003760Y-131900320D03*
X146803760Y-131900320D03*
X131603760Y-131900320D03*
X116403760Y-131900320D03*
X192403760Y-116700320D03*
X177203760Y-116700320D03*
X162003760Y-116700320D03*
X146803760Y-116700320D03*
X131603760Y-116700320D03*
X116403760Y-116700320D03*
X192403760Y-101500320D03*
X177203760Y-101500320D03*
X162003760Y-101500320D03*
X146803760Y-101500320D03*
X131603760Y-101500320D03*
X116403760Y-101500320D03*
X192403760Y-86300320D03*
X177203760Y-86300320D03*
X162003760Y-86300320D03*
X146803760Y-86300320D03*
X131603760Y-86300320D03*
X116403760Y-86300320D03*
X192403760Y-71100320D03*
X177203760Y-71100320D03*
X162003760Y-71100320D03*
X146803760Y-71100320D03*
X131603760Y-71100320D03*
X120703760Y-75400320D03*
X125003760Y-79700320D03*
X116403760Y-79700320D03*
X125003760Y-71100320D03*
X116403760Y-71100320D03*
M02*
