<?xml version="1.0" encoding="UTF-8" standalone="no"?>
<svg
   xmlns:dc="http://purl.org/dc/elements/1.1/"
   xmlns:cc="http://creativecommons.org/ns#"
   xmlns:rdf="http://www.w3.org/1999/02/22-rdf-syntax-ns#"
   xmlns:svg="http://www.w3.org/2000/svg"
   xmlns="http://www.w3.org/2000/svg"
   xmlns:sodipodi="http://sodipodi.sourceforge.net/DTD/sodipodi-0.dtd"
   xmlns:inkscape="http://www.inkscape.org/namespaces/inkscape"
   version="1.1"
   width="2.7950048cm"
   height="2.7950048cm"
   viewBox="0 0 11003.964 11003.967"
   id="svg134"
   sodipodi:docname="drill-layout.svg"
   inkscape:version="0.92.5 (2060ec1f9f, 2020-04-08)">
  <metadata
     id="metadata140">
    <rdf:RDF>
      <cc:Work
         rdf:about="">
        <dc:format>image/svg+xml</dc:format>
        <dc:type
           rdf:resource="http://purl.org/dc/dcmitype/StillImage" />
        <dc:title>SVG Picture created as N_FLANGE_4_HOLES-PTH-drl_map.svg date 2022/03/04 23:52:23 </dc:title>
      </cc:Work>
    </rdf:RDF>
  </metadata>
  <defs
     id="defs138" />
  <sodipodi:namedview
     pagecolor="#ffffff"
     bordercolor="#666666"
     borderopacity="1"
     objecttolerance="10"
     gridtolerance="10"
     guidetolerance="10"
     inkscape:pageopacity="0"
     inkscape:pageshadow="2"
     inkscape:window-width="1360"
     inkscape:window-height="618"
     id="namedview136"
     showgrid="false"
     fit-margin-top="0"
     fit-margin-left="0"
     fit-margin-right="0"
     fit-margin-bottom="0"
     inkscape:zoom="3.3639203"
     inkscape:cx="94.807225"
     inkscape:cy="56.349944"
     inkscape:window-x="0"
     inkscape:window-y="0"
     inkscape:window-maximized="1"
     inkscape:current-layer="svg134" />
  <title
     id="title2">SVG Picture created as N_FLANGE_4_HOLES-PTH-drl_map.svg date 2022/03/04 23:52:23 </title>
  <desc
     id="desc4">Picture generated by PCBNEW </desc>
  <g
     style="fill:#000000;fill-opacity:1;stroke:#000000;stroke-linecap:round;stroke-linejoin:round;stroke-opacity:1"
     id="g6"
     transform="translate(-19675.017,-19675.017)" />
  <g
     style="fill:#000000;fill-opacity:0;stroke:#000000;stroke-width:-0.0003937;stroke-linecap:round;stroke-linejoin:round;stroke-opacity:1"
     id="g8"
     transform="translate(-19675.017,-19675.017)" />
  <g
     id="g1691"
     transform="translate(-19675.017,-19675.017)">
    <g
       id="g963">
      <g
         style="fill:#000000;fill-opacity:0;stroke:#000000;stroke-width:19.68499947;stroke-linecap:round;stroke-linejoin:round;stroke-opacity:1"
         id="g18">
        <path
           d="M 19685,30669 H 30669"
           id="path10"
           inkscape:connector-curvature="0" />
        <path
           d="M 30669,19685 V 30669"
           id="path12"
           inkscape:connector-curvature="0" />
        <path
           d="M 19685,19685 H 30669"
           id="path14"
           inkscape:connector-curvature="0" />
        <path
           d="M 19685,19685 V 30669"
           id="path16"
           inkscape:connector-curvature="0" />
      </g>
      <g
         style="fill:#000000;fill-opacity:0;stroke:#000000;stroke-width:78.74019623;stroke-linecap:round;stroke-linejoin:round;stroke-opacity:1"
         id="g40">
        <path
           d="m 21436,21436 315,315"
           id="path20"
           inkscape:connector-curvature="0" />
        <path
           d="m 21751,21436 -315,315"
           id="path22"
           inkscape:connector-curvature="0" />
        <path
           d="m 25019,25019 315,315"
           id="path24"
           inkscape:connector-curvature="0" />
        <path
           d="m 25334,25019 -315,315"
           id="path26"
           inkscape:connector-curvature="0" />
        <path
           d="m 28602,21436 315,315"
           id="path28"
           inkscape:connector-curvature="0" />
        <path
           d="m 28917,21436 -315,315"
           id="path30"
           inkscape:connector-curvature="0" />
        <path
           d="m 28602,28602 315,315"
           id="path32"
           inkscape:connector-curvature="0" />
        <path
           d="m 28917,28602 -315,315"
           id="path34"
           inkscape:connector-curvature="0" />
        <path
           d="m 21436,28602 315,315"
           id="path36"
           inkscape:connector-curvature="0" />
        <path
           d="m 21751,28602 -315,315"
           id="path38"
           inkscape:connector-curvature="0" />
      </g>
    </g>
    <g
       id="g1578">
      <g
         style="fill:#000000;fill-opacity:1;stroke:#000000;stroke-linecap:round;stroke-linejoin:round;stroke-opacity:1"
         id="g1291" />
      <g
         style="fill:#000000;fill-opacity:0;stroke:#000000;stroke-width:-0.0003937;stroke-linecap:round;stroke-linejoin:round;stroke-opacity:1"
         id="g1293" />
      <g
         style="fill:#000000;fill-opacity:0;stroke:#000000;stroke-width:59.05509949;stroke-linecap:round;stroke-linejoin:round;stroke-opacity:1"
         id="g1441">
        <text
           style="font-size:524.934021px;text-anchor:start;opacity:0"
           x="23938"
           y="21899.199"
           textLength="830.521"
           font-size="524.934"
           lengthAdjust="spacingAndGlyphs"
           id="text1295">N</text>
        <path
           inkscape:connector-curvature="0"
           d="m 24070,21880 v -394 l 225,394 v -394"
           id="path1297" />
        <text
           style="font-size:524.934021px;text-anchor:start;opacity:0"
           x="23938"
           y="22548.9"
           textLength="2232.75"
           font-size="524.934"
           lengthAdjust="spacingAndGlyphs"
           id="text1299">FLANGE</text>
        <path
           inkscape:connector-curvature="0"
           d="m 24201,22323 h -131"
           id="path1301" />
        <path
           inkscape:connector-curvature="0"
           d="m 24070,22530 v -394 h 187"
           id="path1303" />
        <path
           inkscape:connector-curvature="0"
           d="m 24595,22530 h -188 v -394"
           id="path1305" />
        <path
           inkscape:connector-curvature="0"
           d="m 24707,22417 h 188"
           id="path1307" />
        <path
           inkscape:connector-curvature="0"
           d="m 24670,22530 131,-394 131,394"
           id="path1309" />
        <path
           inkscape:connector-curvature="0"
           d="m 25063,22530 v -394 l 225,394 v -394"
           id="path1311" />
        <path
           inkscape:connector-curvature="0"
           d="m 25682,22155 -38,-19 h -56 l -56,19 -38,37 -18,38 -19,75 v 56 l 19,75 18,37 38,38 56,19 h 38 l 56,-19 19,-19 v -131 h -75"
           id="path1313" />
        <path
           inkscape:connector-curvature="0"
           d="m 25869,22323 h 132"
           id="path1315" />
        <path
           inkscape:connector-curvature="0"
           d="m 26057,22530 h -188 v -394 h 188"
           id="path1317" />
        <text
           style="font-size:524.934021px;text-anchor:start;opacity:0"
           x="23938"
           y="23198.5"
           textLength="2626.45"
           font-size="524.934"
           lengthAdjust="spacingAndGlyphs"
           id="text1319">4 HOLES</text>
        <path
           inkscape:connector-curvature="0"
           d="m 24238,22917 v 262"
           id="path1321" />
        <path
           inkscape:connector-curvature="0"
           d="m 24145,22767 -94,281 h 244"
           id="path1323" />
        <path
           inkscape:connector-curvature="0"
           d="m 24745,23179 v -393"
           id="path1325" />
        <path
           inkscape:connector-curvature="0"
           d="m 24745,22973 h 225"
           id="path1327" />
        <path
           inkscape:connector-curvature="0"
           d="m 24970,23179 v -393"
           id="path1329" />
        <path
           inkscape:connector-curvature="0"
           d="m 25232,22786 h 75 l 37,18 38,38 19,75 v 131 l -19,75 -38,37 -37,19 h -75 l -38,-19 -37,-37 -19,-75 v -131 l 19,-75 37,-38 38,-18"
           id="path1331" />
        <path
           inkscape:connector-curvature="0"
           d="m 25757,23179 h -188 v -393"
           id="path1333" />
        <path
           inkscape:connector-curvature="0"
           d="m 25888,22973 h 131"
           id="path1335" />
        <path
           inkscape:connector-curvature="0"
           d="m 26076,23179 h -188 v -393 h 188"
           id="path1337" />
        <path
           inkscape:connector-curvature="0"
           d="m 26226,23160 56,19 h 94 l 37,-19 19,-18 19,-38 v -37 l -19,-38 -19,-19 -37,-18 -75,-19 -38,-19 -19,-19 -18,-37 v -38 l 18,-37 19,-19 38,-18 h 93 l 57,18"
           id="path1339" />
        <g
           transform="rotate(90,19928,24988)"
           id="g1343">
          <text
             style="font-size:314.96099854px;text-anchor:middle;opacity:0"
             x="19928"
             y="25106.1"
             textLength="1674.0699"
             font-size="314.961"
             lengthAdjust="spacingAndGlyphs"
             id="text1341">25.4 mm</text>
        </g>
        <path
           inkscape:connector-curvature="0"
           d="m 20034,24234 12,11 11,23 v 56 l -11,22 -12,12 -22,11 h -23 l -33,-11 -135,-135 v 146"
           id="path1345" />
        <path
           inkscape:connector-curvature="0"
           d="m 20057,24583 v -113 l -113,-11 12,11 11,23 v 56 l -11,22 -12,12 -22,11 h -56 l -23,-11 -11,-12 -11,-22 v -56 l 11,-23 11,-11"
           id="path1347" />
        <path
           inkscape:connector-curvature="0"
           d="m 19843,24695 -11,11 -11,-11 11,-11 11,11 h -22"
           id="path1349" />
        <path
           inkscape:connector-curvature="0"
           d="m 19978,24909 h -157"
           id="path1351" />
        <path
           inkscape:connector-curvature="0"
           d="m 20068,24853 -169,-57 v 147"
           id="path1353" />
        <path
           inkscape:connector-curvature="0"
           d="m 19821,25212 h 157"
           id="path1355" />
        <path
           inkscape:connector-curvature="0"
           d="m 19956,25212 11,12 11,22 v 34 l -11,22 -23,12 h -123"
           id="path1357" />
        <path
           inkscape:connector-curvature="0"
           d="m 19944,25314 23,11 11,22 v 34 l -11,23 -23,11 h -123"
           id="path1359" />
        <path
           inkscape:connector-curvature="0"
           d="m 19821,25527 h 157"
           id="path1361" />
        <path
           inkscape:connector-curvature="0"
           d="m 19956,25527 11,12 11,22 v 34 l -11,22 -23,12 h -123"
           id="path1363" />
        <path
           inkscape:connector-curvature="0"
           d="m 19944,25629 23,11 11,22 v 34 l -11,23 -23,11 h -123"
           id="path1365" />
        <text
           style="font-size:314.96099854px;text-anchor:middle;opacity:0"
           x="24986"
           y="30558.1"
           textLength="1674.0699"
           font-size="314.961"
           lengthAdjust="spacingAndGlyphs"
           id="text1367">25.4 mm</text>
        <path
           inkscape:connector-curvature="0"
           d="m 24232,30333 11,-12 23,-11 h 56 l 22,11 12,12 11,22 v 23 l -11,33 -135,135 h 146"
           id="path1369" />
        <path
           inkscape:connector-curvature="0"
           d="m 24581,30310 h -113 l -11,113 11,-12 23,-11 h 56 l 22,11 12,12 11,22 v 56 l -11,23 -12,11 -22,11 h -56 l -23,-11 -11,-11"
           id="path1371" />
        <path
           inkscape:connector-curvature="0"
           d="m 24693,30524 11,11 -11,11 -11,-11 11,-11 v 22"
           id="path1373" />
        <path
           inkscape:connector-curvature="0"
           d="m 24907,30389 v 157"
           id="path1375" />
        <path
           inkscape:connector-curvature="0"
           d="m 24851,30299 -57,169 h 147"
           id="path1377" />
        <path
           inkscape:connector-curvature="0"
           d="m 25210,30546 v -157"
           id="path1379" />
        <path
           inkscape:connector-curvature="0"
           d="m 25210,30411 12,-11 22,-11 h 34 l 22,11 12,23 v 123"
           id="path1381" />
        <path
           inkscape:connector-curvature="0"
           d="m 25312,30423 11,-23 22,-11 h 34 l 23,11 11,23 v 123"
           id="path1383" />
        <path
           inkscape:connector-curvature="0"
           d="m 25525,30546 v -157"
           id="path1385" />
        <path
           inkscape:connector-curvature="0"
           d="m 25525,30411 12,-11 22,-11 h 34 l 22,11 12,23 v 123"
           id="path1387" />
        <path
           inkscape:connector-curvature="0"
           d="m 25627,30423 11,-23 22,-11 h 34 l 23,11 11,23 v 123"
           id="path1389" />
        <g
           transform="rotate(90,21522,25048)"
           id="g1393">
          <text
             style="font-size:524.934021px;text-anchor:middle;opacity:0"
             x="21522"
             y="25244.9"
             textLength="2738.9399"
             font-size="524.934"
             lengthAdjust="spacingAndGlyphs"
             id="text1391">18.2 mm</text>
        </g>
        <path
           inkscape:connector-curvature="0"
           d="m 21343,24016 v -225"
           id="path1395" />
        <path
           inkscape:connector-curvature="0"
           d="m 21343,23904 h 394 l -56,-38 -38,-37 -18,-38"
           id="path1397" />
        <path
           inkscape:connector-curvature="0"
           d="m 21568,24241 19,-37 19,-19 37,-19 h 19 l 38,19 18,19 19,37 v 75 l -19,38 -18,19 -38,18 h -19 l -37,-18 -19,-19 -19,-38 v -75 l -18,-37 -19,-19 -38,-19 h -75 l -37,19 -19,19 -19,37 v 75 l 19,38 19,19 37,18 h 75 l 38,-18 19,-19 18,-38"
           id="path1399" />
        <path
           inkscape:connector-curvature="0"
           d="m 21381,24560 -19,19 -19,-19 19,-19 19,19 h -38"
           id="path1401" />
        <path
           inkscape:connector-curvature="0"
           d="m 21700,24729 18,19 19,37 v 94 l -19,37 -18,19 -38,19 h -37 l -57,-19 -225,-225 v 244"
           id="path1403" />
        <path
           inkscape:connector-curvature="0"
           d="m 21343,25422 h 263"
           id="path1405" />
        <path
           inkscape:connector-curvature="0"
           d="m 21568,25422 19,19 19,38 v 56 l -19,37 -37,19 h -207"
           id="path1407" />
        <path
           inkscape:connector-curvature="0"
           d="m 21550,25591 37,19 19,37 v 57 l -19,37 -37,19 h -207"
           id="path1409" />
        <path
           inkscape:connector-curvature="0"
           d="m 21343,25947 h 263"
           id="path1411" />
        <path
           inkscape:connector-curvature="0"
           d="m 21568,25947 19,19 19,38 v 56 l -19,37 -37,19 h -207"
           id="path1413" />
        <path
           inkscape:connector-curvature="0"
           d="m 21550,26116 37,19 19,37 v 57 l -19,37 -37,19 h -207"
           id="path1415" />
        <text
           style="font-size:524.934021px;text-anchor:middle;opacity:0"
           x="24952"
           y="28992.9"
           textLength="2738.9399"
           font-size="524.934"
           lengthAdjust="spacingAndGlyphs"
           id="text1417">18.2 mm</text>
        <path
           inkscape:connector-curvature="0"
           d="m 23920,28974 h -225"
           id="path1419" />
        <path
           inkscape:connector-curvature="0"
           d="m 23808,28974 v -394 l -38,56 -37,38 -38,18"
           id="path1421" />
        <path
           inkscape:connector-curvature="0"
           d="m 24145,28749 -37,-19 -19,-19 -19,-37 v -19 l 19,-38 19,-18 37,-19 h 75 l 38,19 19,18 18,38 v 19 l -18,37 -19,19 -38,19 h -75 l -37,18 -19,19 -19,38 v 75 l 19,37 19,19 37,19 h 75 l 38,-19 19,-19 18,-37 v -75 l -18,-38 -19,-19 -38,-18"
           id="path1423" />
        <path
           inkscape:connector-curvature="0"
           d="m 24464,28936 19,19 -19,19 -19,-19 19,-19 v 38"
           id="path1425" />
        <path
           inkscape:connector-curvature="0"
           d="m 24633,28617 19,-18 37,-19 h 94 l 37,19 19,18 19,38 v 37 l -19,57 -225,225 h 244"
           id="path1427" />
        <path
           inkscape:connector-curvature="0"
           d="m 25326,28974 v -263"
           id="path1429" />
        <path
           inkscape:connector-curvature="0"
           d="m 25326,28749 19,-19 38,-19 h 56 l 37,19 19,37 v 207"
           id="path1431" />
        <path
           inkscape:connector-curvature="0"
           d="m 25495,28767 19,-37 37,-19 h 57 l 37,19 19,37 v 207"
           id="path1433" />
        <path
           inkscape:connector-curvature="0"
           d="m 25851,28974 v -263"
           id="path1435" />
        <path
           inkscape:connector-curvature="0"
           d="m 25851,28749 19,-19 38,-19 h 56 l 37,19 19,37 v 207"
           id="path1437" />
        <path
           inkscape:connector-curvature="0"
           d="m 26020,28767 19,-37 37,-19 h 57 l 37,19 19,37 v 207"
           id="path1439" />
      </g>
      <g
         style="fill:#000000;fill-opacity:0;stroke:#000000;stroke-width:19.68499947;stroke-linecap:round;stroke-linejoin:round;stroke-opacity:1"
         id="g1447">
        <path
           inkscape:connector-curvature="0"
           d="M 19685,30669 H 30669"
           id="path1443" />
        <path
           inkscape:connector-curvature="0"
           d="M 30669,19685 V 30669"
           id="path1445" />
      </g>
      <g
         style="fill:#000000;fill-opacity:0;stroke:#000000;stroke-width:47.24409866;stroke-linecap:round;stroke-linejoin:round;stroke-opacity:1"
         id="g1457">
        <path
           inkscape:connector-curvature="0"
           d="M 20177,30177 H 30177"
           id="path1449" />
        <path
           inkscape:connector-curvature="0"
           d="M 30177,20177 V 30177"
           id="path1451" />
        <path
           inkscape:connector-curvature="0"
           d="M 20177,20177 H 30177"
           id="path1453" />
        <path
           inkscape:connector-curvature="0"
           d="M 20177,20177 V 30177"
           id="path1455" />
      </g>
      <g
         style="fill:#000000;fill-opacity:0;stroke:#000000;stroke-width:19.68499947;stroke-linecap:round;stroke-linejoin:round;stroke-opacity:1"
         id="g1475">
        <path
           inkscape:connector-curvature="0"
           d="M 19685,19685 H 30669"
           id="path1459" />
        <path
           inkscape:connector-curvature="0"
           d="M 19685,19685 V 30669"
           id="path1461" />
        <g
           id="g1463" />
        <g
           id="g1465" />
        <g
           id="g1467" />
        <g
           id="g1469" />
        <g
           id="g1471" />
        <g
           id="g1473" />
      </g>
    </g>
  </g>
</svg>
