M48
; DRILL file {KiCad 5.1.5+dfsg1-2build2} date vie 04 mar 2022 22:17:46
; FORMAT={-:-/ absolute / metric / decimal}
; #@! TF.CreationDate,2022-03-04T22:17:46-05:00
; #@! TF.GenerationSoftware,Kicad,Pcbnew,5.1.5+dfsg1-2build2
; #@! TF.FileFunction,Plated,1,2,PTH
FMAT,2
METRIC
T1C0.800
%
G90
G05
T1
X131.604Y-131.9
X146.804Y-71.1
X140.204Y-79.7
X170.604Y-155.7
X135.904Y-90.6
X131.604Y-125.3
X155.404Y-116.7
X185.804Y-110.1
X166.304Y-136.2
X116.404Y-116.7
X146.804Y-79.7
X170.604Y-71.1
X185.804Y-79.7
X181.504Y-90.6
X116.404Y-131.9
X177.204Y-125.3
X201.004Y-116.7
X140.204Y-125.3
X120.704Y-151.4
X131.604Y-71.1
X192.404Y-101.5
X192.404Y-79.7
X125.004Y-86.3
X135.904Y-105.8
X131.604Y-79.7
X192.404Y-116.7
X131.604Y-140.5
X155.404Y-131.9
X185.804Y-125.3
X166.304Y-151.4
X131.604Y-86.3
X125.004Y-79.7
X192.404Y-86.3
X146.804Y-94.9
X170.604Y-86.3
X181.504Y-105.8
X116.404Y-79.7
X177.204Y-101.5
X177.204Y-140.5
X201.004Y-131.9
X140.204Y-140.5
X192.404Y-94.9
X125.004Y-101.5
X155.404Y-94.9
X135.904Y-121.0
X131.604Y-155.7
X155.404Y-147.1
X185.804Y-140.5
X151.104Y-75.4
X162.004Y-101.5
X177.204Y-71.1
X192.404Y-147.1
X146.804Y-110.1
X170.604Y-101.5
X201.004Y-94.9
X181.504Y-121.0
X162.004Y-71.1
X140.204Y-94.9
X177.204Y-155.7
X201.004Y-147.1
X140.204Y-155.7
X196.704Y-75.4
X146.804Y-101.5
X192.404Y-110.1
X125.004Y-116.7
X155.404Y-110.1
X135.904Y-136.2
X177.204Y-147.1
X140.204Y-71.1
X155.404Y-79.7
X185.804Y-155.7
X151.104Y-90.6
X131.604Y-101.5
X201.004Y-79.7
X146.804Y-125.3
X170.604Y-116.7
X201.004Y-110.1
X181.504Y-136.2
X146.804Y-86.3
X162.004Y-79.7
X185.804Y-71.1
X196.704Y-90.6
X116.404Y-101.5
X162.004Y-147.1
X192.404Y-125.3
X125.004Y-131.9
X155.404Y-125.3
X135.904Y-151.4
X116.404Y-94.9
X140.204Y-86.3
X151.104Y-105.8
X146.804Y-147.1
X146.804Y-140.5
X170.604Y-131.9
X201.004Y-125.3
X181.504Y-151.4
X125.004Y-71.1
X162.004Y-94.9
X185.804Y-86.3
X196.704Y-105.8
X192.404Y-140.5
X125.004Y-147.1
X155.404Y-140.5
X131.604Y-147.1
X116.404Y-110.1
X140.204Y-101.5
X170.604Y-94.9
X151.104Y-121.0
X116.404Y-86.3
X146.804Y-155.7
X170.604Y-147.1
X201.004Y-140.5
X166.304Y-75.4
X120.704Y-75.4
X162.004Y-110.1
X185.804Y-101.5
X125.004Y-110.1
X196.704Y-121.0
X116.404Y-147.1
X192.404Y-155.7
X155.404Y-155.7
X120.704Y-90.6
X162.004Y-86.3
X116.404Y-125.3
X140.204Y-116.7
X170.604Y-110.1
X151.104Y-136.2
X192.404Y-131.9
X155.404Y-71.1
X170.604Y-79.7
X201.004Y-155.7
X166.304Y-90.6
X125.004Y-94.9
X162.004Y-125.3
X185.804Y-116.7
X125.004Y-125.3
X196.704Y-136.2
X177.204Y-116.7
X177.204Y-79.7
X201.004Y-71.1
X120.704Y-105.8
X177.204Y-131.9
X116.404Y-140.5
X140.204Y-131.9
X170.604Y-125.3
X151.104Y-151.4
X131.604Y-94.9
X155.404Y-86.3
X166.304Y-105.8
X162.004Y-116.7
X192.404Y-71.1
X162.004Y-140.5
X185.804Y-131.9
X125.004Y-140.5
X196.704Y-151.4
X162.004Y-131.9
X177.204Y-94.9
X201.004Y-86.3
X120.704Y-121.0
X146.804Y-116.7
X116.404Y-155.7
X140.204Y-147.1
X170.604Y-140.5
X135.904Y-75.4
X177.204Y-86.3
X146.804Y-131.9
X131.604Y-110.1
X155.404Y-101.5
X185.804Y-94.9
X166.304Y-121.0
X116.404Y-71.1
X162.004Y-155.7
X185.804Y-147.1
X125.004Y-155.7
X181.504Y-75.4
X131.604Y-116.7
X177.204Y-110.1
X201.004Y-101.5
X140.204Y-110.1
X120.704Y-136.2
T0
M30
