G04 #@! TF.GenerationSoftware,KiCad,Pcbnew,5.1.5+dfsg1-2build2*
G04 #@! TF.CreationDate,2022-03-04T22:17:49-05:00*
G04 #@! TF.ProjectId,,58585858-5858-4585-9858-585858585858,rev?*
G04 #@! TF.SameCoordinates,Original*
G04 #@! TF.FileFunction,Profile,NP*
%FSLAX46Y46*%
G04 Gerber Fmt 4.6, Leading zero omitted, Abs format (unit mm)*
G04 Created by KiCad (PCBNEW 5.1.5+dfsg1-2build2) date 2022-03-04 22:17:49*
%MOMM*%
%LPD*%
G04 APERTURE LIST*
%ADD10C,0.050000*%
G04 APERTURE END LIST*
D10*
X204303760Y-143800320D02*
X204303760Y-159000320D01*
X189103760Y-143800320D02*
X189103760Y-159000320D01*
X173903760Y-143800320D02*
X173903760Y-159000320D01*
X158703760Y-143800320D02*
X158703760Y-159000320D01*
X143503760Y-143800320D02*
X143503760Y-159000320D01*
X128303760Y-143800320D02*
X128303760Y-159000320D01*
X204303760Y-128600320D02*
X204303760Y-143800320D01*
X189103760Y-128600320D02*
X189103760Y-143800320D01*
X173903760Y-128600320D02*
X173903760Y-143800320D01*
X158703760Y-128600320D02*
X158703760Y-143800320D01*
X143503760Y-128600320D02*
X143503760Y-143800320D01*
X128303760Y-128600320D02*
X128303760Y-143800320D01*
X204303760Y-113400320D02*
X204303760Y-128600320D01*
X189103760Y-113400320D02*
X189103760Y-128600320D01*
X173903760Y-113400320D02*
X173903760Y-128600320D01*
X158703760Y-113400320D02*
X158703760Y-128600320D01*
X143503760Y-113400320D02*
X143503760Y-128600320D01*
X128303760Y-113400320D02*
X128303760Y-128600320D01*
X204303760Y-98200320D02*
X204303760Y-113400320D01*
X189103760Y-98200320D02*
X189103760Y-113400320D01*
X173903760Y-98200320D02*
X173903760Y-113400320D01*
X158703760Y-98200320D02*
X158703760Y-113400320D01*
X143503760Y-98200320D02*
X143503760Y-113400320D01*
X128303760Y-98200320D02*
X128303760Y-113400320D01*
X204303760Y-83000320D02*
X204303760Y-98200320D01*
X189103760Y-83000320D02*
X189103760Y-98200320D01*
X173903760Y-83000320D02*
X173903760Y-98200320D01*
X158703760Y-83000320D02*
X158703760Y-98200320D01*
X143503760Y-83000320D02*
X143503760Y-98200320D01*
X128303760Y-83000320D02*
X128303760Y-98200320D01*
X204303760Y-67800320D02*
X204303760Y-83000320D01*
X189103760Y-67800320D02*
X189103760Y-83000320D01*
X173903760Y-67800320D02*
X173903760Y-83000320D01*
X158703760Y-67800320D02*
X158703760Y-83000320D01*
X143503760Y-67800320D02*
X143503760Y-83000320D01*
X189103760Y-143800320D02*
X189103760Y-159000320D01*
X173903760Y-143800320D02*
X173903760Y-159000320D01*
X158703760Y-143800320D02*
X158703760Y-159000320D01*
X143503760Y-143800320D02*
X143503760Y-159000320D01*
X128303760Y-143800320D02*
X128303760Y-159000320D01*
X113103760Y-143800320D02*
X113103760Y-159000320D01*
X189103760Y-128600320D02*
X189103760Y-143800320D01*
X173903760Y-128600320D02*
X173903760Y-143800320D01*
X158703760Y-128600320D02*
X158703760Y-143800320D01*
X143503760Y-128600320D02*
X143503760Y-143800320D01*
X128303760Y-128600320D02*
X128303760Y-143800320D01*
X113103760Y-128600320D02*
X113103760Y-143800320D01*
X189103760Y-113400320D02*
X189103760Y-128600320D01*
X173903760Y-113400320D02*
X173903760Y-128600320D01*
X158703760Y-113400320D02*
X158703760Y-128600320D01*
X143503760Y-113400320D02*
X143503760Y-128600320D01*
X128303760Y-113400320D02*
X128303760Y-128600320D01*
X113103760Y-113400320D02*
X113103760Y-128600320D01*
X189103760Y-98200320D02*
X189103760Y-113400320D01*
X173903760Y-98200320D02*
X173903760Y-113400320D01*
X158703760Y-98200320D02*
X158703760Y-113400320D01*
X143503760Y-98200320D02*
X143503760Y-113400320D01*
X128303760Y-98200320D02*
X128303760Y-113400320D01*
X113103760Y-98200320D02*
X113103760Y-113400320D01*
X189103760Y-83000320D02*
X189103760Y-98200320D01*
X173903760Y-83000320D02*
X173903760Y-98200320D01*
X158703760Y-83000320D02*
X158703760Y-98200320D01*
X143503760Y-83000320D02*
X143503760Y-98200320D01*
X128303760Y-83000320D02*
X128303760Y-98200320D01*
X113103760Y-83000320D02*
X113103760Y-98200320D01*
X189103760Y-67800320D02*
X189103760Y-83000320D01*
X173903760Y-67800320D02*
X173903760Y-83000320D01*
X158703760Y-67800320D02*
X158703760Y-83000320D01*
X143503760Y-67800320D02*
X143503760Y-83000320D01*
X128303760Y-67800320D02*
X128303760Y-83000320D01*
X189103760Y-159000320D02*
X204303760Y-159000320D01*
X173903760Y-159000320D02*
X189103760Y-159000320D01*
X158703760Y-159000320D02*
X173903760Y-159000320D01*
X143503760Y-159000320D02*
X158703760Y-159000320D01*
X128303760Y-159000320D02*
X143503760Y-159000320D01*
X113103760Y-159000320D02*
X128303760Y-159000320D01*
X189103760Y-143800320D02*
X204303760Y-143800320D01*
X173903760Y-143800320D02*
X189103760Y-143800320D01*
X158703760Y-143800320D02*
X173903760Y-143800320D01*
X143503760Y-143800320D02*
X158703760Y-143800320D01*
X128303760Y-143800320D02*
X143503760Y-143800320D01*
X113103760Y-143800320D02*
X128303760Y-143800320D01*
X189103760Y-128600320D02*
X204303760Y-128600320D01*
X173903760Y-128600320D02*
X189103760Y-128600320D01*
X158703760Y-128600320D02*
X173903760Y-128600320D01*
X143503760Y-128600320D02*
X158703760Y-128600320D01*
X128303760Y-128600320D02*
X143503760Y-128600320D01*
X113103760Y-128600320D02*
X128303760Y-128600320D01*
X189103760Y-113400320D02*
X204303760Y-113400320D01*
X173903760Y-113400320D02*
X189103760Y-113400320D01*
X158703760Y-113400320D02*
X173903760Y-113400320D01*
X143503760Y-113400320D02*
X158703760Y-113400320D01*
X128303760Y-113400320D02*
X143503760Y-113400320D01*
X113103760Y-113400320D02*
X128303760Y-113400320D01*
X189103760Y-98200320D02*
X204303760Y-98200320D01*
X173903760Y-98200320D02*
X189103760Y-98200320D01*
X158703760Y-98200320D02*
X173903760Y-98200320D01*
X143503760Y-98200320D02*
X158703760Y-98200320D01*
X128303760Y-98200320D02*
X143503760Y-98200320D01*
X113103760Y-98200320D02*
X128303760Y-98200320D01*
X189103760Y-83000320D02*
X204303760Y-83000320D01*
X173903760Y-83000320D02*
X189103760Y-83000320D01*
X158703760Y-83000320D02*
X173903760Y-83000320D01*
X143503760Y-83000320D02*
X158703760Y-83000320D01*
X128303760Y-83000320D02*
X143503760Y-83000320D01*
X189103760Y-143800320D02*
X204303760Y-143800320D01*
X173903760Y-143800320D02*
X189103760Y-143800320D01*
X158703760Y-143800320D02*
X173903760Y-143800320D01*
X143503760Y-143800320D02*
X158703760Y-143800320D01*
X128303760Y-143800320D02*
X143503760Y-143800320D01*
X113103760Y-143800320D02*
X128303760Y-143800320D01*
X189103760Y-128600320D02*
X204303760Y-128600320D01*
X173903760Y-128600320D02*
X189103760Y-128600320D01*
X158703760Y-128600320D02*
X173903760Y-128600320D01*
X143503760Y-128600320D02*
X158703760Y-128600320D01*
X128303760Y-128600320D02*
X143503760Y-128600320D01*
X113103760Y-128600320D02*
X128303760Y-128600320D01*
X189103760Y-113400320D02*
X204303760Y-113400320D01*
X173903760Y-113400320D02*
X189103760Y-113400320D01*
X158703760Y-113400320D02*
X173903760Y-113400320D01*
X143503760Y-113400320D02*
X158703760Y-113400320D01*
X128303760Y-113400320D02*
X143503760Y-113400320D01*
X113103760Y-113400320D02*
X128303760Y-113400320D01*
X189103760Y-98200320D02*
X204303760Y-98200320D01*
X173903760Y-98200320D02*
X189103760Y-98200320D01*
X158703760Y-98200320D02*
X173903760Y-98200320D01*
X143503760Y-98200320D02*
X158703760Y-98200320D01*
X128303760Y-98200320D02*
X143503760Y-98200320D01*
X113103760Y-98200320D02*
X128303760Y-98200320D01*
X189103760Y-83000320D02*
X204303760Y-83000320D01*
X173903760Y-83000320D02*
X189103760Y-83000320D01*
X158703760Y-83000320D02*
X173903760Y-83000320D01*
X143503760Y-83000320D02*
X158703760Y-83000320D01*
X128303760Y-83000320D02*
X143503760Y-83000320D01*
X113103760Y-83000320D02*
X128303760Y-83000320D01*
X189103760Y-67800320D02*
X204303760Y-67800320D01*
X173903760Y-67800320D02*
X189103760Y-67800320D01*
X158703760Y-67800320D02*
X173903760Y-67800320D01*
X143503760Y-67800320D02*
X158703760Y-67800320D01*
X128303760Y-67800320D02*
X143503760Y-67800320D01*
X113103760Y-83000320D02*
X128303760Y-83000320D01*
X128303760Y-67800320D02*
X128303760Y-83000320D01*
X113103760Y-67800320D02*
X128303760Y-67800320D01*
X113103760Y-67800320D02*
X113103760Y-83000320D01*
M02*
