G04 #@! TF.GenerationSoftware,KiCad,Pcbnew,5.1.5+dfsg1-2build2*
G04 #@! TF.CreationDate,2022-03-04T22:05:38-05:00*
G04 #@! TF.ProjectId,SMA_FLANGE_4_HOLES,534d415f-464c-4414-9e47-455f345f484f,rev?*
G04 #@! TF.SameCoordinates,Original*
G04 #@! TF.FileFunction,Soldermask,Top*
G04 #@! TF.FilePolarity,Negative*
%FSLAX46Y46*%
G04 Gerber Fmt 4.6, Leading zero omitted, Abs format (unit mm)*
G04 Created by KiCad (PCBNEW 5.1.5+dfsg1-2build2) date 2022-03-04 22:05:38*
%MOMM*%
%LPD*%
G04 APERTURE LIST*
%ADD10C,0.100000*%
G04 APERTURE END LIST*
D10*
G36*
X62206416Y-60889879D02*
G01*
X62397592Y-60969067D01*
X62397594Y-60969068D01*
X62569648Y-61084031D01*
X62715969Y-61230352D01*
X62830933Y-61402408D01*
X62910121Y-61593584D01*
X62950490Y-61796534D01*
X62950490Y-62003466D01*
X62910121Y-62206416D01*
X62830933Y-62397592D01*
X62830932Y-62397594D01*
X62715969Y-62569648D01*
X62569648Y-62715969D01*
X62397594Y-62830932D01*
X62397593Y-62830933D01*
X62397592Y-62830933D01*
X62206416Y-62910121D01*
X62003466Y-62950490D01*
X61796534Y-62950490D01*
X61593584Y-62910121D01*
X61402408Y-62830933D01*
X61402407Y-62830933D01*
X61402406Y-62830932D01*
X61230352Y-62715969D01*
X61084031Y-62569648D01*
X60969068Y-62397594D01*
X60969067Y-62397592D01*
X60889879Y-62206416D01*
X60849510Y-62003466D01*
X60849510Y-61796534D01*
X60889879Y-61593584D01*
X60969067Y-61402408D01*
X61084031Y-61230352D01*
X61230352Y-61084031D01*
X61402406Y-60969068D01*
X61402408Y-60969067D01*
X61593584Y-60889879D01*
X61796534Y-60849510D01*
X62003466Y-60849510D01*
X62206416Y-60889879D01*
G37*
G36*
X53606416Y-60889879D02*
G01*
X53797592Y-60969067D01*
X53797594Y-60969068D01*
X53969648Y-61084031D01*
X54115969Y-61230352D01*
X54230933Y-61402408D01*
X54310121Y-61593584D01*
X54350490Y-61796534D01*
X54350490Y-62003466D01*
X54310121Y-62206416D01*
X54230933Y-62397592D01*
X54230932Y-62397594D01*
X54115969Y-62569648D01*
X53969648Y-62715969D01*
X53797594Y-62830932D01*
X53797593Y-62830933D01*
X53797592Y-62830933D01*
X53606416Y-62910121D01*
X53403466Y-62950490D01*
X53196534Y-62950490D01*
X52993584Y-62910121D01*
X52802408Y-62830933D01*
X52802407Y-62830933D01*
X52802406Y-62830932D01*
X52630352Y-62715969D01*
X52484031Y-62569648D01*
X52369068Y-62397594D01*
X52369067Y-62397592D01*
X52289879Y-62206416D01*
X52249510Y-62003466D01*
X52249510Y-61796534D01*
X52289879Y-61593584D01*
X52369067Y-61402408D01*
X52484031Y-61230352D01*
X52630352Y-61084031D01*
X52802406Y-60969068D01*
X52802408Y-60969067D01*
X52993584Y-60889879D01*
X53196534Y-60849510D01*
X53403466Y-60849510D01*
X53606416Y-60889879D01*
G37*
G36*
X57906416Y-56589879D02*
G01*
X58097592Y-56669067D01*
X58097594Y-56669068D01*
X58269648Y-56784031D01*
X58415969Y-56930352D01*
X58530933Y-57102408D01*
X58610121Y-57293584D01*
X58650490Y-57496534D01*
X58650490Y-57703466D01*
X58610121Y-57906416D01*
X58530933Y-58097592D01*
X58530932Y-58097594D01*
X58415969Y-58269648D01*
X58269648Y-58415969D01*
X58097594Y-58530932D01*
X58097593Y-58530933D01*
X58097592Y-58530933D01*
X57906416Y-58610121D01*
X57703466Y-58650490D01*
X57496534Y-58650490D01*
X57293584Y-58610121D01*
X57102408Y-58530933D01*
X57102407Y-58530933D01*
X57102406Y-58530932D01*
X56930352Y-58415969D01*
X56784031Y-58269648D01*
X56669068Y-58097594D01*
X56669067Y-58097592D01*
X56589879Y-57906416D01*
X56549510Y-57703466D01*
X56549510Y-57496534D01*
X56589879Y-57293584D01*
X56669067Y-57102408D01*
X56784031Y-56930352D01*
X56930352Y-56784031D01*
X57102406Y-56669068D01*
X57102408Y-56669067D01*
X57293584Y-56589879D01*
X57496534Y-56549510D01*
X57703466Y-56549510D01*
X57906416Y-56589879D01*
G37*
G36*
X62206416Y-52289879D02*
G01*
X62397592Y-52369067D01*
X62397594Y-52369068D01*
X62569648Y-52484031D01*
X62715969Y-52630352D01*
X62830933Y-52802408D01*
X62910121Y-52993584D01*
X62950490Y-53196534D01*
X62950490Y-53403466D01*
X62910121Y-53606416D01*
X62830933Y-53797592D01*
X62830932Y-53797594D01*
X62715969Y-53969648D01*
X62569648Y-54115969D01*
X62397594Y-54230932D01*
X62397593Y-54230933D01*
X62397592Y-54230933D01*
X62206416Y-54310121D01*
X62003466Y-54350490D01*
X61796534Y-54350490D01*
X61593584Y-54310121D01*
X61402408Y-54230933D01*
X61402407Y-54230933D01*
X61402406Y-54230932D01*
X61230352Y-54115969D01*
X61084031Y-53969648D01*
X60969068Y-53797594D01*
X60969067Y-53797592D01*
X60889879Y-53606416D01*
X60849510Y-53403466D01*
X60849510Y-53196534D01*
X60889879Y-52993584D01*
X60969067Y-52802408D01*
X61084031Y-52630352D01*
X61230352Y-52484031D01*
X61402406Y-52369068D01*
X61402408Y-52369067D01*
X61593584Y-52289879D01*
X61796534Y-52249510D01*
X62003466Y-52249510D01*
X62206416Y-52289879D01*
G37*
G36*
X53606416Y-52289879D02*
G01*
X53797592Y-52369067D01*
X53797594Y-52369068D01*
X53969648Y-52484031D01*
X54115969Y-52630352D01*
X54230933Y-52802408D01*
X54310121Y-52993584D01*
X54350490Y-53196534D01*
X54350490Y-53403466D01*
X54310121Y-53606416D01*
X54230933Y-53797592D01*
X54230932Y-53797594D01*
X54115969Y-53969648D01*
X53969648Y-54115969D01*
X53797594Y-54230932D01*
X53797593Y-54230933D01*
X53797592Y-54230933D01*
X53606416Y-54310121D01*
X53403466Y-54350490D01*
X53196534Y-54350490D01*
X52993584Y-54310121D01*
X52802408Y-54230933D01*
X52802407Y-54230933D01*
X52802406Y-54230932D01*
X52630352Y-54115969D01*
X52484031Y-53969648D01*
X52369068Y-53797594D01*
X52369067Y-53797592D01*
X52289879Y-53606416D01*
X52249510Y-53403466D01*
X52249510Y-53196534D01*
X52289879Y-52993584D01*
X52369067Y-52802408D01*
X52484031Y-52630352D01*
X52630352Y-52484031D01*
X52802406Y-52369068D01*
X52802408Y-52369067D01*
X52993584Y-52289879D01*
X53196534Y-52249510D01*
X53403466Y-52249510D01*
X53606416Y-52289879D01*
G37*
M02*
