M48
; DRILL file {KiCad 5.1.5+dfsg1-2build2} date lun 25 jul 2022 22:52:24
; FORMAT={-:-/ absolute / metric / decimal}
; #@! TF.CreationDate,2022-07-25T22:52:24-05:00
; #@! TF.GenerationSoftware,Kicad,Pcbnew,5.1.5+dfsg1-2build2
; #@! TF.FileFunction,Plated,1,2,PTH
FMAT,2
METRIC
T1C1.001
%
G90
G05
T1
X81.486Y-79.98
X81.486Y-51.78
X142.386Y-108.18
X156.486Y-79.98
X92.386Y-65.88
X117.386Y-122.28
X131.486Y-94.08
X92.386Y-136.38
X67.386Y-79.98
X106.486Y-108.18
X142.386Y-79.98
X81.486Y-122.28
X156.486Y-51.78
X117.386Y-94.08
X156.486Y-122.28
X92.386Y-51.78
X131.486Y-65.88
X92.386Y-108.18
X131.486Y-136.38
X142.386Y-51.78
X106.486Y-79.98
X67.386Y-122.28
X81.486Y-94.08
X142.386Y-122.28
X117.386Y-65.88
X156.486Y-94.08
X117.386Y-136.38
X92.386Y-79.98
X131.486Y-108.18
X106.486Y-51.78
X67.386Y-94.08
X106.486Y-122.28
X81.486Y-65.88
X142.386Y-94.08
X81.486Y-136.38
X156.486Y-65.88
X67.386Y-51.78
X117.386Y-108.18
X156.486Y-136.38
X67.386Y-65.88
X131.486Y-79.98
X92.386Y-122.28
X106.486Y-94.08
X67.386Y-136.38
X142.386Y-65.88
X81.486Y-108.18
X142.386Y-136.38
X117.386Y-79.98
X156.486Y-108.18
X131.486Y-51.78
X92.386Y-94.08
X131.486Y-122.28
X106.486Y-65.88
X117.386Y-51.78
X67.386Y-108.18
X106.486Y-136.38
T0
M30
