M48
; DRILL file {KiCad 5.1.5+dfsg1-2build2} date jue 14 jul 2022 11:50:12
; FORMAT={-:-/ absolute / metric / decimal}
; #@! TF.CreationDate,2022-07-14T11:50:12-05:00
; #@! TF.GenerationSoftware,Kicad,Pcbnew,5.1.5+dfsg1-2build2
; #@! TF.FileFunction,NonPlated,1,2,NPTH
FMAT,2
METRIC
T1C1.000
%
G90
G05
T1
X122.911Y-132.483
X155.336Y-90.183
X155.336Y-146.583
X150.386Y-132.483
X131.574Y-129.743
X147.911Y-57.883
X177.861Y-86.083
X104.099Y-128.383
X125.386Y-57.883
X152.861Y-132.483
X176.624Y-114.283
X101.624Y-132.483
X181.574Y-74.723
X96.674Y-114.283
X130.336Y-142.483
X180.336Y-118.383
X171.674Y-115.643
X97.911Y-90.183
X125.386Y-90.183
X106.574Y-87.443
X121.674Y-118.383
X124.149Y-128.383
X147.911Y-142.483
X179.099Y-71.983
X106.574Y-114.283
X125.386Y-142.483
X100.386Y-57.883
X127.861Y-90.183
X124.149Y-118.383
X129.099Y-118.383
X151.624Y-71.983
X176.624Y-76.083
X96.674Y-117.023
X171.674Y-57.883
X105.336Y-100.183
X131.574Y-132.483
X105.336Y-90.183
X146.674Y-73.343
X105.336Y-132.483
X124.149Y-76.083
X174.149Y-118.383
X96.674Y-76.083
X99.149Y-86.083
X122.911Y-100.183
X152.861Y-128.383
X181.574Y-57.883
X100.386Y-100.183
X104.099Y-76.083
X171.674Y-60.623
X156.574Y-117.023
X171.674Y-142.483
X106.574Y-90.183
X172.911Y-118.383
X105.336Y-146.583
X100.386Y-132.483
X126.624Y-61.983
X181.574Y-115.643
X127.861Y-86.083
X154.099Y-114.283
X181.574Y-142.483
X130.336Y-132.483
X102.861Y-132.483
X126.624Y-114.283
X151.624Y-118.383
X171.674Y-145.223
X131.574Y-74.723
X146.674Y-100.183
X180.336Y-128.383
X121.674Y-115.643
X147.911Y-76.083
X175.386Y-76.083
X99.149Y-118.383
X156.574Y-73.343
X171.674Y-104.283
X174.149Y-114.283
X97.911Y-142.483
X129.099Y-71.983
X156.574Y-100.183
X175.386Y-128.383
X106.574Y-60.623
X177.861Y-76.083
X179.099Y-104.283
X101.624Y-71.983
X126.624Y-76.083
X146.674Y-102.923
X121.674Y-57.883
X155.336Y-86.083
X181.574Y-118.383
X100.386Y-61.983
X99.149Y-57.883
X96.674Y-73.343
X174.149Y-61.983
X146.674Y-61.983
X149.149Y-71.983
X172.911Y-86.083
X102.861Y-128.383
X131.574Y-57.883
X150.386Y-86.083
X154.099Y-61.983
X121.674Y-60.623
X106.574Y-117.023
X121.674Y-142.483
X156.574Y-76.083
X101.624Y-57.883
X122.911Y-118.383
X102.861Y-57.883
X150.386Y-118.383
X131.574Y-115.643
X146.674Y-146.583
X177.861Y-71.983
X104.099Y-114.283
X131.574Y-142.483
X152.861Y-118.383
X174.149Y-146.583
X154.099Y-146.583
X176.624Y-100.183
X101.624Y-118.383
X121.674Y-145.223
X181.574Y-60.623
X96.674Y-100.183
X130.336Y-128.383
X105.336Y-57.883
X171.674Y-101.543
X97.911Y-76.083
X125.386Y-76.083
X149.149Y-104.283
X106.574Y-73.343
X121.674Y-104.283
X124.149Y-114.283
X147.911Y-128.383
X179.099Y-57.883
X106.574Y-100.183
X125.386Y-128.383
X127.861Y-76.083
X129.099Y-104.283
X151.624Y-57.883
X176.624Y-61.983
X96.674Y-102.923
X181.574Y-145.223
X105.336Y-86.083
X131.574Y-118.383
X146.674Y-59.243
X101.624Y-61.983
X124.149Y-61.983
X99.149Y-71.983
X122.911Y-86.083
X152.861Y-114.283
X179.099Y-142.483
X100.386Y-86.083
X151.624Y-142.483
X176.624Y-146.583
X156.574Y-102.923
X171.674Y-128.383
X106.574Y-76.083
X146.674Y-143.843
X172.911Y-104.283
X177.861Y-61.983
X100.386Y-118.383
X181.574Y-101.543
X96.674Y-146.583
X127.861Y-71.983
X154.099Y-100.183
X181.574Y-128.383
X102.861Y-118.383
X124.149Y-146.583
X104.099Y-146.583
X126.624Y-100.183
X151.624Y-104.283
X171.674Y-131.123
X131.574Y-60.623
X146.674Y-86.083
X180.336Y-114.283
X97.911Y-61.983
X121.674Y-101.543
X147.911Y-61.983
X175.386Y-61.983
X99.149Y-104.283
X156.574Y-59.243
X171.674Y-90.183
X174.149Y-100.183
X97.911Y-128.383
X129.099Y-57.883
X156.574Y-86.083
X175.386Y-114.283
X106.574Y-59.243
X179.099Y-90.183
X146.674Y-88.823
X131.574Y-145.223
X155.336Y-71.983
X181.574Y-104.283
X155.336Y-61.983
X147.911Y-146.583
X175.386Y-146.583
X156.574Y-143.843
X149.149Y-57.883
X172.911Y-71.983
X102.861Y-114.283
X129.099Y-142.483
X150.386Y-71.983
X177.861Y-146.583
X101.624Y-142.483
X126.624Y-146.583
X106.574Y-102.923
X121.674Y-128.383
X156.574Y-61.983
X96.674Y-143.843
X122.911Y-104.283
X155.336Y-76.083
X150.386Y-104.283
X131.574Y-101.543
X146.674Y-132.483
X149.149Y-142.483
X177.861Y-57.883
X104.099Y-100.183
X131.574Y-128.383
X152.861Y-104.283
X174.149Y-132.483
X154.099Y-132.483
X176.624Y-86.083
X101.624Y-104.283
X121.674Y-131.123
X96.674Y-86.083
X130.336Y-114.283
X156.574Y-146.583
X104.099Y-61.983
X171.674Y-87.443
X125.386Y-61.983
X149.149Y-90.183
X121.674Y-90.183
X124.149Y-100.183
X147.911Y-114.283
X177.861Y-142.483
X106.574Y-86.083
X125.386Y-114.283
X129.099Y-90.183
X96.674Y-88.823
X181.574Y-131.123
X105.336Y-71.983
X131.574Y-104.283
X96.674Y-60.623
X97.911Y-146.583
X125.386Y-146.583
X106.574Y-143.843
X122.911Y-71.983
X152.861Y-100.183
X179.099Y-128.383
X100.386Y-71.983
X127.861Y-146.583
X151.624Y-128.383
X176.624Y-132.483
X130.336Y-76.083
X156.574Y-88.823
X171.674Y-114.283
X105.336Y-104.283
X146.674Y-129.743
X172.911Y-90.183
X100.386Y-104.283
X181.574Y-87.443
X96.674Y-132.483
X99.149Y-142.483
X127.861Y-57.883
X154.099Y-86.083
X181.574Y-114.283
X97.911Y-57.883
X102.861Y-104.283
X124.149Y-132.483
X104.099Y-132.483
X126.624Y-86.083
X151.624Y-90.183
X171.674Y-117.023
X146.674Y-71.983
X180.336Y-100.183
X106.574Y-146.583
X121.674Y-87.443
X99.149Y-90.183
X171.674Y-76.083
X174.149Y-86.083
X97.911Y-114.283
X127.861Y-142.483
X156.574Y-71.983
X175.386Y-100.183
X104.099Y-57.883
X179.099Y-76.083
X146.674Y-74.723
X131.574Y-131.123
X155.336Y-57.883
X181.574Y-90.183
X147.911Y-132.483
X96.674Y-61.983
X180.336Y-146.583
X175.386Y-132.483
X156.574Y-129.743
X172.911Y-57.883
X102.861Y-100.183
X129.099Y-128.383
X150.386Y-57.883
X177.861Y-132.483
X101.624Y-128.383
X126.624Y-132.483
X106.574Y-88.823
X121.674Y-114.283
X155.336Y-142.483
X180.336Y-90.183
X96.674Y-129.743
X122.911Y-90.183
X150.386Y-90.183
X131.574Y-87.443
X146.674Y-118.383
X149.149Y-128.383
X172.911Y-142.483
X104.099Y-86.083
X131.574Y-114.283
X150.386Y-142.483
X152.861Y-90.183
X154.099Y-118.383
X176.624Y-71.983
X101.624Y-90.183
X121.674Y-117.023
X96.674Y-71.983
X130.336Y-100.183
X156.574Y-132.483
X105.336Y-61.983
X171.674Y-73.343
X149.149Y-76.083
X121.674Y-76.083
X124.149Y-86.083
X147.911Y-100.183
X177.861Y-128.383
X106.574Y-71.983
X125.386Y-100.183
X130.336Y-90.183
X129.099Y-76.083
X96.674Y-74.723
X181.574Y-117.023
X131.574Y-90.183
X97.911Y-132.483
X130.336Y-146.583
X125.386Y-132.483
X151.624Y-61.983
X106.574Y-129.743
X122.911Y-57.883
X152.861Y-86.083
X179.099Y-114.283
X127.861Y-132.483
X151.624Y-114.283
X176.624Y-118.383
X156.574Y-74.723
X171.674Y-100.183
X105.336Y-142.483
X146.674Y-115.643
X172.911Y-76.083
X130.336Y-61.983
X180.336Y-76.083
X100.386Y-90.183
X181.574Y-73.343
X96.674Y-118.383
X99.149Y-128.383
X122.911Y-142.483
X154.099Y-71.983
X181.574Y-100.183
X100.386Y-142.483
X102.861Y-90.183
X149.149Y-118.383
X104.099Y-118.383
X126.624Y-71.983
X151.624Y-76.083
X171.674Y-102.923
X146.674Y-57.883
X180.336Y-86.083
X106.574Y-132.483
X105.336Y-76.083
X155.336Y-132.483
X121.674Y-73.343
X99.149Y-76.083
X171.674Y-61.983
X174.149Y-71.983
X97.911Y-100.183
X127.861Y-128.383
X156.574Y-57.883
X175.386Y-86.083
X99.149Y-61.983
X179.099Y-61.983
X146.674Y-60.623
X131.574Y-117.023
X146.674Y-142.483
X181.574Y-76.083
X147.911Y-118.383
X180.336Y-132.483
X175.386Y-118.383
X156.574Y-115.643
X171.674Y-146.583
X102.861Y-86.083
X129.099Y-114.283
X156.574Y-142.483
X177.861Y-118.383
X179.099Y-146.583
X101.624Y-114.283
X126.624Y-118.383
X146.674Y-145.223
X106.574Y-74.723
X121.674Y-100.183
X155.336Y-128.383
X96.674Y-115.643
X122.911Y-76.083
X150.386Y-76.083
X174.149Y-104.283
X131.574Y-73.343
X146.674Y-104.283
X149.149Y-114.283
X172.911Y-128.383
X104.099Y-71.983
X131.574Y-100.183
X150.386Y-128.383
X152.861Y-76.083
X154.099Y-104.283
X176.624Y-57.883
X101.624Y-76.083
X121.674Y-102.923
X130.336Y-86.083
X156.574Y-118.383
X171.674Y-59.243
X149.149Y-61.983
X121.674Y-61.983
X124.149Y-71.983
X147.911Y-86.083
X177.861Y-114.283
X125.386Y-86.083
X129.099Y-61.983
X176.624Y-142.483
X181.574Y-102.923
X96.674Y-142.483
X131.574Y-76.083
X171.674Y-143.843
X97.911Y-118.383
X102.861Y-61.983
X102.861Y-76.083
X125.386Y-118.383
X106.574Y-115.643
X121.674Y-146.583
X152.861Y-71.983
X179.099Y-100.183
X106.574Y-142.483
X127.861Y-118.383
X149.149Y-146.583
X129.099Y-146.583
X151.624Y-100.183
X176.624Y-104.283
X96.674Y-145.223
X156.574Y-60.623
X171.674Y-86.083
X105.336Y-128.383
X146.674Y-101.543
X172.911Y-61.983
X100.386Y-76.083
X124.149Y-104.283
X181.574Y-59.243
X96.674Y-104.283
X99.149Y-114.283
X122.911Y-128.383
X154.099Y-57.883
X181.574Y-86.083
X100.386Y-128.383
X96.674Y-59.243
X104.099Y-104.283
X126.624Y-57.883
X171.674Y-88.823
X156.574Y-145.223
X180.336Y-71.983
X106.574Y-118.383
X127.861Y-61.983
X172.911Y-146.583
X181.574Y-143.843
X174.149Y-57.883
X97.911Y-86.083
X127.861Y-114.283
X154.099Y-142.483
X175.386Y-71.983
X126.624Y-142.483
X151.624Y-146.583
X131.574Y-102.923
X146.674Y-128.383
X181.574Y-61.983
X121.674Y-143.843
X147.911Y-104.283
X152.861Y-61.983
X175.386Y-104.283
X156.574Y-101.543
X171.674Y-132.483
X174.149Y-142.483
X102.861Y-71.983
X129.099Y-100.183
X156.574Y-128.383
X177.861Y-104.283
X99.149Y-146.583
X179.099Y-132.483
X101.624Y-100.183
X126.624Y-104.283
X146.674Y-131.123
X121.674Y-86.083
X155.336Y-114.283
X181.574Y-146.583
X106.574Y-61.983
X96.674Y-101.543
X122.911Y-61.983
X150.386Y-61.983
X174.149Y-90.183
X131.574Y-59.243
X146.674Y-90.183
X149.149Y-100.183
X180.336Y-61.983
X172.911Y-114.283
X131.574Y-86.083
X150.386Y-114.283
X154.099Y-90.183
X121.674Y-88.823
X106.574Y-145.223
X130.336Y-71.983
X156.574Y-104.283
X122.911Y-146.583
X150.386Y-146.583
X131.574Y-143.843
X124.149Y-57.883
X147.911Y-71.983
X177.861Y-100.183
X104.099Y-142.483
X125.386Y-71.983
X152.861Y-146.583
X176.624Y-128.383
X101.624Y-146.583
X181.574Y-88.823
X96.674Y-128.383
X131.574Y-61.983
X171.674Y-129.743
X97.911Y-104.283
X125.386Y-104.283
X106.574Y-101.543
X121.674Y-132.483
X124.149Y-142.483
X152.861Y-57.883
X179.099Y-86.083
X106.574Y-128.383
X130.336Y-104.283
X127.861Y-104.283
X149.149Y-132.483
X129.099Y-132.483
X151.624Y-86.083
X176.624Y-90.183
X96.674Y-131.123
X171.674Y-71.983
X105.336Y-114.283
X131.574Y-146.583
X96.674Y-57.883
X106.574Y-57.883
X146.674Y-87.443
X124.149Y-90.183
X96.674Y-90.183
X99.149Y-100.183
X122.911Y-114.283
X152.861Y-142.483
X181.574Y-71.983
X100.386Y-114.283
X104.099Y-90.183
X171.674Y-74.723
X156.574Y-131.123
X180.336Y-57.883
X106.574Y-104.283
X155.336Y-104.283
X121.674Y-59.243
X172.911Y-132.483
X100.386Y-146.583
X181.574Y-129.743
X97.911Y-71.983
X127.861Y-100.183
X154.099Y-128.383
X175.386Y-57.883
X102.861Y-146.583
X126.624Y-128.383
X151.624Y-132.483
X131.574Y-88.823
X146.674Y-114.283
X180.336Y-142.483
X121.674Y-129.743
X147.911Y-90.183
X130.336Y-118.383
X180.336Y-104.283
X175.386Y-90.183
X156.574Y-87.443
X171.674Y-118.383
X174.149Y-128.383
X129.099Y-86.083
X156.574Y-114.283
X175.386Y-142.483
X177.861Y-90.183
X99.149Y-132.483
X179.099Y-118.383
X101.624Y-86.083
X126.624Y-90.183
X146.674Y-117.023
X121.674Y-71.983
X155.336Y-100.183
X181.574Y-132.483
X96.674Y-87.443
X174.149Y-76.083
X146.674Y-76.083
X149.149Y-86.083
X172.911Y-100.183
X102.861Y-142.483
X131.574Y-71.983
X150.386Y-100.183
X155.336Y-118.383
X105.336Y-118.383
X154.099Y-76.083
X121.674Y-74.723
X106.574Y-131.123
X130.336Y-57.883
X156.574Y-90.183
T0
M30
