G04 #@! TF.GenerationSoftware,KiCad,Pcbnew,5.1.5+dfsg1-2build2*
G04 #@! TF.CreationDate,2022-07-25T22:52:27-05:00*
G04 #@! TF.ProjectId,,58585858-5858-4585-9858-585858585858,rev?*
G04 #@! TF.SameCoordinates,Original*
G04 #@! TF.FileFunction,Profile,NP*
%FSLAX46Y46*%
G04 Gerber Fmt 4.6, Leading zero omitted, Abs format (unit mm)*
G04 Created by KiCad (PCBNEW 5.1.5+dfsg1-2build2) date 2022-07-25 22:52:27*
%MOMM*%
%LPD*%
G04 APERTURE LIST*
%ADD10C,0.050000*%
G04 APERTURE END LIST*
D10*
X136935560Y-143429600D02*
X161935560Y-143429600D01*
X111935560Y-143429600D02*
X136935560Y-143429600D01*
X86935560Y-143429600D02*
X111935560Y-143429600D01*
X61935560Y-143429600D02*
X86935560Y-143429600D01*
X136935560Y-129329600D02*
X161935560Y-129329600D01*
X111935560Y-129329600D02*
X136935560Y-129329600D01*
X86935560Y-129329600D02*
X111935560Y-129329600D01*
X61935560Y-129329600D02*
X86935560Y-129329600D01*
X136935560Y-115229600D02*
X161935560Y-115229600D01*
X111935560Y-115229600D02*
X136935560Y-115229600D01*
X86935560Y-115229600D02*
X111935560Y-115229600D01*
X61935560Y-115229600D02*
X86935560Y-115229600D01*
X136935560Y-101129600D02*
X161935560Y-101129600D01*
X111935560Y-101129600D02*
X136935560Y-101129600D01*
X86935560Y-101129600D02*
X111935560Y-101129600D01*
X61935560Y-101129600D02*
X86935560Y-101129600D01*
X136935560Y-87029600D02*
X161935560Y-87029600D01*
X111935560Y-87029600D02*
X136935560Y-87029600D01*
X86935560Y-87029600D02*
X111935560Y-87029600D01*
X61935560Y-87029600D02*
X86935560Y-87029600D01*
X136935560Y-72929600D02*
X161935560Y-72929600D01*
X111935560Y-72929600D02*
X136935560Y-72929600D01*
X86935560Y-72929600D02*
X111935560Y-72929600D01*
X61935560Y-72929600D02*
X86935560Y-72929600D01*
X136935560Y-58829600D02*
X161935560Y-58829600D01*
X111935560Y-58829600D02*
X136935560Y-58829600D01*
X86935560Y-58829600D02*
X111935560Y-58829600D01*
X161935560Y-129329600D02*
X161935560Y-143429600D01*
X136935560Y-129329600D02*
X136935560Y-143429600D01*
X111935560Y-129329600D02*
X111935560Y-143429600D01*
X86935560Y-129329600D02*
X86935560Y-143429600D01*
X161935560Y-115229600D02*
X161935560Y-129329600D01*
X136935560Y-115229600D02*
X136935560Y-129329600D01*
X111935560Y-115229600D02*
X111935560Y-129329600D01*
X86935560Y-115229600D02*
X86935560Y-129329600D01*
X161935560Y-101129600D02*
X161935560Y-115229600D01*
X136935560Y-101129600D02*
X136935560Y-115229600D01*
X111935560Y-101129600D02*
X111935560Y-115229600D01*
X86935560Y-101129600D02*
X86935560Y-115229600D01*
X161935560Y-87029600D02*
X161935560Y-101129600D01*
X136935560Y-87029600D02*
X136935560Y-101129600D01*
X111935560Y-87029600D02*
X111935560Y-101129600D01*
X86935560Y-87029600D02*
X86935560Y-101129600D01*
X161935560Y-72929600D02*
X161935560Y-87029600D01*
X136935560Y-72929600D02*
X136935560Y-87029600D01*
X111935560Y-72929600D02*
X111935560Y-87029600D01*
X86935560Y-72929600D02*
X86935560Y-87029600D01*
X161935560Y-58829600D02*
X161935560Y-72929600D01*
X136935560Y-58829600D02*
X136935560Y-72929600D01*
X111935560Y-58829600D02*
X111935560Y-72929600D01*
X86935560Y-58829600D02*
X86935560Y-72929600D01*
X161935560Y-44729600D02*
X161935560Y-58829600D01*
X136935560Y-44729600D02*
X136935560Y-58829600D01*
X111935560Y-44729600D02*
X111935560Y-58829600D01*
X136935560Y-129329600D02*
X136935560Y-143429600D01*
X111935560Y-129329600D02*
X111935560Y-143429600D01*
X86935560Y-129329600D02*
X86935560Y-143429600D01*
X61935560Y-129329600D02*
X61935560Y-143429600D01*
X136935560Y-115229600D02*
X136935560Y-129329600D01*
X111935560Y-115229600D02*
X111935560Y-129329600D01*
X86935560Y-115229600D02*
X86935560Y-129329600D01*
X61935560Y-115229600D02*
X61935560Y-129329600D01*
X136935560Y-101129600D02*
X136935560Y-115229600D01*
X111935560Y-101129600D02*
X111935560Y-115229600D01*
X86935560Y-101129600D02*
X86935560Y-115229600D01*
X61935560Y-101129600D02*
X61935560Y-115229600D01*
X136935560Y-87029600D02*
X136935560Y-101129600D01*
X111935560Y-87029600D02*
X111935560Y-101129600D01*
X86935560Y-87029600D02*
X86935560Y-101129600D01*
X61935560Y-87029600D02*
X61935560Y-101129600D01*
X136935560Y-72929600D02*
X136935560Y-87029600D01*
X111935560Y-72929600D02*
X111935560Y-87029600D01*
X86935560Y-72929600D02*
X86935560Y-87029600D01*
X61935560Y-72929600D02*
X61935560Y-87029600D01*
X136935560Y-58829600D02*
X136935560Y-72929600D01*
X111935560Y-58829600D02*
X111935560Y-72929600D01*
X86935560Y-58829600D02*
X86935560Y-72929600D01*
X61935560Y-58829600D02*
X61935560Y-72929600D01*
X136935560Y-44729600D02*
X136935560Y-58829600D01*
X111935560Y-44729600D02*
X111935560Y-58829600D01*
X86935560Y-44729600D02*
X86935560Y-58829600D01*
X136935560Y-129329600D02*
X161935560Y-129329600D01*
X111935560Y-129329600D02*
X136935560Y-129329600D01*
X86935560Y-129329600D02*
X111935560Y-129329600D01*
X61935560Y-129329600D02*
X86935560Y-129329600D01*
X136935560Y-115229600D02*
X161935560Y-115229600D01*
X111935560Y-115229600D02*
X136935560Y-115229600D01*
X86935560Y-115229600D02*
X111935560Y-115229600D01*
X61935560Y-115229600D02*
X86935560Y-115229600D01*
X136935560Y-101129600D02*
X161935560Y-101129600D01*
X111935560Y-101129600D02*
X136935560Y-101129600D01*
X86935560Y-101129600D02*
X111935560Y-101129600D01*
X61935560Y-101129600D02*
X86935560Y-101129600D01*
X136935560Y-87029600D02*
X161935560Y-87029600D01*
X111935560Y-87029600D02*
X136935560Y-87029600D01*
X86935560Y-87029600D02*
X111935560Y-87029600D01*
X61935560Y-87029600D02*
X86935560Y-87029600D01*
X136935560Y-72929600D02*
X161935560Y-72929600D01*
X111935560Y-72929600D02*
X136935560Y-72929600D01*
X86935560Y-72929600D02*
X111935560Y-72929600D01*
X61935560Y-72929600D02*
X86935560Y-72929600D01*
X136935560Y-58829600D02*
X161935560Y-58829600D01*
X111935560Y-58829600D02*
X136935560Y-58829600D01*
X86935560Y-58829600D02*
X111935560Y-58829600D01*
X61935560Y-58829600D02*
X86935560Y-58829600D01*
X136935560Y-44729600D02*
X161935560Y-44729600D01*
X111935560Y-44729600D02*
X136935560Y-44729600D01*
X86935560Y-44729600D02*
X111935560Y-44729600D01*
X86935560Y-44729600D02*
X86935560Y-58829600D01*
X61935560Y-44729600D02*
X61935560Y-58829600D01*
X61935560Y-58829600D02*
X86935560Y-58829600D01*
X61935560Y-44729600D02*
X86935560Y-44729600D01*
M02*
