M48
; DRILL file {KiCad 5.1.5+dfsg1-2build2} date lun 25 jul 2022 22:52:24
; FORMAT={-:-/ absolute / metric / decimal}
; #@! TF.CreationDate,2022-07-25T22:52:24-05:00
; #@! TF.GenerationSoftware,Kicad,Pcbnew,5.1.5+dfsg1-2build2
; #@! TF.FileFunction,NonPlated,1,2,NPTH
FMAT,2
METRIC
T1C1.000
%
G90
G05
T1
X121.986Y-63.83
X70.761Y-67.93
X69.536Y-92.03
X154.336Y-108.87
X101.886Y-77.93
X129.336Y-110.23
X154.336Y-134.33
X124.436Y-67.93
X150.661Y-110.23
X73.211Y-82.03
X76.886Y-96.13
X94.536Y-124.33
X94.536Y-52.47
X73.211Y-106.13
X99.436Y-63.83
X119.536Y-93.39
X69.536Y-52.47
X121.986Y-138.43
X145.761Y-92.03
X78.111Y-134.33
X121.986Y-77.93
X104.336Y-67.93
X129.336Y-92.03
X76.886Y-67.93
X69.536Y-82.03
X100.661Y-106.13
X94.536Y-137.07
X69.536Y-121.59
X146.986Y-120.23
X148.211Y-49.73
X79.336Y-121.59
X94.536Y-51.09
X128.111Y-67.93
X75.661Y-124.33
X96.986Y-96.13
X145.761Y-96.13
X153.111Y-67.93
X144.536Y-120.23
X120.761Y-49.73
X153.111Y-77.93
X76.886Y-120.23
X104.336Y-49.73
X99.436Y-110.23
X78.111Y-49.73
X69.536Y-51.09
X148.211Y-110.23
X151.886Y-124.33
X75.661Y-63.83
X69.536Y-94.77
X148.211Y-134.33
X154.336Y-65.19
X74.436Y-106.13
X75.661Y-49.73
X120.761Y-53.83
X128.111Y-110.23
X100.661Y-124.33
X119.536Y-77.93
X104.336Y-108.87
X120.761Y-134.33
X151.886Y-63.83
X96.986Y-92.03
X79.336Y-110.23
X104.336Y-134.33
X74.436Y-67.93
X123.211Y-67.93
X126.886Y-82.03
X144.536Y-110.23
X123.211Y-92.03
X149.436Y-49.73
X69.536Y-93.39
X103.111Y-53.83
X103.111Y-82.03
X71.986Y-138.43
X120.761Y-138.43
X95.761Y-92.03
X128.111Y-120.23
X96.986Y-63.83
X154.336Y-53.83
X79.336Y-92.03
X153.111Y-110.23
X125.661Y-124.33
X126.886Y-53.83
X119.536Y-67.93
X150.661Y-92.03
X144.536Y-122.97
X119.536Y-107.49
X96.986Y-120.23
X98.211Y-49.73
X129.336Y-107.49
X149.436Y-134.33
X70.761Y-53.83
X146.986Y-82.03
X95.761Y-96.13
X94.536Y-120.23
X103.111Y-77.93
X126.886Y-106.13
X154.336Y-138.43
X149.436Y-96.13
X98.211Y-110.23
X101.886Y-124.33
X125.661Y-49.73
X119.536Y-80.67
X98.211Y-134.33
X104.336Y-65.19
X124.436Y-92.03
X150.661Y-124.33
X70.761Y-49.73
X69.536Y-77.93
X154.336Y-94.77
X70.761Y-134.33
X101.886Y-63.83
X129.336Y-96.13
X154.336Y-120.23
X124.436Y-53.83
X73.211Y-67.93
X76.886Y-82.03
X94.536Y-110.23
X125.661Y-134.33
X73.211Y-92.03
X99.436Y-49.73
X119.536Y-79.29
X121.986Y-124.33
X70.761Y-138.43
X75.661Y-138.43
X145.761Y-77.93
X78.111Y-120.23
X146.986Y-49.73
X104.336Y-53.83
X129.336Y-77.93
X124.436Y-138.43
X69.536Y-67.93
X100.661Y-92.03
X94.536Y-122.97
X79.336Y-80.67
X146.986Y-106.13
X79.336Y-107.49
X99.436Y-134.33
X79.336Y-51.09
X96.986Y-82.03
X145.761Y-82.03
X74.436Y-53.83
X144.536Y-106.13
X129.336Y-137.07
X153.111Y-63.83
X76.886Y-106.13
X104.336Y-138.43
X99.436Y-96.13
X100.661Y-138.43
X96.986Y-53.83
X148.211Y-96.13
X151.886Y-110.23
X69.536Y-80.67
X148.211Y-120.23
X154.336Y-51.09
X74.436Y-92.03
X76.886Y-49.73
X119.536Y-63.83
X104.336Y-94.77
X120.761Y-120.23
X151.886Y-49.73
X79.336Y-96.13
X104.336Y-120.23
X123.211Y-53.83
X144.536Y-96.13
X75.661Y-134.33
X123.211Y-77.93
X154.336Y-135.69
X69.536Y-79.29
X125.661Y-138.43
X121.986Y-53.83
X71.986Y-124.33
X120.761Y-124.33
X95.761Y-77.93
X128.111Y-106.13
X151.886Y-134.33
X96.986Y-49.73
X79.336Y-77.93
X74.436Y-138.43
X153.111Y-53.83
X123.211Y-138.43
X119.536Y-53.83
X150.661Y-77.93
X144.536Y-108.87
X129.336Y-66.57
X96.986Y-106.13
X129.336Y-93.39
X149.436Y-120.23
X146.986Y-67.93
X95.761Y-82.03
X150.661Y-138.43
X146.986Y-53.83
X94.536Y-106.13
X79.336Y-137.07
X103.111Y-63.83
X126.886Y-92.03
X154.336Y-124.33
X149.436Y-82.03
X98.211Y-96.13
X101.886Y-110.23
X119.536Y-138.43
X119.536Y-66.57
X98.211Y-120.23
X104.336Y-51.09
X124.436Y-77.93
X69.536Y-63.83
X70.761Y-120.23
X101.886Y-49.73
X129.336Y-82.03
X154.336Y-106.13
X119.536Y-135.69
X71.986Y-67.93
X94.536Y-96.13
X125.661Y-120.23
X73.211Y-77.93
X104.336Y-135.69
X119.536Y-65.19
X121.986Y-110.23
X96.986Y-77.93
X70.761Y-124.33
X73.211Y-49.73
X145.761Y-63.83
X78.111Y-106.13
X101.886Y-134.33
X129.336Y-63.83
X124.436Y-124.33
X103.111Y-96.13
X73.211Y-138.43
X100.661Y-77.93
X94.536Y-108.87
X79.336Y-66.57
X146.986Y-92.03
X79.336Y-93.39
X99.436Y-120.23
X153.111Y-96.13
X125.661Y-82.03
X96.986Y-67.93
X145.761Y-67.93
X144.536Y-92.03
X129.336Y-122.97
X153.111Y-49.73
X76.886Y-92.03
X104.336Y-124.33
X99.436Y-82.03
X148.211Y-82.03
X151.886Y-96.13
X69.536Y-138.43
X69.536Y-66.57
X148.211Y-106.13
X74.436Y-77.93
X71.986Y-92.03
X150.661Y-82.03
X153.111Y-82.03
X119.536Y-49.73
X120.761Y-106.13
X153.111Y-134.33
X79.336Y-82.03
X104.336Y-106.13
X154.336Y-80.67
X144.536Y-82.03
X75.661Y-120.23
X144.536Y-121.59
X121.986Y-134.33
X123.211Y-63.83
X154.336Y-121.59
X69.536Y-65.19
X71.986Y-110.23
X120.761Y-110.23
X119.536Y-134.33
X95.761Y-63.83
X128.111Y-92.03
X151.886Y-120.23
X79.336Y-63.83
X74.436Y-124.33
X76.886Y-53.83
X78.111Y-67.93
X79.336Y-53.83
X75.661Y-96.13
X126.886Y-67.93
X123.211Y-124.33
X126.886Y-138.43
X150.661Y-63.83
X144.536Y-94.77
X129.336Y-52.47
X129.336Y-79.29
X149.436Y-106.13
X95.761Y-67.93
X78.111Y-124.33
X94.536Y-92.03
X79.336Y-122.97
X103.111Y-49.73
X126.886Y-77.93
X121.986Y-92.03
X154.336Y-110.23
X149.436Y-67.93
X73.211Y-53.83
X98.211Y-82.03
X101.886Y-96.13
X119.536Y-124.33
X119.536Y-52.47
X98.211Y-106.13
X124.436Y-63.83
X144.536Y-93.39
X100.661Y-96.13
X146.986Y-138.43
X70.761Y-106.13
X103.111Y-134.33
X129.336Y-67.93
X154.336Y-92.03
X78.111Y-53.83
X103.111Y-124.33
X104.336Y-80.67
X94.536Y-82.03
X125.661Y-106.13
X119.536Y-137.07
X94.536Y-121.59
X71.986Y-134.33
X73.211Y-63.83
X104.336Y-121.59
X119.536Y-51.09
X121.986Y-96.13
X70.761Y-110.23
X125.661Y-96.13
X100.661Y-82.03
X69.536Y-134.33
X145.761Y-49.73
X78.111Y-92.03
X101.886Y-120.23
X129.336Y-49.73
X124.436Y-110.23
X73.211Y-124.33
X76.886Y-138.43
X100.661Y-63.83
X94.536Y-94.77
X79.336Y-79.29
X99.436Y-106.13
X128.111Y-124.33
X103.111Y-67.93
X145.761Y-53.83
X144.536Y-77.93
X129.336Y-108.87
X145.761Y-134.33
X76.886Y-77.93
X104.336Y-110.23
X129.336Y-134.33
X99.436Y-67.93
X150.661Y-96.13
X148.211Y-67.93
X151.886Y-82.03
X69.536Y-124.33
X148.211Y-92.03
X74.436Y-63.83
X94.536Y-93.39
X75.661Y-67.93
X96.986Y-138.43
X145.761Y-138.43
X153.111Y-124.33
X120.761Y-92.03
X153.111Y-120.23
X79.336Y-67.93
X104.336Y-92.03
X128.111Y-53.83
X128.111Y-82.03
X151.886Y-53.83
X144.536Y-67.93
X75.661Y-106.13
X69.536Y-137.07
X144.536Y-107.49
X121.986Y-120.23
X123.211Y-49.73
X154.336Y-107.49
X75.661Y-110.23
X71.986Y-96.13
X120.761Y-96.13
X100.661Y-67.93
X119.536Y-120.23
X95.761Y-49.73
X128.111Y-77.93
X151.886Y-106.13
X74.436Y-110.23
X103.111Y-110.23
X123.211Y-110.23
X126.886Y-124.33
X150.661Y-49.73
X144.536Y-80.67
X123.211Y-134.33
X129.336Y-65.19
X149.436Y-92.03
X95.761Y-53.83
X78.111Y-82.03
X94.536Y-77.93
X79.336Y-108.87
X95.761Y-134.33
X126.886Y-63.83
X154.336Y-96.13
X79.336Y-134.33
X149.436Y-53.83
X78.111Y-138.43
X125.661Y-67.93
X98.211Y-67.93
X101.886Y-82.03
X119.536Y-110.23
X150.661Y-134.33
X98.211Y-92.03
X124.436Y-49.73
X144.536Y-79.29
X146.986Y-124.33
X95.761Y-138.43
X70.761Y-92.03
X103.111Y-120.23
X71.986Y-63.83
X129.336Y-53.83
X154.336Y-77.93
X149.436Y-138.43
X101.886Y-53.83
X94.536Y-67.93
X125.661Y-92.03
X119.536Y-122.97
X94.536Y-107.49
X71.986Y-77.93
X71.986Y-120.23
X104.336Y-107.49
X124.436Y-134.33
X69.536Y-53.83
X103.111Y-138.43
X150.661Y-67.93
X121.986Y-82.03
X70.761Y-96.13
X153.111Y-138.43
X69.536Y-120.23
X154.336Y-137.07
X78.111Y-77.93
X101.886Y-106.13
X129.336Y-138.43
X124.436Y-96.13
X73.211Y-110.23
X76.886Y-124.33
X100.661Y-49.73
X94.536Y-80.67
X73.211Y-134.33
X79.336Y-65.19
X99.436Y-92.03
X94.536Y-135.69
X71.986Y-49.73
X128.111Y-138.43
X75.661Y-82.03
X144.536Y-63.83
X129.336Y-94.77
X145.761Y-120.23
X76.886Y-63.83
X104.336Y-96.13
X129.336Y-120.23
X99.436Y-53.83
X148.211Y-53.83
X151.886Y-67.93
X69.536Y-110.23
X100.661Y-134.33
X146.986Y-77.93
X148.211Y-77.93
X94.536Y-79.29
X96.986Y-124.33
X145.761Y-124.33
X75.661Y-53.83
X120.761Y-77.93
X153.111Y-106.13
X121.986Y-49.73
X104.336Y-77.93
X99.436Y-138.43
X148.211Y-138.43
X144.536Y-53.83
X75.661Y-92.03
X69.536Y-122.97
X154.336Y-66.57
X121.986Y-106.13
X154.336Y-93.39
X74.436Y-134.33
X100.661Y-53.83
X71.986Y-82.03
X120.761Y-82.03
X71.986Y-53.83
X119.536Y-106.13
X104.336Y-137.07
X128.111Y-63.83
X151.886Y-92.03
X79.336Y-138.43
X74.436Y-96.13
X123.211Y-96.13
X126.886Y-110.23
X144.536Y-138.43
X144.536Y-66.57
X123.211Y-120.23
X129.336Y-51.09
X149.436Y-77.93
X125.661Y-53.83
X94.536Y-63.83
X95.761Y-120.23
X126.886Y-49.73
X154.336Y-82.03
X79.336Y-120.23
X144.536Y-135.69
X98.211Y-53.83
X119.536Y-96.13
X150.661Y-120.23
X98.211Y-77.93
X129.336Y-135.69
X144.536Y-65.19
X79.336Y-49.73
X146.986Y-110.23
X95.761Y-124.33
X70.761Y-77.93
X103.111Y-106.13
X126.886Y-134.33
X154.336Y-63.83
X149.436Y-124.33
X150.661Y-53.83
X98.211Y-138.43
X94.536Y-53.83
X125.661Y-77.93
X119.536Y-108.87
X104.336Y-66.57
X71.986Y-106.13
X104.336Y-93.39
X124.436Y-120.23
X121.986Y-67.93
X70.761Y-82.03
X74.436Y-49.73
X69.536Y-106.13
X154.336Y-122.97
X78.111Y-63.83
X101.886Y-92.03
X129.336Y-124.33
X124.436Y-82.03
X69.536Y-49.73
X78.111Y-110.23
X73.211Y-96.13
X76.886Y-110.23
X94.536Y-138.43
X94.536Y-66.57
X73.211Y-120.23
X99.436Y-77.93
X79.336Y-52.47
X144.536Y-49.73
X145.761Y-106.13
X104.336Y-82.03
X129.336Y-106.13
X79.336Y-94.77
X69.536Y-96.13
X100.661Y-120.23
X69.536Y-135.69
X146.986Y-134.33
X148.211Y-63.83
X79.336Y-135.69
X94.536Y-65.19
X78.111Y-96.13
X96.986Y-110.23
X145.761Y-110.23
X128.111Y-96.13
X144.536Y-134.33
X120.761Y-63.83
X153.111Y-92.03
X76.886Y-134.33
X104.336Y-63.83
X99.436Y-124.33
X148.211Y-124.33
X151.886Y-138.43
X75.661Y-77.93
X69.536Y-108.87
X154.336Y-52.47
X154.336Y-79.29
X74.436Y-120.23
X120.761Y-67.93
X119.536Y-92.03
X104.336Y-122.97
X128.111Y-49.73
X151.886Y-77.93
X79.336Y-124.33
X74.436Y-82.03
X123.211Y-82.03
X126.886Y-96.13
X144.536Y-124.33
X144.536Y-52.47
X123.211Y-106.13
X149.436Y-63.83
X69.536Y-107.49
X100.661Y-110.23
X94.536Y-49.73
X95.761Y-106.13
X128.111Y-134.33
X154.336Y-67.93
X79.336Y-106.13
X129.336Y-80.67
X119.536Y-82.03
X150.661Y-106.13
X144.536Y-137.07
X119.536Y-121.59
X96.986Y-134.33
X98.211Y-63.83
X129.336Y-121.59
X144.536Y-51.09
X146.986Y-96.13
X95.761Y-110.23
X125.661Y-110.23
X94.536Y-134.33
X70.761Y-63.83
X103.111Y-92.03
X126.886Y-120.23
X146.986Y-63.83
X154.336Y-49.73
X149.436Y-110.23
X101.886Y-67.93
X98.211Y-124.33
X101.886Y-138.43
X125.661Y-63.83
X119.536Y-94.77
X104.336Y-52.47
X104.336Y-79.29
X124.436Y-106.13
T0
M30
