G04 #@! TF.GenerationSoftware,KiCad,Pcbnew,5.1.5+dfsg1-2build2*
G04 #@! TF.CreationDate,2022-03-04T19:21:09-05:00*
G04 #@! TF.ProjectId,,58585858-5858-4585-9858-585858585858,rev?*
G04 #@! TF.SameCoordinates,Original*
G04 #@! TF.FileFunction,Copper,L2,Bot*
G04 #@! TF.FilePolarity,Positive*
%FSLAX46Y46*%
G04 Gerber Fmt 4.6, Leading zero omitted, Abs format (unit mm)*
G04 Created by KiCad (PCBNEW 5.1.5+dfsg1-2build2) date 2022-03-04 19:21:09*
%MOMM*%
%LPD*%
G04 APERTURE LIST*
%ADD10C,1.998980*%
%ADD11C,0.254000*%
G04 APERTURE END LIST*
D10*
X135207000Y-140969080D03*
X135207000Y-108969080D03*
X89707000Y-140969080D03*
X89707000Y-108969080D03*
X135207000Y-114469080D03*
X135207000Y-82469080D03*
X89707000Y-114469080D03*
X89707000Y-82469080D03*
X135207000Y-76969080D03*
X89707000Y-76969080D03*
X135207000Y-50469080D03*
X89707000Y-50469080D03*
D11*
G36*
X140965806Y-82295689D02*
G01*
X138617000Y-82289919D01*
X138617000Y-79751499D01*
X138620193Y-79719080D01*
X138617000Y-79686661D01*
X138617000Y-47751499D01*
X138620193Y-47719080D01*
X138607450Y-47589697D01*
X138569710Y-47465287D01*
X138508425Y-47350630D01*
X138425948Y-47250132D01*
X138325450Y-47167655D01*
X138210793Y-47106370D01*
X138086383Y-47068630D01*
X137989419Y-47059080D01*
X137957000Y-47055887D01*
X137924581Y-47059080D01*
X86989419Y-47059080D01*
X86957000Y-47055887D01*
X86924581Y-47059080D01*
X86827617Y-47068630D01*
X86703207Y-47106370D01*
X86588550Y-47167655D01*
X86488052Y-47250132D01*
X86405575Y-47350630D01*
X86344290Y-47465287D01*
X86306550Y-47589697D01*
X86293807Y-47719080D01*
X86297000Y-47751499D01*
X86297001Y-79686651D01*
X86293807Y-79719080D01*
X86297000Y-79751499D01*
X86297000Y-82161392D01*
X85384640Y-82159151D01*
X85384640Y-45601231D01*
X141228176Y-44746612D01*
X140965806Y-82295689D01*
G37*
X140965806Y-82295689D02*
X138617000Y-82289919D01*
X138617000Y-79751499D01*
X138620193Y-79719080D01*
X138617000Y-79686661D01*
X138617000Y-47751499D01*
X138620193Y-47719080D01*
X138607450Y-47589697D01*
X138569710Y-47465287D01*
X138508425Y-47350630D01*
X138425948Y-47250132D01*
X138325450Y-47167655D01*
X138210793Y-47106370D01*
X138086383Y-47068630D01*
X137989419Y-47059080D01*
X137957000Y-47055887D01*
X137924581Y-47059080D01*
X86989419Y-47059080D01*
X86957000Y-47055887D01*
X86924581Y-47059080D01*
X86827617Y-47068630D01*
X86703207Y-47106370D01*
X86588550Y-47167655D01*
X86488052Y-47250132D01*
X86405575Y-47350630D01*
X86344290Y-47465287D01*
X86306550Y-47589697D01*
X86293807Y-47719080D01*
X86297000Y-47751499D01*
X86297001Y-79686651D01*
X86293807Y-79719080D01*
X86297000Y-79751499D01*
X86297000Y-82161392D01*
X85384640Y-82159151D01*
X85384640Y-45601231D01*
X141228176Y-44746612D01*
X140965806Y-82295689D01*
G36*
X137297000Y-82286676D02*
G01*
X136837004Y-82285546D01*
X136778678Y-81992317D01*
X136655467Y-81694858D01*
X136476592Y-81427153D01*
X136248927Y-81199488D01*
X135981222Y-81020613D01*
X135683763Y-80897402D01*
X135367983Y-80834590D01*
X135046017Y-80834590D01*
X134730237Y-80897402D01*
X134432778Y-81020613D01*
X134165073Y-81199488D01*
X133937408Y-81427153D01*
X133758533Y-81694858D01*
X133635322Y-81992317D01*
X133578588Y-82277542D01*
X91314761Y-82173719D01*
X91278678Y-81992317D01*
X91155467Y-81694858D01*
X90976592Y-81427153D01*
X90748927Y-81199488D01*
X90481222Y-81020613D01*
X90183763Y-80897402D01*
X89867983Y-80834590D01*
X89546017Y-80834590D01*
X89230237Y-80897402D01*
X88932778Y-81020613D01*
X88665073Y-81199488D01*
X88437408Y-81427153D01*
X88258533Y-81694858D01*
X88135322Y-81992317D01*
X88100810Y-82165823D01*
X87617000Y-82164635D01*
X87617000Y-80379080D01*
X137297000Y-80379080D01*
X137297000Y-82286676D01*
G37*
X137297000Y-82286676D02*
X136837004Y-82285546D01*
X136778678Y-81992317D01*
X136655467Y-81694858D01*
X136476592Y-81427153D01*
X136248927Y-81199488D01*
X135981222Y-81020613D01*
X135683763Y-80897402D01*
X135367983Y-80834590D01*
X135046017Y-80834590D01*
X134730237Y-80897402D01*
X134432778Y-81020613D01*
X134165073Y-81199488D01*
X133937408Y-81427153D01*
X133758533Y-81694858D01*
X133635322Y-81992317D01*
X133578588Y-82277542D01*
X91314761Y-82173719D01*
X91278678Y-81992317D01*
X91155467Y-81694858D01*
X90976592Y-81427153D01*
X90748927Y-81199488D01*
X90481222Y-81020613D01*
X90183763Y-80897402D01*
X89867983Y-80834590D01*
X89546017Y-80834590D01*
X89230237Y-80897402D01*
X88932778Y-81020613D01*
X88665073Y-81199488D01*
X88437408Y-81427153D01*
X88258533Y-81694858D01*
X88135322Y-81992317D01*
X88100810Y-82165823D01*
X87617000Y-82164635D01*
X87617000Y-80379080D01*
X137297000Y-80379080D01*
X137297000Y-82286676D01*
G36*
X137297001Y-79059080D02*
G01*
X87617000Y-79059080D01*
X87617000Y-76808097D01*
X88072510Y-76808097D01*
X88072510Y-77130063D01*
X88135322Y-77445843D01*
X88258533Y-77743302D01*
X88437408Y-78011007D01*
X88665073Y-78238672D01*
X88932778Y-78417547D01*
X89230237Y-78540758D01*
X89546017Y-78603570D01*
X89867983Y-78603570D01*
X90183763Y-78540758D01*
X90481222Y-78417547D01*
X90748927Y-78238672D01*
X90976592Y-78011007D01*
X91155467Y-77743302D01*
X91278678Y-77445843D01*
X91341490Y-77130063D01*
X91341490Y-76808097D01*
X133572510Y-76808097D01*
X133572510Y-77130063D01*
X133635322Y-77445843D01*
X133758533Y-77743302D01*
X133937408Y-78011007D01*
X134165073Y-78238672D01*
X134432778Y-78417547D01*
X134730237Y-78540758D01*
X135046017Y-78603570D01*
X135367983Y-78603570D01*
X135683763Y-78540758D01*
X135981222Y-78417547D01*
X136248927Y-78238672D01*
X136476592Y-78011007D01*
X136655467Y-77743302D01*
X136778678Y-77445843D01*
X136841490Y-77130063D01*
X136841490Y-76808097D01*
X136778678Y-76492317D01*
X136655467Y-76194858D01*
X136476592Y-75927153D01*
X136248927Y-75699488D01*
X135981222Y-75520613D01*
X135683763Y-75397402D01*
X135367983Y-75334590D01*
X135046017Y-75334590D01*
X134730237Y-75397402D01*
X134432778Y-75520613D01*
X134165073Y-75699488D01*
X133937408Y-75927153D01*
X133758533Y-76194858D01*
X133635322Y-76492317D01*
X133572510Y-76808097D01*
X91341490Y-76808097D01*
X91278678Y-76492317D01*
X91155467Y-76194858D01*
X90976592Y-75927153D01*
X90748927Y-75699488D01*
X90481222Y-75520613D01*
X90183763Y-75397402D01*
X89867983Y-75334590D01*
X89546017Y-75334590D01*
X89230237Y-75397402D01*
X88932778Y-75520613D01*
X88665073Y-75699488D01*
X88437408Y-75927153D01*
X88258533Y-76194858D01*
X88135322Y-76492317D01*
X88072510Y-76808097D01*
X87617000Y-76808097D01*
X87617000Y-50308097D01*
X88072510Y-50308097D01*
X88072510Y-50630063D01*
X88135322Y-50945843D01*
X88258533Y-51243302D01*
X88437408Y-51511007D01*
X88665073Y-51738672D01*
X88932778Y-51917547D01*
X89230237Y-52040758D01*
X89546017Y-52103570D01*
X89867983Y-52103570D01*
X90183763Y-52040758D01*
X90481222Y-51917547D01*
X90748927Y-51738672D01*
X90976592Y-51511007D01*
X91155467Y-51243302D01*
X91278678Y-50945843D01*
X91341490Y-50630063D01*
X91341490Y-50308097D01*
X133572510Y-50308097D01*
X133572510Y-50630063D01*
X133635322Y-50945843D01*
X133758533Y-51243302D01*
X133937408Y-51511007D01*
X134165073Y-51738672D01*
X134432778Y-51917547D01*
X134730237Y-52040758D01*
X135046017Y-52103570D01*
X135367983Y-52103570D01*
X135683763Y-52040758D01*
X135981222Y-51917547D01*
X136248927Y-51738672D01*
X136476592Y-51511007D01*
X136655467Y-51243302D01*
X136778678Y-50945843D01*
X136841490Y-50630063D01*
X136841490Y-50308097D01*
X136778678Y-49992317D01*
X136655467Y-49694858D01*
X136476592Y-49427153D01*
X136248927Y-49199488D01*
X135981222Y-49020613D01*
X135683763Y-48897402D01*
X135367983Y-48834590D01*
X135046017Y-48834590D01*
X134730237Y-48897402D01*
X134432778Y-49020613D01*
X134165073Y-49199488D01*
X133937408Y-49427153D01*
X133758533Y-49694858D01*
X133635322Y-49992317D01*
X133572510Y-50308097D01*
X91341490Y-50308097D01*
X91278678Y-49992317D01*
X91155467Y-49694858D01*
X90976592Y-49427153D01*
X90748927Y-49199488D01*
X90481222Y-49020613D01*
X90183763Y-48897402D01*
X89867983Y-48834590D01*
X89546017Y-48834590D01*
X89230237Y-48897402D01*
X88932778Y-49020613D01*
X88665073Y-49199488D01*
X88437408Y-49427153D01*
X88258533Y-49694858D01*
X88135322Y-49992317D01*
X88072510Y-50308097D01*
X87617000Y-50308097D01*
X87617000Y-48379080D01*
X137297000Y-48379080D01*
X137297001Y-79059080D01*
G37*
X137297001Y-79059080D02*
X87617000Y-79059080D01*
X87617000Y-76808097D01*
X88072510Y-76808097D01*
X88072510Y-77130063D01*
X88135322Y-77445843D01*
X88258533Y-77743302D01*
X88437408Y-78011007D01*
X88665073Y-78238672D01*
X88932778Y-78417547D01*
X89230237Y-78540758D01*
X89546017Y-78603570D01*
X89867983Y-78603570D01*
X90183763Y-78540758D01*
X90481222Y-78417547D01*
X90748927Y-78238672D01*
X90976592Y-78011007D01*
X91155467Y-77743302D01*
X91278678Y-77445843D01*
X91341490Y-77130063D01*
X91341490Y-76808097D01*
X133572510Y-76808097D01*
X133572510Y-77130063D01*
X133635322Y-77445843D01*
X133758533Y-77743302D01*
X133937408Y-78011007D01*
X134165073Y-78238672D01*
X134432778Y-78417547D01*
X134730237Y-78540758D01*
X135046017Y-78603570D01*
X135367983Y-78603570D01*
X135683763Y-78540758D01*
X135981222Y-78417547D01*
X136248927Y-78238672D01*
X136476592Y-78011007D01*
X136655467Y-77743302D01*
X136778678Y-77445843D01*
X136841490Y-77130063D01*
X136841490Y-76808097D01*
X136778678Y-76492317D01*
X136655467Y-76194858D01*
X136476592Y-75927153D01*
X136248927Y-75699488D01*
X135981222Y-75520613D01*
X135683763Y-75397402D01*
X135367983Y-75334590D01*
X135046017Y-75334590D01*
X134730237Y-75397402D01*
X134432778Y-75520613D01*
X134165073Y-75699488D01*
X133937408Y-75927153D01*
X133758533Y-76194858D01*
X133635322Y-76492317D01*
X133572510Y-76808097D01*
X91341490Y-76808097D01*
X91278678Y-76492317D01*
X91155467Y-76194858D01*
X90976592Y-75927153D01*
X90748927Y-75699488D01*
X90481222Y-75520613D01*
X90183763Y-75397402D01*
X89867983Y-75334590D01*
X89546017Y-75334590D01*
X89230237Y-75397402D01*
X88932778Y-75520613D01*
X88665073Y-75699488D01*
X88437408Y-75927153D01*
X88258533Y-76194858D01*
X88135322Y-76492317D01*
X88072510Y-76808097D01*
X87617000Y-76808097D01*
X87617000Y-50308097D01*
X88072510Y-50308097D01*
X88072510Y-50630063D01*
X88135322Y-50945843D01*
X88258533Y-51243302D01*
X88437408Y-51511007D01*
X88665073Y-51738672D01*
X88932778Y-51917547D01*
X89230237Y-52040758D01*
X89546017Y-52103570D01*
X89867983Y-52103570D01*
X90183763Y-52040758D01*
X90481222Y-51917547D01*
X90748927Y-51738672D01*
X90976592Y-51511007D01*
X91155467Y-51243302D01*
X91278678Y-50945843D01*
X91341490Y-50630063D01*
X91341490Y-50308097D01*
X133572510Y-50308097D01*
X133572510Y-50630063D01*
X133635322Y-50945843D01*
X133758533Y-51243302D01*
X133937408Y-51511007D01*
X134165073Y-51738672D01*
X134432778Y-51917547D01*
X134730237Y-52040758D01*
X135046017Y-52103570D01*
X135367983Y-52103570D01*
X135683763Y-52040758D01*
X135981222Y-51917547D01*
X136248927Y-51738672D01*
X136476592Y-51511007D01*
X136655467Y-51243302D01*
X136778678Y-50945843D01*
X136841490Y-50630063D01*
X136841490Y-50308097D01*
X136778678Y-49992317D01*
X136655467Y-49694858D01*
X136476592Y-49427153D01*
X136248927Y-49199488D01*
X135981222Y-49020613D01*
X135683763Y-48897402D01*
X135367983Y-48834590D01*
X135046017Y-48834590D01*
X134730237Y-48897402D01*
X134432778Y-49020613D01*
X134165073Y-49199488D01*
X133937408Y-49427153D01*
X133758533Y-49694858D01*
X133635322Y-49992317D01*
X133572510Y-50308097D01*
X91341490Y-50308097D01*
X91278678Y-49992317D01*
X91155467Y-49694858D01*
X90976592Y-49427153D01*
X90748927Y-49199488D01*
X90481222Y-49020613D01*
X90183763Y-48897402D01*
X89867983Y-48834590D01*
X89546017Y-48834590D01*
X89230237Y-48897402D01*
X88932778Y-49020613D01*
X88665073Y-49199488D01*
X88437408Y-49427153D01*
X88258533Y-49694858D01*
X88135322Y-49992317D01*
X88072510Y-50308097D01*
X87617000Y-50308097D01*
X87617000Y-48379080D01*
X137297000Y-48379080D01*
X137297001Y-79059080D01*
G36*
X140965806Y-114295689D02*
G01*
X138617000Y-114289919D01*
X138617000Y-111751499D01*
X138620193Y-111719080D01*
X138617000Y-111686661D01*
X138617000Y-79751499D01*
X138620193Y-79719080D01*
X138617000Y-79686661D01*
X138617000Y-76786573D01*
X141228176Y-76746612D01*
X140965806Y-114295689D01*
G37*
X140965806Y-114295689D02*
X138617000Y-114289919D01*
X138617000Y-111751499D01*
X138620193Y-111719080D01*
X138617000Y-111686661D01*
X138617000Y-79751499D01*
X138620193Y-79719080D01*
X138617000Y-79686661D01*
X138617000Y-76786573D01*
X141228176Y-76746612D01*
X140965806Y-114295689D01*
G36*
X137297000Y-114286676D02*
G01*
X136837004Y-114285546D01*
X136778678Y-113992317D01*
X136655467Y-113694858D01*
X136476592Y-113427153D01*
X136248927Y-113199488D01*
X135981222Y-113020613D01*
X135683763Y-112897402D01*
X135367983Y-112834590D01*
X135046017Y-112834590D01*
X134730237Y-112897402D01*
X134432778Y-113020613D01*
X134165073Y-113199488D01*
X133937408Y-113427153D01*
X133758533Y-113694858D01*
X133635322Y-113992317D01*
X133578588Y-114277542D01*
X91314761Y-114173719D01*
X91278678Y-113992317D01*
X91155467Y-113694858D01*
X90976592Y-113427153D01*
X90748927Y-113199488D01*
X90481222Y-113020613D01*
X90183763Y-112897402D01*
X89867983Y-112834590D01*
X89546017Y-112834590D01*
X89230237Y-112897402D01*
X88932778Y-113020613D01*
X88665073Y-113199488D01*
X88437408Y-113427153D01*
X88258533Y-113694858D01*
X88135322Y-113992317D01*
X88100810Y-114165823D01*
X87617000Y-114164635D01*
X87617000Y-112379080D01*
X137297000Y-112379080D01*
X137297000Y-114286676D01*
G37*
X137297000Y-114286676D02*
X136837004Y-114285546D01*
X136778678Y-113992317D01*
X136655467Y-113694858D01*
X136476592Y-113427153D01*
X136248927Y-113199488D01*
X135981222Y-113020613D01*
X135683763Y-112897402D01*
X135367983Y-112834590D01*
X135046017Y-112834590D01*
X134730237Y-112897402D01*
X134432778Y-113020613D01*
X134165073Y-113199488D01*
X133937408Y-113427153D01*
X133758533Y-113694858D01*
X133635322Y-113992317D01*
X133578588Y-114277542D01*
X91314761Y-114173719D01*
X91278678Y-113992317D01*
X91155467Y-113694858D01*
X90976592Y-113427153D01*
X90748927Y-113199488D01*
X90481222Y-113020613D01*
X90183763Y-112897402D01*
X89867983Y-112834590D01*
X89546017Y-112834590D01*
X89230237Y-112897402D01*
X88932778Y-113020613D01*
X88665073Y-113199488D01*
X88437408Y-113427153D01*
X88258533Y-113694858D01*
X88135322Y-113992317D01*
X88100810Y-114165823D01*
X87617000Y-114164635D01*
X87617000Y-112379080D01*
X137297000Y-112379080D01*
X137297000Y-114286676D01*
G36*
X86297001Y-79686651D02*
G01*
X86293807Y-79719080D01*
X86297000Y-79751499D01*
X86297001Y-111686651D01*
X86293807Y-111719080D01*
X86297000Y-111751499D01*
X86297000Y-114161392D01*
X85384640Y-114159151D01*
X85384640Y-77601231D01*
X86297001Y-77587268D01*
X86297001Y-79686651D01*
G37*
X86297001Y-79686651D02*
X86293807Y-79719080D01*
X86297000Y-79751499D01*
X86297001Y-111686651D01*
X86293807Y-111719080D01*
X86297000Y-111751499D01*
X86297000Y-114161392D01*
X85384640Y-114159151D01*
X85384640Y-77601231D01*
X86297001Y-77587268D01*
X86297001Y-79686651D01*
G36*
X137297001Y-111059080D02*
G01*
X87617000Y-111059080D01*
X87617000Y-108808097D01*
X88072510Y-108808097D01*
X88072510Y-109130063D01*
X88135322Y-109445843D01*
X88258533Y-109743302D01*
X88437408Y-110011007D01*
X88665073Y-110238672D01*
X88932778Y-110417547D01*
X89230237Y-110540758D01*
X89546017Y-110603570D01*
X89867983Y-110603570D01*
X90183763Y-110540758D01*
X90481222Y-110417547D01*
X90748927Y-110238672D01*
X90976592Y-110011007D01*
X91155467Y-109743302D01*
X91278678Y-109445843D01*
X91341490Y-109130063D01*
X91341490Y-108808097D01*
X133572510Y-108808097D01*
X133572510Y-109130063D01*
X133635322Y-109445843D01*
X133758533Y-109743302D01*
X133937408Y-110011007D01*
X134165073Y-110238672D01*
X134432778Y-110417547D01*
X134730237Y-110540758D01*
X135046017Y-110603570D01*
X135367983Y-110603570D01*
X135683763Y-110540758D01*
X135981222Y-110417547D01*
X136248927Y-110238672D01*
X136476592Y-110011007D01*
X136655467Y-109743302D01*
X136778678Y-109445843D01*
X136841490Y-109130063D01*
X136841490Y-108808097D01*
X136778678Y-108492317D01*
X136655467Y-108194858D01*
X136476592Y-107927153D01*
X136248927Y-107699488D01*
X135981222Y-107520613D01*
X135683763Y-107397402D01*
X135367983Y-107334590D01*
X135046017Y-107334590D01*
X134730237Y-107397402D01*
X134432778Y-107520613D01*
X134165073Y-107699488D01*
X133937408Y-107927153D01*
X133758533Y-108194858D01*
X133635322Y-108492317D01*
X133572510Y-108808097D01*
X91341490Y-108808097D01*
X91278678Y-108492317D01*
X91155467Y-108194858D01*
X90976592Y-107927153D01*
X90748927Y-107699488D01*
X90481222Y-107520613D01*
X90183763Y-107397402D01*
X89867983Y-107334590D01*
X89546017Y-107334590D01*
X89230237Y-107397402D01*
X88932778Y-107520613D01*
X88665073Y-107699488D01*
X88437408Y-107927153D01*
X88258533Y-108194858D01*
X88135322Y-108492317D01*
X88072510Y-108808097D01*
X87617000Y-108808097D01*
X87617000Y-82308097D01*
X88072510Y-82308097D01*
X88072510Y-82630063D01*
X88135322Y-82945843D01*
X88258533Y-83243302D01*
X88437408Y-83511007D01*
X88665073Y-83738672D01*
X88932778Y-83917547D01*
X89230237Y-84040758D01*
X89546017Y-84103570D01*
X89867983Y-84103570D01*
X90183763Y-84040758D01*
X90481222Y-83917547D01*
X90748927Y-83738672D01*
X90976592Y-83511007D01*
X91155467Y-83243302D01*
X91278678Y-82945843D01*
X91341490Y-82630063D01*
X91341490Y-82308097D01*
X133572510Y-82308097D01*
X133572510Y-82630063D01*
X133635322Y-82945843D01*
X133758533Y-83243302D01*
X133937408Y-83511007D01*
X134165073Y-83738672D01*
X134432778Y-83917547D01*
X134730237Y-84040758D01*
X135046017Y-84103570D01*
X135367983Y-84103570D01*
X135683763Y-84040758D01*
X135981222Y-83917547D01*
X136248927Y-83738672D01*
X136476592Y-83511007D01*
X136655467Y-83243302D01*
X136778678Y-82945843D01*
X136841490Y-82630063D01*
X136841490Y-82308097D01*
X136778678Y-81992317D01*
X136655467Y-81694858D01*
X136476592Y-81427153D01*
X136248927Y-81199488D01*
X135981222Y-81020613D01*
X135683763Y-80897402D01*
X135367983Y-80834590D01*
X135046017Y-80834590D01*
X134730237Y-80897402D01*
X134432778Y-81020613D01*
X134165073Y-81199488D01*
X133937408Y-81427153D01*
X133758533Y-81694858D01*
X133635322Y-81992317D01*
X133572510Y-82308097D01*
X91341490Y-82308097D01*
X91278678Y-81992317D01*
X91155467Y-81694858D01*
X90976592Y-81427153D01*
X90748927Y-81199488D01*
X90481222Y-81020613D01*
X90183763Y-80897402D01*
X89867983Y-80834590D01*
X89546017Y-80834590D01*
X89230237Y-80897402D01*
X88932778Y-81020613D01*
X88665073Y-81199488D01*
X88437408Y-81427153D01*
X88258533Y-81694858D01*
X88135322Y-81992317D01*
X88072510Y-82308097D01*
X87617000Y-82308097D01*
X87617000Y-80379080D01*
X137297000Y-80379080D01*
X137297001Y-111059080D01*
G37*
X137297001Y-111059080D02*
X87617000Y-111059080D01*
X87617000Y-108808097D01*
X88072510Y-108808097D01*
X88072510Y-109130063D01*
X88135322Y-109445843D01*
X88258533Y-109743302D01*
X88437408Y-110011007D01*
X88665073Y-110238672D01*
X88932778Y-110417547D01*
X89230237Y-110540758D01*
X89546017Y-110603570D01*
X89867983Y-110603570D01*
X90183763Y-110540758D01*
X90481222Y-110417547D01*
X90748927Y-110238672D01*
X90976592Y-110011007D01*
X91155467Y-109743302D01*
X91278678Y-109445843D01*
X91341490Y-109130063D01*
X91341490Y-108808097D01*
X133572510Y-108808097D01*
X133572510Y-109130063D01*
X133635322Y-109445843D01*
X133758533Y-109743302D01*
X133937408Y-110011007D01*
X134165073Y-110238672D01*
X134432778Y-110417547D01*
X134730237Y-110540758D01*
X135046017Y-110603570D01*
X135367983Y-110603570D01*
X135683763Y-110540758D01*
X135981222Y-110417547D01*
X136248927Y-110238672D01*
X136476592Y-110011007D01*
X136655467Y-109743302D01*
X136778678Y-109445843D01*
X136841490Y-109130063D01*
X136841490Y-108808097D01*
X136778678Y-108492317D01*
X136655467Y-108194858D01*
X136476592Y-107927153D01*
X136248927Y-107699488D01*
X135981222Y-107520613D01*
X135683763Y-107397402D01*
X135367983Y-107334590D01*
X135046017Y-107334590D01*
X134730237Y-107397402D01*
X134432778Y-107520613D01*
X134165073Y-107699488D01*
X133937408Y-107927153D01*
X133758533Y-108194858D01*
X133635322Y-108492317D01*
X133572510Y-108808097D01*
X91341490Y-108808097D01*
X91278678Y-108492317D01*
X91155467Y-108194858D01*
X90976592Y-107927153D01*
X90748927Y-107699488D01*
X90481222Y-107520613D01*
X90183763Y-107397402D01*
X89867983Y-107334590D01*
X89546017Y-107334590D01*
X89230237Y-107397402D01*
X88932778Y-107520613D01*
X88665073Y-107699488D01*
X88437408Y-107927153D01*
X88258533Y-108194858D01*
X88135322Y-108492317D01*
X88072510Y-108808097D01*
X87617000Y-108808097D01*
X87617000Y-82308097D01*
X88072510Y-82308097D01*
X88072510Y-82630063D01*
X88135322Y-82945843D01*
X88258533Y-83243302D01*
X88437408Y-83511007D01*
X88665073Y-83738672D01*
X88932778Y-83917547D01*
X89230237Y-84040758D01*
X89546017Y-84103570D01*
X89867983Y-84103570D01*
X90183763Y-84040758D01*
X90481222Y-83917547D01*
X90748927Y-83738672D01*
X90976592Y-83511007D01*
X91155467Y-83243302D01*
X91278678Y-82945843D01*
X91341490Y-82630063D01*
X91341490Y-82308097D01*
X133572510Y-82308097D01*
X133572510Y-82630063D01*
X133635322Y-82945843D01*
X133758533Y-83243302D01*
X133937408Y-83511007D01*
X134165073Y-83738672D01*
X134432778Y-83917547D01*
X134730237Y-84040758D01*
X135046017Y-84103570D01*
X135367983Y-84103570D01*
X135683763Y-84040758D01*
X135981222Y-83917547D01*
X136248927Y-83738672D01*
X136476592Y-83511007D01*
X136655467Y-83243302D01*
X136778678Y-82945843D01*
X136841490Y-82630063D01*
X136841490Y-82308097D01*
X136778678Y-81992317D01*
X136655467Y-81694858D01*
X136476592Y-81427153D01*
X136248927Y-81199488D01*
X135981222Y-81020613D01*
X135683763Y-80897402D01*
X135367983Y-80834590D01*
X135046017Y-80834590D01*
X134730237Y-80897402D01*
X134432778Y-81020613D01*
X134165073Y-81199488D01*
X133937408Y-81427153D01*
X133758533Y-81694858D01*
X133635322Y-81992317D01*
X133572510Y-82308097D01*
X91341490Y-82308097D01*
X91278678Y-81992317D01*
X91155467Y-81694858D01*
X90976592Y-81427153D01*
X90748927Y-81199488D01*
X90481222Y-81020613D01*
X90183763Y-80897402D01*
X89867983Y-80834590D01*
X89546017Y-80834590D01*
X89230237Y-80897402D01*
X88932778Y-81020613D01*
X88665073Y-81199488D01*
X88437408Y-81427153D01*
X88258533Y-81694858D01*
X88135322Y-81992317D01*
X88072510Y-82308097D01*
X87617000Y-82308097D01*
X87617000Y-80379080D01*
X137297000Y-80379080D01*
X137297001Y-111059080D01*
G36*
X137297001Y-79059080D02*
G01*
X87617000Y-79059080D01*
X87617000Y-77567067D01*
X88181953Y-77558421D01*
X88258533Y-77743302D01*
X88437408Y-78011007D01*
X88665073Y-78238672D01*
X88932778Y-78417547D01*
X89230237Y-78540758D01*
X89546017Y-78603570D01*
X89867983Y-78603570D01*
X90183763Y-78540758D01*
X90481222Y-78417547D01*
X90748927Y-78238672D01*
X90976592Y-78011007D01*
X91155467Y-77743302D01*
X91251505Y-77511446D01*
X133572510Y-76863773D01*
X133572510Y-77130063D01*
X133635322Y-77445843D01*
X133758533Y-77743302D01*
X133937408Y-78011007D01*
X134165073Y-78238672D01*
X134432778Y-78417547D01*
X134730237Y-78540758D01*
X135046017Y-78603570D01*
X135367983Y-78603570D01*
X135683763Y-78540758D01*
X135981222Y-78417547D01*
X136248927Y-78238672D01*
X136476592Y-78011007D01*
X136655467Y-77743302D01*
X136778678Y-77445843D01*
X136841490Y-77130063D01*
X136841490Y-76813745D01*
X137297001Y-76806774D01*
X137297001Y-79059080D01*
G37*
X137297001Y-79059080D02*
X87617000Y-79059080D01*
X87617000Y-77567067D01*
X88181953Y-77558421D01*
X88258533Y-77743302D01*
X88437408Y-78011007D01*
X88665073Y-78238672D01*
X88932778Y-78417547D01*
X89230237Y-78540758D01*
X89546017Y-78603570D01*
X89867983Y-78603570D01*
X90183763Y-78540758D01*
X90481222Y-78417547D01*
X90748927Y-78238672D01*
X90976592Y-78011007D01*
X91155467Y-77743302D01*
X91251505Y-77511446D01*
X133572510Y-76863773D01*
X133572510Y-77130063D01*
X133635322Y-77445843D01*
X133758533Y-77743302D01*
X133937408Y-78011007D01*
X134165073Y-78238672D01*
X134432778Y-78417547D01*
X134730237Y-78540758D01*
X135046017Y-78603570D01*
X135367983Y-78603570D01*
X135683763Y-78540758D01*
X135981222Y-78417547D01*
X136248927Y-78238672D01*
X136476592Y-78011007D01*
X136655467Y-77743302D01*
X136778678Y-77445843D01*
X136841490Y-77130063D01*
X136841490Y-76813745D01*
X137297001Y-76806774D01*
X137297001Y-79059080D01*
G36*
X140965806Y-146295689D02*
G01*
X85384640Y-146159151D01*
X85384640Y-109601231D01*
X86297001Y-109587268D01*
X86297001Y-111686651D01*
X86293807Y-111719080D01*
X86297000Y-111751499D01*
X86297001Y-143686651D01*
X86293807Y-143719080D01*
X86306550Y-143848463D01*
X86344290Y-143972873D01*
X86405575Y-144087530D01*
X86488052Y-144188028D01*
X86588550Y-144270505D01*
X86703207Y-144331790D01*
X86827617Y-144369530D01*
X86924581Y-144379080D01*
X86957000Y-144382273D01*
X86989419Y-144379080D01*
X137924581Y-144379080D01*
X137957000Y-144382273D01*
X137989419Y-144379080D01*
X138086383Y-144369530D01*
X138210793Y-144331790D01*
X138325450Y-144270505D01*
X138425948Y-144188028D01*
X138508425Y-144087530D01*
X138569710Y-143972873D01*
X138607450Y-143848463D01*
X138620193Y-143719080D01*
X138617000Y-143686661D01*
X138617000Y-111751499D01*
X138620193Y-111719080D01*
X138617000Y-111686661D01*
X138617000Y-108786573D01*
X141228176Y-108746612D01*
X140965806Y-146295689D01*
G37*
X140965806Y-146295689D02*
X85384640Y-146159151D01*
X85384640Y-109601231D01*
X86297001Y-109587268D01*
X86297001Y-111686651D01*
X86293807Y-111719080D01*
X86297000Y-111751499D01*
X86297001Y-143686651D01*
X86293807Y-143719080D01*
X86306550Y-143848463D01*
X86344290Y-143972873D01*
X86405575Y-144087530D01*
X86488052Y-144188028D01*
X86588550Y-144270505D01*
X86703207Y-144331790D01*
X86827617Y-144369530D01*
X86924581Y-144379080D01*
X86957000Y-144382273D01*
X86989419Y-144379080D01*
X137924581Y-144379080D01*
X137957000Y-144382273D01*
X137989419Y-144379080D01*
X138086383Y-144369530D01*
X138210793Y-144331790D01*
X138325450Y-144270505D01*
X138425948Y-144188028D01*
X138508425Y-144087530D01*
X138569710Y-143972873D01*
X138607450Y-143848463D01*
X138620193Y-143719080D01*
X138617000Y-143686661D01*
X138617000Y-111751499D01*
X138620193Y-111719080D01*
X138617000Y-111686661D01*
X138617000Y-108786573D01*
X141228176Y-108746612D01*
X140965806Y-146295689D01*
G36*
X137297001Y-143059080D02*
G01*
X87617000Y-143059080D01*
X87617000Y-140808097D01*
X88072510Y-140808097D01*
X88072510Y-141130063D01*
X88135322Y-141445843D01*
X88258533Y-141743302D01*
X88437408Y-142011007D01*
X88665073Y-142238672D01*
X88932778Y-142417547D01*
X89230237Y-142540758D01*
X89546017Y-142603570D01*
X89867983Y-142603570D01*
X90183763Y-142540758D01*
X90481222Y-142417547D01*
X90748927Y-142238672D01*
X90976592Y-142011007D01*
X91155467Y-141743302D01*
X91278678Y-141445843D01*
X91341490Y-141130063D01*
X91341490Y-140808097D01*
X133572510Y-140808097D01*
X133572510Y-141130063D01*
X133635322Y-141445843D01*
X133758533Y-141743302D01*
X133937408Y-142011007D01*
X134165073Y-142238672D01*
X134432778Y-142417547D01*
X134730237Y-142540758D01*
X135046017Y-142603570D01*
X135367983Y-142603570D01*
X135683763Y-142540758D01*
X135981222Y-142417547D01*
X136248927Y-142238672D01*
X136476592Y-142011007D01*
X136655467Y-141743302D01*
X136778678Y-141445843D01*
X136841490Y-141130063D01*
X136841490Y-140808097D01*
X136778678Y-140492317D01*
X136655467Y-140194858D01*
X136476592Y-139927153D01*
X136248927Y-139699488D01*
X135981222Y-139520613D01*
X135683763Y-139397402D01*
X135367983Y-139334590D01*
X135046017Y-139334590D01*
X134730237Y-139397402D01*
X134432778Y-139520613D01*
X134165073Y-139699488D01*
X133937408Y-139927153D01*
X133758533Y-140194858D01*
X133635322Y-140492317D01*
X133572510Y-140808097D01*
X91341490Y-140808097D01*
X91278678Y-140492317D01*
X91155467Y-140194858D01*
X90976592Y-139927153D01*
X90748927Y-139699488D01*
X90481222Y-139520613D01*
X90183763Y-139397402D01*
X89867983Y-139334590D01*
X89546017Y-139334590D01*
X89230237Y-139397402D01*
X88932778Y-139520613D01*
X88665073Y-139699488D01*
X88437408Y-139927153D01*
X88258533Y-140194858D01*
X88135322Y-140492317D01*
X88072510Y-140808097D01*
X87617000Y-140808097D01*
X87617000Y-114308097D01*
X88072510Y-114308097D01*
X88072510Y-114630063D01*
X88135322Y-114945843D01*
X88258533Y-115243302D01*
X88437408Y-115511007D01*
X88665073Y-115738672D01*
X88932778Y-115917547D01*
X89230237Y-116040758D01*
X89546017Y-116103570D01*
X89867983Y-116103570D01*
X90183763Y-116040758D01*
X90481222Y-115917547D01*
X90748927Y-115738672D01*
X90976592Y-115511007D01*
X91155467Y-115243302D01*
X91278678Y-114945843D01*
X91341490Y-114630063D01*
X91341490Y-114308097D01*
X133572510Y-114308097D01*
X133572510Y-114630063D01*
X133635322Y-114945843D01*
X133758533Y-115243302D01*
X133937408Y-115511007D01*
X134165073Y-115738672D01*
X134432778Y-115917547D01*
X134730237Y-116040758D01*
X135046017Y-116103570D01*
X135367983Y-116103570D01*
X135683763Y-116040758D01*
X135981222Y-115917547D01*
X136248927Y-115738672D01*
X136476592Y-115511007D01*
X136655467Y-115243302D01*
X136778678Y-114945843D01*
X136841490Y-114630063D01*
X136841490Y-114308097D01*
X136778678Y-113992317D01*
X136655467Y-113694858D01*
X136476592Y-113427153D01*
X136248927Y-113199488D01*
X135981222Y-113020613D01*
X135683763Y-112897402D01*
X135367983Y-112834590D01*
X135046017Y-112834590D01*
X134730237Y-112897402D01*
X134432778Y-113020613D01*
X134165073Y-113199488D01*
X133937408Y-113427153D01*
X133758533Y-113694858D01*
X133635322Y-113992317D01*
X133572510Y-114308097D01*
X91341490Y-114308097D01*
X91278678Y-113992317D01*
X91155467Y-113694858D01*
X90976592Y-113427153D01*
X90748927Y-113199488D01*
X90481222Y-113020613D01*
X90183763Y-112897402D01*
X89867983Y-112834590D01*
X89546017Y-112834590D01*
X89230237Y-112897402D01*
X88932778Y-113020613D01*
X88665073Y-113199488D01*
X88437408Y-113427153D01*
X88258533Y-113694858D01*
X88135322Y-113992317D01*
X88072510Y-114308097D01*
X87617000Y-114308097D01*
X87617000Y-112379080D01*
X137297000Y-112379080D01*
X137297001Y-143059080D01*
G37*
X137297001Y-143059080D02*
X87617000Y-143059080D01*
X87617000Y-140808097D01*
X88072510Y-140808097D01*
X88072510Y-141130063D01*
X88135322Y-141445843D01*
X88258533Y-141743302D01*
X88437408Y-142011007D01*
X88665073Y-142238672D01*
X88932778Y-142417547D01*
X89230237Y-142540758D01*
X89546017Y-142603570D01*
X89867983Y-142603570D01*
X90183763Y-142540758D01*
X90481222Y-142417547D01*
X90748927Y-142238672D01*
X90976592Y-142011007D01*
X91155467Y-141743302D01*
X91278678Y-141445843D01*
X91341490Y-141130063D01*
X91341490Y-140808097D01*
X133572510Y-140808097D01*
X133572510Y-141130063D01*
X133635322Y-141445843D01*
X133758533Y-141743302D01*
X133937408Y-142011007D01*
X134165073Y-142238672D01*
X134432778Y-142417547D01*
X134730237Y-142540758D01*
X135046017Y-142603570D01*
X135367983Y-142603570D01*
X135683763Y-142540758D01*
X135981222Y-142417547D01*
X136248927Y-142238672D01*
X136476592Y-142011007D01*
X136655467Y-141743302D01*
X136778678Y-141445843D01*
X136841490Y-141130063D01*
X136841490Y-140808097D01*
X136778678Y-140492317D01*
X136655467Y-140194858D01*
X136476592Y-139927153D01*
X136248927Y-139699488D01*
X135981222Y-139520613D01*
X135683763Y-139397402D01*
X135367983Y-139334590D01*
X135046017Y-139334590D01*
X134730237Y-139397402D01*
X134432778Y-139520613D01*
X134165073Y-139699488D01*
X133937408Y-139927153D01*
X133758533Y-140194858D01*
X133635322Y-140492317D01*
X133572510Y-140808097D01*
X91341490Y-140808097D01*
X91278678Y-140492317D01*
X91155467Y-140194858D01*
X90976592Y-139927153D01*
X90748927Y-139699488D01*
X90481222Y-139520613D01*
X90183763Y-139397402D01*
X89867983Y-139334590D01*
X89546017Y-139334590D01*
X89230237Y-139397402D01*
X88932778Y-139520613D01*
X88665073Y-139699488D01*
X88437408Y-139927153D01*
X88258533Y-140194858D01*
X88135322Y-140492317D01*
X88072510Y-140808097D01*
X87617000Y-140808097D01*
X87617000Y-114308097D01*
X88072510Y-114308097D01*
X88072510Y-114630063D01*
X88135322Y-114945843D01*
X88258533Y-115243302D01*
X88437408Y-115511007D01*
X88665073Y-115738672D01*
X88932778Y-115917547D01*
X89230237Y-116040758D01*
X89546017Y-116103570D01*
X89867983Y-116103570D01*
X90183763Y-116040758D01*
X90481222Y-115917547D01*
X90748927Y-115738672D01*
X90976592Y-115511007D01*
X91155467Y-115243302D01*
X91278678Y-114945843D01*
X91341490Y-114630063D01*
X91341490Y-114308097D01*
X133572510Y-114308097D01*
X133572510Y-114630063D01*
X133635322Y-114945843D01*
X133758533Y-115243302D01*
X133937408Y-115511007D01*
X134165073Y-115738672D01*
X134432778Y-115917547D01*
X134730237Y-116040758D01*
X135046017Y-116103570D01*
X135367983Y-116103570D01*
X135683763Y-116040758D01*
X135981222Y-115917547D01*
X136248927Y-115738672D01*
X136476592Y-115511007D01*
X136655467Y-115243302D01*
X136778678Y-114945843D01*
X136841490Y-114630063D01*
X136841490Y-114308097D01*
X136778678Y-113992317D01*
X136655467Y-113694858D01*
X136476592Y-113427153D01*
X136248927Y-113199488D01*
X135981222Y-113020613D01*
X135683763Y-112897402D01*
X135367983Y-112834590D01*
X135046017Y-112834590D01*
X134730237Y-112897402D01*
X134432778Y-113020613D01*
X134165073Y-113199488D01*
X133937408Y-113427153D01*
X133758533Y-113694858D01*
X133635322Y-113992317D01*
X133572510Y-114308097D01*
X91341490Y-114308097D01*
X91278678Y-113992317D01*
X91155467Y-113694858D01*
X90976592Y-113427153D01*
X90748927Y-113199488D01*
X90481222Y-113020613D01*
X90183763Y-112897402D01*
X89867983Y-112834590D01*
X89546017Y-112834590D01*
X89230237Y-112897402D01*
X88932778Y-113020613D01*
X88665073Y-113199488D01*
X88437408Y-113427153D01*
X88258533Y-113694858D01*
X88135322Y-113992317D01*
X88072510Y-114308097D01*
X87617000Y-114308097D01*
X87617000Y-112379080D01*
X137297000Y-112379080D01*
X137297001Y-143059080D01*
G36*
X137297001Y-111059080D02*
G01*
X87617000Y-111059080D01*
X87617000Y-109567067D01*
X88181953Y-109558421D01*
X88258533Y-109743302D01*
X88437408Y-110011007D01*
X88665073Y-110238672D01*
X88932778Y-110417547D01*
X89230237Y-110540758D01*
X89546017Y-110603570D01*
X89867983Y-110603570D01*
X90183763Y-110540758D01*
X90481222Y-110417547D01*
X90748927Y-110238672D01*
X90976592Y-110011007D01*
X91155467Y-109743302D01*
X91251505Y-109511446D01*
X133572510Y-108863773D01*
X133572510Y-109130063D01*
X133635322Y-109445843D01*
X133758533Y-109743302D01*
X133937408Y-110011007D01*
X134165073Y-110238672D01*
X134432778Y-110417547D01*
X134730237Y-110540758D01*
X135046017Y-110603570D01*
X135367983Y-110603570D01*
X135683763Y-110540758D01*
X135981222Y-110417547D01*
X136248927Y-110238672D01*
X136476592Y-110011007D01*
X136655467Y-109743302D01*
X136778678Y-109445843D01*
X136841490Y-109130063D01*
X136841490Y-108813745D01*
X137297001Y-108806774D01*
X137297001Y-111059080D01*
G37*
X137297001Y-111059080D02*
X87617000Y-111059080D01*
X87617000Y-109567067D01*
X88181953Y-109558421D01*
X88258533Y-109743302D01*
X88437408Y-110011007D01*
X88665073Y-110238672D01*
X88932778Y-110417547D01*
X89230237Y-110540758D01*
X89546017Y-110603570D01*
X89867983Y-110603570D01*
X90183763Y-110540758D01*
X90481222Y-110417547D01*
X90748927Y-110238672D01*
X90976592Y-110011007D01*
X91155467Y-109743302D01*
X91251505Y-109511446D01*
X133572510Y-108863773D01*
X133572510Y-109130063D01*
X133635322Y-109445843D01*
X133758533Y-109743302D01*
X133937408Y-110011007D01*
X134165073Y-110238672D01*
X134432778Y-110417547D01*
X134730237Y-110540758D01*
X135046017Y-110603570D01*
X135367983Y-110603570D01*
X135683763Y-110540758D01*
X135981222Y-110417547D01*
X136248927Y-110238672D01*
X136476592Y-110011007D01*
X136655467Y-109743302D01*
X136778678Y-109445843D01*
X136841490Y-109130063D01*
X136841490Y-108813745D01*
X137297001Y-108806774D01*
X137297001Y-111059080D01*
M02*
