<?xml version="1.0" encoding="UTF-8" standalone="no"?>
<svg
   xmlns:dc="http://purl.org/dc/elements/1.1/"
   xmlns:cc="http://creativecommons.org/ns#"
   xmlns:rdf="http://www.w3.org/1999/02/22-rdf-syntax-ns#"
   xmlns:svg="http://www.w3.org/2000/svg"
   xmlns="http://www.w3.org/2000/svg"
   xmlns:sodipodi="http://sodipodi.sourceforge.net/DTD/sodipodi-0.dtd"
   xmlns:inkscape="http://www.inkscape.org/namespaces/inkscape"
   version="1.1"
   width="5.1048789cm"
   height="3.2049606cm"
   viewBox="0 0 20097.963 12617.967"
   id="svg82"
   sodipodi:docname="layout.svg"
   inkscape:version="0.92.5 (2060ec1f9f, 2020-04-08)">
  <metadata
     id="metadata88">
    <rdf:RDF>
      <cc:Work
         rdf:about="">
        <dc:format>image/svg+xml</dc:format>
        <dc:type
           rdf:resource="http://purl.org/dc/dcmitype/StillImage" />
        <dc:title>SVG Picture created as LED_PANEL_26x45mm-F_Cu.svg date 2022/03/04 18:37:13 </dc:title>
      </cc:Work>
    </rdf:RDF>
  </metadata>
  <defs
     id="defs86" />
  <sodipodi:namedview
     pagecolor="#ffffff"
     bordercolor="#666666"
     borderopacity="1"
     objecttolerance="10"
     gridtolerance="10"
     guidetolerance="10"
     inkscape:pageopacity="0"
     inkscape:pageshadow="2"
     inkscape:window-width="1360"
     inkscape:window-height="618"
     id="namedview84"
     showgrid="false"
     fit-margin-top="0"
     fit-margin-left="0"
     fit-margin-right="0"
     fit-margin-bottom="0"
     inkscape:zoom="1.1893254"
     inkscape:cx="71.056097"
     inkscape:cy="31.927238"
     inkscape:window-x="0"
     inkscape:window-y="0"
     inkscape:window-maximized="1"
     inkscape:current-layer="svg82" />
  <title
     id="title2">SVG Picture created as LED_PANEL_26x45mm-F_Cu.svg date 2022/03/04 18:37:13 </title>
  <desc
     id="desc4">Picture generated by PCBNEW </desc>
  <g
     style="fill:#000000;fill-opacity:1;stroke:#000000;stroke-linecap:round;stroke-linejoin:round;stroke-opacity:1"
     id="g6"
     transform="translate(-19675.418,-13842.913)" />
  <g
     style="fill:#ffffff;fill-opacity:1;stroke:#ffffff;stroke-width:39.37009811;stroke-linecap:round;stroke-linejoin:round;stroke-opacity:1"
     id="g54"
     transform="translate(-19675.418,-13842.913)" />
  <g
     style="fill:#ffffff;fill-opacity:1;stroke:#ffffff;stroke-width:39.37009811;stroke-linecap:round;stroke-linejoin:round;stroke-opacity:1"
     id="g60"
     transform="translate(-19675.418,-13842.913)" />
  <g
     style="fill:#ffffff;fill-opacity:1;stroke:#ffffff;stroke-width:39.37009811;stroke-linecap:round;stroke-linejoin:round;stroke-opacity:1"
     id="g66"
     transform="translate(-19675.418,-13842.913)" />
  <g
     style="fill:#ffffff;fill-opacity:1;stroke:#ffffff;stroke-width:39.37009811;stroke-linecap:round;stroke-linejoin:round;stroke-opacity:1"
     id="g72"
     transform="translate(-19675.418,-13842.913)" />
  <g
     style="fill:#ffffff;fill-opacity:1;stroke:#ffffff;stroke-width:39.37009811;stroke-linecap:round;stroke-linejoin:round;stroke-opacity:1"
     id="g78"
     transform="translate(-19675.418,-13842.913)" />
  <g
     style="fill:#000000;fill-opacity:1;stroke:#000000;stroke-width:39.37009811;stroke-linecap:round;stroke-linejoin:round;stroke-opacity:1"
     id="g80"
     transform="translate(-19675.418,-13842.913)" />
  <g
     style="fill:#000000;fill-opacity:1;stroke:#000000;stroke-linecap:round;stroke-linejoin:round;stroke-opacity:1"
     id="g2080"
     transform="translate(-22491.297,533.35668)" />
  <g
     style="fill:#000000;fill-opacity:0;stroke:#000000;stroke-width:-0.0003937;stroke-linecap:round;stroke-linejoin:round;stroke-opacity:1"
     id="g2082"
     transform="translate(-22491.297,533.35668)" />
  <g
     id="g2481"
     transform="translate(-19675.418,-13842.913)">
    <g
       transform="translate(-8956.7012,-5216.5508)"
       id="g58"
       style="fill:#ffffff;fill-opacity:1;stroke:#ffffff;stroke-width:0;stroke-linecap:round;stroke-linejoin:round;stroke-opacity:1">
      <circle
         id="circle56"
         r="68.897598"
         cy="31200.801"
         cx="38681.102" />
    </g>
    <g
       transform="translate(8956.7011,-5216.5508)"
       id="g64"
       style="fill:#ffffff;fill-opacity:1;stroke:#ffffff;stroke-width:0;stroke-linecap:round;stroke-linejoin:round;stroke-opacity:1">
      <circle
         id="circle62"
         r="68.897598"
         cy="31200.801"
         cx="20767.699" />
    </g>
    <g
       transform="translate(-8956.7012,5216.5508)"
       id="g70"
       style="fill:#ffffff;fill-opacity:1;stroke:#ffffff;stroke-width:0;stroke-linecap:round;stroke-linejoin:round;stroke-opacity:1">
      <circle
         id="circle68"
         r="68.897598"
         cy="20767.699"
         cx="38681.102" />
    </g>
    <g
       transform="translate(8956.7011,5216.5508)"
       id="g76"
       style="fill:#ffffff;fill-opacity:1;stroke:#ffffff;stroke-width:0;stroke-linecap:round;stroke-linejoin:round;stroke-opacity:1">
      <circle
         id="circle74"
         r="68.897598"
         cy="20767.699"
         cx="20767.699" />
    </g>
    <g
       transform="translate(0.4003625,-5825.4548)"
       id="g1559">
      <g
         style="fill:#000000;fill-opacity:1;stroke:#000000;stroke-linecap:round;stroke-linejoin:round;stroke-opacity:1"
         id="g1254" />
      <g
         style="fill:#000000;fill-opacity:0;stroke:#000000;stroke-width:-0.0003937;stroke-linecap:round;stroke-linejoin:round;stroke-opacity:1"
         id="g1256" />
      <g
         style="fill:#000000;fill-opacity:0;stroke:#000000;stroke-width:59.05509949;stroke-linecap:round;stroke-linejoin:round;stroke-opacity:1"
         id="g1348">
        <text
           style="font-size:341.20700073px;text-anchor:middle;opacity:0"
           x="35786"
           y="32182"
           textLength="6921.6401"
           font-size="341.207"
           lengthAdjust="spacingAndGlyphs"
           id="text1258">LED METER PANEL CUT-OUT DRILLS</text>
        <path
           inkscape:connector-curvature="0"
           d="m 32507,32169 h -121 v -256"
           id="path1260" />
        <path
           inkscape:connector-curvature="0"
           d="m 32593,32035 h 85"
           id="path1262" />
        <path
           inkscape:connector-curvature="0"
           d="m 32715,32169 h -122 v -256 h 122"
           id="path1264" />
        <path
           inkscape:connector-curvature="0"
           d="m 32824,32169 v -256 h 61 l 37,13 24,24 12,24 13,49 v 37 l -13,48 -12,25 -24,24 -37,12 h -61"
           id="path1266" />
        <path
           inkscape:connector-curvature="0"
           d="m 33275,32169 v -256 l 85,183 86,-183 v 256"
           id="path1268" />
        <path
           inkscape:connector-curvature="0"
           d="m 33568,32035 h 85"
           id="path1270" />
        <path
           inkscape:connector-curvature="0"
           d="m 33690,32169 h -122 v -256 h 122"
           id="path1272" />
        <path
           inkscape:connector-curvature="0"
           d="m 33763,31913 h 146"
           id="path1274" />
        <path
           inkscape:connector-curvature="0"
           d="m 33836,32169 v -256"
           id="path1276" />
        <path
           inkscape:connector-curvature="0"
           d="m 33994,32035 h 85"
           id="path1278" />
        <path
           inkscape:connector-curvature="0"
           d="m 34116,32169 h -122 v -256 h 122"
           id="path1280" />
        <path
           inkscape:connector-curvature="0"
           d="m 34372,32169 -85,-122"
           id="path1282" />
        <path
           inkscape:connector-curvature="0"
           d="m 34226,32169 v -256 h 97 l 25,13 12,12 12,24 v 37 l -12,24 -12,12 -25,12 h -97"
           id="path1284" />
        <path
           inkscape:connector-curvature="0"
           d="m 34677,32169 v -256 h 97 l 24,13 13,12 12,24 v 37 l -12,24 -13,12 -24,12 h -97"
           id="path1286" />
        <path
           inkscape:connector-curvature="0"
           d="m 34920,32096 h 122"
           id="path1288" />
        <path
           inkscape:connector-curvature="0"
           d="m 34896,32169 85,-256 86,256"
           id="path1290" />
        <path
           inkscape:connector-curvature="0"
           d="m 35152,32169 v -256 l 146,256 v -256"
           id="path1292" />
        <path
           inkscape:connector-curvature="0"
           d="m 35420,32035 h 85"
           id="path1294" />
        <path
           inkscape:connector-curvature="0"
           d="m 35542,32169 h -122 v -256 h 122"
           id="path1296" />
        <path
           inkscape:connector-curvature="0"
           d="m 35773,32169 h -122 v -256"
           id="path1298" />
        <path
           inkscape:connector-curvature="0"
           d="m 36200,32145 -12,12 -37,12 h -24 l -37,-12 -24,-24 -12,-25 -13,-48 v -37 l 13,-49 12,-24 24,-24 37,-13 h 24 l 37,13 12,12"
           id="path1300" />
        <path
           inkscape:connector-curvature="0"
           d="m 36309,31913 v 208 l 13,24 12,12 24,12 h 49 l 24,-12 13,-12 12,-24 v -208"
           id="path1302" />
        <path
           inkscape:connector-curvature="0"
           d="m 36541,31913 h 146"
           id="path1304" />
        <path
           inkscape:connector-curvature="0"
           d="m 36614,32169 v -256"
           id="path1306" />
        <path
           inkscape:connector-curvature="0"
           d="m 36773,32072 h 195"
           id="path1308" />
        <path
           inkscape:connector-curvature="0"
           d="m 37138,31913 h 49 l 24,13 25,24 12,49 v 85 l -12,49 -25,24 -24,12 h -49 l -24,-12 -25,-24 -12,-49 v -85 l 12,-49 25,-24 24,-13"
           id="path1310" />
        <path
           inkscape:connector-curvature="0"
           d="m 37357,31913 v 208 l 13,24 12,12 24,12 h 49 l 24,-12 13,-12 12,-24 v -208"
           id="path1312" />
        <path
           inkscape:connector-curvature="0"
           d="m 37589,31913 h 146"
           id="path1314" />
        <path
           inkscape:connector-curvature="0"
           d="m 37662,32169 v -256"
           id="path1316" />
        <path
           inkscape:connector-curvature="0"
           d="m 38016,32169 v -256 h 60 l 37,13 24,24 13,24 12,49 v 37 l -12,48 -13,25 -24,24 -37,12 h -60"
           id="path1318" />
        <path
           inkscape:connector-curvature="0"
           d="m 38418,32169 -86,-122"
           id="path1320" />
        <path
           inkscape:connector-curvature="0"
           d="m 38271,32169 v -256 h 98 l 24,13 12,12 13,24 v 37 l -13,24 -12,12 -24,12 h -98"
           id="path1322" />
        <path
           inkscape:connector-curvature="0"
           d="m 38527,32169 v -256"
           id="path1324" />
        <path
           inkscape:connector-curvature="0"
           d="m 38771,32169 h -122 v -256"
           id="path1326" />
        <path
           inkscape:connector-curvature="0"
           d="m 38978,32169 h -122 v -256"
           id="path1328" />
        <path
           inkscape:connector-curvature="0"
           d="m 39051,32157 37,12 h 61 l 24,-12 12,-12 13,-24 v -25 l -13,-24 -12,-12 -24,-13 -49,-12 -24,-12 -12,-12 -13,-25 v -24 l 13,-24 12,-12 24,-13 h 61 l 37,13"
           id="path1330" />
        <text
           style="font-size:419.94699097px;text-anchor:middle;opacity:0"
           x="29490"
           y="31639.5"
           textLength="1516.59"
           font-size="419.947"
           lengthAdjust="spacingAndGlyphs"
           id="text1332">BEZEL</text>
        <path
           inkscape:connector-curvature="0"
           d="m 28950,31459 45,15 15,15 15,30 v 45 l -15,30 -15,15 -30,15 h -120 v -315 h 105 l 30,15 15,15 15,30 v 30 l -15,30 -15,15 -30,15 h -105"
           id="path1334" />
        <path
           inkscape:connector-curvature="0"
           d="m 29160,31459 h 105"
           id="path1336" />
        <path
           inkscape:connector-curvature="0"
           d="m 29310,31624 h -150 v -315 h 150"
           id="path1338" />
        <path
           inkscape:connector-curvature="0"
           d="m 29415,31309 h 210 l -210,315 h 210"
           id="path1340" />
        <path
           inkscape:connector-curvature="0"
           d="m 29745,31459 h 105"
           id="path1342" />
        <path
           inkscape:connector-curvature="0"
           d="m 29894,31624 h -149 v -315 h 149"
           id="path1344" />
        <path
           inkscape:connector-curvature="0"
           d="m 30179,31624 h -150 v -315"
           id="path1346" />
      </g>
      <g
         style="fill:#000000;fill-opacity:0;stroke:#000000;stroke-width:47.24409866;stroke-linecap:round;stroke-linejoin:round;stroke-opacity:1"
         id="g1354">
        <path
           inkscape:connector-curvature="0"
           d="M 39271,20177 V 31791"
           id="path1350" />
        <path
           inkscape:connector-curvature="0"
           d="M 20177,20177 V 31791"
           id="path1352" />
      </g>
      <g
         style="fill:#000000;fill-opacity:0;stroke:#000000;stroke-width:59.05509949;stroke-linecap:round;stroke-linejoin:round;stroke-opacity:1"
         id="g1376">
        <text
           style="font-size:524.934021px;text-anchor:middle;opacity:0"
           x="29542"
           y="26698.9"
           textLength="2795.1799"
           font-size="524.934"
           lengthAdjust="spacingAndGlyphs"
           id="text1356">CUT-OUT</text>
        <path
           inkscape:connector-curvature="0"
           d="m 28501,26642 -19,19 -56,19 h -37 l -57,-19 -37,-38 -19,-37 -19,-75 v -56 l 19,-75 19,-38 37,-37 57,-19 h 37 l 56,19 19,18"
           id="path1358" />
        <path
           inkscape:connector-curvature="0"
           d="m 28670,26286 v 319 l 19,37 18,19 38,19 h 75 l 37,-19 19,-19 19,-37 v -319"
           id="path1360" />
        <path
           inkscape:connector-curvature="0"
           d="m 29026,26286 h 225"
           id="path1362" />
        <path
           inkscape:connector-curvature="0"
           d="m 29138,26680 v -394"
           id="path1364" />
        <path
           inkscape:connector-curvature="0"
           d="m 29382,26530 h 300"
           id="path1366" />
        <path
           inkscape:connector-curvature="0"
           d="m 29945,26286 h 75 l 37,19 38,37 18,75 v 131 l -18,75 -38,38 -37,19 h -75 l -38,-19 -37,-38 -19,-75 v -131 l 19,-75 37,-37 38,-19"
           id="path1368" />
        <path
           inkscape:connector-curvature="0"
           d="m 30282,26286 v 319 l 19,37 19,19 37,19 h 75 l 38,-19 18,-19 19,-37 v -319"
           id="path1370" />
        <path
           inkscape:connector-curvature="0"
           d="m 30638,26286 h 225"
           id="path1372" />
        <path
           inkscape:connector-curvature="0"
           d="m 30751,26680 v -394"
           id="path1374" />
      </g>
      <g
         style="fill:#000000;fill-opacity:0;stroke:#000000;stroke-width:47.24409866;stroke-linecap:round;stroke-linejoin:round;stroke-opacity:1"
         id="g1382">
        <path
           inkscape:connector-curvature="0"
           d="M 20177,31791 H 39271"
           id="path1378" />
        <path
           inkscape:connector-curvature="0"
           d="M 20177,20177 H 39271"
           id="path1380" />
      </g>
      <g
         style="fill:#000000;fill-opacity:0;stroke:#000000;stroke-width:59.05509949;stroke-linecap:round;stroke-linejoin:round;stroke-opacity:1"
         id="g1430">
        <text
           style="font-size:524.934021px;text-anchor:middle;opacity:0"
           x="37212"
           y="26482.9"
           textLength="2438.98"
           font-size="524.934"
           lengthAdjust="spacingAndGlyphs"
           id="text1384">26.5mm</text>
        <path
           inkscape:connector-curvature="0"
           d="m 36105,26107 19,-18 38,-19 h 93 l 38,19 19,18 18,38 v 37 l -18,57 -225,225 h 243"
           id="path1386" />
        <path
           inkscape:connector-curvature="0"
           d="m 36668,26070 h -75 l -38,19 -18,18 -38,57 -19,75 v 150 l 19,37 19,19 37,19 h 75 l 38,-19 19,-19 18,-37 v -94 l -18,-38 -19,-18 -38,-19 h -75 l -37,19 -19,18 -19,38"
           id="path1388" />
        <path
           inkscape:connector-curvature="0"
           d="m 36874,26426 19,19 -19,19 -19,-19 19,-19 v 38"
           id="path1390" />
        <path
           inkscape:connector-curvature="0"
           d="m 37249,26070 h -187 l -19,187 19,-18 37,-19 h 94 l 37,19 19,18 19,38 v 94 l -19,37 -19,19 -37,19 h -94 l -37,-19 -19,-19"
           id="path1392" />
        <path
           inkscape:connector-curvature="0"
           d="m 37437,26464 v -263"
           id="path1394" />
        <path
           inkscape:connector-curvature="0"
           d="m 37437,26239 18,-19 38,-19 h 56 l 38,19 18,37 v 207"
           id="path1396" />
        <path
           inkscape:connector-curvature="0"
           d="m 37605,26257 19,-37 37,-19 h 57 l 37,19 19,37 v 207"
           id="path1398" />
        <path
           inkscape:connector-curvature="0"
           d="m 37961,26464 v -263"
           id="path1400" />
        <path
           inkscape:connector-curvature="0"
           d="m 37961,26239 19,-19 38,-19 h 56 l 37,19 19,37 v 207"
           id="path1402" />
        <path
           inkscape:connector-curvature="0"
           d="m 38130,26257 19,-37 37,-19 h 57 l 37,19 19,37 v 207"
           id="path1404" />
        <text
           style="font-size:524.934021px;text-anchor:middle;opacity:0"
           x="29512"
           y="21932.9"
           textLength="2438.98"
           font-size="524.934"
           lengthAdjust="spacingAndGlyphs"
           id="text1406">45.5mm</text>
        <path
           inkscape:connector-curvature="0"
           d="m 28593,21651 v 263"
           id="path1408" />
        <path
           inkscape:connector-curvature="0"
           d="m 28499,21501 -94,281 h 244"
           id="path1410" />
        <path
           inkscape:connector-curvature="0"
           d="m 28987,21520 h -188 l -19,187 19,-18 38,-19 h 93 l 38,19 19,18 18,38 v 94 l -18,37 -19,19 -38,19 h -93 l -38,-19 -19,-19"
           id="path1412" />
        <path
           inkscape:connector-curvature="0"
           d="m 29174,21876 19,19 -19,19 -19,-19 19,-19 v 38"
           id="path1414" />
        <path
           inkscape:connector-curvature="0"
           d="m 29549,21520 h -187 l -19,187 19,-18 37,-19 h 94 l 37,19 19,18 19,38 v 94 l -19,37 -19,19 -37,19 h -94 l -37,-19 -19,-19"
           id="path1416" />
        <path
           inkscape:connector-curvature="0"
           d="m 29737,21914 v -263"
           id="path1418" />
        <path
           inkscape:connector-curvature="0"
           d="m 29737,21689 18,-19 38,-19 h 56 l 38,19 18,37 v 207"
           id="path1420" />
        <path
           inkscape:connector-curvature="0"
           d="m 29905,21707 19,-37 37,-19 h 57 l 37,19 19,37 v 207"
           id="path1422" />
        <path
           inkscape:connector-curvature="0"
           d="m 30261,21914 v -263"
           id="path1424" />
        <path
           inkscape:connector-curvature="0"
           d="m 30261,21689 19,-19 38,-19 h 56 l 37,19 19,37 v 207"
           id="path1426" />
        <path
           inkscape:connector-curvature="0"
           d="m 30430,21707 19,-37 37,-19 h 57 l 37,19 19,37 v 207"
           id="path1428" />
      </g>
      <g
         style="fill:#000000;fill-opacity:0;stroke:#000000;stroke-width:47.24409866;stroke-linecap:round;stroke-linejoin:round;stroke-opacity:1"
         id="g1450">
        <path
           inkscape:connector-curvature="0"
           d="M 20767,20767 V 31200"
           id="path1432" />
        <path
           inkscape:connector-curvature="0"
           d="M 38681,20767 V 31200"
           id="path1434" />
        <path
           inkscape:connector-curvature="0"
           d="M 20767,31200 H 38681"
           id="path1436" />
        <path
           inkscape:connector-curvature="0"
           d="M 20767,20767 H 38681"
           id="path1438" />
        <g
           id="g1440" />
        <g
           id="g1442" />
        <g
           id="g1444" />
        <g
           id="g1446" />
        <g
           id="g1448" />
      </g>
    </g>
    <g
       transform="translate(2816.2794,-20208.374)"
       id="g2356">
      <g
         style="fill:#000000;fill-opacity:0;stroke:#000000;stroke-width:19.68499947;stroke-linecap:round;stroke-linejoin:round;stroke-opacity:1"
         id="g2092"
         transform="translate(-2815.879,14376.27)">
        <path
           inkscape:connector-curvature="0"
           d="M 19685,32283 H 39763"
           id="path2084" />
        <path
           inkscape:connector-curvature="0"
           d="M 19685,19685 H 39763"
           id="path2086" />
        <path
           inkscape:connector-curvature="0"
           d="M 39763,19685 V 32283"
           id="path2088" />
        <path
           inkscape:connector-curvature="0"
           d="M 19685,19685 V 32283"
           id="path2090" />
      </g>
      <g
         style="fill:#000000;fill-opacity:0;stroke:#000000;stroke-width:78.74019623;stroke-linecap:round;stroke-linejoin:round;stroke-opacity:1"
         id="g2110"
         transform="translate(-2815.879,14376.27)">
        <path
           inkscape:connector-curvature="0"
           d="m 20610,20610 315,315"
           id="path2094" />
        <path
           inkscape:connector-curvature="0"
           d="m 20925,20610 -315,315"
           id="path2096" />
        <path
           inkscape:connector-curvature="0"
           d="m 38523,31043 315,315"
           id="path2098" />
        <path
           inkscape:connector-curvature="0"
           d="m 38838,31043 -315,315"
           id="path2100" />
        <path
           inkscape:connector-curvature="0"
           d="m 20610,31043 315,315"
           id="path2102" />
        <path
           inkscape:connector-curvature="0"
           d="m 20925,31043 -315,315"
           id="path2104" />
        <path
           inkscape:connector-curvature="0"
           d="m 38523,20610 315,315"
           id="path2106" />
        <path
           inkscape:connector-curvature="0"
           d="m 38838,20610 -315,315"
           id="path2108" />
      </g>
    </g>
  </g>
</svg>
