M48
; DRILL file {KiCad 5.1.5+dfsg1-2build2} date jue 14 jul 2022 11:35:16
; FORMAT={-:-/ absolute / metric / decimal}
; #@! TF.CreationDate,2022-07-14T11:35:16-05:00
; #@! TF.GenerationSoftware,Kicad,Pcbnew,5.1.5+dfsg1-2build2
; #@! TF.FileFunction,NonPlated,1,2,NPTH
FMAT,2
METRIC
T1C1.000
%
G90
G05
T1
X113.737Y-105.0
X110.025Y-105.0
X111.262Y-109.1
X116.212Y-109.1
X107.55Y-107.74
X114.975Y-105.0
X113.737Y-109.1
X116.212Y-105.0
X117.45Y-107.74
X111.262Y-105.0
X112.5Y-105.0
X108.787Y-109.1
X110.025Y-109.1
X117.45Y-106.36
X114.975Y-109.1
X107.55Y-105.0
X108.787Y-105.0
X117.45Y-105.0
X117.45Y-109.1
X107.55Y-109.1
X112.5Y-109.1
X107.55Y-106.36
T0
M30
